<svg width="20" height="20" viewBox="0 0 20 20" fill="none" xmlns="http://www.w3.org/2000/svg">
<path d="M3.33333 17.5V13.9583L14.3125 3C14.4792 2.83333 14.6667 2.70833 14.875 2.625C15.0833 2.54167 15.2917 2.5 15.5 2.5C15.7222 2.5 15.9342 2.54167 16.1358 2.625C16.3375 2.70833 16.5144 2.83333 16.6667 3L17.8333 4.16667C18 4.31944 18.125 4.49667 18.2083 4.69833C18.2917 4.9 18.3333 5.11167 18.3333 5.33333C18.3333 5.54167 18.2917 5.75 18.2083 5.95833C18.125 6.16667 18 6.35417 17.8333 6.52083L6.875 17.5H3.33333ZM15.5417 6.47917L16.6667 5.35417L15.4792 4.16667L14.3542 5.29167L15.5417 6.47917ZM11.6667 17.5C12.6944 17.5 13.6458 17.2431 14.5208 16.7292C15.3958 16.2153 15.8333 15.5 15.8333 14.5833C15.8333 14.0833 15.7014 13.6528 15.4375 13.2917C15.1736 12.9306 14.8194 12.6181 14.375 12.3542L13.1458 13.5833C13.4653 13.7222 13.7153 13.875 13.8958 14.0417C14.0764 14.2083 14.1667 14.3889 14.1667 14.5833C14.1667 14.9028 13.9131 15.1911 13.4058 15.4483C12.8986 15.7056 12.3189 15.8339 11.6667 15.8333C11.4306 15.8333 11.2328 15.9133 11.0733 16.0733C10.9139 16.2333 10.8339 16.4311 10.8333 16.6667C10.8328 16.9022 10.9128 17.1003 11.0733 17.2608C11.2339 17.4214 11.4317 17.5011 11.6667 17.5ZM3.8125 11.125L5.0625 9.875C4.78472 9.76389 4.56583 9.64944 4.40583 9.53167C4.24583 9.41389 4.16611 9.29222 4.16667 9.16667C4.16667 9 4.29167 8.83333 4.54167 8.66667C4.79167 8.5 5.31944 8.24306 6.125 7.89583C7.34722 7.36806 8.15972 6.88889 8.5625 6.45833C8.96528 6.02778 9.16667 5.54167 9.16667 5C9.16667 4.23611 8.86111 3.62861 8.25 3.1775C7.63889 2.72639 6.83333 2.50056 5.83333 2.5C5.20833 2.5 4.64917 2.61111 4.15583 2.83333C3.6625 3.05556 3.28417 3.32639 3.02083 3.64583C2.86806 3.82639 2.80556 4.02778 2.83333 4.25C2.86111 4.47222 2.96528 4.65278 3.14583 4.79167C3.32639 4.94444 3.52778 5.00694 3.75 4.97917C3.97222 4.95139 4.15972 4.86111 4.3125 4.70833C4.50694 4.51389 4.72222 4.375 4.95833 4.29167C5.19444 4.20833 5.48611 4.16667 5.83333 4.16667C6.40278 4.16667 6.82306 4.25 7.09417 4.41667C7.36528 4.58333 7.50056 4.77778 7.5 5C7.5 5.19444 7.37861 5.37139 7.13583 5.53083C6.89306 5.69028 6.33389 5.97167 5.45833 6.375C4.34722 6.86111 3.57639 7.30222 3.14583 7.69833C2.71528 8.09444 2.5 8.58389 2.5 9.16667C2.5 9.61111 2.61806 9.98972 2.85417 10.3025C3.09028 10.6153 3.40972 10.8894 3.8125 11.125Z" fill="#838383"/>
</svg>
