<svg width="19" height="15" viewBox="0 0 19 15" fill="none" xmlns="http://www.w3.org/2000/svg">
<path d="M1.14282 2.8508C1.14282 2.35825 1.33848 1.88588 1.68677 1.5376C2.03505 1.18931 2.50742 0.993652 2.99996 0.993652H16C16.4925 0.993652 16.9649 1.18931 17.3132 1.5376C17.6614 1.88588 17.8571 2.35825 17.8571 2.8508V12.1365C17.8571 12.6291 17.6614 13.1014 17.3132 13.4497C16.9649 13.798 16.4925 13.9937 16 13.9937H2.99996C2.50742 13.9937 2.03505 13.798 1.68677 13.4497C1.33848 13.1014 1.14282 12.6291 1.14282 12.1365V2.8508Z" stroke="#4D4D4D" stroke-width="2" stroke-linecap="round" stroke-linejoin="round"/>
<path d="M1.14282 2.85083L9.49996 8.42226L17.8571 2.85083" stroke="#4D4D4D" stroke-width="2" stroke-linecap="round" stroke-linejoin="round"/>
</svg>
