<svg width="2687" height="2052" viewBox="0 0 2687 2052" fill="none" xmlns="http://www.w3.org/2000/svg">
<rect y="0.161499" width="2686.09" height="268.609" rx="134.304" fill="#074B88"/>
<path d="M31.6684 426.77H24.5771V380.677H56.5523V386.801H31.6684V400.662H51.7818V406.786H31.6684V426.77ZM76.421 393.119C77.5814 393.119 78.4839 393.184 79.4509 393.313V399.372C78.6773 399.243 78.0971 399.179 77.3235 399.179C71.586 399.179 67.4602 403.498 67.4602 409.751V426.77H61.1425V393.893H67.4602V400.146H67.5891C69.3297 396.02 71.9728 393.119 76.421 393.119ZM94.7344 427.673C88.1589 427.673 83.9686 423.87 83.9686 418.261C83.9686 410.912 89.5126 408.72 97.6998 407.173C102.857 406.206 106.016 405.561 106.016 402.338C106.016 399.953 104.598 397.954 99.7628 397.954C94.0253 397.954 92.2847 399.759 91.9624 404.143H85.5157C85.8381 397.825 89.9639 392.861 100.021 392.861C106.79 392.861 112.205 395.698 112.205 404.207V419.292C112.205 421.678 112.527 422.903 113.752 422.903C113.945 422.903 114.139 422.903 114.526 422.838V426.706C113.43 426.964 112.334 427.093 111.302 427.093C108.143 427.093 106.467 425.868 106.08 422.129H105.952C103.824 425.546 100.085 427.673 94.7344 427.673ZM96.1527 422.58C101.826 422.58 106.016 419.679 106.016 413.942V409.236C104.985 410.203 102.148 410.912 98.7958 411.621C92.9938 412.781 90.5441 414.393 90.5441 417.81C90.5441 420.904 92.2202 422.58 96.1527 422.58ZM136.073 427.673C126.081 427.673 121.117 422.516 120.924 415.811H127.306C127.564 419.615 129.885 422.58 136.009 422.58C141.553 422.58 143.036 420.13 143.036 417.745C143.036 413.619 138.652 413.168 134.397 412.266C128.66 410.912 122.084 409.236 122.084 402.402C122.084 396.729 126.661 392.926 134.591 392.926C143.616 392.926 147.935 397.761 148.386 403.434H142.004C141.553 400.92 140.199 398.019 134.72 398.019C130.465 398.019 128.66 399.695 128.66 402.144C128.66 405.561 132.334 405.883 136.976 406.915C143.036 408.333 149.611 410.074 149.611 417.423C149.611 423.805 144.712 427.673 136.073 427.673ZM187.987 409.622C187.987 410.525 187.987 411.492 187.922 412.008H162.652C162.78 417.487 166.004 422.58 172.515 422.58C178.317 422.58 180.573 418.841 181.153 416.649H187.6C185.859 422.967 181.024 427.737 172.386 427.737C161.942 427.737 156.14 420.324 156.14 410.267C156.14 399.953 162.329 392.861 172.386 392.861C182.378 392.861 187.987 399.437 187.987 409.622ZM162.652 407.044H181.411C181.411 401.887 177.801 398.019 172.193 398.019C166.906 398.019 163.038 401.629 162.652 407.044ZM211.825 393.119C212.985 393.119 213.888 393.184 214.855 393.313V399.372C214.081 399.243 213.501 399.179 212.728 399.179C206.99 399.179 202.864 403.498 202.864 409.751V426.77H196.547V393.893H202.864V400.146H202.993C204.734 396.02 207.377 393.119 211.825 393.119ZM245.552 426.77H238.461V380.677H245.552V399.953H268.18V380.677H275.336V426.77H268.18V406.077H245.552V426.77ZM316.025 409.622C316.025 410.525 316.025 411.492 315.961 412.008H290.69C290.819 417.487 294.042 422.58 300.553 422.58C306.355 422.58 308.611 418.841 309.192 416.649H315.638C313.898 422.967 309.063 427.737 300.424 427.737C289.981 427.737 284.179 420.324 284.179 410.267C284.179 399.953 290.368 392.861 300.424 392.861C310.417 392.861 316.025 399.437 316.025 409.622ZM290.69 407.044H309.45C309.45 401.887 305.839 398.019 300.231 398.019C294.945 398.019 291.077 401.629 290.69 407.044ZM333.675 427.673C327.099 427.673 322.909 423.87 322.909 418.261C322.909 410.912 328.453 408.72 336.64 407.173C341.797 406.206 344.956 405.561 344.956 402.338C344.956 399.953 343.538 397.954 338.703 397.954C332.966 397.954 331.225 399.759 330.903 404.143H324.456C324.778 397.825 328.904 392.861 338.961 392.861C345.73 392.861 351.145 395.698 351.145 404.207V419.292C351.145 421.678 351.467 422.903 352.692 422.903C352.886 422.903 353.079 422.903 353.466 422.838V426.706C352.37 426.964 351.274 427.093 350.242 427.093C347.084 427.093 345.408 425.868 345.021 422.129H344.892C342.764 425.546 339.025 427.673 333.675 427.673ZM335.093 422.58C340.766 422.58 344.956 419.679 344.956 413.942V409.236C343.925 410.203 341.088 410.912 337.736 411.621C331.934 412.781 329.484 414.393 329.484 417.81C329.484 420.904 331.16 422.58 335.093 422.58ZM368.374 426.77H362.056V380.677H368.374V426.77ZM390.808 421.936C391.904 421.936 392.42 421.871 393.516 421.678V426.77C391.904 427.093 390.873 427.157 389.519 427.157C384.104 427.157 380.816 425.094 380.816 417.487V399.114H376.046V393.893H380.816V383.32H387.134V393.893H393.451V399.114H387.134V417.681C387.134 421.162 388.101 421.936 390.808 421.936ZM419.209 392.926C425.268 392.926 430.168 396.407 430.168 403.949V426.77H423.85V405.69C423.85 401.306 421.916 398.341 417.146 398.341C411.731 398.341 408.249 401.629 408.249 406.593V426.77H401.932V380.677H408.249V398.019H408.378C410.119 395.504 413.536 392.926 419.209 392.926ZM45.1418 515.77H24.5771V469.677H43.9814C53.4579 469.677 59.002 473.932 59.002 481.281C59.002 486.954 55.6498 489.597 51.8463 490.887V491.015C56.6812 491.854 60.8071 495.399 60.8071 502.297C60.8071 511.129 54.6828 515.77 45.1418 515.77ZM31.6684 488.824H43.788C49.59 488.824 51.5884 486.438 51.5884 482.313C51.5884 478.251 49.1387 475.801 44.3037 475.801H31.6684V488.824ZM31.6684 509.646H44.6261C51.4595 509.646 53.3935 506.358 53.3935 502.039C53.3935 497.204 50.428 494.432 45.5931 494.432H31.6684V509.646ZM75.7073 515.77H69.3896V469.677H75.7073V515.77ZM107.683 503.071V482.893H114.001V515.77H107.683V511.645H107.554C105.814 514.159 102.397 516.673 96.7238 516.673C90.664 516.673 85.7645 513.192 85.7645 505.649V482.893H92.0822V503.909C92.0822 508.357 94.0162 511.322 98.7867 511.322C104.202 511.322 107.683 508.035 107.683 503.071ZM154.482 498.622C154.482 499.525 154.482 500.492 154.417 501.008H129.147C129.276 506.487 132.499 511.58 139.01 511.58C144.812 511.58 147.068 507.841 147.649 505.649H154.095C152.355 511.967 147.52 516.737 138.881 516.737C128.438 516.737 122.636 509.324 122.636 499.267C122.636 488.953 128.824 481.861 138.881 481.861C148.873 481.861 154.482 488.437 154.482 498.622ZM129.147 496.044H147.906C147.906 490.887 144.296 487.019 138.688 487.019C133.402 487.019 129.534 490.629 129.147 496.044Z" fill="#6F6F6F"/>
<path d="M903.431 423.77H897.521V385.359H903.431V401.422H922.287V385.359H928.25V423.77H922.287V406.526H903.431V423.77ZM965.42 423.77H937.699V385.359H964.883V390.463H943.609V401.368H962.25V406.472H943.609V418.667H965.42V423.77ZM975.742 423.77H968.812L981.812 404.162L969.725 385.359H976.279L985.197 399.864H985.251L994.222 385.359H1000.72L988.635 404.055L1001.37 423.77H994.491L985.089 408.46H985.036L975.742 423.77ZM923.361 488.695L922.502 493.1H917.291L915.679 500.997H921.427L920.675 505.348H914.82L912.725 515.77H908.373L910.468 505.348H904.344L902.249 515.77H897.897L899.992 505.348H895.104L895.91 500.997H900.852L902.464 493.1H896.984L897.844 488.695H903.323L905.365 478.649H909.716L907.675 488.695H913.799L915.787 478.649H920.192L918.15 488.695H923.361ZM905.203 500.997H911.328L912.886 493.1H906.815L905.203 500.997ZM943.676 516.523C933.308 516.523 928.903 507.873 928.903 497.236C928.903 486.6 933.308 477.897 943.676 477.897C954.045 477.897 958.396 486.6 958.396 497.236C958.396 507.873 954.045 516.523 943.676 516.523ZM943.676 511.526C950.338 511.526 952.325 504.865 952.325 497.236C952.325 489.608 950.338 482.893 943.676 482.893C936.961 482.893 934.973 489.608 934.973 497.236C934.973 504.865 936.961 511.526 943.676 511.526ZM979.657 516.523C969.289 516.523 964.884 507.873 964.884 497.236C964.884 486.6 969.289 477.897 979.657 477.897C990.026 477.897 994.377 486.6 994.377 497.236C994.377 507.873 990.026 516.523 979.657 516.523ZM979.657 511.526C986.319 511.526 988.306 504.865 988.306 497.236C988.306 489.608 986.319 482.893 979.657 482.893C972.942 482.893 970.954 489.608 970.954 497.236C970.954 504.865 972.942 511.526 979.657 511.526ZM1014.3 516.523C1005.43 516.523 1000.6 511.15 1000.38 504.919H1006.29C1006.67 508.303 1008.6 511.526 1013.97 511.526C1018.7 511.526 1021.82 508.625 1021.82 503.092C1021.82 497.881 1018.97 495.517 1014.35 495.517C1011.34 495.517 1008.6 496.538 1006.83 498.848H1000.86L1004.84 478.649H1025.95V483.645H1009.3L1007.26 493.906V494.013C1009.19 492.025 1011.93 490.79 1015.91 490.79C1022.94 490.79 1027.83 496.001 1027.83 503.092C1027.83 511.312 1021.92 516.523 1014.3 516.523ZM1059.53 515.77H1033.15C1033.15 508.787 1037.4 503.952 1044.49 499.546C1050.78 495.732 1053.94 494.174 1053.94 489.232C1053.94 486.17 1052.71 482.893 1047.66 482.893C1041.86 482.893 1040.03 486.653 1040.03 491.757H1034.12C1034.12 483.86 1038.42 477.897 1047.82 477.897C1054.54 477.897 1059.96 481.926 1059.96 489.017C1059.96 496.216 1054.11 499.923 1048.79 503.2C1045.13 505.348 1041.7 507.39 1040.62 510.667V510.774H1059.53V515.77ZM1079.43 516.523C1072.5 516.523 1067.93 511.903 1067.23 506.369H1073.25C1073.68 509.431 1075.51 511.688 1079.48 511.688C1086.36 511.688 1088.18 505.241 1088.18 498.848V498.311L1088.02 498.257C1086.09 501.373 1082.65 503.146 1078.46 503.146C1071.26 503.146 1066.27 498.096 1066.27 490.79C1066.27 483.591 1071.26 477.897 1079.53 477.897C1090.17 477.897 1093.99 485.794 1093.99 497.129C1093.99 509.324 1088.67 516.523 1079.43 516.523ZM1079.32 498.257C1084.37 498.257 1087.54 495.034 1087.54 490.36C1087.54 485.847 1084.75 482.732 1079.64 482.732C1074.81 482.732 1072.17 485.794 1072.17 490.468C1072.17 495.356 1075.02 498.257 1079.32 498.257ZM1114.91 516.523C1105.35 516.523 1099.98 511.58 1099.98 503.092H1105.89C1105.89 508.196 1108.04 511.526 1114.54 511.526C1120.39 511.526 1122.38 509.163 1122.38 505.187C1122.38 500.084 1118.73 498.848 1114.97 498.848H1111.48V494.067H1114.75C1118.46 494.067 1121.09 492.401 1121.09 488.372C1121.09 485.471 1119.32 482.893 1114.75 482.893C1108.47 482.893 1106.91 486.223 1106.91 489.823H1101C1101 482.946 1105.67 477.897 1114.81 477.897C1121.42 477.897 1127.11 481.55 1127.11 488.104C1127.11 492.079 1125.07 494.55 1121.52 496.055V496.162C1126.41 497.72 1128.4 500.943 1128.4 505.295C1128.4 512.493 1123.08 516.523 1114.91 516.523Z" fill="#6F6F6F"/>
<path d="M1470.92 423.77H1465.01V385.359H1481.02C1489.51 385.359 1494.08 389.335 1494.08 396.426C1494.08 401.315 1491.12 404.86 1486.88 405.827V405.935C1495.8 407.6 1492.52 422.75 1494.61 423.394V423.77H1488.28C1486.56 422.159 1490.21 408.728 1480.81 408.728H1470.92V423.77ZM1470.92 403.625H1479.73C1485.16 403.625 1488.11 401.261 1488.11 396.856C1488.11 392.719 1485.75 390.463 1479.84 390.463H1470.92V403.625ZM1517.57 424.523C1506.5 424.523 1500.27 416.142 1500.27 404.538C1500.27 392.988 1507.31 384.607 1518.27 384.607C1528.2 384.607 1533.47 389.926 1534.71 397.232H1528.53C1527.51 392.397 1523.91 389.711 1518.21 389.711C1509.72 389.711 1506.45 397.339 1506.45 404.538C1506.45 411.791 1508.92 419.419 1517.89 419.419C1524.23 419.419 1529.28 415.014 1529.33 408.621H1518V403.679H1535.35V423.77H1531.27L1529.82 418.452H1529.71C1527.02 422.374 1523.42 424.523 1517.57 424.523ZM1560.72 423.77H1543.59V385.359H1559.76C1567.65 385.359 1572.27 388.905 1572.27 395.029C1572.27 399.757 1569.48 401.959 1566.31 403.034V403.141C1570.34 403.84 1573.78 406.794 1573.78 412.543C1573.78 419.903 1568.67 423.77 1560.72 423.77ZM1549.5 401.315H1559.59C1564.43 401.315 1566.1 399.327 1566.1 395.889C1566.1 392.504 1564.05 390.463 1560.02 390.463H1549.5V401.315ZM1549.5 418.667H1560.29C1565.99 418.667 1567.6 415.927 1567.6 412.328C1567.6 408.299 1565.13 405.989 1561.1 405.989H1549.5V418.667ZM1478.28 516.523C1467.91 516.523 1463.51 507.873 1463.51 497.236C1463.51 486.6 1467.91 477.897 1478.28 477.897C1488.65 477.897 1493 486.6 1493 497.236C1493 507.873 1488.65 516.523 1478.28 516.523ZM1478.28 511.526C1484.94 511.526 1486.93 504.865 1486.93 497.236C1486.93 489.608 1484.94 482.893 1478.28 482.893C1471.57 482.893 1469.58 489.608 1469.58 497.236C1469.58 504.865 1471.57 511.526 1478.28 511.526ZM1498.18 523.077V520.176C1500.17 519.585 1501.03 518.564 1500.98 515.77H1498.18V509.915H1504.04V515.77C1504.04 519.262 1502.48 522.002 1498.18 523.077ZM1536.42 516.523C1528.36 516.523 1522.18 512.816 1522.18 505.295C1522.18 500.191 1525.57 497.613 1529.11 496.055V495.947C1526.48 494.55 1524.01 492.187 1524.01 487.996C1524.01 481.603 1529.22 477.897 1536.42 477.897C1543.67 477.897 1548.88 481.603 1548.88 487.996C1548.88 492.187 1546.36 494.55 1543.78 495.947V496.055C1547.27 497.613 1550.71 500.191 1550.71 505.295C1550.71 512.816 1544.53 516.523 1536.42 516.523ZM1536.42 493.745C1540.61 493.745 1543.08 491.972 1543.08 488.211C1543.08 484.504 1540.61 482.624 1536.42 482.624C1532.28 482.624 1529.81 484.504 1529.81 488.211C1529.81 491.972 1532.28 493.745 1536.42 493.745ZM1536.42 511.688C1541.58 511.688 1544.64 509.216 1544.64 504.972C1544.64 500.836 1541.58 498.365 1536.42 498.365C1531.26 498.365 1528.2 500.836 1528.2 504.972C1528.2 509.216 1531.26 511.688 1536.42 511.688ZM1582.54 515.77H1556.16C1556.16 508.787 1560.4 503.952 1567.49 499.546C1573.78 495.732 1576.95 494.174 1576.95 489.232C1576.95 486.17 1575.71 482.893 1570.66 482.893C1564.86 482.893 1563.03 486.653 1563.03 491.757H1557.13C1557.13 483.86 1561.42 477.897 1570.82 477.897C1577.54 477.897 1582.97 481.926 1582.97 489.017C1582.97 496.216 1577.11 499.923 1571.79 503.2C1568.14 505.348 1564.7 507.39 1563.63 510.667V510.774H1582.54V515.77ZM1589.65 523.077V520.176C1591.63 519.585 1592.49 518.564 1592.44 515.77H1589.65V509.915H1595.5V515.77C1595.5 519.262 1593.94 522.002 1589.65 523.077ZM1620.09 515.77V488.211C1618.48 489.715 1615.63 489.984 1612.3 489.984V485.256C1618.86 485.095 1620.79 483.108 1621.27 478.649H1625.89V515.77H1620.09ZM1656.67 515.77H1650.86V507.282H1633.19V501.91L1650.86 478.649H1656.67V502.286H1661.88V507.282H1656.67V515.77ZM1650.86 486.116L1638.56 502.286H1650.86V486.116ZM1676.56 515.77H1670.43C1670.43 503.468 1678.06 489.608 1684.67 483.752V483.645H1664.9V478.649H1691.01V483.108C1682.58 490.145 1676.56 503.898 1676.56 515.77Z" fill="#6F6F6F"/>
<path d="M2142.58 424.523C2131.68 424.523 2124.64 416.142 2124.64 404.592C2124.64 392.988 2131.73 384.607 2142.64 384.607C2152.25 384.607 2158.22 390.732 2159.13 398.414H2152.95C2152.25 394.653 2149.89 389.711 2142.53 389.711C2134.04 389.711 2130.82 396.91 2130.82 404.538C2130.82 412.22 2134.04 419.419 2142.53 419.419C2149.94 419.419 2152.57 414.477 2152.95 409.803H2159.13C2158.27 418.345 2152.25 424.523 2142.58 424.523ZM2172.13 423.77H2166.33V385.359H2174.12L2185.19 415.551H2185.29L2196.41 385.359H2204.2V423.77H2198.4V393.955H2198.29L2187.71 423.77H2182.82L2172.24 393.955H2172.13V423.77ZM2229.97 423.77H2224.01V408.406L2210.26 385.359H2216.65L2226.96 403.732H2227.07L2237.39 385.359H2243.73L2229.97 408.406V423.77ZM2281.75 423.77H2274.82L2261.82 405.29L2255.69 411.791V423.77H2249.78V385.359H2255.69V404.807L2273.9 385.359H2280.51L2265.47 401.368L2281.75 423.77ZM2131.19 515.77V488.211C2129.58 489.715 2126.73 489.984 2123.4 489.984V485.256C2129.96 485.095 2131.89 483.108 2132.38 478.649H2137V515.77H2131.19ZM2159.98 516.523C2149.61 516.523 2145.2 507.873 2145.2 497.236C2145.2 486.6 2149.61 477.897 2159.98 477.897C2170.35 477.897 2174.7 486.6 2174.7 497.236C2174.7 507.873 2170.35 516.523 2159.98 516.523ZM2159.98 511.526C2166.64 511.526 2168.63 504.865 2168.63 497.236C2168.63 489.608 2166.64 482.893 2159.98 482.893C2153.26 482.893 2151.28 489.608 2151.28 497.236C2151.28 504.865 2153.26 511.526 2159.98 511.526ZM2195.96 516.523C2185.59 516.523 2181.19 507.873 2181.19 497.236C2181.19 486.6 2185.59 477.897 2195.96 477.897C2206.33 477.897 2210.68 486.6 2210.68 497.236C2210.68 507.873 2206.33 516.523 2195.96 516.523ZM2195.96 511.526C2202.62 511.526 2204.61 504.865 2204.61 497.236C2204.61 489.608 2202.62 482.893 2195.96 482.893C2189.24 482.893 2187.26 489.608 2187.26 497.236C2187.26 504.865 2189.24 511.526 2195.96 511.526ZM2225.28 499.224C2219.15 499.224 2215.98 494.497 2215.98 488.534C2215.98 482.624 2219.05 477.897 2225.28 477.897C2231.35 477.897 2234.52 482.624 2234.52 488.534C2234.52 494.497 2231.46 499.224 2225.28 499.224ZM2229.31 515.77H2224.69L2245.32 478.649H2249.94L2229.31 515.77ZM2225.28 495.195C2228.23 495.195 2229.63 492.616 2229.63 488.534C2229.63 484.451 2228.23 481.872 2225.28 481.872C2222.27 481.872 2220.87 484.451 2220.87 488.534C2220.87 492.616 2222.27 495.195 2225.28 495.195ZM2249.4 516.523C2243.28 516.523 2240.16 511.795 2240.16 505.886C2240.16 499.923 2243.22 495.195 2249.4 495.195C2255.52 495.195 2258.64 499.923 2258.64 505.886C2258.64 511.795 2255.58 516.523 2249.4 516.523ZM2249.4 512.547C2252.35 512.547 2253.81 509.969 2253.81 505.886C2253.81 501.803 2252.35 499.224 2249.4 499.224C2246.45 499.224 2244.99 501.803 2244.99 505.886C2244.99 509.969 2246.45 512.547 2249.4 512.547ZM2299.63 515.77H2293.82V507.282H2276.15V501.91L2293.82 478.649H2299.63V502.286H2304.84V507.282H2299.63V515.77ZM2293.82 486.116L2281.52 502.286H2293.82V486.116ZM2325.14 516.523C2314.5 516.523 2310.68 508.625 2310.68 497.29C2310.68 485.095 2316 477.897 2325.19 477.897C2332.17 477.897 2336.74 482.517 2337.38 488.05H2331.42C2330.94 484.988 2329.16 482.732 2325.19 482.732C2318.26 482.732 2316.49 489.178 2316.49 495.571V496.108L2316.65 496.162C2318.58 493.046 2321.97 491.273 2326.21 491.273C2333.41 491.273 2338.4 496.323 2338.4 503.629C2338.4 510.828 2333.35 516.523 2325.14 516.523ZM2324.97 511.688C2329.86 511.688 2332.49 508.625 2332.49 503.952C2332.49 499.063 2329.65 496.162 2325.35 496.162C2320.25 496.162 2317.13 499.385 2317.13 504.059C2317.13 508.572 2319.92 511.688 2324.97 511.688ZM2352.78 499.224C2346.66 499.224 2343.49 494.497 2343.49 488.534C2343.49 482.624 2346.55 477.897 2352.78 477.897C2358.85 477.897 2362.02 482.624 2362.02 488.534C2362.02 494.497 2358.96 499.224 2352.78 499.224ZM2356.81 515.77H2352.19L2372.82 478.649H2377.44L2356.81 515.77ZM2352.78 495.195C2355.74 495.195 2357.13 492.616 2357.13 488.534C2357.13 484.451 2355.74 481.872 2352.78 481.872C2349.77 481.872 2348.38 484.451 2348.38 488.534C2348.38 492.616 2349.77 495.195 2352.78 495.195ZM2376.9 516.523C2370.78 516.523 2367.66 511.795 2367.66 505.886C2367.66 499.923 2370.73 495.195 2376.9 495.195C2383.03 495.195 2386.14 499.923 2386.14 505.886C2386.14 511.795 2383.08 516.523 2376.9 516.523ZM2376.9 512.547C2379.86 512.547 2381.31 509.969 2381.31 505.886C2381.31 501.803 2379.86 499.224 2376.9 499.224C2373.95 499.224 2372.5 501.803 2372.5 505.886C2372.5 509.969 2373.95 512.547 2376.9 512.547ZM2418 516.523C2409.13 516.523 2404.3 511.15 2404.08 504.919H2409.99C2410.37 508.303 2412.3 511.526 2417.67 511.526C2422.4 511.526 2425.52 508.625 2425.52 503.092C2425.52 497.881 2422.67 495.517 2418.05 495.517C2415.04 495.517 2412.3 496.538 2410.53 498.848H2404.57L2408.54 478.649H2429.65V483.645H2413L2410.96 493.906V494.013C2412.89 492.025 2415.63 490.79 2419.61 490.79C2426.65 490.79 2431.53 496.001 2431.53 503.092C2431.53 511.312 2425.62 516.523 2418 516.523ZM2445.77 499.224C2439.65 499.224 2436.48 494.497 2436.48 488.534C2436.48 482.624 2439.54 477.897 2445.77 477.897C2451.84 477.897 2455.01 482.624 2455.01 488.534C2455.01 494.497 2451.95 499.224 2445.77 499.224ZM2449.8 515.77H2445.18L2465.81 478.649H2470.43L2449.8 515.77ZM2445.77 495.195C2448.73 495.195 2450.12 492.616 2450.12 488.534C2450.12 484.451 2448.73 481.872 2445.77 481.872C2442.76 481.872 2441.37 484.451 2441.37 488.534C2441.37 492.616 2442.76 495.195 2445.77 495.195ZM2469.89 516.523C2463.77 516.523 2460.65 511.795 2460.65 505.886C2460.65 499.923 2463.72 495.195 2469.89 495.195C2476.02 495.195 2479.13 499.923 2479.13 505.886C2479.13 511.795 2476.07 516.523 2469.89 516.523ZM2469.89 512.547C2472.85 512.547 2474.3 509.969 2474.3 505.886C2474.3 501.803 2472.85 499.224 2469.89 499.224C2466.94 499.224 2465.49 501.803 2465.49 505.886C2465.49 509.969 2466.94 512.547 2469.89 512.547ZM2503.73 515.77V488.211C2502.12 489.715 2499.28 489.984 2495.95 489.984V485.256C2502.5 485.095 2504.43 483.108 2504.92 478.649H2509.54V515.77H2503.73ZM2531.71 516.523C2523.66 516.523 2517.48 512.816 2517.48 505.295C2517.48 500.191 2520.86 497.613 2524.41 496.055V495.947C2521.78 494.55 2519.3 492.187 2519.3 487.996C2519.3 481.603 2524.52 477.897 2531.71 477.897C2538.97 477.897 2544.18 481.603 2544.18 487.996C2544.18 492.187 2541.65 494.55 2539.07 495.947V496.055C2542.57 497.613 2546 500.191 2546 505.295C2546 512.816 2539.83 516.523 2531.71 516.523ZM2531.71 493.745C2535.9 493.745 2538.38 491.972 2538.38 488.211C2538.38 484.504 2535.9 482.624 2531.71 482.624C2527.58 482.624 2525.11 484.504 2525.11 488.211C2525.11 491.972 2527.58 493.745 2531.71 493.745ZM2531.71 511.688C2536.87 511.688 2539.93 509.216 2539.93 504.972C2539.93 500.836 2536.87 498.365 2531.71 498.365C2526.56 498.365 2523.49 500.836 2523.49 504.972C2523.49 509.216 2526.56 511.688 2531.71 511.688ZM2560.37 499.224C2554.25 499.224 2551.08 494.497 2551.08 488.534C2551.08 482.624 2554.14 477.897 2560.37 477.897C2566.44 477.897 2569.61 482.624 2569.61 488.534C2569.61 494.497 2566.55 499.224 2560.37 499.224ZM2564.4 515.77H2559.78L2580.41 478.649H2585.03L2564.4 515.77ZM2560.37 495.195C2563.33 495.195 2564.72 492.616 2564.72 488.534C2564.72 484.451 2563.33 481.872 2560.37 481.872C2557.36 481.872 2555.97 484.451 2555.97 488.534C2555.97 492.616 2557.36 495.195 2560.37 495.195ZM2584.49 516.523C2578.37 516.523 2575.25 511.795 2575.25 505.886C2575.25 499.923 2578.31 495.195 2584.49 495.195C2590.62 495.195 2593.73 499.923 2593.73 505.886C2593.73 511.795 2590.67 516.523 2584.49 516.523ZM2584.49 512.547C2587.45 512.547 2588.9 509.969 2588.9 505.886C2588.9 501.803 2587.45 499.224 2584.49 499.224C2581.54 499.224 2580.09 501.803 2580.09 505.886C2580.09 509.969 2581.54 512.547 2584.49 512.547Z" fill="#6F6F6F"/>
<rect y="764.564" width="2686.09" height="268.609" rx="134.304" fill="#FF5900"/>
<path d="M31.6684 1191.17H24.5771V1145.08H56.5523V1151.2H31.6684V1165.06H51.7818V1171.19H31.6684V1191.17ZM76.421 1157.52C77.5814 1157.52 78.4839 1157.59 79.4509 1157.71V1163.77C78.6773 1163.65 78.0971 1163.58 77.3235 1163.58C71.586 1163.58 67.4602 1167.9 67.4602 1174.15V1191.17H61.1425V1158.29H67.4602V1164.55H67.5891C69.3297 1160.42 71.9728 1157.52 76.421 1157.52ZM94.7344 1192.08C88.1589 1192.08 83.9686 1188.27 83.9686 1182.66C83.9686 1175.31 89.5126 1173.12 97.6998 1171.58C102.857 1170.61 106.016 1169.96 106.016 1166.74C106.016 1164.35 104.598 1162.36 99.7628 1162.36C94.0253 1162.36 92.2847 1164.16 91.9624 1168.55H85.5157C85.8381 1162.23 89.9639 1157.26 100.021 1157.26C106.79 1157.26 112.205 1160.1 112.205 1168.61V1183.69C112.205 1186.08 112.527 1187.3 113.752 1187.3C113.945 1187.3 114.139 1187.3 114.526 1187.24V1191.11C113.43 1191.37 112.334 1191.5 111.302 1191.5C108.143 1191.5 106.467 1190.27 106.08 1186.53H105.952C103.824 1189.95 100.085 1192.08 94.7344 1192.08ZM96.1527 1186.98C101.826 1186.98 106.016 1184.08 106.016 1178.34V1173.64C104.985 1174.6 102.148 1175.31 98.7958 1176.02C92.9938 1177.18 90.5441 1178.8 90.5441 1182.21C90.5441 1185.31 92.2202 1186.98 96.1527 1186.98ZM136.073 1192.08C126.081 1192.08 121.117 1186.92 120.924 1180.21H127.306C127.564 1184.02 129.885 1186.98 136.009 1186.98C141.553 1186.98 143.036 1184.53 143.036 1182.15C143.036 1178.02 138.652 1177.57 134.397 1176.67C128.66 1175.31 122.084 1173.64 122.084 1166.8C122.084 1161.13 126.661 1157.33 134.591 1157.33C143.616 1157.33 147.935 1162.16 148.386 1167.84H142.004C141.553 1165.32 140.199 1162.42 134.72 1162.42C130.465 1162.42 128.66 1164.1 128.66 1166.55C128.66 1169.96 132.334 1170.29 136.976 1171.32C143.036 1172.74 149.611 1174.48 149.611 1181.83C149.611 1188.21 144.712 1192.08 136.073 1192.08ZM187.987 1174.02C187.987 1174.93 187.987 1175.89 187.922 1176.41H162.652C162.78 1181.89 166.004 1186.98 172.515 1186.98C178.317 1186.98 180.573 1183.24 181.153 1181.05H187.6C185.859 1187.37 181.024 1192.14 172.386 1192.14C161.942 1192.14 156.14 1184.73 156.14 1174.67C156.14 1164.35 162.329 1157.26 172.386 1157.26C182.378 1157.26 187.987 1163.84 187.987 1174.02ZM162.652 1171.45H181.411C181.411 1166.29 177.801 1162.42 172.193 1162.42C166.906 1162.42 163.038 1166.03 162.652 1171.45ZM211.825 1157.52C212.985 1157.52 213.888 1157.59 214.855 1157.71V1163.77C214.081 1163.65 213.501 1163.58 212.728 1163.58C206.99 1163.58 202.864 1167.9 202.864 1174.15V1191.17H196.547V1158.29H202.864V1164.55H202.993C204.734 1160.42 207.377 1157.52 211.825 1157.52ZM245.552 1191.17H238.461V1145.08H245.552V1164.35H268.18V1145.08H275.336V1191.17H268.18V1170.48H245.552V1191.17ZM316.025 1174.02C316.025 1174.93 316.025 1175.89 315.961 1176.41H290.69C290.819 1181.89 294.042 1186.98 300.553 1186.98C306.355 1186.98 308.611 1183.24 309.192 1181.05H315.638C313.898 1187.37 309.063 1192.14 300.424 1192.14C289.981 1192.14 284.179 1184.73 284.179 1174.67C284.179 1164.35 290.368 1157.26 300.424 1157.26C310.417 1157.26 316.025 1163.84 316.025 1174.02ZM290.69 1171.45H309.45C309.45 1166.29 305.839 1162.42 300.231 1162.42C294.945 1162.42 291.077 1166.03 290.69 1171.45ZM333.675 1192.08C327.099 1192.08 322.909 1188.27 322.909 1182.66C322.909 1175.31 328.453 1173.12 336.64 1171.58C341.797 1170.61 344.956 1169.96 344.956 1166.74C344.956 1164.35 343.538 1162.36 338.703 1162.36C332.966 1162.36 331.225 1164.16 330.903 1168.55H324.456C324.778 1162.23 328.904 1157.26 338.961 1157.26C345.73 1157.26 351.145 1160.1 351.145 1168.61V1183.69C351.145 1186.08 351.467 1187.3 352.692 1187.3C352.886 1187.3 353.079 1187.3 353.466 1187.24V1191.11C352.37 1191.37 351.274 1191.5 350.242 1191.5C347.084 1191.5 345.408 1190.27 345.021 1186.53H344.892C342.764 1189.95 339.025 1192.08 333.675 1192.08ZM335.093 1186.98C340.766 1186.98 344.956 1184.08 344.956 1178.34V1173.64C343.925 1174.6 341.088 1175.31 337.736 1176.02C331.934 1177.18 329.484 1178.8 329.484 1182.21C329.484 1185.31 331.16 1186.98 335.093 1186.98ZM368.374 1191.17H362.056V1145.08H368.374V1191.17ZM390.808 1186.34C391.904 1186.34 392.42 1186.27 393.516 1186.08V1191.17C391.904 1191.5 390.873 1191.56 389.519 1191.56C384.104 1191.56 380.816 1189.5 380.816 1181.89V1163.52H376.046V1158.29H380.816V1147.72H387.134V1158.29H393.451V1163.52H387.134V1182.08C387.134 1185.56 388.101 1186.34 390.808 1186.34ZM419.209 1157.33C425.268 1157.33 430.168 1160.81 430.168 1168.35V1191.17H423.85V1170.09C423.85 1165.71 421.916 1162.74 417.146 1162.74C411.731 1162.74 408.249 1166.03 408.249 1170.99V1191.17H401.932V1145.08H408.249V1162.42H408.378C410.119 1159.91 413.536 1157.33 419.209 1157.33ZM44.9484 1281.08C31.1526 1281.08 22.3208 1270.95 22.3208 1257.09C22.3208 1243.23 31.1526 1233.18 44.9484 1233.18C58.7442 1233.18 67.576 1243.23 67.576 1257.09C67.576 1270.95 58.7442 1281.08 44.9484 1281.08ZM44.9484 1274.95C55.8432 1274.95 60.1624 1266.57 60.1624 1257.09C60.1624 1247.62 55.8432 1239.3 44.9484 1239.3C34.0536 1239.3 29.7344 1247.62 29.7344 1257.09C29.7344 1266.57 34.0536 1274.95 44.9484 1274.95ZM91.5302 1246.52C92.6906 1246.52 93.5932 1246.59 94.5601 1246.71V1252.77C93.7866 1252.65 93.2064 1252.58 92.4328 1252.58C86.6953 1252.58 82.5694 1256.9 82.5694 1263.15V1280.17H76.2518V1247.29H82.5694V1253.55H82.6984C84.439 1249.42 87.0821 1246.52 91.5302 1246.52ZM109.844 1281.08C103.268 1281.08 99.0778 1277.27 99.0778 1271.66C99.0778 1264.31 104.622 1262.12 112.809 1260.58C117.966 1259.61 121.125 1258.96 121.125 1255.74C121.125 1253.35 119.707 1251.36 114.872 1251.36C109.135 1251.36 107.394 1253.16 107.072 1257.55H100.625C100.947 1251.23 105.073 1246.26 115.13 1246.26C121.899 1246.26 127.314 1249.1 127.314 1257.61V1272.69C127.314 1275.08 127.636 1276.3 128.861 1276.3C129.055 1276.3 129.248 1276.3 129.635 1276.24V1280.11C128.539 1280.37 127.443 1280.5 126.411 1280.5C123.253 1280.5 121.577 1279.27 121.19 1275.53H121.061C118.933 1278.95 115.194 1281.08 109.844 1281.08ZM111.262 1275.98C116.935 1275.98 121.125 1273.08 121.125 1267.34V1262.64C120.094 1263.6 117.257 1264.31 113.905 1265.02C108.103 1266.18 105.653 1267.8 105.653 1271.21C105.653 1274.31 107.329 1275.98 111.262 1275.98ZM155.502 1246.33C161.562 1246.33 166.461 1249.81 166.461 1257.35V1280.17H160.143V1259.09C160.143 1254.71 158.209 1251.74 153.439 1251.74C148.024 1251.74 144.543 1255.03 144.543 1259.99V1280.17H138.225V1247.29H144.543V1251.42H144.671C146.412 1248.91 149.829 1246.33 155.502 1246.33ZM199.722 1251.16V1247.29H206.04V1277.59C206.04 1287.52 200.044 1291.97 190.632 1291.97C181.22 1291.97 176.514 1287.46 175.87 1281.53H182.445C183.09 1284.49 185.282 1286.81 190.632 1286.81C196.628 1286.81 199.722 1284.17 199.722 1277.98V1273.53H199.593C197.788 1276.18 194.758 1278.5 189.472 1278.5C181.285 1278.5 174.967 1272.95 174.967 1262.44C174.967 1251.87 181.285 1246.33 189.472 1246.33C194.758 1246.33 197.788 1248.84 199.593 1251.16H199.722ZM190.632 1273.27C196.305 1273.27 199.658 1269.6 199.658 1262.44C199.658 1255.22 196.305 1251.61 190.632 1251.61C184.444 1251.61 181.543 1256.26 181.543 1262.44C181.543 1268.63 184.444 1273.27 190.632 1273.27ZM246.485 1263.02C246.485 1263.93 246.485 1264.89 246.42 1265.41H221.15C221.278 1270.89 224.502 1275.98 231.013 1275.98C236.815 1275.98 239.071 1272.24 239.651 1270.05H246.098C244.357 1276.37 239.522 1281.14 230.884 1281.14C220.44 1281.14 214.638 1273.73 214.638 1263.67C214.638 1253.35 220.827 1246.26 230.884 1246.26C240.876 1246.26 246.485 1252.84 246.485 1263.02ZM221.15 1260.45H239.909C239.909 1255.29 236.299 1251.42 230.691 1251.42C225.404 1251.42 221.536 1255.03 221.15 1260.45Z" fill="#6F6F6F"/>
<path d="M903.431 1188.17H897.521V1149.76H903.431V1165.82H922.287V1149.76H928.25V1188.17H922.287V1170.93H903.431V1188.17ZM965.42 1188.17H937.699V1149.76H964.883V1154.87H943.609V1165.77H962.25V1170.87H943.609V1183.07H965.42V1188.17ZM975.742 1188.17H968.812L981.812 1168.56L969.725 1149.76H976.279L985.197 1164.27H985.251L994.222 1149.76H1000.72L988.635 1168.46L1001.37 1188.17H994.491L985.089 1172.86H985.036L975.742 1188.17ZM923.361 1253.1L922.502 1257.5H917.291L915.679 1265.4H921.427L920.675 1269.75H914.82L912.725 1280.17H908.373L910.468 1269.75H904.344L902.249 1280.17H897.897L899.992 1269.75H895.104L895.91 1265.4H900.852L902.464 1257.5H896.984L897.844 1253.1H903.323L905.365 1243.05H909.716L907.675 1253.1H913.799L915.787 1243.05H920.192L918.15 1253.1H923.361ZM905.203 1265.4H911.328L912.886 1257.5H906.815L905.203 1265.4ZM958.127 1280.17H930.407V1241.76H957.59V1246.87H936.316V1257.77H954.958V1262.87H936.316V1275.07H958.127V1280.17ZM978.388 1280.92C968.826 1280.92 963.453 1275.98 963.453 1267.49H969.363C969.363 1272.6 971.512 1275.93 978.012 1275.93C983.868 1275.93 985.855 1273.56 985.855 1269.59C985.855 1264.49 982.202 1263.25 978.442 1263.25H974.95V1258.47H978.227C981.934 1258.47 984.566 1256.8 984.566 1252.77C984.566 1249.87 982.793 1247.29 978.227 1247.29C971.941 1247.29 970.384 1250.63 970.384 1254.23H964.474C964.474 1247.35 969.148 1242.3 978.281 1242.3C984.888 1242.3 990.583 1245.95 990.583 1252.51C990.583 1256.48 988.542 1258.95 984.996 1260.46V1260.56C989.885 1262.12 991.872 1265.35 991.872 1269.7C991.872 1276.9 986.554 1280.92 978.388 1280.92ZM1011.67 1280.92C1002.81 1280.92 997.973 1275.55 997.758 1269.32H1003.67C1004.04 1272.71 1005.98 1275.93 1011.35 1275.93C1016.08 1275.93 1019.19 1273.03 1019.19 1267.49C1019.19 1262.28 1016.35 1259.92 1011.73 1259.92C1008.72 1259.92 1005.98 1260.94 1004.2 1263.25H998.242L1002.22 1243.05H1023.33V1248.05H1006.68L1004.63 1258.31V1258.42C1006.57 1256.43 1009.31 1255.19 1013.28 1255.19C1020.32 1255.19 1025.21 1260.4 1025.21 1267.49C1025.21 1275.71 1019.3 1280.92 1011.67 1280.92ZM1056.91 1280.17H1030.53C1030.53 1273.19 1034.78 1268.35 1041.87 1263.95C1048.15 1260.13 1051.32 1258.58 1051.32 1253.63C1051.32 1250.57 1050.09 1247.29 1045.04 1247.29C1039.23 1247.29 1037.41 1251.06 1037.41 1256.16H1031.5C1031.5 1248.26 1035.8 1242.3 1045.2 1242.3C1051.91 1242.3 1057.34 1246.33 1057.34 1253.42C1057.34 1260.62 1051.48 1264.32 1046.16 1267.6C1042.51 1269.75 1039.07 1271.79 1038 1275.07V1275.18H1056.91V1280.17ZM1078.58 1280.92C1068.21 1280.92 1063.8 1272.28 1063.8 1261.64C1063.8 1251 1068.21 1242.3 1078.58 1242.3C1088.95 1242.3 1093.3 1251 1093.3 1261.64C1093.3 1272.28 1088.95 1280.92 1078.58 1280.92ZM1078.58 1275.93C1085.24 1275.93 1087.23 1269.27 1087.23 1261.64C1087.23 1254.01 1085.24 1247.29 1078.58 1247.29C1071.86 1247.29 1069.87 1254.01 1069.87 1261.64C1069.87 1269.27 1071.86 1275.93 1078.58 1275.93ZM1113.21 1280.92C1104.35 1280.92 1099.52 1275.55 1099.3 1269.32H1105.21C1105.59 1272.71 1107.52 1275.93 1112.89 1275.93C1117.62 1275.93 1120.74 1273.03 1120.74 1267.49C1120.74 1262.28 1117.89 1259.92 1113.27 1259.92C1110.26 1259.92 1107.52 1260.94 1105.75 1263.25H1099.78L1103.76 1243.05H1124.87V1248.05H1108.22L1106.18 1258.31V1258.42C1108.11 1256.43 1110.85 1255.19 1114.83 1255.19C1121.86 1255.19 1126.75 1260.4 1126.75 1267.49C1126.75 1275.71 1120.84 1280.92 1113.21 1280.92Z" fill="#6F6F6F"/>
<path d="M1470.92 1188.17H1465.01V1149.76H1481.02C1489.51 1149.76 1494.08 1153.74 1494.08 1160.83C1494.08 1165.72 1491.12 1169.26 1486.88 1170.23V1170.34C1495.8 1172 1492.52 1187.15 1494.61 1187.8V1188.17H1488.28C1486.56 1186.56 1490.21 1173.13 1480.81 1173.13H1470.92V1188.17ZM1470.92 1168.03H1479.73C1485.16 1168.03 1488.11 1165.66 1488.11 1161.26C1488.11 1157.12 1485.75 1154.87 1479.84 1154.87H1470.92V1168.03ZM1517.57 1188.92C1506.5 1188.92 1500.27 1180.54 1500.27 1168.94C1500.27 1157.39 1507.31 1149.01 1518.27 1149.01C1528.2 1149.01 1533.47 1154.33 1534.71 1161.63H1528.53C1527.51 1156.8 1523.91 1154.11 1518.21 1154.11C1509.72 1154.11 1506.45 1161.74 1506.45 1168.94C1506.45 1176.19 1508.92 1183.82 1517.89 1183.82C1524.23 1183.82 1529.28 1179.42 1529.33 1173.02H1518V1168.08H1535.35V1188.17H1531.27L1529.82 1182.85H1529.71C1527.02 1186.78 1523.42 1188.92 1517.57 1188.92ZM1560.72 1188.17H1543.59V1149.76H1559.76C1567.65 1149.76 1572.27 1153.31 1572.27 1159.43C1572.27 1164.16 1569.48 1166.36 1566.31 1167.44V1167.54C1570.34 1168.24 1573.78 1171.2 1573.78 1176.94C1573.78 1184.3 1568.67 1188.17 1560.72 1188.17ZM1549.5 1165.72H1559.59C1564.43 1165.72 1566.1 1163.73 1566.1 1160.29C1566.1 1156.91 1564.05 1154.87 1560.02 1154.87H1549.5V1165.72ZM1549.5 1183.07H1560.29C1565.99 1183.07 1567.6 1180.33 1567.6 1176.73C1567.6 1172.7 1565.13 1170.39 1561.1 1170.39H1549.5V1183.07ZM1489.08 1280.17H1462.7C1462.7 1273.19 1466.95 1268.35 1474.04 1263.95C1480.32 1260.13 1483.49 1258.58 1483.49 1253.63C1483.49 1250.57 1482.26 1247.29 1477.21 1247.29C1471.41 1247.29 1469.58 1251.06 1469.58 1256.16H1463.67C1463.67 1248.26 1467.97 1242.3 1477.37 1242.3C1484.08 1242.3 1489.51 1246.33 1489.51 1253.42C1489.51 1260.62 1483.65 1264.32 1478.34 1267.6C1474.68 1269.75 1471.25 1271.79 1470.17 1275.07V1275.18H1489.08V1280.17ZM1521.55 1280.17H1495.17C1495.17 1273.19 1499.41 1268.35 1506.5 1263.95C1512.79 1260.13 1515.96 1258.58 1515.96 1253.63C1515.96 1250.57 1514.72 1247.29 1509.67 1247.29C1503.87 1247.29 1502.05 1251.06 1502.05 1256.16H1496.14C1496.14 1248.26 1500.43 1242.3 1509.84 1242.3C1516.55 1242.3 1521.98 1246.33 1521.98 1253.42C1521.98 1260.62 1516.12 1264.32 1510.8 1267.6C1507.15 1269.75 1503.71 1271.79 1502.64 1275.07V1275.18H1521.55V1280.17ZM1538.33 1280.17H1532.2C1532.2 1267.87 1539.83 1254.01 1546.44 1248.15V1248.05H1526.67V1243.05H1552.78V1247.51C1544.34 1254.55 1538.33 1268.3 1538.33 1280.17ZM1553.36 1287.48V1284.58C1555.35 1283.99 1556.2 1282.97 1556.15 1280.17H1553.36V1274.32H1559.21V1280.17C1559.21 1283.66 1557.66 1286.4 1553.36 1287.48ZM1591.59 1280.92C1583.54 1280.92 1577.36 1277.22 1577.36 1269.7C1577.36 1264.59 1580.74 1262.01 1584.29 1260.46V1260.35C1581.66 1258.95 1579.18 1256.59 1579.18 1252.4C1579.18 1246.01 1584.4 1242.3 1591.59 1242.3C1598.85 1242.3 1604.06 1246.01 1604.06 1252.4C1604.06 1256.59 1601.53 1258.95 1598.95 1260.35V1260.46C1602.45 1262.01 1605.88 1264.59 1605.88 1269.7C1605.88 1277.22 1599.71 1280.92 1591.59 1280.92ZM1591.59 1258.15C1595.78 1258.15 1598.26 1256.37 1598.26 1252.61C1598.26 1248.91 1595.78 1247.03 1591.59 1247.03C1587.46 1247.03 1584.99 1248.91 1584.99 1252.61C1584.99 1256.37 1587.46 1258.15 1591.59 1258.15ZM1591.59 1276.09C1596.75 1276.09 1599.81 1273.62 1599.81 1269.37C1599.81 1265.24 1596.75 1262.77 1591.59 1262.77C1586.44 1262.77 1583.37 1265.24 1583.37 1269.37C1583.37 1273.62 1586.44 1276.09 1591.59 1276.09ZM1637.71 1280.17H1611.33C1611.33 1273.19 1615.58 1268.35 1622.67 1263.95C1628.95 1260.13 1632.12 1258.58 1632.12 1253.63C1632.12 1250.57 1630.89 1247.29 1625.84 1247.29C1620.04 1247.29 1618.21 1251.06 1618.21 1256.16H1612.3C1612.3 1248.26 1616.6 1242.3 1626 1242.3C1632.71 1242.3 1638.14 1246.33 1638.14 1253.42C1638.14 1260.62 1632.28 1264.32 1626.97 1267.6C1623.31 1269.75 1619.87 1271.79 1618.8 1275.07V1275.18H1637.71V1280.17ZM1644.82 1287.48V1284.58C1646.81 1283.99 1647.67 1282.97 1647.61 1280.17H1644.82V1274.32H1650.67V1280.17C1650.67 1283.66 1649.12 1286.4 1644.82 1287.48ZM1682.52 1280.92C1673.65 1280.92 1668.82 1275.55 1668.6 1269.32H1674.51C1674.89 1272.71 1676.82 1275.93 1682.2 1275.93C1686.92 1275.93 1690.04 1273.03 1690.04 1267.49C1690.04 1262.28 1687.19 1259.92 1682.57 1259.92C1679.56 1259.92 1676.82 1260.94 1675.05 1263.25H1669.09L1673.06 1243.05H1694.18V1248.05H1677.52L1675.48 1258.31V1258.42C1677.41 1256.43 1680.15 1255.19 1684.13 1255.19C1691.17 1255.19 1696.06 1260.4 1696.06 1267.49C1696.06 1275.71 1690.15 1280.92 1682.52 1280.92Z" fill="#6F6F6F"/>
<path d="M2142.58 1188.92C2131.68 1188.92 2124.64 1180.54 2124.64 1168.99C2124.64 1157.39 2131.73 1149.01 2142.64 1149.01C2152.25 1149.01 2158.22 1155.13 2159.13 1162.82H2152.95C2152.25 1159.06 2149.89 1154.11 2142.53 1154.11C2134.04 1154.11 2130.82 1161.31 2130.82 1168.94C2130.82 1176.62 2134.04 1183.82 2142.53 1183.82C2149.94 1183.82 2152.57 1178.88 2152.95 1174.21H2159.13C2158.27 1182.75 2152.25 1188.92 2142.58 1188.92ZM2172.13 1188.17H2166.33V1149.76H2174.12L2185.19 1179.95H2185.29L2196.41 1149.76H2204.2V1188.17H2198.4V1158.36H2198.29L2187.71 1188.17H2182.82L2172.24 1158.36H2172.13V1188.17ZM2229.97 1188.17H2224.01V1172.81L2210.26 1149.76H2216.65L2226.96 1168.13H2227.07L2237.39 1149.76H2243.73L2229.97 1172.81V1188.17ZM2281.75 1188.17H2274.82L2261.82 1169.69L2255.69 1176.19V1188.17H2249.78V1149.76H2255.69V1169.21L2273.9 1149.76H2280.51L2265.47 1165.77L2281.75 1188.17ZM2139.79 1280.92C2129.42 1280.92 2125.02 1272.28 2125.02 1261.64C2125.02 1251 2129.42 1242.3 2139.79 1242.3C2150.16 1242.3 2154.51 1251 2154.51 1261.64C2154.51 1272.28 2150.16 1280.92 2139.79 1280.92ZM2139.79 1275.93C2146.45 1275.93 2148.44 1269.27 2148.44 1261.64C2148.44 1254.01 2146.45 1247.29 2139.79 1247.29C2133.07 1247.29 2131.09 1254.01 2131.09 1261.64C2131.09 1269.27 2133.07 1275.93 2139.79 1275.93ZM2169.11 1263.63C2162.98 1263.63 2159.81 1258.9 2159.81 1252.94C2159.81 1247.03 2162.88 1242.3 2169.11 1242.3C2175.18 1242.3 2178.35 1247.03 2178.35 1252.94C2178.35 1258.9 2175.29 1263.63 2169.11 1263.63ZM2173.14 1280.17H2168.52L2189.15 1243.05H2193.77L2173.14 1280.17ZM2169.11 1259.6C2172.06 1259.6 2173.46 1257.02 2173.46 1252.94C2173.46 1248.85 2172.06 1246.27 2169.11 1246.27C2166.1 1246.27 2164.7 1248.85 2164.7 1252.94C2164.7 1257.02 2166.1 1259.6 2169.11 1259.6ZM2193.23 1280.92C2187.1 1280.92 2183.99 1276.2 2183.99 1270.29C2183.99 1264.32 2187.05 1259.6 2193.23 1259.6C2199.35 1259.6 2202.47 1264.32 2202.47 1270.29C2202.47 1276.2 2199.41 1280.92 2193.23 1280.92ZM2193.23 1276.95C2196.18 1276.95 2197.63 1274.37 2197.63 1270.29C2197.63 1266.21 2196.18 1263.63 2193.23 1263.63C2190.27 1263.63 2188.82 1266.21 2188.82 1270.29C2188.82 1274.37 2190.27 1276.95 2193.23 1276.95ZM2230.78 1280.17H2224.65C2224.65 1267.87 2232.28 1254.01 2238.89 1248.15V1248.05H2219.12V1243.05H2245.23V1247.51C2236.79 1254.55 2230.78 1268.3 2230.78 1280.17ZM2264.14 1280.92C2253.5 1280.92 2249.69 1273.03 2249.69 1261.69C2249.69 1249.5 2255.01 1242.3 2264.19 1242.3C2271.18 1242.3 2275.74 1246.92 2276.39 1252.45H2270.42C2269.94 1249.39 2268.17 1247.13 2264.19 1247.13C2257.26 1247.13 2255.49 1253.58 2255.49 1259.97V1260.51L2255.65 1260.56C2257.58 1257.45 2260.97 1255.68 2265.21 1255.68C2272.41 1255.68 2277.41 1260.73 2277.41 1268.03C2277.41 1275.23 2272.36 1280.92 2264.14 1280.92ZM2263.98 1276.09C2268.87 1276.09 2271.5 1273.03 2271.5 1268.35C2271.5 1263.47 2268.65 1260.56 2264.35 1260.56C2259.25 1260.56 2256.13 1263.79 2256.13 1268.46C2256.13 1272.97 2258.93 1276.09 2263.98 1276.09ZM2291.78 1263.63C2285.66 1263.63 2282.49 1258.9 2282.49 1252.94C2282.49 1247.03 2285.55 1242.3 2291.78 1242.3C2297.86 1242.3 2301.02 1247.03 2301.02 1252.94C2301.02 1258.9 2297.96 1263.63 2291.78 1263.63ZM2295.81 1280.17H2291.19L2311.82 1243.05H2316.44L2295.81 1280.17ZM2291.78 1259.6C2294.74 1259.6 2296.14 1257.02 2296.14 1252.94C2296.14 1248.85 2294.74 1246.27 2291.78 1246.27C2288.78 1246.27 2287.38 1248.85 2287.38 1252.94C2287.38 1257.02 2288.78 1259.6 2291.78 1259.6ZM2315.91 1280.92C2309.78 1280.92 2306.67 1276.2 2306.67 1270.29C2306.67 1264.32 2309.73 1259.6 2315.91 1259.6C2322.03 1259.6 2325.15 1264.32 2325.15 1270.29C2325.15 1276.2 2322.08 1280.92 2315.91 1280.92ZM2315.91 1276.95C2318.86 1276.95 2320.31 1274.37 2320.31 1270.29C2320.31 1266.21 2318.86 1263.63 2315.91 1263.63C2312.95 1263.63 2311.5 1266.21 2311.5 1270.29C2311.5 1274.37 2312.95 1276.95 2315.91 1276.95ZM2349.75 1280.17V1252.61C2348.13 1254.12 2345.29 1254.39 2341.96 1254.39V1249.66C2348.51 1249.5 2350.44 1247.51 2350.93 1243.05H2355.55V1280.17H2349.75ZM2378.53 1280.92C2368.16 1280.92 2363.76 1272.28 2363.76 1261.64C2363.76 1251 2368.16 1242.3 2378.53 1242.3C2388.9 1242.3 2393.25 1251 2393.25 1261.64C2393.25 1272.28 2388.9 1280.92 2378.53 1280.92ZM2378.53 1275.93C2385.19 1275.93 2387.18 1269.27 2387.18 1261.64C2387.18 1254.01 2385.19 1247.29 2378.53 1247.29C2371.82 1247.29 2369.83 1254.01 2369.83 1261.64C2369.83 1269.27 2371.82 1275.93 2378.53 1275.93ZM2414.51 1280.92C2404.14 1280.92 2399.74 1272.28 2399.74 1261.64C2399.74 1251 2404.14 1242.3 2414.51 1242.3C2424.88 1242.3 2429.23 1251 2429.23 1261.64C2429.23 1272.28 2424.88 1280.92 2414.51 1280.92ZM2414.51 1275.93C2421.17 1275.93 2423.16 1269.27 2423.16 1261.64C2423.16 1254.01 2421.17 1247.29 2414.51 1247.29C2407.8 1247.29 2405.81 1254.01 2405.81 1261.64C2405.81 1269.27 2407.8 1275.93 2414.51 1275.93ZM2443.83 1263.63C2437.71 1263.63 2434.54 1258.9 2434.54 1252.94C2434.54 1247.03 2437.6 1242.3 2443.83 1242.3C2449.9 1242.3 2453.07 1247.03 2453.07 1252.94C2453.07 1258.9 2450.01 1263.63 2443.83 1263.63ZM2447.86 1280.17H2443.24L2463.87 1243.05H2468.49L2447.86 1280.17ZM2443.83 1259.6C2446.79 1259.6 2448.18 1257.02 2448.18 1252.94C2448.18 1248.85 2446.79 1246.27 2443.83 1246.27C2440.82 1246.27 2439.43 1248.85 2439.43 1252.94C2439.43 1257.02 2440.82 1259.6 2443.83 1259.6ZM2467.95 1280.92C2461.83 1280.92 2458.71 1276.2 2458.71 1270.29C2458.71 1264.32 2461.78 1259.6 2467.95 1259.6C2474.08 1259.6 2477.19 1264.32 2477.19 1270.29C2477.19 1276.2 2474.13 1280.92 2467.95 1280.92ZM2467.95 1276.95C2470.91 1276.95 2472.36 1274.37 2472.36 1270.29C2472.36 1266.21 2470.91 1263.63 2467.95 1263.63C2465 1263.63 2463.55 1266.21 2463.55 1270.29C2463.55 1274.37 2465 1276.95 2467.95 1276.95ZM2510.39 1280.92C2500.02 1280.92 2495.62 1272.28 2495.62 1261.64C2495.62 1251 2500.02 1242.3 2510.39 1242.3C2520.76 1242.3 2525.11 1251 2525.11 1261.64C2525.11 1272.28 2520.76 1280.92 2510.39 1280.92ZM2510.39 1275.93C2517.05 1275.93 2519.04 1269.27 2519.04 1261.64C2519.04 1254.01 2517.05 1247.29 2510.39 1247.29C2503.67 1247.29 2501.69 1254.01 2501.69 1261.64C2501.69 1269.27 2503.67 1275.93 2510.39 1275.93ZM2539.71 1263.63C2533.58 1263.63 2530.41 1258.9 2530.41 1252.94C2530.41 1247.03 2533.48 1242.3 2539.71 1242.3C2545.78 1242.3 2548.95 1247.03 2548.95 1252.94C2548.95 1258.9 2545.89 1263.63 2539.71 1263.63ZM2543.74 1280.17H2539.12L2559.75 1243.05H2564.37L2543.74 1280.17ZM2539.71 1259.6C2542.66 1259.6 2544.06 1257.02 2544.06 1252.94C2544.06 1248.85 2542.66 1246.27 2539.71 1246.27C2536.7 1246.27 2535.3 1248.85 2535.3 1252.94C2535.3 1257.02 2536.7 1259.6 2539.71 1259.6ZM2563.83 1280.92C2557.71 1280.92 2554.59 1276.2 2554.59 1270.29C2554.59 1264.32 2557.65 1259.6 2563.83 1259.6C2569.95 1259.6 2573.07 1264.32 2573.07 1270.29C2573.07 1276.2 2570.01 1280.92 2563.83 1280.92ZM2563.83 1276.95C2566.78 1276.95 2568.24 1274.37 2568.24 1270.29C2568.24 1266.21 2566.78 1263.63 2563.83 1263.63C2560.88 1263.63 2559.42 1266.21 2559.42 1270.29C2559.42 1274.37 2560.88 1276.95 2563.83 1276.95Z" fill="#6F6F6F"/>
<rect x="1.34304" y="1530.31" width="2683.4" height="265.923" rx="132.961" fill="white" stroke="#ADADAD" stroke-width="2.68609"/>
<path d="M40.049 2044.57H32.3775L20.9025 1998.48H28.3161L36.4389 2034.78H36.5678L46.1088 1998.48H53.5869L63.1923 2034.78H63.3213L71.444 1998.48H78.8576L67.3182 2044.57H59.7112L49.9123 2007.51H49.7834L40.049 2044.57ZM103.727 2010.73C109.787 2010.73 114.687 2014.21 114.687 2021.75V2044.57H108.369V2023.49C108.369 2019.11 106.435 2016.15 101.665 2016.15C96.2494 2016.15 92.7682 2019.43 92.7682 2024.4V2044.57H86.4505V1998.48H92.7682V2015.82H92.8971C94.6377 2013.31 98.0544 2010.73 103.727 2010.73ZM131.509 2005.83H124.353V1999H131.509V2005.83ZM131.058 2044.57H124.74V2011.7H131.058V2044.57ZM153.492 2039.74C154.588 2039.74 155.104 2039.68 156.2 2039.48V2044.57C154.588 2044.9 153.557 2044.96 152.203 2044.96C146.788 2044.96 143.5 2042.9 143.5 2035.29V2016.92H138.73V2011.7H143.5V2001.12H149.818V2011.7H156.135V2016.92H149.818V2035.49C149.818 2038.97 150.785 2039.74 153.492 2039.74ZM194.093 2027.43C194.093 2028.33 194.093 2029.3 194.029 2029.81H168.758C168.887 2035.29 172.11 2040.38 178.621 2040.38C184.423 2040.38 186.68 2036.65 187.26 2034.45H193.707C191.966 2040.77 187.131 2045.54 178.493 2045.54C168.049 2045.54 162.247 2038.13 162.247 2028.07C162.247 2017.76 168.436 2010.67 178.493 2010.67C188.485 2010.67 194.093 2017.24 194.093 2027.43ZM168.758 2024.85H187.518C187.518 2019.69 183.908 2015.82 178.299 2015.82C173.013 2015.82 169.145 2019.43 168.758 2024.85Z" fill="#6F6F6F"/>
<path d="M903.431 1952.57H897.521V1914.16H903.431V1930.23H922.287V1914.16H928.25V1952.57H922.287V1935.33H903.431V1952.57ZM965.42 1952.57H937.699V1914.16H964.883V1919.27H943.609V1930.17H962.25V1935.28H943.609V1947.47H965.42V1952.57ZM975.742 1952.57H968.812L981.812 1932.97L969.725 1914.16H976.279L985.197 1928.67H985.251L994.222 1914.16H1000.72L988.635 1932.86L1001.37 1952.57H994.491L985.089 1937.26H985.036L975.742 1952.57ZM923.361 2017.5L922.502 2021.9H917.291L915.679 2029.8H921.427L920.675 2034.15H914.82L912.725 2044.57H908.373L910.468 2034.15H904.344L902.249 2044.57H897.897L899.992 2034.15H895.104L895.91 2029.8H900.852L902.464 2021.9H896.984L897.844 2017.5H903.323L905.365 2007.45H909.716L907.675 2017.5H913.799L915.787 2007.45H920.192L918.15 2017.5H923.361ZM905.203 2029.8H911.328L912.886 2021.9H906.815L905.203 2029.8ZM936.316 2044.57H930.407V2006.16H957.053V2011.27H936.316V2022.82H953.078V2027.92H936.316V2044.57ZM969.569 2044.57H963.66V2006.16H990.306V2011.27H969.569V2022.82H986.331V2027.92H969.569V2044.57ZM1002.82 2044.57H996.913V2006.16H1023.56V2011.27H1002.82V2022.82H1019.58V2027.92H1002.82V2044.57ZM1036.08 2044.57H1030.17V2006.16H1056.81V2011.27H1036.08V2022.82H1052.84V2027.92H1036.08V2044.57ZM1069.33 2044.57H1063.42V2006.16H1090.06V2011.27H1069.33V2022.82H1086.09V2027.92H1069.33V2044.57ZM1102.58 2044.57H1096.67V2006.16H1123.32V2011.27H1102.58V2022.82H1119.34V2027.92H1102.58V2044.57Z" fill="#6F6F6F"/>
<path d="M1462.86 1952.57H1456.95V1914.16H1472.96C1481.45 1914.16 1486.02 1918.14 1486.02 1925.23C1486.02 1930.12 1483.06 1933.66 1478.82 1934.63V1934.74C1487.74 1936.4 1484.46 1951.55 1486.56 1952.2V1952.57H1480.22C1478.5 1950.96 1482.15 1937.53 1472.75 1937.53H1462.86V1952.57ZM1462.86 1932.43H1471.67C1477.1 1932.43 1480.06 1930.07 1480.06 1925.66C1480.06 1921.52 1477.69 1919.27 1471.78 1919.27H1462.86V1932.43ZM1509.51 1953.33C1498.44 1953.33 1492.21 1944.95 1492.21 1933.34C1492.21 1921.79 1499.25 1913.41 1510.21 1913.41C1520.15 1913.41 1525.41 1918.73 1526.65 1926.04H1520.47C1519.45 1921.2 1515.85 1918.52 1510.15 1918.52C1501.67 1918.52 1498.39 1926.14 1498.39 1933.34C1498.39 1940.59 1500.86 1948.22 1509.83 1948.22C1516.17 1948.22 1521.22 1943.82 1521.27 1937.43H1509.94V1932.48H1527.29V1952.57H1523.21L1521.76 1947.26H1521.65C1518.96 1951.18 1515.37 1953.33 1509.51 1953.33ZM1552.66 1952.57H1535.53V1914.16H1551.7C1559.59 1914.16 1564.21 1917.71 1564.21 1923.83C1564.21 1928.56 1561.42 1930.76 1558.25 1931.84V1931.95C1562.28 1932.64 1565.72 1935.6 1565.72 1941.35C1565.72 1948.71 1560.62 1952.57 1552.66 1952.57ZM1541.44 1930.12H1551.54C1556.37 1930.12 1558.04 1928.13 1558.04 1924.69C1558.04 1921.31 1556 1919.27 1551.97 1919.27H1541.44V1930.12ZM1541.44 1947.47H1552.23C1557.93 1947.47 1559.54 1944.73 1559.54 1941.13C1559.54 1937.1 1557.07 1934.79 1553.04 1934.79H1541.44V1947.47ZM1481.02 2044.57H1454.64C1454.64 2037.59 1458.89 2032.76 1465.98 2028.35C1472.27 2024.54 1475.44 2022.98 1475.44 2018.04C1475.44 2014.97 1474.2 2011.7 1469.15 2011.7C1463.35 2011.7 1461.52 2015.46 1461.52 2020.56H1455.61C1455.61 2012.66 1459.91 2006.7 1469.31 2006.7C1476.03 2006.7 1481.45 2010.73 1481.45 2017.82C1481.45 2025.02 1475.6 2028.73 1470.28 2032C1466.62 2034.15 1463.19 2036.19 1462.11 2039.47V2039.58H1481.02V2044.57ZM1501.35 2045.33C1492.48 2045.33 1487.65 2039.95 1487.43 2033.72H1493.34C1493.72 2037.11 1495.65 2040.33 1501.02 2040.33C1505.75 2040.33 1508.87 2037.43 1508.87 2031.9C1508.87 2026.69 1506.02 2024.32 1501.4 2024.32C1498.39 2024.32 1495.65 2025.34 1493.88 2027.65H1487.92L1491.89 2007.45H1513V2012.45H1496.35L1494.31 2022.71V2022.82C1496.24 2020.83 1498.98 2019.59 1502.96 2019.59C1510 2019.59 1514.89 2024.81 1514.89 2031.9C1514.89 2040.12 1508.98 2045.33 1501.35 2045.33ZM1534.44 2045.33C1525.58 2045.33 1520.74 2039.95 1520.53 2033.72H1526.44C1526.81 2037.11 1528.75 2040.33 1534.12 2040.33C1538.85 2040.33 1541.96 2037.43 1541.96 2031.9C1541.96 2026.69 1539.12 2024.32 1534.5 2024.32C1531.49 2024.32 1528.75 2025.34 1526.98 2027.65H1521.01L1524.99 2007.45H1546.1V2012.45H1529.45L1527.41 2022.71V2022.82C1529.34 2020.83 1532.08 2019.59 1536.05 2019.59C1543.09 2019.59 1547.98 2024.81 1547.98 2031.9C1547.98 2040.12 1542.07 2045.33 1534.44 2045.33ZM1554.32 2051.88V2048.98C1556.31 2048.39 1557.17 2047.37 1557.12 2044.57H1554.32V2038.72H1560.18V2044.57C1560.18 2048.07 1558.62 2050.81 1554.32 2051.88ZM1604.16 2044.57H1577.79C1577.79 2037.59 1582.03 2032.76 1589.12 2028.35C1595.41 2024.54 1598.58 2022.98 1598.58 2018.04C1598.58 2014.97 1597.34 2011.7 1592.29 2011.7C1586.49 2011.7 1584.66 2015.46 1584.66 2020.56H1578.75C1578.75 2012.66 1583.05 2006.7 1592.45 2006.7C1599.17 2006.7 1604.59 2010.73 1604.59 2017.82C1604.59 2025.02 1598.74 2028.73 1593.42 2032C1589.77 2034.15 1586.33 2036.19 1585.25 2039.47V2039.58H1604.16V2044.57ZM1624.49 2045.33C1615.62 2045.33 1610.79 2039.95 1610.57 2033.72H1616.48C1616.86 2037.11 1618.79 2040.33 1624.17 2040.33C1628.89 2040.33 1632.01 2037.43 1632.01 2031.9C1632.01 2026.69 1629.16 2024.32 1624.54 2024.32C1621.53 2024.32 1618.79 2025.34 1617.02 2027.65H1611.06L1615.03 2007.45H1636.15V2012.45H1619.49L1617.45 2022.71V2022.82C1619.38 2020.83 1622.12 2019.59 1626.1 2019.59C1633.14 2019.59 1638.03 2024.81 1638.03 2031.9C1638.03 2040.12 1632.12 2045.33 1624.49 2045.33ZM1657.58 2045.33C1648.72 2045.33 1643.88 2039.95 1643.67 2033.72H1649.58C1649.95 2037.11 1651.89 2040.33 1657.26 2040.33C1661.99 2040.33 1665.1 2037.43 1665.1 2031.9C1665.1 2026.69 1662.26 2024.32 1657.64 2024.32C1654.63 2024.32 1651.89 2025.34 1650.12 2027.65H1644.15L1648.13 2007.45H1669.24V2012.45H1652.59L1650.55 2022.71V2022.82C1652.48 2020.83 1655.22 2019.59 1659.19 2019.59C1666.23 2019.59 1671.12 2024.81 1671.12 2031.9C1671.12 2040.12 1665.21 2045.33 1657.58 2045.33ZM1677.46 2051.88V2048.98C1679.45 2048.39 1680.31 2047.37 1680.26 2044.57H1677.46V2038.72H1683.32V2044.57C1683.32 2048.07 1681.76 2050.81 1677.46 2051.88ZM1727.3 2044.57H1700.93C1700.93 2037.59 1705.17 2032.76 1712.26 2028.35C1718.55 2024.54 1721.72 2022.98 1721.72 2018.04C1721.72 2014.97 1720.48 2011.7 1715.43 2011.7C1709.63 2011.7 1707.8 2015.46 1707.8 2020.56H1701.89C1701.89 2012.66 1706.19 2006.7 1715.59 2006.7C1722.31 2006.7 1727.73 2010.73 1727.73 2017.82C1727.73 2025.02 1721.88 2028.73 1716.56 2032C1712.91 2034.15 1709.47 2036.19 1708.39 2039.47V2039.58H1727.3V2044.57ZM1747.63 2045.33C1738.76 2045.33 1733.93 2039.95 1733.71 2033.72H1739.62C1740 2037.11 1741.93 2040.33 1747.31 2040.33C1752.03 2040.33 1755.15 2037.43 1755.15 2031.9C1755.15 2026.69 1752.3 2024.32 1747.68 2024.32C1744.67 2024.32 1741.93 2025.34 1740.16 2027.65H1734.2L1738.17 2007.45H1759.29V2012.45H1742.63L1740.59 2022.71V2022.82C1742.52 2020.83 1745.26 2019.59 1749.24 2019.59C1756.28 2019.59 1761.17 2024.81 1761.17 2031.9C1761.17 2040.12 1755.26 2045.33 1747.63 2045.33ZM1780.72 2045.33C1771.86 2045.33 1767.02 2039.95 1766.81 2033.72H1772.72C1773.1 2037.11 1775.03 2040.33 1780.4 2040.33C1785.13 2040.33 1788.24 2037.43 1788.24 2031.9C1788.24 2026.69 1785.4 2024.32 1780.78 2024.32C1777.77 2024.32 1775.03 2025.34 1773.26 2027.65H1767.29L1771.27 2007.45H1792.38V2012.45H1775.73L1773.69 2022.71V2022.82C1775.62 2020.83 1778.36 2019.59 1782.34 2019.59C1789.37 2019.59 1794.26 2024.81 1794.26 2031.9C1794.26 2040.12 1788.35 2045.33 1780.72 2045.33Z" fill="#6F6F6F"/>
<path d="M2134.52 1953.33C2123.62 1953.33 2116.58 1944.95 2116.58 1933.4C2116.58 1921.79 2123.67 1913.41 2134.58 1913.41C2144.19 1913.41 2150.16 1919.54 2151.07 1927.22H2144.89C2144.19 1923.46 2141.83 1918.52 2134.47 1918.52C2125.98 1918.52 2122.76 1925.71 2122.76 1933.34C2122.76 1941.02 2125.98 1948.22 2134.47 1948.22C2141.88 1948.22 2144.52 1943.28 2144.89 1938.61H2151.07C2150.21 1947.15 2144.19 1953.33 2134.52 1953.33ZM2164.07 1952.57H2158.27V1914.16H2166.06L2177.13 1944.36H2177.24L2188.36 1914.16H2196.15V1952.57H2190.34V1922.76H2190.24L2179.65 1952.57H2174.76L2164.18 1922.76H2164.07V1952.57ZM2221.91 1952.57H2215.95V1937.21L2202.2 1914.16H2208.59L2218.91 1932.54H2219.01L2229.33 1914.16H2235.67L2221.91 1937.21V1952.57ZM2273.69 1952.57H2266.76L2253.76 1934.09L2247.63 1940.59V1952.57H2241.72V1914.16H2247.63V1933.61L2265.84 1914.16H2272.45L2257.41 1930.17L2273.69 1952.57ZM2131.73 2045.33C2121.36 2045.33 2116.96 2036.68 2116.96 2026.04C2116.96 2015.4 2121.36 2006.7 2131.73 2006.7C2142.1 2006.7 2146.45 2015.4 2146.45 2026.04C2146.45 2036.68 2142.1 2045.33 2131.73 2045.33ZM2131.73 2040.33C2138.39 2040.33 2140.38 2033.67 2140.38 2026.04C2140.38 2018.41 2138.39 2011.7 2131.73 2011.7C2125.01 2011.7 2123.03 2018.41 2123.03 2026.04C2123.03 2033.67 2125.01 2040.33 2131.73 2040.33ZM2161.05 2028.03C2154.93 2028.03 2151.76 2023.3 2151.76 2017.34C2151.76 2011.43 2154.82 2006.7 2161.05 2006.7C2167.12 2006.7 2170.29 2011.43 2170.29 2017.34C2170.29 2023.3 2167.23 2028.03 2161.05 2028.03ZM2165.08 2044.57H2160.46L2181.09 2007.45H2185.71L2165.08 2044.57ZM2161.05 2024C2164 2024 2165.4 2021.42 2165.4 2017.34C2165.4 2013.26 2164 2010.68 2161.05 2010.68C2158.04 2010.68 2156.64 2013.26 2156.64 2017.34C2156.64 2021.42 2158.04 2024 2161.05 2024ZM2185.17 2045.33C2179.05 2045.33 2175.93 2040.6 2175.93 2034.69C2175.93 2028.73 2178.99 2024 2185.17 2024C2191.29 2024 2194.41 2028.73 2194.41 2034.69C2194.41 2040.6 2191.35 2045.33 2185.17 2045.33ZM2185.17 2041.35C2188.13 2041.35 2189.58 2038.77 2189.58 2034.69C2189.58 2030.61 2188.13 2028.03 2185.17 2028.03C2182.22 2028.03 2180.77 2030.61 2180.77 2034.69C2180.77 2038.77 2182.22 2041.35 2185.17 2041.35ZM2227.61 2045.33C2217.24 2045.33 2212.83 2036.68 2212.83 2026.04C2212.83 2015.4 2217.24 2006.7 2227.61 2006.7C2237.97 2006.7 2242.33 2015.4 2242.33 2026.04C2242.33 2036.68 2237.97 2045.33 2227.61 2045.33ZM2227.61 2040.33C2234.27 2040.33 2236.26 2033.67 2236.26 2026.04C2236.26 2018.41 2234.27 2011.7 2227.61 2011.7C2220.89 2011.7 2218.9 2018.41 2218.9 2026.04C2218.9 2033.67 2220.89 2040.33 2227.61 2040.33ZM2256.93 2028.03C2250.8 2028.03 2247.63 2023.3 2247.63 2017.34C2247.63 2011.43 2250.69 2006.7 2256.93 2006.7C2263 2006.7 2266.17 2011.43 2266.17 2017.34C2266.17 2023.3 2263.1 2028.03 2256.93 2028.03ZM2260.96 2044.57H2256.34L2276.96 2007.45H2281.58L2260.96 2044.57ZM2256.93 2024C2259.88 2024 2261.28 2021.42 2261.28 2017.34C2261.28 2013.26 2259.88 2010.68 2256.93 2010.68C2253.92 2010.68 2252.52 2013.26 2252.52 2017.34C2252.52 2021.42 2253.92 2024 2256.93 2024ZM2281.05 2045.33C2274.92 2045.33 2271.81 2040.6 2271.81 2034.69C2271.81 2028.73 2274.87 2024 2281.05 2024C2287.17 2024 2290.29 2028.73 2290.29 2034.69C2290.29 2040.6 2287.23 2045.33 2281.05 2045.33ZM2281.05 2041.35C2284 2041.35 2285.45 2038.77 2285.45 2034.69C2285.45 2030.61 2284 2028.03 2281.05 2028.03C2278.09 2028.03 2276.64 2030.61 2276.64 2034.69C2276.64 2038.77 2278.09 2041.35 2281.05 2041.35ZM2323.48 2045.33C2313.11 2045.33 2308.71 2036.68 2308.71 2026.04C2308.71 2015.4 2313.11 2006.7 2323.48 2006.7C2333.85 2006.7 2338.2 2015.4 2338.2 2026.04C2338.2 2036.68 2333.85 2045.33 2323.48 2045.33ZM2323.48 2040.33C2330.14 2040.33 2332.13 2033.67 2332.13 2026.04C2332.13 2018.41 2330.14 2011.7 2323.48 2011.7C2316.77 2011.7 2314.78 2018.41 2314.78 2026.04C2314.78 2033.67 2316.77 2040.33 2323.48 2040.33ZM2352.8 2028.03C2346.68 2028.03 2343.51 2023.3 2343.51 2017.34C2343.51 2011.43 2346.57 2006.7 2352.8 2006.7C2358.87 2006.7 2362.04 2011.43 2362.04 2017.34C2362.04 2023.3 2358.98 2028.03 2352.8 2028.03ZM2356.83 2044.57H2352.21L2372.84 2007.45H2377.46L2356.83 2044.57ZM2352.8 2024C2355.76 2024 2357.15 2021.42 2357.15 2017.34C2357.15 2013.26 2355.76 2010.68 2352.8 2010.68C2349.79 2010.68 2348.4 2013.26 2348.4 2017.34C2348.4 2021.42 2349.79 2024 2352.8 2024ZM2376.92 2045.33C2370.8 2045.33 2367.68 2040.6 2367.68 2034.69C2367.68 2028.73 2370.75 2024 2376.92 2024C2383.05 2024 2386.16 2028.73 2386.16 2034.69C2386.16 2040.6 2383.1 2045.33 2376.92 2045.33ZM2376.92 2041.35C2379.88 2041.35 2381.33 2038.77 2381.33 2034.69C2381.33 2030.61 2379.88 2028.03 2376.92 2028.03C2373.97 2028.03 2372.52 2030.61 2372.52 2034.69C2372.52 2038.77 2373.97 2041.35 2376.92 2041.35ZM2419.36 2045.33C2408.99 2045.33 2404.59 2036.68 2404.59 2026.04C2404.59 2015.4 2408.99 2006.7 2419.36 2006.7C2429.73 2006.7 2434.08 2015.4 2434.08 2026.04C2434.08 2036.68 2429.73 2045.33 2419.36 2045.33ZM2419.36 2040.33C2426.02 2040.33 2428.01 2033.67 2428.01 2026.04C2428.01 2018.41 2426.02 2011.7 2419.36 2011.7C2412.64 2011.7 2410.66 2018.41 2410.66 2026.04C2410.66 2033.67 2412.64 2040.33 2419.36 2040.33ZM2448.68 2028.03C2442.56 2028.03 2439.39 2023.3 2439.39 2017.34C2439.39 2011.43 2442.45 2006.7 2448.68 2006.7C2454.75 2006.7 2457.92 2011.43 2457.92 2017.34C2457.92 2023.3 2454.86 2028.03 2448.68 2028.03ZM2452.71 2044.57H2448.09L2468.72 2007.45H2473.34L2452.71 2044.57ZM2448.68 2024C2451.63 2024 2453.03 2021.42 2453.03 2017.34C2453.03 2013.26 2451.63 2010.68 2448.68 2010.68C2445.67 2010.68 2444.27 2013.26 2444.27 2017.34C2444.27 2021.42 2445.67 2024 2448.68 2024ZM2472.8 2045.33C2466.68 2045.33 2463.56 2040.6 2463.56 2034.69C2463.56 2028.73 2466.62 2024 2472.8 2024C2478.92 2024 2482.04 2028.73 2482.04 2034.69C2482.04 2040.6 2478.98 2045.33 2472.8 2045.33ZM2472.8 2041.35C2475.76 2041.35 2477.21 2038.77 2477.21 2034.69C2477.21 2030.61 2475.76 2028.03 2472.8 2028.03C2469.85 2028.03 2468.4 2030.61 2468.4 2034.69C2468.4 2038.77 2469.85 2041.35 2472.8 2041.35Z" fill="#6F6F6F"/>
</svg>
