<svg width="2038" height="2044" viewBox="0 0 2038 2044" fill="none" xmlns="http://www.w3.org/2000/svg">
<rect width="2037.52" height="2043.21" transform="translate(0.0898438 0.161499)" fill="#F2F6F9"/>
<path opacity="0.5" d="M515.174 711.088L512.525 655.056C511.71 637.33 510.691 615.936 510.895 597.395H510.284C505.801 614.102 500.096 632.644 493.984 649.963L473.812 709.458H454.66L436.322 650.778C431.024 633.255 426.134 614.51 422.467 597.395H422.059C421.448 615.325 420.633 637.126 419.614 655.871L416.558 711.088H393.127L402.295 573.759H435.303L453.233 628.976C458.123 645.073 462.402 661.373 465.866 676.654H466.477C470.145 661.78 474.831 644.869 480.129 628.772L499.078 573.759H531.678L539.624 711.088H515.174ZM552.884 611.861H580.594L598.321 665.04C600.358 671.153 602.599 678.692 604.026 684.193H604.637C606.063 678.692 607.897 671.153 609.934 664.836L625.42 611.861H652.111L627.253 679.507C613.602 716.589 604.433 733.093 592.819 743.281C582.835 751.838 572.648 755.099 566.535 755.914L560.83 734.927C565.109 733.908 570.203 731.667 575.297 728C580.187 724.943 585.688 719.034 589.152 712.311C590.17 710.477 590.578 709.051 590.578 707.828C590.578 706.809 590.374 705.383 589.355 702.938L552.884 611.861ZM666.577 711.088V643.85C666.577 630.402 666.374 620.622 665.762 611.861H687.36L688.379 630.606H688.99C693.88 616.751 705.494 609.62 716.293 609.62C718.738 609.62 720.164 609.824 722.202 610.231V633.662C719.96 633.255 717.719 633.051 714.663 633.051C702.845 633.051 694.491 640.59 692.25 652C691.843 654.241 691.639 656.89 691.639 659.539V711.088H666.577ZM764.265 711.088H739.204V611.861H764.265V711.088ZM751.836 570.499C760.394 570.499 765.691 576.408 765.895 584.151C765.895 591.486 760.394 597.598 751.633 597.598C743.279 597.598 737.777 591.486 737.777 584.151C737.777 576.408 743.483 570.499 751.836 570.499ZM868.354 651.593V687.249C868.354 696.214 868.761 704.976 869.984 711.088H847.367L845.533 700.086H844.922C839.013 707.828 828.622 713.329 815.582 713.329C795.614 713.329 784.408 698.863 784.408 683.785C784.408 658.928 806.617 646.091 843.292 646.295V644.665C843.292 638.145 840.643 627.346 823.121 627.346C813.341 627.346 803.153 630.402 796.429 634.681L791.539 618.381C798.874 613.899 811.711 609.62 827.4 609.62C859.185 609.62 868.354 629.791 868.354 651.593ZM843.903 676.247V662.595C826.177 662.391 809.266 666.059 809.266 681.137C809.266 690.917 815.582 695.399 823.528 695.399C833.716 695.399 840.847 688.879 843.292 681.748C843.903 679.914 843.903 678.08 843.903 676.247ZM961.226 566.424H986.288V683.174C986.288 693.362 986.695 704.364 987.103 711.088H964.894L963.671 695.399H963.264C957.355 706.402 945.334 713.329 931.071 713.329C907.232 713.329 888.487 693.158 888.487 662.595C888.283 629.384 909.066 609.62 932.905 609.62C946.556 609.62 956.336 615.121 960.819 622.456H961.226V566.424ZM961.226 668.097V653.223C961.226 651.185 961.023 648.536 960.615 646.499C958.374 636.922 950.427 628.976 939.017 628.976C922.921 628.976 913.956 643.239 913.956 661.576C913.956 679.914 922.921 693.158 938.814 693.158C949.001 693.158 957.966 686.23 960.411 675.432C961.023 673.19 961.226 670.745 961.226 668.097ZM1056.4 711.088V575.593C1065.56 573.963 1077.99 572.741 1094.7 572.741C1113.04 572.741 1126.28 576.612 1135.04 583.947C1143.19 590.671 1148.49 601.47 1148.49 614.306C1148.49 627.346 1144.42 637.941 1136.88 645.276C1126.69 655.26 1111.21 660.15 1093.48 660.15C1088.79 660.15 1084.72 659.946 1081.25 659.131V711.088H1056.4ZM1081.25 593.32V639.368C1084.51 640.386 1088.38 640.59 1093.48 640.59C1112.22 640.59 1123.63 631.217 1123.63 615.325C1123.63 600.043 1113.04 592.097 1095.72 592.097C1088.79 592.097 1083.9 592.708 1081.25 593.32ZM1166.8 711.088V643.85C1166.8 630.402 1166.6 620.622 1165.99 611.861H1187.59L1188.61 630.606H1189.22C1194.11 616.751 1205.72 609.62 1216.52 609.62C1218.96 609.62 1220.39 609.824 1222.43 610.231V633.662C1220.19 633.255 1217.95 633.051 1214.89 633.051C1203.07 633.051 1194.72 640.59 1192.48 652C1192.07 654.241 1191.87 656.89 1191.87 659.539V711.088H1166.8ZM1282.67 609.62C1312.21 609.62 1331.98 630.402 1331.98 660.558C1331.98 697.029 1306.3 713.329 1281.04 713.329C1253.12 713.329 1231.32 694.177 1231.32 662.188C1231.32 629.587 1252.72 609.62 1282.67 609.62ZM1282.06 627.754C1264.33 627.754 1257.2 645.073 1257.2 661.576C1257.2 680.729 1266.78 695.195 1281.85 695.195C1296.12 695.195 1306.1 681.34 1306.1 661.169C1306.1 645.684 1299.17 627.754 1282.06 627.754Z" fill="black"/>
<g opacity="0.5">
<path d="M418.12 874.147H397.83L391.887 892.145H384.246L403.773 834.925H412.602L432.128 892.145H424.233L418.12 874.147ZM399.358 868.374H416.677L410.989 851.904C409.715 848.169 408.866 844.773 408.017 841.462H407.848C406.999 844.773 406.15 848.338 404.961 851.819L399.358 868.374ZM469.5 866.931V882.297C469.5 885.863 469.67 889.343 470.095 892.145H463.388L462.794 886.966H462.539C460.247 890.192 455.832 893.079 449.974 893.079C441.654 893.079 437.41 887.221 437.41 881.278C437.41 871.345 446.239 865.912 462.114 865.997V865.148C462.114 861.837 461.181 855.639 452.776 855.724C448.871 855.724 444.88 856.828 441.994 858.781L440.296 853.772C443.692 851.649 448.701 850.206 453.88 850.206C466.444 850.206 469.5 858.781 469.5 866.931ZM462.284 878.307V871.176C454.134 871.006 444.88 872.449 444.88 880.429C444.88 885.353 448.107 887.561 451.842 887.561C457.275 887.561 460.756 884.165 461.945 880.684C462.199 879.835 462.284 878.986 462.284 878.307Z" fill="black"/>
<path d="M583.486 891.975V835.774C586.712 835.01 591.891 834.5 596.985 834.5C604.371 834.5 609.125 835.774 612.606 838.66C615.577 840.867 617.445 844.263 617.445 848.763C617.445 854.366 613.709 859.205 607.767 861.328V861.582C613.2 862.856 619.567 867.355 619.567 875.845C619.567 880.769 617.615 884.589 614.643 887.306C610.738 890.956 604.286 892.654 594.947 892.654C589.854 892.654 585.948 892.315 583.486 891.975ZM590.872 840.698V859.205H597.579C605.305 859.205 609.889 855.045 609.889 849.527C609.889 842.905 604.88 840.188 597.409 840.188C594.013 840.188 592.061 840.443 590.872 840.698ZM590.872 864.723V886.542C592.4 886.797 594.438 886.881 597.07 886.881C604.71 886.881 611.757 884.08 611.757 875.76C611.757 868.034 605.05 864.723 596.985 864.723H590.872ZM629.245 881.533V831.868H636.631V857.677H636.801C639.432 853.093 644.187 850.206 650.809 850.206C661.081 850.206 668.212 858.696 668.212 871.091C668.212 885.778 658.874 893.079 649.705 893.079C643.762 893.079 639.008 890.787 635.867 885.438H635.697L635.273 892.145H628.905C629.075 889.343 629.245 885.184 629.245 881.533ZM636.631 868.374V875.675C636.631 876.609 636.716 877.543 636.97 878.392C638.329 883.57 642.743 887.136 648.177 887.136C656.072 887.136 660.657 880.769 660.657 871.345C660.657 863.11 656.412 856.064 648.347 856.064C643.338 856.064 638.584 859.63 637.055 865.233C636.801 866.167 636.631 867.185 636.631 868.374Z" fill="black"/>
<path d="M816.85 884.419L818.293 890.362C815.661 891.721 810.143 893.079 803.181 893.079C787.051 893.079 774.996 882.891 774.996 864.044C774.996 846.046 787.136 833.991 804.879 833.991C811.926 833.991 816.51 835.519 818.463 836.538L816.595 842.565C813.878 841.207 809.888 840.188 805.134 840.188C791.72 840.188 782.806 848.763 782.806 863.79C782.806 877.882 790.871 886.797 804.71 886.797C809.294 886.797 813.878 885.863 816.85 884.419ZM854.487 885.099L855.761 890.702C853.808 891.636 849.479 893.079 843.96 893.079C831.565 893.079 823.5 884.674 823.5 872.109C823.5 859.46 832.16 850.206 845.573 850.206C849.988 850.206 853.893 851.31 855.931 852.413L854.233 858.101C852.45 857.168 849.648 856.149 845.573 856.149C836.15 856.149 831.056 863.195 831.056 871.685C831.056 881.193 837.169 887.051 845.319 887.051C849.563 887.051 852.365 886.032 854.487 885.099Z" fill="black"/>
<path d="M973.302 891.975V835.774C977.801 835.01 983.15 834.5 989.008 834.5C999.62 834.5 1007.18 837.047 1012.18 841.632C1017.36 846.301 1020.33 852.923 1020.33 862.177C1020.33 871.515 1017.36 879.156 1012.1 884.419C1006.67 889.768 997.837 892.654 986.715 892.654C981.367 892.654 977.037 892.4 973.302 891.975ZM980.688 841.122V886.372C982.555 886.627 985.272 886.712 988.159 886.712C1004.03 886.712 1012.52 877.882 1012.52 862.431C1012.61 848.933 1004.97 840.358 989.347 840.358C985.527 840.358 982.64 840.698 980.688 841.122ZM1057.94 831.868H1065.32V881.533C1065.32 885.184 1065.49 889.343 1065.66 892.145H1059.04L1058.7 885.014H1058.45C1056.24 889.598 1051.32 893.079 1044.61 893.079C1034.68 893.079 1026.95 884.674 1026.95 872.194C1026.86 858.526 1035.44 850.206 1045.37 850.206C1051.74 850.206 1055.9 853.177 1057.77 856.404H1057.94V831.868ZM1057.94 874.911V867.78C1057.94 866.846 1057.85 865.572 1057.6 864.639C1056.49 859.969 1052.42 856.064 1046.82 856.064C1039.09 856.064 1034.51 862.856 1034.51 871.855C1034.51 880.175 1038.67 887.051 1046.65 887.051C1051.65 887.051 1056.24 883.655 1057.6 878.137C1057.85 877.118 1057.94 876.1 1057.94 874.911Z" fill="black"/>
<path d="M1197.75 859.205V865.318H1175.6V885.948H1200.39V892.145H1168.13V834.925H1199.11V841.122H1175.6V859.205H1197.75ZM1242.43 872.958H1213.57C1213.74 883.061 1220.11 887.221 1227.66 887.221C1233.01 887.221 1236.32 886.287 1239.04 885.099L1240.4 890.447C1237.77 891.636 1233.18 893.079 1226.64 893.079C1213.99 893.079 1206.44 884.674 1206.44 872.279C1206.44 859.884 1213.74 850.206 1225.71 850.206C1239.21 850.206 1242.69 861.922 1242.69 869.478C1242.69 871.006 1242.6 872.109 1242.43 872.958ZM1213.65 867.61H1235.47C1235.56 862.941 1233.52 855.555 1225.12 855.555C1217.47 855.555 1214.25 862.431 1213.65 867.61Z" fill="black"/>
<path d="M1363.03 892.145V834.925H1393.85V841.122H1370.51V860.139H1392.07V866.252H1370.51V892.145H1363.03ZM1412.39 892.145H1405V856.743H1399.31V851.055H1405V849.102C1405 843.329 1406.36 838.066 1409.75 834.755C1412.55 832.038 1416.29 830.935 1419.77 830.935C1422.49 830.935 1424.7 831.529 1426.14 832.123L1425.12 837.896C1424.02 837.387 1422.57 836.962 1420.37 836.962C1414 836.962 1412.39 842.481 1412.39 848.848V851.055H1422.32V856.743H1412.39V892.145Z" fill="black"/>
<path d="M1601.66 862.092V889.598C1598.35 890.872 1591.73 892.739 1584 892.739C1575.35 892.739 1568.21 890.532 1562.61 885.183C1557.69 880.429 1554.63 872.789 1554.63 863.874C1554.63 846.81 1566.43 834.33 1585.62 834.33C1592.24 834.33 1597.5 835.774 1599.97 836.962L1598.1 842.99C1595.04 841.547 1591.22 840.528 1585.45 840.528C1571.52 840.528 1562.44 849.187 1562.44 863.535C1562.44 878.052 1571.1 886.627 1584.51 886.627C1589.35 886.627 1592.66 885.948 1594.36 885.099V868.034H1582.82V862.092H1601.66ZM1647.8 862.261V886.117C1647.8 895.626 1645.85 901.314 1641.95 904.964C1637.87 908.615 1632.1 909.888 1626.92 909.888C1621.99 909.888 1616.56 908.7 1613.25 906.493L1615.12 900.72C1617.83 902.502 1622.08 904.031 1627.17 904.031C1634.81 904.031 1640.42 900.04 1640.42 889.598V885.099H1640.25C1638.04 888.919 1633.54 891.975 1627.17 891.975C1616.99 891.975 1609.68 883.316 1609.68 871.94C1609.68 858.017 1618.77 850.206 1628.28 850.206C1635.41 850.206 1639.23 853.857 1641.1 857.253H1641.27L1641.52 851.055H1648.14C1647.89 853.942 1647.8 857.337 1647.8 862.261ZM1640.33 874.656V867.27C1640.33 865.997 1640.25 864.893 1639.91 863.959C1638.55 859.545 1634.98 855.979 1629.47 855.979C1622.33 855.979 1617.24 862.007 1617.24 871.515C1617.24 879.58 1621.4 886.287 1629.38 886.287C1634.05 886.287 1638.21 883.401 1639.74 878.646C1640.16 877.373 1640.33 875.93 1640.33 874.656Z" fill="black"/>
<path d="M388.491 979.249H395.962V1003.19H423.638V979.249H431.109V1036.47H423.638V1009.64H395.962V1036.47H388.491V979.249ZM444.532 1036.47V976.193H452.003V1001.92H452.173C453.362 999.794 455.229 997.841 457.521 996.568C459.729 995.294 462.361 994.53 465.162 994.53C470.68 994.53 479.51 997.926 479.51 1012.02V1036.47H472.039V1012.87C472.039 1006.25 469.577 1000.73 462.53 1000.73C457.691 1000.73 453.956 1004.12 452.513 1008.11C452.088 1009.22 452.003 1010.32 452.003 1011.68V1036.47H444.532Z" fill="black"/>
<path d="M583.401 979.249H590.872V1036.47H583.401V979.249ZM611.844 1036.47H604.373V995.379H611.844V1036.47ZM608.108 979.164C610.825 979.164 612.693 981.202 612.693 983.833C612.693 986.38 610.91 988.418 607.939 988.418C605.222 988.418 603.439 986.38 603.439 983.833C603.439 981.286 605.307 979.164 608.108 979.164Z" fill="black"/>
<path d="M790.022 1016.94V979.249H797.493V1017.54C797.493 1032.73 790.022 1037.4 780.174 1037.4C777.373 1037.4 774.062 1036.81 772.279 1036.04L773.298 1030.02C774.826 1030.61 777.033 1031.12 779.58 1031.12C786.202 1031.12 790.022 1028.15 790.022 1016.94ZM800.305 1054.38L799.456 1048.52C802.937 1048.27 805.823 1047.34 807.606 1045.3C809.643 1043.01 810.492 1039.78 810.492 1029.93V995.379H817.963V1032.82C817.963 1040.8 816.69 1045.98 813.039 1049.71C809.728 1053.02 804.295 1054.38 800.305 1054.38ZM814.228 979.164C817.029 979.164 818.812 981.286 818.812 983.833C818.812 986.295 817.114 988.418 814.058 988.418C811.341 988.418 809.559 986.295 809.559 983.833C809.559 981.286 811.426 979.164 814.228 979.164Z" fill="black"/>
<path d="M973.302 1036.47V979.249H980.688V1006.84H980.942C982.471 1004.63 983.999 1002.6 985.442 1000.73L1002.93 979.249H1012.1L991.385 1003.53L1013.71 1036.47H1004.97L986.206 1008.37L980.688 1014.65V1036.47H973.302ZM1027.28 976.193V1014.23H1027.45C1028.46 1012.78 1029.82 1011 1031.01 1009.56L1043.15 995.379H1052.07L1036.27 1012.27L1054.36 1036.47H1045.19L1031.1 1016.77L1027.28 1021.02V1036.47H1019.89V976.193H1027.28Z" fill="black"/>
<path d="M1168.13 1036.47V979.249H1175.6V1030.27H1200.05V1036.47H1168.13ZM1208 1036.47V976.193H1215.47V1036.47H1208Z" fill="black"/>
<path d="M1412.7 1036.47L1411.34 1011.34C1410.92 1003.36 1410.41 993.681 1410.41 986.635H1410.24C1408.2 993.257 1405.91 1000.47 1403.02 1008.37L1392.92 1036.13H1387.31L1377.98 1008.88C1375.26 1000.73 1373.05 993.427 1371.44 986.635H1371.27C1371.1 993.766 1370.67 1003.27 1370.17 1011.93L1368.64 1036.47H1361.59L1365.58 979.249H1375L1384.77 1006.93C1387.14 1013.97 1389.01 1020.25 1390.54 1026.2H1390.71C1392.24 1020.42 1394.28 1014.14 1396.82 1006.93L1407.01 979.249H1416.43L1420 1036.47H1412.7ZM1432.09 1036.47V1006.5C1432.09 1002.17 1431.92 998.775 1431.75 995.379H1438.29L1438.63 1002.09H1438.88C1441.18 998.181 1445 994.53 1451.87 994.53C1457.39 994.53 1461.64 997.926 1463.42 1002.77H1463.59C1464.86 1000.39 1466.56 998.69 1468.26 997.417C1470.72 995.549 1473.35 994.53 1477.26 994.53C1482.77 994.53 1490.84 998.096 1490.84 1012.36V1036.47H1483.54V1013.29C1483.54 1005.31 1480.57 1000.64 1474.62 1000.64C1470.3 1000.64 1467.07 1003.78 1465.71 1007.35C1465.37 1008.45 1465.12 1009.73 1465.12 1011.09V1036.47H1457.82V1011.85C1457.82 1005.31 1454.93 1000.64 1449.24 1000.64C1444.66 1000.64 1441.18 1004.38 1439.99 1008.11C1439.56 1009.13 1439.39 1010.49 1439.39 1011.76V1036.47H1432.09Z" fill="black"/>
<path d="M1564.99 1036.47H1558.03V979.249H1566.18L1584.43 1008.2C1588.59 1014.91 1591.98 1020.93 1594.62 1026.79L1594.87 1026.71C1594.19 1019.07 1594.02 1012.1 1594.02 1003.19V979.249H1600.98V1036.47H1593.51L1575.35 1007.43C1571.36 1001.07 1567.53 994.53 1564.73 988.333L1564.48 988.418C1564.9 995.634 1564.99 1002.51 1564.99 1012.02V1036.47ZM1614.48 1036.47V1006.5C1614.48 1002.17 1614.4 998.775 1614.14 995.379H1620.76L1621.19 1002.17H1621.36C1623.39 998.351 1628.15 994.53 1634.94 994.53C1640.63 994.53 1649.46 997.926 1649.46 1012.02V1036.47H1641.99V1012.78C1641.99 1006.16 1639.52 1000.64 1632.48 1000.64C1627.64 1000.64 1623.82 1004.12 1622.46 1008.28C1622.12 1009.22 1621.95 1010.49 1621.95 1011.76V1036.47H1614.48Z" fill="black"/>
<path d="M411.668 1122.55C427.374 1122.55 437.477 1134.52 437.477 1151.59C437.477 1171.2 425.506 1181.73 410.904 1181.73C395.707 1181.73 385.18 1169.93 385.18 1152.61C385.18 1134.44 396.387 1122.55 411.668 1122.55ZM411.413 1128.58C399.103 1128.58 392.991 1139.96 392.991 1152.44C392.991 1164.75 399.613 1175.7 411.328 1175.7C423.044 1175.7 429.666 1164.92 429.666 1151.93C429.666 1140.47 423.723 1128.58 411.413 1128.58ZM464.589 1138.85C476.39 1138.85 484.37 1147.43 484.37 1159.91C484.37 1175.11 473.758 1181.73 463.91 1181.73C452.873 1181.73 444.214 1173.58 444.214 1160.59C444.214 1146.92 453.298 1138.85 464.589 1138.85ZM464.419 1144.46C455.675 1144.46 451.855 1152.61 451.855 1160.33C451.855 1169.33 456.948 1176.12 464.25 1176.12C471.381 1176.12 476.729 1169.42 476.729 1160.16C476.729 1153.2 473.249 1144.46 464.419 1144.46Z" fill="black"/>
<path d="M583.486 1180.79V1124.25C587.052 1123.66 591.721 1123.15 597.664 1123.15C604.965 1123.15 610.314 1124.85 613.709 1127.9C616.766 1130.62 618.718 1134.78 618.718 1139.87C618.718 1145.05 617.19 1149.13 614.304 1152.1C610.314 1156.26 604.031 1158.38 596.815 1158.38C594.608 1158.38 592.57 1158.3 590.872 1157.87V1180.79H583.486ZM590.872 1129.6V1151.84C592.485 1152.27 594.523 1152.44 596.985 1152.44C605.899 1152.44 611.332 1148.02 611.332 1140.3C611.332 1132.66 605.899 1129.01 597.834 1129.01C594.608 1129.01 592.146 1129.26 590.872 1129.6ZM627.089 1197.6V1153.12C627.089 1147.85 626.92 1143.61 626.75 1139.7H633.372L633.796 1146.75H633.966C636.937 1141.74 641.861 1138.85 648.568 1138.85C658.586 1138.85 666.057 1147.26 666.057 1159.65C666.057 1174.43 656.973 1181.73 647.295 1181.73C641.861 1181.73 637.107 1179.35 634.645 1175.28H634.475V1197.6H627.089ZM634.475 1156.94V1164.07C634.475 1165.17 634.56 1166.19 634.815 1167.12C636.173 1172.3 640.673 1175.87 646.021 1175.87C653.917 1175.87 658.501 1169.42 658.501 1159.99C658.501 1151.84 654.171 1144.8 646.276 1144.8C641.182 1144.8 636.343 1148.36 634.985 1153.97C634.73 1154.9 634.475 1156 634.475 1156.94Z" fill="black"/>
<path d="M827.716 1183L825.594 1189.2C817.868 1187.16 810.313 1184.87 803.691 1182.58C802.417 1182.15 801.314 1181.73 800.21 1181.73C786.542 1181.22 774.996 1171.2 774.996 1152.69C774.996 1134.35 786.117 1122.55 801.568 1122.55C817.189 1122.55 827.292 1134.61 827.292 1151.5C827.292 1166.28 820.5 1175.61 810.992 1179.01V1179.35C816.68 1180.79 822.877 1182.15 827.716 1183ZM801.144 1175.7C812.86 1175.7 819.482 1164.92 819.482 1151.93C819.482 1140.38 813.539 1128.58 801.399 1128.58C788.919 1128.58 782.806 1140.13 782.806 1152.52C782.806 1164.75 789.428 1175.7 801.144 1175.7ZM865.017 1197.6V1174.51H864.847C862.555 1178.5 858.055 1181.73 851.433 1181.73C841.84 1181.73 834.029 1173.49 834.029 1161.01C834.029 1145.56 843.962 1138.85 852.622 1138.85C858.989 1138.85 863.234 1142 865.271 1145.9H865.441L865.696 1139.7H872.742C872.572 1143.1 872.403 1146.75 872.403 1150.99V1197.6H865.017ZM865.017 1164.07V1156.34C865.017 1155.32 864.932 1154.22 864.677 1153.29C863.488 1148.7 859.583 1144.8 853.98 1144.8C846.254 1144.8 841.585 1151.33 841.585 1160.5C841.585 1168.74 845.49 1175.78 853.725 1175.78C858.564 1175.78 862.724 1172.81 864.422 1167.72C864.762 1166.62 865.017 1165.17 865.017 1164.07Z" fill="black"/>
<path d="M973.302 1180.79V1124.34C977.037 1123.66 982.471 1123.15 987.479 1123.15C995.375 1123.15 1000.55 1124.68 1004.03 1127.82C1006.84 1130.36 1008.53 1134.27 1008.53 1138.77C1008.53 1146.24 1003.78 1151.25 997.837 1153.29V1153.54C1002.17 1155.07 1004.8 1159.14 1006.16 1165.09C1008.02 1173.07 1009.38 1178.59 1010.57 1180.79H1002.93C1002 1179.1 1000.72 1174.26 999.195 1167.12C997.497 1159.23 994.356 1156.26 987.649 1156H980.688V1180.79H973.302ZM980.688 1129.52V1150.4H988.244C996.139 1150.4 1001.15 1146.07 1001.15 1139.53C1001.15 1132.15 995.799 1128.92 987.989 1128.92C984.423 1128.92 981.961 1129.18 980.688 1129.52ZM1019.56 1180.79V1152.52C1019.56 1147.68 1019.47 1143.52 1019.22 1139.7H1025.76L1026.09 1147.85H1026.35C1028.22 1142.34 1032.8 1138.85 1037.81 1138.85C1038.57 1138.85 1039.17 1138.94 1039.85 1139.02V1146.07C1039.08 1145.9 1038.32 1145.9 1037.3 1145.9C1032.04 1145.9 1028.3 1149.81 1027.28 1155.41C1027.11 1156.43 1027.03 1157.7 1027.03 1158.89V1180.79H1019.56Z" fill="black"/>
<path d="M1165.32 1177.99L1167.28 1171.79C1170.59 1173.92 1175.34 1175.53 1180.44 1175.53C1187.99 1175.53 1192.41 1171.54 1192.41 1165.77C1192.41 1160.5 1189.35 1157.36 1181.62 1154.48C1172.29 1151.08 1166.51 1146.16 1166.51 1138.18C1166.51 1129.26 1173.9 1122.64 1185.02 1122.64C1190.79 1122.64 1195.12 1124 1197.59 1125.44L1195.55 1131.47C1193.76 1130.36 1189.94 1128.75 1184.77 1128.75C1176.96 1128.75 1173.98 1133.42 1173.98 1137.33C1173.98 1142.67 1177.46 1145.31 1185.36 1148.36C1195.04 1152.1 1199.88 1156.77 1199.88 1165.17C1199.88 1174 1193.43 1181.73 1179.93 1181.73C1174.41 1181.73 1168.38 1180.03 1165.32 1177.99ZM1207.02 1178.84L1208.81 1173.24C1211.1 1174.6 1215 1176.12 1218.74 1176.12C1224.09 1176.12 1226.63 1173.49 1226.63 1170.01C1226.63 1166.45 1224.51 1164.58 1219.08 1162.54C1211.61 1159.82 1208.13 1155.83 1208.13 1150.91C1208.13 1144.29 1213.56 1138.85 1222.3 1138.85C1226.46 1138.85 1230.11 1139.96 1232.32 1141.4L1230.54 1146.83C1228.93 1145.82 1225.95 1144.37 1222.13 1144.37C1217.72 1144.37 1215.34 1146.92 1215.34 1149.98C1215.34 1153.37 1217.72 1154.9 1223.07 1157.02C1230.11 1159.65 1233.85 1163.22 1233.85 1169.33C1233.85 1176.63 1228.16 1181.73 1218.57 1181.73C1214.07 1181.73 1209.91 1180.54 1207.02 1178.84Z" fill="black"/>
<path d="M1373.99 1180.79V1129.86H1356.58V1123.57H1398.95V1129.86H1381.46V1180.79H1373.99ZM1406.76 1132.06L1414.06 1129.86V1139.7H1424.76V1145.39H1414.06V1167.55C1414.06 1172.64 1415.51 1175.53 1419.67 1175.53C1421.7 1175.53 1422.89 1175.36 1424 1175.02L1424.34 1180.71C1422.89 1181.22 1420.6 1181.73 1417.71 1181.73C1414.23 1181.73 1411.43 1180.54 1409.65 1178.59C1407.61 1176.29 1406.76 1172.64 1406.76 1167.8V1145.39H1400.39V1139.7H1406.76V1132.06Z" fill="black"/>
<path d="M1557.94 1123.57H1565.41V1157.53C1565.41 1170.27 1571.1 1175.7 1578.74 1175.7C1587.15 1175.7 1592.66 1170.1 1592.66 1157.53V1123.57H1600.14V1157.02C1600.14 1174.6 1590.88 1181.73 1578.49 1181.73C1566.77 1181.73 1557.94 1175.11 1557.94 1157.28V1123.57ZM1647.12 1139.7V1169.5C1647.12 1173.83 1647.21 1177.57 1647.46 1180.79H1640.84L1640.42 1174.09H1640.25C1638.38 1177.4 1633.96 1181.73 1626.66 1181.73C1620.21 1181.73 1612.48 1178.08 1612.48 1163.73V1139.7H1619.96V1162.37C1619.96 1170.18 1622.42 1175.53 1629.12 1175.53C1634.13 1175.53 1637.61 1172.05 1638.97 1168.65C1639.4 1167.63 1639.65 1166.28 1639.65 1164.83V1139.7H1647.12Z" fill="black"/>
<path d="M409.291 1325.12H401.141L382.379 1267.9H390.444L399.358 1296.08C401.735 1303.81 403.858 1310.77 405.471 1317.48H405.64C407.253 1310.85 409.546 1303.64 412.177 1296.17L421.856 1267.9H429.751L409.291 1325.12ZM430.236 1284.03H438.216L446.281 1307.03C447.64 1310.85 448.743 1314.25 449.592 1317.65H449.847C450.781 1314.25 451.969 1310.85 453.328 1307.03L461.308 1284.03H469.118L452.988 1325.12H445.857L430.236 1284.03Z" fill="black"/>
<path d="M600.551 1325.12H592.825L578.308 1267.9H586.118L592.91 1296.85C594.608 1303.98 596.136 1311.11 597.155 1316.63H597.324C598.258 1310.94 600.041 1304.15 601.994 1296.76L609.634 1267.9H617.36L624.322 1296.93C625.935 1303.72 627.463 1310.52 628.312 1316.54H628.481C629.67 1310.26 631.283 1303.89 633.066 1296.76L640.622 1267.9H648.178L631.962 1325.12H624.237L617.02 1295.32C615.238 1288.02 614.049 1282.41 613.285 1276.64H613.115C612.181 1282.33 610.823 1287.93 608.701 1295.32L600.551 1325.12ZM650.028 1284.03H657.669L663.187 1304.91C664.291 1309.5 665.394 1313.74 666.158 1317.99H666.413C667.347 1313.83 668.705 1309.41 670.064 1305L676.77 1284.03H683.053L689.42 1304.57C690.948 1309.5 692.137 1313.83 693.071 1317.99H693.325C694.004 1313.83 695.108 1309.5 696.466 1304.66L702.324 1284.03H709.71L696.466 1325.12H689.675L683.392 1305.51C681.949 1300.92 680.761 1296.85 679.742 1292.01H679.572C678.553 1296.93 677.28 1301.18 675.837 1305.59L669.215 1325.12H662.423L650.028 1284.03Z" fill="black"/>
<path d="M818.293 1325.12H809.718L802.332 1312.47C799.361 1307.63 797.578 1304.49 795.795 1301.18H795.626C794.013 1304.49 792.315 1307.54 789.428 1312.55L782.552 1325.12H774.062L791.551 1296.17L774.741 1267.9H783.316L790.871 1281.31C792.994 1285.05 794.607 1287.93 796.135 1290.99H796.39C798.003 1287.59 799.446 1284.96 801.568 1281.31L809.294 1267.9H817.868L800.465 1295.74L818.293 1325.12ZM821.798 1284.03H830.118L835.976 1292.86C837.589 1295.15 838.862 1297.19 840.221 1299.48H840.391C841.749 1297.1 843.107 1294.98 844.551 1292.77L850.239 1284.03H858.389L844.381 1303.89L858.728 1325.12H850.324L844.211 1315.86C842.598 1313.49 841.24 1311.19 839.796 1308.73H839.627C838.268 1311.19 836.91 1313.4 835.297 1315.86L829.354 1325.12H821.119L835.721 1304.15L821.798 1284.03Z" fill="black"/>
<path d="M993.507 1325.12H986.036V1300.84L967.868 1267.9H976.358L984.423 1283.69C986.546 1288.02 988.328 1291.5 990.111 1295.49H990.281C991.809 1291.75 993.847 1288.02 996.054 1283.69L1004.29 1267.9H1012.61L993.507 1300.75V1325.12ZM1011.06 1284.03H1019.21L1028.12 1308.31C1029.14 1311.02 1030.16 1314.25 1030.84 1316.71H1031.01C1031.77 1314.25 1032.62 1311.11 1033.64 1308.14L1041.79 1284.03H1049.68L1038.48 1313.32C1033.13 1327.41 1029.48 1334.54 1024.39 1339.04C1020.65 1342.18 1017.08 1343.46 1015.22 1343.79L1013.35 1337.6C1015.22 1337 1017.68 1335.81 1019.89 1333.95C1021.92 1332.33 1024.39 1329.45 1026.17 1325.63C1026.51 1324.86 1026.76 1324.27 1026.76 1323.84C1026.76 1323.42 1026.59 1322.83 1026.17 1321.89L1011.06 1284.03Z" fill="black"/>
<path d="M1164.31 1325.12V1320.79L1195.97 1274.35V1274.09H1167.02V1267.9H1205.65V1272.4L1174.07 1318.67V1318.92H1206.07V1325.12H1164.31ZM1210.21 1325.12V1320.79L1228.72 1296.59C1230.59 1294.3 1232.29 1292.35 1234.15 1290.14V1289.97H1211.91V1284.03H1243.15V1288.7L1224.81 1312.55C1223.03 1314.85 1221.42 1316.97 1219.55 1319.01V1319.17H1243.49V1325.12H1210.21Z" fill="black"/>
<path d="M1378.99 1269C1390.54 1269 1397.25 1279.36 1397.25 1296.93C1397.25 1315.69 1390.2 1326.05 1378.06 1326.05C1367.28 1326.05 1359.89 1315.95 1359.72 1297.7C1359.72 1279.1 1367.79 1269 1378.99 1269ZM1378.49 1274.77C1372.03 1274.77 1367.28 1282.75 1367.28 1297.78C1367.28 1312.13 1371.69 1320.28 1378.49 1320.28C1386.04 1320.28 1389.69 1311.36 1389.69 1297.27C1389.69 1283.69 1386.3 1274.77 1378.49 1274.77ZM1420.23 1325.12V1276.9H1420.06L1410.47 1282.07L1409.02 1276.39L1421.08 1269.93H1427.44V1325.12H1420.23Z" fill="black"/>
<path d="M1573.9 1269C1585.45 1269 1592.15 1279.36 1592.15 1296.93C1592.15 1315.69 1585.11 1326.05 1572.97 1326.05C1562.19 1326.05 1554.8 1315.95 1554.63 1297.7C1554.63 1279.1 1562.7 1269 1573.9 1269ZM1573.39 1274.77C1566.94 1274.77 1562.19 1282.75 1562.19 1297.78C1562.19 1312.13 1566.6 1320.28 1573.39 1320.28C1580.95 1320.28 1584.6 1311.36 1584.6 1297.27C1584.6 1283.69 1581.2 1274.77 1573.39 1274.77ZM1634.15 1325.12H1598.92V1320.53L1604.78 1314.85C1618.87 1301.43 1625.32 1294.3 1625.32 1285.98C1625.32 1280.38 1622.69 1275.2 1614.46 1275.2C1609.45 1275.2 1605.29 1277.75 1602.74 1279.87L1600.36 1274.6C1604.1 1271.46 1609.62 1269 1615.9 1269C1627.79 1269 1632.79 1277.15 1632.79 1285.05C1632.79 1295.23 1625.41 1303.47 1613.78 1314.68L1609.45 1318.75V1318.92H1634.15V1325.12Z" fill="black"/>
<path d="M404.452 1413.32C415.998 1413.32 422.705 1423.68 422.705 1441.26C422.705 1460.02 415.658 1470.38 403.518 1470.38C392.736 1470.38 385.35 1460.27 385.18 1442.02C385.18 1423.43 393.245 1413.32 404.452 1413.32ZM403.942 1419.1C397.49 1419.1 392.736 1427.08 392.736 1442.1C392.736 1456.45 397.151 1464.6 403.942 1464.6C411.498 1464.6 415.149 1455.69 415.149 1441.6C415.149 1428.01 411.753 1419.1 403.942 1419.1ZM429.216 1466.64L431.253 1460.95C433.376 1462.23 438.215 1464.35 443.478 1464.35C452.987 1464.35 456.043 1458.32 455.958 1453.65C455.873 1445.93 448.912 1442.61 441.696 1442.61H437.536V1437.01H441.696C447.129 1437.01 454.006 1434.21 454.006 1427.67C454.006 1423.26 451.204 1419.35 444.327 1419.35C439.913 1419.35 435.668 1421.31 433.291 1423L431.253 1417.57C434.225 1415.45 439.828 1413.32 445.771 1413.32C456.637 1413.32 461.561 1419.78 461.561 1426.48C461.561 1432.26 458.081 1437.1 451.374 1439.56V1439.73C458.165 1441 463.599 1446.1 463.684 1453.82C463.684 1462.65 456.722 1470.38 443.563 1470.38C437.366 1470.38 431.932 1468.42 429.216 1466.64Z" fill="black"/>
<path d="M599.362 1413.32C610.908 1413.32 617.615 1423.68 617.615 1441.26C617.615 1460.02 610.568 1470.38 598.428 1470.38C587.646 1470.38 580.26 1460.27 580.09 1442.02C580.09 1423.43 588.156 1413.32 599.362 1413.32ZM598.853 1419.1C592.4 1419.1 587.646 1427.08 587.646 1442.1C587.646 1456.45 592.061 1464.6 598.853 1464.6C606.408 1464.6 610.059 1455.69 610.059 1441.6C610.059 1428.01 606.663 1419.1 598.853 1419.1ZM654.519 1469.44H647.472V1454.33H621.834V1449.49L646.454 1414.26H654.519V1448.56H662.244V1454.33H654.519V1469.44ZM629.389 1448.56H647.472V1430.13C647.472 1427.25 647.557 1424.36 647.727 1421.48H647.472C645.775 1424.7 644.416 1427.08 642.888 1429.63L629.389 1448.39V1448.56Z" fill="black"/>
<path d="M794.267 1413.32C805.813 1413.32 812.52 1423.68 812.52 1441.26C812.52 1460.02 805.474 1470.38 793.333 1470.38C782.552 1470.38 775.166 1460.27 774.996 1442.02C774.996 1423.43 783.061 1413.32 794.267 1413.32ZM793.758 1419.1C787.306 1419.1 782.552 1427.08 782.552 1442.1C782.552 1456.45 786.966 1464.6 793.758 1464.6C801.314 1464.6 804.964 1455.69 804.964 1441.6C804.964 1428.01 801.568 1419.1 793.758 1419.1ZM852.226 1414.26V1420.54H831.171L829.049 1434.72C830.322 1434.55 831.511 1434.46 833.548 1434.46C837.878 1434.46 842.038 1435.31 845.434 1437.44C849.764 1439.81 853.329 1444.65 853.329 1451.53C853.329 1462.31 844.755 1470.38 832.784 1470.38C826.757 1470.38 821.748 1468.68 819.031 1466.98L820.899 1461.29C823.191 1462.65 827.691 1464.35 832.784 1464.35C839.746 1464.35 845.858 1459.76 845.774 1452.38C845.774 1445.25 840.934 1440.24 829.983 1440.24C826.757 1440.24 824.295 1440.49 822.257 1440.75L825.823 1414.26H852.226Z" fill="black"/>
<path d="M989.177 1413.32C1000.72 1413.32 1007.43 1423.68 1007.43 1441.26C1007.43 1460.02 1000.38 1470.38 988.244 1470.38C977.462 1470.38 970.076 1460.27 969.906 1442.02C969.906 1423.43 977.971 1413.32 989.177 1413.32ZM988.668 1419.1C982.216 1419.1 977.462 1427.08 977.462 1442.1C977.462 1456.45 981.876 1464.6 988.668 1464.6C996.224 1464.6 999.874 1455.69 999.874 1441.6C999.874 1428.01 996.479 1419.1 988.668 1419.1ZM1045.69 1413.41V1419.52C1044.16 1419.44 1042.21 1419.61 1040.09 1419.95C1028.29 1421.81 1022.18 1430.3 1020.9 1439.47H1021.07C1023.7 1435.91 1028.37 1433.02 1034.49 1433.02C1044.25 1433.02 1051.13 1440.15 1051.13 1450.85C1051.13 1461.04 1044.25 1470.38 1032.7 1470.38C1020.99 1470.38 1013.26 1461.21 1013.26 1446.86C1013.26 1435.99 1017.08 1427.42 1022.6 1421.98C1027.19 1417.48 1033.3 1414.68 1040.26 1413.83C1042.47 1413.49 1044.33 1413.41 1045.69 1413.41ZM1032.87 1464.6C1039.24 1464.6 1043.57 1459.25 1043.57 1451.36C1043.57 1443.46 1039.07 1438.71 1032.19 1438.71C1027.69 1438.71 1023.45 1441.43 1021.41 1445.5C1020.99 1446.35 1020.65 1447.37 1020.65 1448.73C1020.73 1457.81 1024.98 1464.6 1032.87 1464.6Z" fill="black"/>
<path d="M1184.09 1413.32C1195.63 1413.32 1202.34 1423.68 1202.34 1441.26C1202.34 1460.02 1195.29 1470.38 1183.15 1470.38C1172.37 1470.38 1164.98 1460.27 1164.82 1442.02C1164.82 1423.43 1172.88 1413.32 1184.09 1413.32ZM1183.58 1419.1C1177.13 1419.1 1172.37 1427.08 1172.37 1442.1C1172.37 1456.45 1176.79 1464.6 1183.58 1464.6C1191.13 1464.6 1194.78 1455.69 1194.78 1441.6C1194.78 1428.01 1191.39 1419.1 1183.58 1419.1ZM1210.12 1414.26H1244.93V1419.18L1220.91 1469.44H1213.18L1237.12 1420.63V1420.46H1210.12V1414.26Z" fill="black"/>
<path d="M1378.99 1413.32C1390.54 1413.32 1397.25 1423.68 1397.25 1441.26C1397.25 1460.02 1390.2 1470.38 1378.06 1470.38C1367.28 1470.38 1359.89 1460.27 1359.72 1442.02C1359.72 1423.43 1367.79 1413.32 1378.99 1413.32ZM1378.49 1419.1C1372.03 1419.1 1367.28 1427.08 1367.28 1442.1C1367.28 1456.45 1371.69 1464.6 1378.49 1464.6C1386.04 1464.6 1389.69 1455.69 1389.69 1441.6C1389.69 1428.01 1386.3 1419.1 1378.49 1419.1ZM1414.29 1440.66L1414.2 1440.41C1408 1437.52 1405.37 1432.77 1405.37 1428.01C1405.37 1419.27 1412.76 1413.32 1422.52 1413.32C1433.22 1413.32 1438.65 1419.95 1438.65 1426.91C1438.65 1431.58 1436.27 1436.67 1429.48 1439.81V1440.07C1436.36 1442.78 1440.6 1447.71 1440.6 1454.33C1440.6 1464.01 1432.37 1470.38 1421.84 1470.38C1410.3 1470.38 1403.33 1463.58 1403.33 1455.52C1403.33 1448.56 1407.49 1443.55 1414.29 1440.66ZM1422.01 1464.94C1428.72 1464.94 1433.05 1460.78 1433.05 1455.09C1433.05 1448.47 1428.38 1445.16 1420.91 1443.04C1414.46 1444.91 1410.97 1449.24 1410.97 1454.5C1410.72 1460.02 1414.97 1464.94 1422.01 1464.94ZM1422.1 1418.67C1415.9 1418.67 1412.5 1422.75 1412.5 1427.5C1412.42 1433.02 1416.66 1435.99 1423.03 1437.69C1427.78 1436.08 1431.43 1432.68 1431.43 1427.67C1431.43 1423.26 1428.8 1418.67 1422.1 1418.67Z" fill="black"/>
<path d="M1573.9 1413.32C1585.45 1413.32 1592.15 1423.68 1592.15 1441.26C1592.15 1460.02 1585.11 1470.38 1572.97 1470.38C1562.19 1470.38 1554.8 1460.27 1554.63 1442.02C1554.63 1423.43 1562.7 1413.32 1573.9 1413.32ZM1573.39 1419.1C1566.94 1419.1 1562.19 1427.08 1562.19 1442.1C1562.19 1456.45 1566.6 1464.6 1573.39 1464.6C1580.95 1464.6 1584.6 1455.69 1584.6 1441.6C1584.6 1428.01 1581.2 1419.1 1573.39 1419.1ZM1603.25 1470.29V1464.18C1604.86 1464.35 1606.73 1464.18 1609.28 1463.92C1613.61 1463.33 1617.68 1461.63 1620.82 1458.57C1624.47 1455.26 1627.11 1450.42 1628.13 1443.97H1627.87C1624.81 1447.71 1620.4 1449.83 1614.8 1449.83C1604.95 1449.83 1598.58 1442.36 1598.58 1432.94C1598.58 1422.49 1606.14 1413.32 1617.43 1413.32C1628.72 1413.32 1635.68 1422.41 1635.68 1436.67C1635.68 1448.73 1631.61 1457.22 1626.17 1462.48C1621.93 1466.64 1616.07 1469.19 1610.13 1469.87C1607.41 1470.29 1605.03 1470.38 1603.25 1470.29ZM1616.75 1419.01C1610.47 1419.01 1605.97 1424.62 1605.97 1432.51C1605.97 1439.39 1610.13 1444.23 1616.58 1444.23C1621.59 1444.23 1625.49 1441.77 1627.45 1438.45C1627.87 1437.69 1628.13 1436.93 1628.13 1435.65C1628.13 1426.23 1624.64 1419.01 1616.75 1419.01Z" fill="black"/>
</g>
</svg>
