<svg width="400" height="335" viewBox="0 0 400 335" fill="none" xmlns="http://www.w3.org/2000/svg">
<path d="M346.237 180.285C366.306 179.895 389.108 193.079 398 199.719C376.207 198.452 377.9 209.755 360.364 213.896C342.828 218.036 342.097 219.254 326.753 228.022C311.409 236.791 288.758 241.418 269.516 232.163C263.898 229.46 260.48 225.569 259.174 221.331C256.006 211.056 265.244 198.738 285.591 196.36C314.331 193 321.151 180.772 346.237 180.285Z" fill="#838383"/>
<path d="M398 199.719C389.108 193.079 366.306 179.895 346.237 180.285C321.151 180.772 314.331 193 285.591 196.36C265.244 198.738 256.006 211.056 259.174 221.331M398 199.719C376.207 198.452 377.9 209.755 360.364 213.896C342.828 218.036 342.097 219.254 326.753 228.022C311.409 236.791 288.758 241.418 269.516 232.163C263.898 229.46 260.48 225.569 259.174 221.331M398 199.719C384.399 196.326 352.863 192.463 335.521 204.154C318.18 215.844 277.397 220.476 259.174 221.331" stroke="#181817" stroke-width="3.84484" stroke-linecap="round" stroke-linejoin="round"/>
<path d="M236.306 180.276C226.327 164.617 203.054 131.273 189.79 123.167C173.21 113.034 154.787 97.3754 138.207 72.0446C121.627 46.7138 75.1105 37.963 44.253 31.9757C29.5033 29.1138 23.0666 28.0407 22.8304 31.9757C22.5725 36.2729 29.7094 46.5428 41.4896 66.978C64.0571 106.125 84.7822 105.665 105.507 119.942C126.233 134.22 153.406 164.156 183.802 161.393C208.12 159.182 228.937 173.061 236.306 180.276Z" fill="#838383"/>
<path d="M236.306 180.276C226.327 164.617 203.054 131.273 189.79 123.167C173.21 113.034 154.787 97.3754 138.207 72.0446C121.627 46.7138 75.1105 37.963 44.253 31.9757C29.5033 29.1138 23.0666 28.0407 22.8304 31.9757M236.306 180.276C228.937 173.061 208.12 159.182 183.802 161.393C153.406 164.156 126.233 134.22 105.507 119.942C84.7822 105.665 64.0571 106.125 41.4896 66.978C29.7094 46.5428 22.5725 36.2729 22.8304 31.9757M236.306 180.276C214.199 155.407 178.276 130.535 156.169 123.167C134.062 115.798 123.93 104.744 111.495 87.7032C99.0596 70.6625 78.7949 72.0446 66.8204 57.3062C57.2408 45.5156 33.5022 35.5064 22.8304 31.9757" stroke="#181817" stroke-width="3.84484" stroke-linecap="round" stroke-linejoin="round"/>
<path d="M130.348 67.7458C149.307 30.5269 170.769 23.0466 183.452 25.8732C223.453 16.1096 233.157 47.7748 247.762 67.7458C266.283 93.0722 261.747 109.377 254.764 120.944C271.999 151.701 254.764 203.067 243.992 224.905C218.857 251.571 155.123 304.563 101.264 303.201C47.4041 301.839 41.4794 267.835 45.2496 251.004C-8.07155 218.097 31.7847 181.218 47.9427 170.438C64.1006 159.658 56.5602 142.069 67.3321 120.944C78.1041 99.8186 106.65 114.269 130.348 67.7458Z" fill="#181817" stroke="#181817" stroke-width="3.84484" stroke-linecap="round" stroke-linejoin="round"/>
<path d="M227.094 113.579C226.963 117.011 227.265 124 229.526 124.499C232.352 125.123 232.747 109.367 230.906 104.064" stroke="#F9F9F9" stroke-width="3.84484" stroke-linecap="round" stroke-linejoin="round"/>
<path d="M156.757 113.02C156.889 116.452 156.586 123.44 154.326 123.939C151.499 124.563 151.105 108.808 152.945 103.504" stroke="#F9F9F9" stroke-width="3.84484" stroke-linecap="round" stroke-linejoin="round"/>
<path d="M237.211 101.601C239.471 89.981 229.692 90.2086 229.1 97.5951L220.606 116.17C224.597 116.485 235.435 110.728 237.211 101.601Z" fill="#F9F9F9" stroke="#181817" stroke-width="3.84484" stroke-linecap="round" stroke-linejoin="round"/>
<path d="M167.083 152.892C170.225 145.75 169.357 135.981 168.53 131.989C181.925 126.24 198.502 129.593 205.117 131.989C203.298 140.002 205.048 149.263 206.15 152.892C207.253 156.521 213.93 161.886 230.871 160.759C252.047 159.35 258.122 160.457 267.484 170.554C284.769 198.734 247.717 250.762 179.618 261.631C110.083 272.728 95.0837 216.996 104.669 197.037C114.254 177.078 123.839 182.243 145.015 172.381C161.956 164.492 165.812 155.781 167.083 152.892Z" fill="#F9F9F9" stroke="#181817" stroke-width="3.84484" stroke-linecap="round" stroke-linejoin="round"/>
<path d="M163.776 129.811C171.647 140.035 195.732 150.758 211.938 146.577C232.195 141.351 189.201 106.295 163.776 129.811Z" fill="#181817" stroke="#181817" stroke-width="3.84484" stroke-linecap="round" stroke-linejoin="round"/>
<path d="M165.83 131.712C157.348 125.755 150.03 109.518 147.583 95.3583C165.83 88.8834 164.64 68.1775 183.228 56.9241C194.552 82.8067 219.433 92.2594 229.506 95.3583C228.276 102.603 224.89 116.3 219.433 123.632C212.667 132.723 198.532 141.415 191.163 141.415C183.794 141.415 176.028 138.874 165.83 131.712Z" fill="#F9F9F9" stroke="#181817" stroke-width="3.84484" stroke-linecap="round" stroke-linejoin="round"/>
<path d="M185.401 95.6688C185.401 95.6688 186.333 100.815 183.989 102.927C181.644 105.04 180.583 106.196 181.116 108.452C181.649 110.708 183.989 113.389 183.989 113.389" stroke="#181817" stroke-width="3.84484" stroke-linecap="round" stroke-linejoin="round"/>
<path d="M215.476 83.8133C204.534 80.3122 196.895 79.7794 194.443 79.9506C193.978 79.3042 194.748 78.7501 199.102 79.3793C203.455 80.0086 211.612 82.3871 215.476 83.8133Z" stroke="#181817" stroke-width="3.84484" stroke-linecap="round" stroke-linejoin="round"/>
<path d="M154.558 83.2124C164.565 80.0716 173.107 79.4527 176.127 79.5359C175.894 78.914 174.774 78.5569 170.637 79.1148C165.85 79.7605 157.572 82.0958 154.558 83.2124Z" stroke="#181817" stroke-width="3.84484" stroke-linecap="round" stroke-linejoin="round"/>
<path d="M177.86 119.589C180.521 122.885 188.439 127.501 198.83 119.589C188.141 125.238 180.397 121.943 177.86 119.589Z" stroke="#181817" stroke-width="3.84484" stroke-linecap="round" stroke-linejoin="round"/>
<path d="M181.094 127.201C183.321 129.709 186.697 130.603 190.967 129.709" stroke="#181817" stroke-width="3.84484" stroke-linecap="round" stroke-linejoin="round"/>
<path d="M227.167 110.49C227.12 111.387 227.087 112.287 227.07 113.173" stroke="#181817" stroke-width="3.84484" stroke-linecap="round" stroke-linejoin="round"/>
<path d="M184.906 182.256C180.353 181.384 169.269 179.581 161.363 179.349M201.487 179.349C205.638 176.624 215.016 170.743 219.321 169.021" stroke="#181817" stroke-width="3.84484" stroke-linecap="round" stroke-linejoin="round"/>
<path d="M124.201 202.4C147.406 197.402 162.758 208.469 185.964 207.398C189.344 206.984 196.927 205.779 200.213 204.277L210.655 208.585L216.888 197.473C220.812 193.532 224.636 191.237 226.057 190.582C231.665 187.93 244.199 180.989 249.473 174.441C254.747 167.894 261.522 165.499 264.25 165.12C267.13 165.954 273.389 169.485 275.39 176.942C277.89 186.263 276.491 192.547 286.469 197.473C296.446 202.4 318.777 211.274 321.628 223.649C323.053 237.904 318.017 270.123 286.469 284.961C282.717 286.725 273.523 287.04 268.711 285.509C252.225 298.565 214.746 309.664 193.357 309.664C190.936 312.873 183.52 320.661 173.219 326.14C131.575 348.471 83.2126 305.226 64.2366 280.812C65.1279 271.453 69.9854 250.151 82.2854 239.812C94.5853 229.473 100.36 217.227 101.709 212.396C101.471 210.73 105.636 206.398 124.201 202.4Z" fill="#DEDEDE"/>
<path d="M185.964 207.398C162.758 208.469 147.406 197.402 124.201 202.4C105.636 206.398 101.471 210.73 101.709 212.396C100.36 217.227 94.5853 229.473 82.2854 239.812C69.9854 250.151 65.1279 271.453 64.2366 280.812C83.2126 305.226 131.575 348.471 173.219 326.14M191.326 262.769C189.062 258.35 181.292 248.543 168.316 244.662M145.755 241.156C140.81 238.017 128.144 231.456 117.032 230.326M120.799 243.04C117.816 240.528 110.204 234.988 103.612 232.916M120.799 320.381C123.717 319.225 131.43 317.26 138.938 318.647M170.215 223.649C174.586 227.036 184.574 236.958 189.556 249.546M205.958 216.959C203.683 211.459 201.575 206.953 200.213 204.277L217.478 211.399M205.958 216.959L216.888 197.473C217.315 202.134 217.485 206.842 217.478 211.399M205.958 216.959L217.053 223.649M205.958 216.959C207.296 220.197 208.692 223.779 210.026 227.535M217.478 211.399C217.47 215.67 217.307 219.807 217.053 223.649M217.478 211.399L210.026 227.535M217.053 223.649C216.491 232.158 215.485 239.214 214.746 243.04C213.467 237.831 211.8 232.529 210.026 227.535M226.057 190.582C231.665 187.93 244.199 180.989 249.473 174.441C254.747 167.894 261.522 165.499 264.25 165.12C267.13 165.954 273.389 169.485 275.39 176.942C277.89 186.263 276.491 192.547 286.469 197.473C296.446 202.4 318.777 211.274 321.628 223.649C323.053 237.904 318.017 270.123 286.469 284.961M247.935 275.485C244.928 275.878 237.936 277.492 234.018 280.812M246.389 282.443C244.327 283.56 239.224 287.237 235.307 293.01M196.524 293.01C196.75 298.357 194.668 310.97 184.531 318.647" stroke="#181817" stroke-width="3.84484" stroke-linecap="round" stroke-linejoin="round"/>
<path d="M276.297 286.454C272.327 286.454 263.222 284.549 258.564 276.926" stroke="#181817" stroke-width="3.84484" stroke-linecap="round" stroke-linejoin="round"/>
<path d="M193.289 200.194C189.15 187.948 196.524 177.647 206.097 173.641C207.994 179.135 208.089 192.137 193.289 200.194Z" fill="#838383"/>
<path d="M193.289 200.194C189.15 187.948 196.524 177.647 206.097 173.641M193.289 200.194C208.089 192.137 207.994 179.135 206.097 173.641M193.289 200.194L206.097 173.641" stroke="#181817" stroke-width="3.84484" stroke-linejoin="round"/>
<path d="M185.871 201.113C182.621 185.718 170.83 177.2 160.65 176.623C162.074 183.546 169.112 198.136 185.871 201.113Z" fill="#838383"/>
<path d="M185.871 201.113C182.621 185.718 170.83 177.2 160.65 176.623M185.871 201.113C169.112 198.136 162.074 183.546 160.65 176.623M185.871 201.113L160.65 176.623" stroke="#181817" stroke-width="3.84484" stroke-linejoin="round"/>
<path d="M163.466 242.397C173.37 238.683 190.031 237.626 197.123 237.562C196.273 237.815 195.33 238.1 194.311 238.413C185.154 241.974 177.427 252.513 166.15 258.433C156.22 263.646 143.588 265.26 138.513 265.416C145.67 257.678 151.086 247.04 163.466 242.397Z" fill="#838383"/>
<path d="M197.123 237.562C190.031 237.626 173.37 238.683 163.466 242.397C151.086 247.04 145.67 257.678 138.513 265.416M197.123 237.562C186.672 239.807 178.562 251.917 166.15 258.433C156.22 263.646 143.588 265.26 138.513 265.416M197.123 237.562C187.833 240.33 167.36 246.921 159.789 251.142C152.218 255.362 142.45 262.416 138.513 265.416" stroke="#181817" stroke-width="3.84484" stroke-linejoin="round"/>
<path d="M211.863 266.804C210.571 259.181 213.478 254.046 215.093 252.432C215.987 251.23 219.808 247.517 224.136 248.586C226.208 249.098 228.396 250.705 230.435 254.208C235.473 262.864 230.166 270.196 226.882 272.78C229.982 279.498 226.343 283.869 224.136 285.215C226.72 291.933 221.122 295.443 217.999 296.358C220.906 299.75 218 309.278 209.602 306.048C202.883 303.464 204.542 297.004 206.211 294.097C201.689 289.188 205.618 284.515 208.148 282.793C203.239 273.749 208.579 268.365 211.863 266.804Z" fill="#838383"/>
<path d="M224.136 248.586C226.208 249.098 228.396 250.705 230.435 254.208C235.473 262.864 230.166 270.196 226.882 272.78C229.982 279.498 226.343 283.869 224.136 285.215C226.72 291.933 221.122 295.443 217.999 296.358C220.906 299.75 218 309.278 209.602 306.048C202.883 303.464 204.542 297.004 206.211 294.097C201.689 289.188 205.618 284.515 208.148 282.793C203.239 273.749 208.579 268.365 211.863 266.804C210.571 259.181 213.478 254.046 215.093 252.432C215.987 251.23 219.808 247.517 224.136 248.586ZM224.136 248.586C221.552 261.226 215.286 288.961 210.894 298.78" stroke="#181817" stroke-width="3.84484" stroke-linecap="round" stroke-linejoin="round"/>
<path d="M277.047 194.264C276.322 201.962 272.185 206.169 270.207 207.311C269.033 208.24 264.381 210.837 260.476 208.684C258.608 207.654 256.91 205.535 255.848 201.624C253.221 191.959 260.246 186.251 264.086 184.605C262.83 177.313 267.476 174.033 269.957 173.304C269.199 166.146 275.516 164.205 278.768 164.129C276.838 160.101 282.112 151.649 289.388 156.943C295.208 161.177 291.935 166.988 289.57 169.364C292.668 175.276 287.662 178.773 284.773 179.782C287.174 189.788 280.623 193.606 277.047 194.264Z" fill="#838383"/>
<path d="M260.476 208.684C258.608 207.654 256.91 205.535 255.848 201.624C253.221 191.959 260.246 186.251 264.086 184.605C262.83 177.313 267.476 174.033 269.957 173.304C269.199 166.146 275.516 164.205 278.768 164.129C276.838 160.101 282.112 151.649 289.388 156.943C295.208 161.177 291.935 166.988 289.57 169.364C292.668 175.276 287.662 178.773 284.773 179.782C287.174 189.788 280.623 193.606 277.047 194.264C276.322 201.962 272.185 206.169 270.207 207.311C269.033 208.24 264.381 210.837 260.476 208.684ZM260.476 208.684C266.244 197.144 279.475 171.976 286.259 163.628" stroke="#181817" stroke-width="3.84484" stroke-linecap="round" stroke-linejoin="round"/>
<path d="M185.699 287.601C185.699 263.553 192.37 244.47 208.505 233.92C208.505 246.022 206.333 257.968 201.524 265.415C197.676 271.373 189.37 282.688 185.699 287.601Z" fill="#838383"/>
<path d="M208.505 233.92C192.37 244.47 185.699 263.553 185.699 287.601M208.505 233.92C208.505 246.022 206.333 257.968 201.524 265.415C197.676 271.373 189.37 282.688 185.699 287.601M208.505 233.92C203.385 243.746 191.656 268.238 185.699 287.601" stroke="#181817" stroke-width="3.84484" stroke-linejoin="round"/>
<path d="M205.869 100.326C200.618 100.836 197.358 97.2268 196.304 94.909C198.1 96.3875 200.93 98.4474 204.79 98.4474C208.649 98.4474 213.028 95.6923 215.269 94.5045C214.271 95.9329 210.953 99.833 205.869 100.326Z" stroke="#181817" stroke-width="3.84484" stroke-linecap="round" stroke-linejoin="round"/>
<path d="M197.78 98.724C197.44 99.3067 196.985 100.057 195.786 100.599M204.986 100.475C204.986 101.763 204.986 102.812 203.942 104.252M211.653 98.7241C212.553 99.021 213.317 100.69 213.651 101.7" stroke="#181817" stroke-width="3.84484" stroke-linecap="round" stroke-linejoin="round"/>
<path d="M165.693 100.326C169.935 100.835 172.57 97.2266 173.421 94.9088C172.438 96.2285 169.203 98.5092 165.693 98.5092C162.932 98.5092 159.745 97.255 158.138 95.187C158.945 96.6155 161.586 99.8328 165.693 100.326Z" stroke="#181817" stroke-width="3.84484" stroke-linecap="round" stroke-linejoin="round"/>
<path d="M161.072 98.7239C160.733 99.3066 159.755 100.607 158.556 101.149M166.373 100.482C166.373 101.77 166.373 102.819 165.33 104.258M171.346 98.7238C172.246 99.0207 173.01 100.14 173.344 101.149" stroke="#181817" stroke-width="3.84484" stroke-linecap="round" stroke-linejoin="round"/>
<path d="M149.281 300.929C152.357 285.209 204.955 255.649 230.87 242.834C253.615 231.586 264.036 233.431 271.112 235.399C279.548 237.746 303.019 242.095 295.775 245.651C297.565 246.432 298.64 247.066 298.458 247.41C298.439 248.264 297.244 249.675 292.613 248.484C294.435 249.093 292.912 251.518 285.848 250.008C278.784 248.498 274.586 247.387 269.092 248.484C260.864 252.332 257.888 258.756 233.521 258.505C223.139 277.066 191.679 320.796 180.983 324.256C170.286 327.717 145.437 320.579 149.281 300.929Z" fill="#F9F9F9"/>
<path d="M295.775 245.651C303.019 242.095 279.548 237.746 271.112 235.399C264.036 233.431 253.615 231.586 230.87 242.834C204.955 255.649 152.357 285.209 149.281 300.929C145.437 320.579 170.286 327.717 180.983 324.256C191.679 320.796 223.139 277.066 233.521 258.505C257.888 258.756 260.864 252.332 269.092 248.484C274.586 247.387 278.784 248.498 285.848 250.008C292.912 251.518 294.435 249.093 292.613 248.484C297.244 249.675 298.439 248.264 298.458 247.41C298.64 247.066 297.565 246.432 295.775 245.651ZM295.775 245.651C289.559 242.94 277.965 240.788 277.146 240.588" stroke="#181817" stroke-width="3.84484" stroke-linecap="round" stroke-linejoin="round"/>
<path d="M215.122 198.228C208.452 185.09 214.694 174.338 218.648 170.604C219.232 170.723 219.777 170.942 220.279 171.244C221.911 167.11 230.93 165.93 233.757 170.604C235.896 165.272 243.134 167.405 243.921 171.244C247.962 169.669 252.975 171.244 253.205 176.056C253.626 175.988 254.066 175.947 254.527 175.936C259.573 180.509 259.923 208.316 239.88 210.102C234.406 211.617 221.791 211.365 215.122 198.228Z" fill="#F9F9F9"/>
<path d="M239.88 210.102C234.406 211.617 221.791 211.365 215.122 198.228C208.452 185.09 214.694 174.338 218.648 170.604C219.232 170.723 219.777 170.942 220.279 171.244M239.88 210.102C242.083 206.231 239.659 199.493 233.757 198.228M239.88 210.102C259.923 208.316 259.573 180.509 254.527 175.936C254.066 175.947 253.626 175.988 253.205 176.056M233.757 198.228C232.524 197.963 231.139 197.938 229.613 198.228C232.136 195.489 231.983 183.078 222.202 183.189C223.168 182.136 223.693 180.769 223.844 179.324M233.757 198.228C234.817 190.916 239.705 186.343 246.328 186.501C245.715 184.663 246.171 181.66 247.883 179.324M223.844 179.324C226.993 176.657 232.603 176.677 236.54 179.324C239.88 175.936 245.449 176.973 247.883 179.324M223.844 179.324C224.169 176.21 222.757 172.732 220.279 171.244M247.883 179.324C249.052 177.73 250.806 176.447 253.205 176.056M253.205 176.056C252.975 171.244 247.962 169.669 243.921 171.244C243.134 167.405 235.896 165.272 233.757 170.604C230.93 165.93 221.911 167.11 220.279 171.244" stroke="#181817" stroke-width="3.84484" stroke-linejoin="round"/>
<path d="M177.199 232.078C166.753 222.787 170.091 211.377 173.066 206.833C173.692 206.746 174.308 206.761 174.903 206.86C175.406 202.723 184.24 198.759 188.418 201.917C189.102 196.57 197.052 196.076 198.924 199.169C202.591 196.48 208.124 196.223 209.702 200.346C210.11 200.149 210.546 199.97 211.012 199.811C217.416 202.159 225.539 226.302 205.672 234.381C200.534 237.484 187.646 241.368 177.199 232.078Z" fill="#B1B1B1"/>
<path d="M205.672 234.381C200.534 237.484 187.646 241.368 177.199 232.078C166.753 222.787 170.091 211.377 173.066 206.833C173.692 206.746 174.308 206.761 174.903 206.86M205.672 234.381C206.83 230.288 202.484 225.198 196.134 226.015M205.672 234.381C225.539 226.302 217.416 202.159 211.012 199.811C210.546 199.97 210.11 200.149 209.702 200.346M196.134 226.015C194.808 226.185 193.394 226.614 191.924 227.363C193.722 224.153 190.1 213.376 180.193 216.655C180.88 215.422 181.031 214.059 180.781 212.75M196.134 226.015C195.169 219.292 198.858 213.712 205.631 211.695C204.496 210.291 204.12 207.523 205.208 204.928M180.781 212.75C183.236 209.398 188.942 207.591 193.682 208.619C196.129 204.577 202.077 203.669 205.208 204.928M180.781 212.75C180.242 209.927 177.836 207.352 174.903 206.86M205.208 204.928C205.95 203.158 207.373 201.468 209.702 200.346M209.702 200.346C208.124 196.223 202.591 196.48 198.924 199.169C197.052 196.076 189.102 196.57 188.418 201.917C184.24 198.759 175.406 202.723 174.903 206.86" stroke="#181817" stroke-width="3.84484" stroke-linejoin="round"/>
<path d="M262.893 238.074C250.804 237.925 236.035 221.775 249.611 202.704C250.308 202.704 250.927 202.845 251.47 203.101C253.957 198.398 262.023 198.117 264.631 202.704C268.078 199.606 275.521 201.097 275.521 207.244C281.863 206.22 284.751 212.833 282.751 221.539C283.049 221.837 283.345 222.174 283.637 222.553C281.1 231.358 274.981 238.223 262.893 238.074Z" fill="#B1B1B1"/>
<path d="M262.893 238.074C250.804 237.925 236.035 221.775 249.611 202.704C250.308 202.704 250.927 202.845 251.47 203.101M262.893 238.074C274.981 238.223 281.1 231.358 283.637 222.553C283.345 222.174 283.049 221.837 282.751 221.539M262.893 238.074C265.532 233.974 263.327 225.687 258.117 225.687C261.699 222.255 259.759 213.3 253.192 214.942C254.105 212.945 254.516 210.685 254.401 208.657M260.939 226.634C262.116 221.589 268.862 220.016 273.19 223.299C273.411 222.417 274.283 221.29 275.521 220.514M254.401 208.657C258.117 205.94 264.445 207.617 265.749 212.833C270.127 211.064 275.521 213.579 275.521 220.514M254.401 208.657C254.257 206.131 253.296 203.962 251.47 203.101M275.521 220.514C277.416 219.326 280.168 218.957 282.751 221.539M282.751 221.539C284.751 212.833 281.863 206.22 275.521 207.244C275.521 201.097 268.078 199.606 264.631 202.704C262.023 198.117 253.957 198.398 251.47 203.101" stroke="#181817" stroke-width="3.84484" stroke-linejoin="round"/>
<path d="M224.156 248.367C197.785 244.377 202.991 213.323 219.819 206.731C220.167 207.264 220.464 207.818 220.712 208.389C222.94 206.921 228.565 205.062 233.239 209.369C235.472 206.731 243.134 208.979 243.134 213.079C246.721 213.623 253.15 217.004 250.9 226.167C252.201 226.486 253.53 227.091 254.85 228.044C249.258 249.468 232.057 250.519 224.156 248.367Z" fill="#F9F9F9"/>
<path d="M224.156 248.367C197.785 244.377 202.991 213.323 219.819 206.731C220.167 207.264 220.464 207.818 220.712 208.389M224.156 248.367C225.255 247.731 226.967 245.244 225.024 240.387C225.558 239.956 225.924 239.241 226.097 238.422M224.156 248.367C232.057 250.519 249.258 249.468 254.85 228.044C251.144 225.37 247.371 225.437 244.34 226.862M220.712 208.389C222.94 206.921 228.565 205.062 233.239 209.369C235.472 206.731 243.134 208.979 243.134 213.079C246.81 213.637 253.472 217.175 250.715 226.862M220.712 208.389C222.225 211.861 221.951 215.906 220.712 219.113M226.097 238.422C226.579 236.134 225.55 233.039 222.471 233.081C225.024 230.504 223.674 224.433 218.061 223.287C219.133 222.268 220.058 220.808 220.712 219.113M226.097 238.422C228.652 234.82 232.6 233.081 238.113 234.64C238.577 231.632 241.01 228.428 244.34 226.862M220.712 219.113C222.902 218.546 227.5 218.474 228.366 222.727C230.237 221.94 234.392 221.073 236.046 223.909C238.228 223.121 242.941 222.609 244.34 226.862" stroke="#181817" stroke-width="3.84484" stroke-linejoin="round"/>
<path d="M34.2779 287.601L29.169 278.579M20.3449 262.996L29.169 278.579M29.169 278.579L13.5267 274.854" stroke="#181817" stroke-width="3.84484" stroke-linecap="round" stroke-linejoin="round"/>
<circle cx="17.3303" cy="259.362" r="5.49332" fill="#F9F9F9" stroke="#181817" stroke-width="3.84484"/>
<circle cx="8.03336" cy="273.119" r="5.49332" fill="#F9F9F9" stroke="#181817" stroke-width="3.84484"/>
<path d="M117.477 35.8473L128.742 25.0267M140.007 14.2061L128.742 25.0267M128.742 25.0267V11.2418" stroke="#181817" stroke-width="3.84484" stroke-linecap="round" stroke-linejoin="round"/>
<circle cx="128.199" cy="6.86431" r="4.86431" fill="#F9F9F9" stroke="#181817" stroke-width="3.84484"/>
<circle cx="144.536" cy="9.60843" r="6.28592" fill="#F9F9F9" stroke="#181817" stroke-width="3.84484"/>
<path d="M345.142 292.419C343.401 291.103 340.048 292.377 339.157 294.754M339.157 294.754C338.265 297.131 340.558 298.956 341.237 297.852C341.916 296.748 339.751 294.966 337.841 295.602C335.931 296.239 335.549 298.149 335.676 299.041C334.616 298.216 332.942 297.677 331.548 298.461M339.157 294.754C337.377 289.983 331.548 288.172 327.26 289.613M329.946 300.356C330.375 299.408 330.934 298.806 331.548 298.461M331.548 298.461C331.311 297.069 330.082 294.27 327.06 294.202C327.716 293.197 327.837 291.349 327.26 289.613M322.815 285.585C325.228 286.024 326.644 287.755 327.26 289.613" stroke="#181817" stroke-width="3.84484" stroke-linecap="round" stroke-linejoin="round"/>
<path d="M346.881 302.415C343.483 306.465 337.314 307.28 333.873 306.37C325.473 307.736 318.946 301.006 319.702 295.947C313.936 288.507 318.338 280.108 322.184 280.528C326.039 274.582 334.598 277.588 335.055 281.638C337.276 280.201 342.96 281.834 342.503 286.016C347.011 286.865 348.514 290.981 347.469 294.052C348.971 294.901 350.278 298.364 346.881 302.415Z" stroke="#181817" stroke-width="3.84484" stroke-linecap="round" stroke-linejoin="round"/>
</svg>
