<svg width="520" height="116" viewBox="0 0 520 116" fill="none" xmlns="http://www.w3.org/2000/svg">
<rect width="520" height="115" transform="translate(0 0.185791)" fill="#E0F6F9"/>
<g clip-path="url(#clip0_484_3370)">
<rect x="30" y="30.1858" width="55" height="55" rx="27.5" fill="#A8DBE7"/>
<path d="M53.9294 40.9368C53.9294 40.9368 60.6299 41.4604 61.4023 47.3049C62.1747 53.1493 59.4175 56.106 61.5871 58.0779C65.0771 61.2479 65.0991 65.1809 61.4133 65.9093C55.9143 66.9954 55.0275 64.8296 51.5991 68.3638C48.1707 71.8981 38.8627 70.2129 41.5385 63.431C44.2143 56.6491 37.7008 43.3978 53.9294 40.9368Z" fill="#1A6B83" stroke="#1A6B83" stroke-width="1.5" stroke-linecap="round" stroke-linejoin="round"/>
<path d="M60.2041 51.6686C59.9566 50.5634 61.066 46.8843 57.5522 44.205C54.5356 42.2827 44.6654 41.8558 43.2211 46.9675C41.7767 52.0793 44.2288 56.5833 44.2288 56.5833L41.0535 62.6454L52.8044 70.0156C52.8044 70.0156 54.1429 64.9771 54.4649 63.3091C54.7868 61.639 55.8563 61.8976 58.004 61.7833C58.7806 61.7421 59.4242 61.3151 59.8622 60.0236C60.2412 59.6046 60.4535 59.8365 60.7522 58.5501C60.9095 57.8725 59.1827 57.9655 58.6021 57.7236C59.2311 56.8526 60.6671 56.7279 60.9653 56.5144C61.2634 56.3008 60.9653 55.4595 60.9653 55.4595C60.9653 55.4595 61.9172 54.5471 62.0098 53.9739C62.1024 53.4007 61.6175 53.1254 60.2041 51.6686Z" fill="#F8FEFE" stroke="#1A6B83" stroke-width="1.5" stroke-linecap="round" stroke-linejoin="round"/>
<path d="M58.7778 52.6667C59.125 52.7334 59.4745 52.3943 59.5585 51.9093C59.6425 51.4242 59.429 50.9769 59.0818 50.9101C58.7346 50.8434 58.3851 51.1825 58.3011 51.6676C58.2172 52.1526 58.4306 52.6 58.7778 52.6667Z" fill="#1A6B83"/>
<path d="M59.2151 49.1035C58.3503 48.8911 57.4737 49.2667 57.2234 49.4761" stroke="#1A6B83" stroke-width="1.5" stroke-linecap="round"/>
<path d="M52.0898 59.7935C52.0898 59.7935 54.5862 61.7441 58.181 61.7441C56.6759 61.7894 54.7029 61.9142 54.4345 63.3107C52.3172 61.6959 52.0898 59.7935 52.0898 59.7935Z" fill="#1A6B83" stroke="#1A6B83" stroke-width="1.5" stroke-linecap="round" stroke-linejoin="round"/>
<path d="M43.7657 66.9946C46.1862 69.4537 48.3295 69.5073 53.0078 67.2182C55.1973 66.1474 61.9352 72.1229 62.6789 76.8398C63.9552 84.939 68.3364 85.6789 69.2474 96.1522C70.1606 106.625 70.3432 106.903 70.6161 119.323C70.7921 127.353 70.0924 133.639 69.5753 137.08C69.2914 138.966 68.0151 140.538 66.2503 141.191C61.6139 142.905 51.6941 145.532 39.8752 142.503C33.4388 140.853 29.4471 134.326 30.785 127.717C31.9249 122.079 32.9789 114.763 32.7566 107.645C32.3011 93.0002 33.3948 85.1692 35.0386 77.8927C36.6801 70.6161 40.1591 68.8501 40.1591 68.8501" fill="#E1715B"/>
<path d="M43.7657 66.9946C46.1862 69.4537 48.3295 69.5073 53.0078 67.2182C55.1973 66.1474 61.9352 72.1229 62.6789 76.8398C63.9552 84.939 68.3364 85.6789 69.2474 96.1522C70.1606 106.625 70.3432 106.903 70.6161 119.323C70.7921 127.353 70.0924 133.639 69.5753 137.08C69.2914 138.966 68.0151 140.538 66.2503 141.191C61.6139 142.905 51.6941 145.532 39.8752 142.503C33.4388 140.853 29.4471 134.326 30.785 127.717C31.9249 122.079 32.9789 114.763 32.7566 107.645C32.3011 93.0002 33.3948 85.1692 35.0386 77.8927C36.6801 70.6161 40.1591 68.8501 40.1591 68.8501" stroke="#1A6B83" stroke-width="1.5" stroke-linecap="round" stroke-linejoin="round"/>
<path d="M44.4684 75.4132C42.3691 81.069 44.4684 89.318 44.4684 93.5811C44.4684 97.8442 43.0095 101.922 45.199 106.001C47.3885 110.079 50.6738 111.47 57.4249 109.893C64.176 108.317 62.9899 106.373 67.7342 105.168C72.4785 103.963 73.0264 103.871 73.6645 100.719C74.3027 97.567 74.3027 90.9879 71.7479 89.5974C69.1931 88.207 62.8073 90.353 62.8073 90.353C62.8073 90.353 63.5379 83.9439 61.8039 79.958C60.6464 77.2977 59.0841 73.6494 58.1731 71.5145C57.6185 70.2202 56.4105 69.3193 55.0242 69.2343C53.2396 69.1248 50.6386 69.5227 47.8462 71.8029" fill="#E1715B"/>
<path d="M44.4684 75.4132C42.3691 81.069 44.4684 89.318 44.4684 93.5811C44.4684 97.8442 43.0095 101.922 45.199 106.001C47.3885 110.079 50.6738 111.47 57.4249 109.893C64.176 108.317 62.9899 106.373 67.7342 105.168C72.4785 103.963 73.0264 103.871 73.6645 100.719C74.3027 97.567 74.3027 90.9879 71.7479 89.5974C69.1931 88.207 62.8073 90.353 62.8073 90.353C62.8073 90.353 63.5379 83.9439 61.8039 79.958C60.6464 77.2977 59.0841 73.6494 58.1731 71.5145C57.6185 70.2202 56.4105 69.3193 55.0242 69.2343C53.2396 69.1248 50.6386 69.5227 47.8462 71.8029" stroke="#1A6B83" stroke-width="1.5" stroke-linecap="round" stroke-linejoin="round"/>
<path d="M45.3354 80.9299C45.7007 87.3726 44.387 95.4741 44.387 95.4741" stroke="#1A6B83" stroke-width="1.5" stroke-linecap="round" stroke-linejoin="round"/>
<path d="M51.2639 51.7823C51.2639 51.7823 54.6661 52.8475 57.5414 52.9774" stroke="#1A6B83" stroke-width="1.5" stroke-linecap="round" stroke-linejoin="round"/>
<path d="M60.5049 52.1637C60.4484 53.259 60.0074 53.9944 59.4517 54.1609C58.8786 54.3327 58.1105 54.0751 57.6647 52.986" stroke="#1A6B83" stroke-width="1.5" stroke-linecap="round" stroke-linejoin="round"/>
<path d="M56.2573 43.0527C56.2573 43.0527 50.7406 37.9997 44.6188 40.8896C39.8304 43.7795 39.1169 48.9316 39.2005 51.1276C39.2842 53.3235 39.1351 54.9851 37.9578 58.0732C36.7806 61.1614 35.7441 63.4005 36.8818 65.98C38.0195 68.5596 39.3654 70.8011 43.9886 69.784C48.6141 68.7668 50.5514 64.2034 49.9551 61.0527C49.3587 57.9021 48.3097 55.922 48.3097 55.922C45.2994 55.435 45.2749 52.0676 46.5993 51.1276C48.4679 49.8011 49.9551 51.6914 49.9551 51.6914C54.9436 51.1677 57.313 44.7227 57.313 44.7227" fill="#1A6B83"/>
<path d="M56.2573 43.0527C56.2573 43.0527 50.7406 37.9997 44.6188 40.8896C39.8304 43.7795 39.1169 48.9316 39.2005 51.1276C39.2842 53.3235 39.1351 54.9851 37.9578 58.0732C36.7806 61.1614 35.7441 63.4005 36.8818 65.98C38.0195 68.5596 39.3654 70.8011 43.9886 69.784C48.6141 68.7668 50.5514 64.2034 49.9551 61.0527C49.3587 57.9021 48.3097 55.922 48.3097 55.922C45.2994 55.435 45.2749 52.0676 46.5993 51.1276C48.4679 49.8011 49.9551 51.6914 49.9551 51.6914C54.9436 51.1677 57.313 44.7227 57.313 44.7227" stroke="#1A6B83" stroke-width="1.5" stroke-linecap="round" stroke-linejoin="round"/>
<path d="M57.6258 44.479C57.6258 48.8466 51.7445 55.8995 49.1663 50.9865" stroke="#1A6B83" stroke-width="1.5" stroke-linecap="round" stroke-linejoin="round"/>
<path fill-rule="evenodd" clip-rule="evenodd" d="M75.1595 54.1726C79.8403 54.1726 83.6349 50.378 83.6349 45.6972C83.6349 41.0165 79.8403 37.2219 75.1595 37.2219C70.4788 37.2219 66.6842 41.0165 66.6842 45.6972C66.6842 48.1892 67.7597 50.43 69.4718 51.9807C68.812 53.146 67.6745 54.1237 66.0596 54.433C67.5622 54.7711 69.4929 54.3102 71.1362 53.1586C72.3332 53.8054 73.7035 54.1726 75.1595 54.1726Z" fill="#F8FEFE"/>
<path d="M69.4718 51.9807L70.342 52.4735C70.5726 52.0663 70.49 51.5537 70.1432 51.2396L69.4718 51.9807ZM66.0596 54.433L65.8715 53.4508C65.4062 53.5399 65.0673 53.9432 65.0597 54.4169C65.0521 54.8906 65.3779 55.3046 65.8401 55.4086L66.0596 54.433ZM71.1362 53.1586L71.6116 52.2788C71.2785 52.0988 70.8723 52.1223 70.5623 52.3396L71.1362 53.1586ZM82.6349 45.6972C82.6349 49.8258 79.2881 53.1726 75.1595 53.1726V55.1726C80.3926 55.1726 84.6349 50.9303 84.6349 45.6972H82.6349ZM75.1595 38.2219C79.2881 38.2219 82.6349 41.5687 82.6349 45.6972H84.6349C84.6349 40.4642 80.3926 36.2219 75.1595 36.2219V38.2219ZM67.6842 45.6972C67.6842 41.5687 71.031 38.2219 75.1595 38.2219V36.2219C69.9265 36.2219 65.6842 40.4642 65.6842 45.6972H67.6842ZM70.1432 51.2396C68.6315 49.8704 67.6842 47.8951 67.6842 45.6972H65.6842C65.6842 48.4833 66.8879 50.9896 68.8005 52.7219L70.1432 51.2396ZM66.2476 55.4151C68.1839 55.0444 69.5551 53.8631 70.342 52.4735L68.6017 51.488C68.0689 52.4289 67.1651 53.2031 65.8715 53.4508L66.2476 55.4151ZM70.5623 52.3396C69.0895 53.3718 67.4427 53.7192 66.2791 53.4574L65.8401 55.4086C67.6817 55.8229 69.8963 55.2486 71.7101 53.9775L70.5623 52.3396ZM75.1595 53.1726C73.8735 53.1726 72.6662 52.8487 71.6116 52.2788L70.6608 54.0383C72.0002 54.7621 73.5334 55.1726 75.1595 55.1726V53.1726Z" fill="#1A6B83"/>
<path d="M75.2661 47.2778C74.8581 47.2778 74.6541 47.0138 74.6541 46.4858C74.6541 45.9458 74.7981 45.4538 75.0741 44.9978C75.1701 44.8418 75.5901 44.2538 75.7221 44.0378C75.8781 43.7858 76.0581 43.3298 76.0581 42.9098C76.0581 42.3338 75.8301 42.0458 75.3621 42.0458C74.8221 42.0458 74.5821 42.3218 74.4741 42.9818C74.3541 43.6538 74.0301 43.9898 73.5141 43.9898C73.0461 43.9898 72.7821 43.6778 72.7821 43.1618C72.7821 42.5978 73.0221 42.1178 73.5141 41.7338C74.0061 41.3498 74.6421 41.1578 75.4461 41.1578C76.2381 41.1578 76.8861 41.3498 77.3781 41.7338C77.8701 42.1298 78.1221 42.6098 78.1221 43.1858C78.1221 43.6778 77.9181 44.1218 77.5221 44.5418C77.4141 44.6498 77.1861 44.8418 76.8141 45.1298C76.4421 45.4178 76.1901 45.6698 76.0581 45.8858C75.8781 46.1738 75.8781 46.6298 75.8421 46.8098C75.7821 47.1218 75.5901 47.2778 75.2661 47.2778ZM74.1621 49.1258C74.1621 48.4658 74.6421 47.9858 75.3021 47.9858C76.2981 47.9138 76.8381 49.2818 76.1181 49.9418C75.4581 50.6738 74.0901 50.1218 74.1621 49.1258Z" fill="#1A6B83"/>
</g>
<rect x="30" y="30.1858" width="55" height="55" rx="27.5" stroke="#1A6B83" stroke-width="2"/>
<path d="M116.216 41.1858V29.9858H118.408V39.1858H123.336V41.1858H116.216ZM129.338 41.1858L129.274 39.5698V37.1378C129.274 36.6578 129.22 36.2471 129.114 35.9058C129.018 35.5645 128.858 35.3031 128.634 35.1218C128.42 34.9298 128.127 34.8338 127.754 34.8338C127.412 34.8338 127.103 34.9085 126.826 35.0578C126.548 35.2071 126.314 35.4365 126.122 35.7458L124.266 35.1058C124.415 34.7645 124.634 34.4338 124.922 34.1138C125.21 33.7831 125.583 33.5165 126.042 33.3138C126.511 33.1005 127.082 32.9938 127.754 32.9938C128.564 32.9938 129.236 33.1485 129.77 33.4578C130.314 33.7671 130.714 34.2045 130.97 34.7698C131.236 35.3245 131.364 35.9858 131.354 36.7538L131.306 41.1858H129.338ZM127.098 41.3778C126.138 41.3778 125.391 41.1645 124.858 40.7378C124.335 40.3111 124.074 39.7085 124.074 38.9298C124.074 38.0765 124.356 37.4365 124.922 37.0098C125.498 36.5725 126.303 36.3538 127.338 36.3538H129.37V37.9218H128.074C127.38 37.9218 126.9 38.0071 126.634 38.1778C126.367 38.3378 126.234 38.5671 126.234 38.8658C126.234 39.1005 126.34 39.2871 126.554 39.4258C126.767 39.5538 127.066 39.6178 127.45 39.6178C127.802 39.6178 128.111 39.5378 128.378 39.3778C128.655 39.2071 128.874 38.9938 129.034 38.7378C129.194 38.4711 129.274 38.1991 129.274 37.9218H129.786C129.786 39.0098 129.578 39.8578 129.162 40.4658C128.756 41.0738 128.068 41.3778 127.098 41.3778ZM136.893 41.3778C136.061 41.3778 135.32 41.2018 134.669 40.8498C134.018 40.4871 133.512 39.9911 133.149 39.3618C132.786 38.7218 132.605 37.9965 132.605 37.1858C132.605 36.3645 132.786 35.6391 133.149 35.0098C133.512 34.3805 134.013 33.8898 134.653 33.5378C135.293 33.1751 136.029 32.9938 136.861 32.9938C137.661 32.9938 138.392 33.1911 139.053 33.5858C139.714 33.9805 140.194 34.5511 140.493 35.2978L138.509 36.0018C138.36 35.6925 138.125 35.4471 137.805 35.2658C137.496 35.0738 137.149 34.9778 136.765 34.9778C136.37 34.9778 136.024 35.0738 135.725 35.2658C135.426 35.4471 135.192 35.7031 135.021 36.0338C134.85 36.3645 134.765 36.7485 134.765 37.1858C134.765 37.6231 134.85 38.0071 135.021 38.3378C135.192 38.6578 135.432 38.9138 135.741 39.1058C136.05 39.2978 136.402 39.3938 136.797 39.3938C137.181 39.3938 137.528 39.2925 137.837 39.0898C138.157 38.8871 138.392 38.6205 138.541 38.2898L140.541 38.9938C140.232 39.7511 139.746 40.3378 139.085 40.7538C138.434 41.1698 137.704 41.3778 136.893 41.3778ZM143.787 39.1538L142.523 37.6978L146.619 33.1858H149.131L143.787 39.1538ZM141.771 41.1858V29.9858H143.883V41.1858H141.771ZM146.891 41.1858L144.235 37.3138L145.611 35.8578L149.371 41.1858H146.891ZM159.617 41.3778C158.487 41.3778 157.484 41.1325 156.609 40.6418C155.745 40.1405 155.068 39.4578 154.577 38.5938C154.087 37.7191 153.841 36.7218 153.841 35.6018C153.841 34.4605 154.087 33.4578 154.577 32.5938C155.068 31.7191 155.74 31.0365 156.593 30.5458C157.457 30.0551 158.449 29.8098 159.569 29.8098C160.7 29.8098 161.692 30.0605 162.545 30.5618C163.409 31.0525 164.087 31.7351 164.577 32.6098C165.068 33.4738 165.313 34.4711 165.313 35.6018C165.313 36.7218 165.068 37.7191 164.577 38.5938C164.097 39.4578 163.425 40.1405 162.561 40.6418C161.708 41.1325 160.727 41.3778 159.617 41.3778ZM159.617 39.3778C160.3 39.3778 160.897 39.2178 161.409 38.8978C161.932 38.5671 162.337 38.1191 162.625 37.5538C162.924 36.9885 163.073 36.3378 163.073 35.6018C163.073 34.8551 162.924 34.1991 162.625 33.6338C162.327 33.0685 161.916 32.6258 161.393 32.3058C160.871 31.9751 160.263 31.8098 159.569 31.8098C158.897 31.8098 158.295 31.9751 157.761 32.3058C157.239 32.6258 156.828 33.0685 156.529 33.6338C156.231 34.1991 156.081 34.8551 156.081 35.6018C156.081 36.3378 156.231 36.9885 156.529 37.5538C156.828 38.1191 157.244 38.5671 157.777 38.8978C158.311 39.2178 158.924 39.3778 159.617 39.3778ZM167.587 41.1858V32.3858C167.587 31.5325 167.806 30.8711 168.243 30.4018C168.68 29.9218 169.347 29.6818 170.243 29.6818C170.552 29.6818 170.878 29.7351 171.219 29.8418C171.571 29.9485 171.891 30.0765 172.179 30.2258L171.395 31.7458C171.224 31.6605 171.07 31.5965 170.931 31.5538C170.792 31.5111 170.664 31.4898 170.547 31.4898C170.259 31.4898 170.046 31.5911 169.907 31.7938C169.768 31.9858 169.699 32.3005 169.699 32.7378V41.1858H167.587ZM166.259 34.8818V33.1858H171.667V34.8818H166.259ZM182.385 41.3778C181.243 41.3778 180.23 41.1325 179.345 40.6418C178.47 40.1405 177.782 39.4578 177.281 38.5938C176.779 37.7191 176.529 36.7165 176.529 35.5858C176.529 34.4551 176.779 33.4578 177.281 32.5938C177.782 31.7191 178.47 31.0365 179.345 30.5458C180.23 30.0445 181.243 29.7938 182.385 29.7938C183.067 29.7938 183.697 29.8951 184.273 30.0978C184.849 30.3005 185.355 30.5831 185.793 30.9458C186.241 31.2978 186.614 31.7031 186.913 32.1618L185.121 33.2818C184.939 32.9938 184.699 32.7378 184.401 32.5138C184.113 32.2898 183.793 32.1138 183.441 31.9858C183.089 31.8578 182.737 31.7938 182.385 31.7938C181.681 31.7938 181.057 31.9591 180.513 32.2898C179.969 32.6098 179.542 33.0525 179.233 33.6178C178.923 34.1831 178.769 34.8391 178.769 35.5858C178.769 36.3218 178.918 36.9778 179.217 37.5538C179.526 38.1298 179.958 38.5831 180.513 38.9138C181.067 39.2338 181.707 39.3938 182.433 39.3938C182.998 39.3938 183.499 39.2818 183.937 39.0578C184.385 38.8338 184.737 38.5191 184.993 38.1138C185.249 37.7085 185.377 37.2391 185.377 36.7058L187.457 36.3858C187.457 37.4418 187.238 38.3431 186.801 39.0898C186.374 39.8365 185.777 40.4071 185.009 40.8018C184.251 41.1858 183.377 41.3778 182.385 41.3778ZM182.753 36.8978V35.1858H187.457V36.5458L186.273 36.8978H182.753ZM194.051 41.1858L193.923 39.7138V33.1858H196.035V41.1858H194.051ZM188.627 37.2818V33.1858H190.739V37.2818H188.627ZM190.739 37.2818C190.739 37.8151 190.798 38.2365 190.915 38.5458C191.043 38.8445 191.219 39.0631 191.443 39.2018C191.678 39.3298 191.939 39.3938 192.227 39.3938C192.782 39.4045 193.203 39.2391 193.491 38.8978C193.779 38.5458 193.923 38.0391 193.923 37.3778H194.643C194.643 38.2311 194.515 38.9565 194.259 39.5538C194.003 40.1405 193.651 40.5938 193.203 40.9138C192.755 41.2231 192.227 41.3778 191.619 41.3778C190.979 41.3778 190.435 41.2498 189.987 40.9938C189.539 40.7378 189.198 40.3431 188.963 39.8098C188.739 39.2658 188.627 38.5671 188.627 37.7138V37.2818H190.739ZM197.993 41.1858V33.1858H200.105V41.1858H197.993ZM199.049 31.8898C198.729 31.8898 198.446 31.7725 198.201 31.5378C197.956 31.2925 197.833 31.0045 197.833 30.6738C197.833 30.3431 197.956 30.0605 198.201 29.8258C198.446 29.5805 198.729 29.4578 199.049 29.4578C199.38 29.4578 199.662 29.5805 199.897 29.8258C200.142 30.0605 200.265 30.3431 200.265 30.6738C200.265 31.0045 200.142 31.2925 199.897 31.5378C199.662 31.7725 199.38 31.8898 199.049 31.8898ZM207.749 41.1858L207.637 39.6978V29.9858H209.749V41.1858H207.749ZM205.237 41.3778C204.501 41.3778 203.861 41.2071 203.317 40.8658C202.783 40.5245 202.367 40.0391 202.069 39.4098C201.77 38.7805 201.621 38.0391 201.621 37.1858C201.621 36.3218 201.77 35.5805 202.069 34.9618C202.367 34.3325 202.783 33.8471 203.317 33.5058C203.861 33.1645 204.501 32.9938 205.237 32.9938C205.909 32.9938 206.474 33.1645 206.933 33.5058C207.402 33.8471 207.759 34.3325 208.005 34.9618C208.25 35.5805 208.373 36.3218 208.373 37.1858C208.373 38.0391 208.25 38.7805 208.005 39.4098C207.759 40.0391 207.402 40.5245 206.933 40.8658C206.474 41.2071 205.909 41.3778 205.237 41.3778ZM205.781 39.4418C206.143 39.4418 206.463 39.3458 206.741 39.1538C207.029 38.9618 207.253 38.6951 207.413 38.3538C207.573 38.0125 207.653 37.6231 207.653 37.1858C207.653 36.7485 207.573 36.3591 207.413 36.0178C207.253 35.6765 207.029 35.4151 206.741 35.2338C206.463 35.0418 206.138 34.9458 205.765 34.9458C205.381 34.9458 205.045 35.0418 204.757 35.2338C204.469 35.4151 204.239 35.6765 204.069 36.0178C203.898 36.3591 203.813 36.7485 203.813 37.1858C203.813 37.6231 203.898 38.0125 204.069 38.3538C204.239 38.6951 204.469 38.9618 204.757 39.1538C205.055 39.3458 205.397 39.4418 205.781 39.4418ZM216.4 41.1858L216.336 39.5698V37.1378C216.336 36.6578 216.283 36.2471 216.176 35.9058C216.08 35.5645 215.92 35.3031 215.696 35.1218C215.483 34.9298 215.19 34.8338 214.816 34.8338C214.475 34.8338 214.166 34.9085 213.888 35.0578C213.611 35.2071 213.376 35.4365 213.184 35.7458L211.328 35.1058C211.478 34.7645 211.696 34.4338 211.984 34.1138C212.272 33.7831 212.646 33.5165 213.104 33.3138C213.574 33.1005 214.144 32.9938 214.816 32.9938C215.627 32.9938 216.299 33.1485 216.832 33.4578C217.376 33.7671 217.776 34.2045 218.032 34.7698C218.299 35.3245 218.427 35.9858 218.416 36.7538L218.368 41.1858H216.4ZM214.16 41.3778C213.2 41.3778 212.454 41.1645 211.92 40.7378C211.398 40.3111 211.136 39.7085 211.136 38.9298C211.136 38.0765 211.419 37.4365 211.984 37.0098C212.56 36.5725 213.366 36.3538 214.4 36.3538H216.432V37.9218H215.136C214.443 37.9218 213.963 38.0071 213.696 38.1778C213.43 38.3378 213.296 38.5671 213.296 38.8658C213.296 39.1005 213.403 39.2871 213.616 39.4258C213.83 39.5538 214.128 39.6178 214.512 39.6178C214.864 39.6178 215.174 39.5378 215.44 39.3778C215.718 39.2071 215.936 38.9938 216.096 38.7378C216.256 38.4711 216.336 38.1991 216.336 37.9218H216.848C216.848 39.0098 216.64 39.8578 216.224 40.4658C215.819 41.0738 215.131 41.3778 214.16 41.3778ZM220.1 41.1858V33.1858H222.084L222.212 34.6578V41.1858H220.1ZM225.396 41.1858V37.0898H227.508V41.1858H225.396ZM225.396 37.0898C225.396 36.5458 225.332 36.1245 225.204 35.8258C225.086 35.5271 224.916 35.3138 224.692 35.1858C224.468 35.0471 224.206 34.9778 223.908 34.9778C223.364 34.9671 222.942 35.1325 222.644 35.4738C222.356 35.8151 222.212 36.3218 222.212 36.9938H221.508C221.508 36.1405 221.63 35.4205 221.876 34.8338C222.132 34.2365 222.484 33.7831 222.932 33.4738C223.39 33.1538 223.924 32.9938 224.532 32.9938C225.161 32.9938 225.7 33.1218 226.148 33.3778C226.596 33.6338 226.937 34.0338 227.172 34.5778C227.406 35.1111 227.518 35.8045 227.508 36.6578V37.0898H225.396ZM233.049 41.3778C232.217 41.3778 231.476 41.2018 230.825 40.8498C230.175 40.4871 229.668 39.9911 229.305 39.3618C228.943 38.7218 228.761 37.9965 228.761 37.1858C228.761 36.3645 228.943 35.6391 229.305 35.0098C229.668 34.3805 230.169 33.8898 230.809 33.5378C231.449 33.1751 232.185 32.9938 233.017 32.9938C233.817 32.9938 234.548 33.1911 235.209 33.5858C235.871 33.9805 236.351 34.5511 236.649 35.2978L234.665 36.0018C234.516 35.6925 234.281 35.4471 233.961 35.2658C233.652 35.0738 233.305 34.9778 232.921 34.9778C232.527 34.9778 232.18 35.0738 231.881 35.2658C231.583 35.4471 231.348 35.7031 231.177 36.0338C231.007 36.3645 230.921 36.7485 230.921 37.1858C230.921 37.6231 231.007 38.0071 231.177 38.3378C231.348 38.6578 231.588 38.9138 231.897 39.1058C232.207 39.2978 232.559 39.3938 232.953 39.3938C233.337 39.3938 233.684 39.2925 233.993 39.0898C234.313 38.8871 234.548 38.6205 234.697 38.2898L236.697 38.9938C236.388 39.7511 235.903 40.3378 235.241 40.7538C234.591 41.1698 233.86 41.3778 233.049 41.3778ZM241.544 41.3778C240.754 41.3778 240.056 41.2018 239.448 40.8498C238.84 40.4871 238.36 39.9911 238.008 39.3618C237.666 38.7325 237.496 38.0071 237.496 37.1858C237.496 36.3645 237.672 35.6391 238.024 35.0098C238.386 34.3805 238.877 33.8898 239.496 33.5378C240.125 33.1751 240.845 32.9938 241.656 32.9938C242.36 32.9938 243.005 33.1805 243.592 33.5538C244.189 33.9165 244.664 34.4551 245.016 35.1698C245.378 35.8738 245.56 36.7325 245.56 37.7458H239.496L239.688 37.5538C239.688 37.9485 239.784 38.2951 239.976 38.5938C240.178 38.8818 240.434 39.1058 240.744 39.2658C241.064 39.4151 241.405 39.4898 241.768 39.4898C242.205 39.4898 242.562 39.3991 242.84 39.2178C243.117 39.0258 243.33 38.7805 243.48 38.4818L245.368 39.2178C245.144 39.6658 244.85 40.0551 244.488 40.3858C244.136 40.7058 243.714 40.9511 243.224 41.1218C242.733 41.2925 242.173 41.3778 241.544 41.3778ZM239.8 36.3698L239.608 36.1778H243.464L243.288 36.3698C243.288 35.9858 243.197 35.6818 243.016 35.4578C242.834 35.2231 242.61 35.0525 242.344 34.9458C242.088 34.8391 241.837 34.7858 241.592 34.7858C241.346 34.7858 241.085 34.8391 240.808 34.9458C240.53 35.0525 240.29 35.2231 240.088 35.4578C239.896 35.6818 239.8 35.9858 239.8 36.3698ZM250.904 41.1858V29.9858H258.088V31.9858H253.096V34.6738H257.256V36.6738H253.096V41.1858H250.904ZM263.094 41.3778C262.283 41.3778 261.558 41.2018 260.918 40.8498C260.289 40.4871 259.793 39.9911 259.43 39.3618C259.078 38.7325 258.902 38.0071 258.902 37.1858C258.902 36.3645 259.078 35.6391 259.43 35.0098C259.782 34.3805 260.273 33.8898 260.902 33.5378C261.531 33.1751 262.251 32.9938 263.062 32.9938C263.883 32.9938 264.609 33.1751 265.238 33.5378C265.867 33.8898 266.358 34.3805 266.71 35.0098C267.062 35.6391 267.238 36.3645 267.238 37.1858C267.238 38.0071 267.062 38.7325 266.71 39.3618C266.358 39.9911 265.867 40.4871 265.238 40.8498C264.619 41.2018 263.905 41.3778 263.094 41.3778ZM263.094 39.4258C263.489 39.4258 263.835 39.3298 264.134 39.1378C264.433 38.9458 264.662 38.6845 264.822 38.3538C264.993 38.0125 265.078 37.6231 265.078 37.1858C265.078 36.7485 264.993 36.3645 264.822 36.0338C264.651 35.6925 264.411 35.4258 264.102 35.2338C263.803 35.0418 263.457 34.9458 263.062 34.9458C262.678 34.9458 262.331 35.0418 262.022 35.2338C261.723 35.4258 261.489 35.6925 261.318 36.0338C261.147 36.3645 261.062 36.7485 261.062 37.1858C261.062 37.6231 261.147 38.0125 261.318 38.3538C261.489 38.6845 261.729 38.9458 262.038 39.1378C262.347 39.3298 262.699 39.4258 263.094 39.4258ZM270.119 36.9778C270.119 36.1138 270.284 35.3991 270.615 34.8338C270.956 34.2685 271.388 33.8471 271.911 33.5698C272.444 33.2925 272.999 33.1538 273.575 33.1538V35.2018C273.084 35.2018 272.62 35.2605 272.183 35.3778C271.756 35.4951 271.409 35.6871 271.143 35.9538C270.876 36.2205 270.743 36.5618 270.743 36.9778H270.119ZM268.631 41.1858V33.1858H270.743V41.1858H268.631ZM278.81 41.1858V29.9858H282.97C283.759 29.9858 284.458 30.1405 285.066 30.4498C285.674 30.7591 286.148 31.1858 286.49 31.7298C286.831 32.2631 287.002 32.8871 287.002 33.6018C287.002 34.3058 286.82 34.9351 286.458 35.4898C286.106 36.0338 285.62 36.4605 285.002 36.7698C284.383 37.0685 283.679 37.2178 282.89 37.2178H281.002V41.1858H278.81ZM284.97 41.1858L282.378 36.6898L284.058 35.4898L287.45 41.1858H284.97ZM281.002 35.2178H282.986C283.316 35.2178 283.61 35.1485 283.866 35.0098C284.132 34.8711 284.34 34.6791 284.49 34.4338C284.65 34.1885 284.73 33.9111 284.73 33.6018C284.73 33.1218 284.554 32.7325 284.202 32.4338C283.86 32.1351 283.418 31.9858 282.874 31.9858H281.002V35.2178ZM292.434 41.3778C291.645 41.3778 290.946 41.2018 290.338 40.8498C289.73 40.4871 289.25 39.9911 288.898 39.3618C288.557 38.7325 288.386 38.0071 288.386 37.1858C288.386 36.3645 288.562 35.6391 288.914 35.0098C289.277 34.3805 289.768 33.8898 290.386 33.5378C291.016 33.1751 291.736 32.9938 292.546 32.9938C293.25 32.9938 293.896 33.1805 294.482 33.5538C295.08 33.9165 295.554 34.4551 295.906 35.1698C296.269 35.8738 296.45 36.7325 296.45 37.7458H290.386L290.578 37.5538C290.578 37.9485 290.674 38.2951 290.866 38.5938C291.069 38.8818 291.325 39.1058 291.634 39.2658C291.954 39.4151 292.296 39.4898 292.658 39.4898C293.096 39.4898 293.453 39.3991 293.73 39.2178C294.008 39.0258 294.221 38.7805 294.37 38.4818L296.258 39.2178C296.034 39.6658 295.741 40.0551 295.378 40.3858C295.026 40.7058 294.605 40.9511 294.114 41.1218C293.624 41.2925 293.064 41.3778 292.434 41.3778ZM290.69 36.3698L290.498 36.1778H294.354L294.178 36.3698C294.178 35.9858 294.088 35.6818 293.906 35.4578C293.725 35.2231 293.501 35.0525 293.234 34.9458C292.978 34.8391 292.728 34.7858 292.482 34.7858C292.237 34.7858 291.976 34.8391 291.698 34.9458C291.421 35.0525 291.181 35.2231 290.978 35.4578C290.786 35.6818 290.69 35.9858 290.69 36.3698ZM300.974 41.3778C300.088 41.3778 299.416 41.1591 298.958 40.7218C298.51 40.2845 298.286 39.6605 298.286 38.8498V30.6898H300.398V38.3858C300.398 38.7271 300.472 38.9885 300.622 39.1698C300.771 39.3405 300.99 39.4258 301.278 39.4258C301.384 39.4258 301.502 39.4045 301.63 39.3618C301.758 39.3085 301.891 39.2338 302.03 39.1378L302.766 40.7218C302.51 40.9138 302.222 41.0685 301.902 41.1858C301.592 41.3138 301.283 41.3778 300.974 41.3778ZM296.99 34.9778V33.1858H302.398V34.9778H296.99ZM309.395 41.1858L309.267 39.7138V33.1858H311.379V41.1858H309.395ZM303.971 37.2818V33.1858H306.083V37.2818H303.971ZM306.083 37.2818C306.083 37.8151 306.142 38.2365 306.259 38.5458C306.387 38.8445 306.563 39.0631 306.787 39.2018C307.022 39.3298 307.283 39.3938 307.571 39.3938C308.126 39.4045 308.547 39.2391 308.835 38.8978C309.123 38.5458 309.267 38.0391 309.267 37.3778H309.987C309.987 38.2311 309.859 38.9565 309.603 39.5538C309.347 40.1405 308.995 40.5938 308.547 40.9138C308.099 41.2231 307.571 41.3778 306.963 41.3778C306.323 41.3778 305.779 41.2498 305.331 40.9938C304.883 40.7378 304.542 40.3431 304.307 39.8098C304.083 39.2658 303.971 38.5671 303.971 37.7138V37.2818H306.083ZM314.697 36.9778C314.697 36.1138 314.862 35.3991 315.193 34.8338C315.534 34.2685 315.966 33.8471 316.489 33.5698C317.022 33.2925 317.577 33.1538 318.153 33.1538V35.2018C317.662 35.2018 317.198 35.2605 316.761 35.3778C316.334 35.4951 315.988 35.6871 315.721 35.9538C315.454 36.2205 315.321 36.5618 315.321 36.9778H314.697ZM313.209 41.1858V33.1858H315.321V41.1858H313.209ZM319.271 41.1858V33.1858H321.255L321.383 34.6578V41.1858H319.271ZM324.567 41.1858V37.0898H326.679V41.1858H324.567ZM324.567 37.0898C324.567 36.5458 324.503 36.1245 324.375 35.8258C324.258 35.5271 324.087 35.3138 323.863 35.1858C323.639 35.0471 323.378 34.9778 323.079 34.9778C322.535 34.9671 322.114 35.1325 321.815 35.4738C321.527 35.8151 321.383 36.3218 321.383 36.9938H320.679C320.679 36.1405 320.802 35.4205 321.047 34.8338C321.303 34.2365 321.655 33.7831 322.103 33.4738C322.562 33.1538 323.095 32.9938 323.703 32.9938C324.333 32.9938 324.871 33.1218 325.319 33.3778C325.767 33.6338 326.109 34.0338 326.343 34.5778C326.578 35.1111 326.69 35.8045 326.679 36.6578V37.0898H324.567Z" fill="#1A6B83"/>
<path d="M123.022 64.1858L119.144 54.3858H120.544L124.492 64.1858H123.022ZM115.126 64.1858L119.074 54.3858H120.474L116.596 64.1858H115.126ZM116.988 61.5678V60.3358H122.63V61.5678H116.988ZM126.235 64.1858V56.4158C126.235 55.6785 126.413 55.1231 126.767 54.7498C127.122 54.3671 127.659 54.1758 128.377 54.1758C128.592 54.1758 128.825 54.2131 129.077 54.2878C129.329 54.3531 129.586 54.4465 129.847 54.5678L129.357 55.5898C129.161 55.4965 128.989 55.4311 128.839 55.3938C128.699 55.3471 128.578 55.3238 128.475 55.3238C128.167 55.3238 127.939 55.4265 127.789 55.6318C127.64 55.8278 127.565 56.1358 127.565 56.5558V64.1858H126.235ZM124.989 58.2918V57.1858H129.497V58.2918H124.989ZM133.501 64.3538C132.801 64.3538 132.26 64.1765 131.877 63.8218C131.494 63.4578 131.303 62.9398 131.303 62.2678V55.0018H132.633V62.0718C132.633 62.4171 132.717 62.6831 132.885 62.8698C133.062 63.0471 133.314 63.1358 133.641 63.1358C133.734 63.1358 133.837 63.1171 133.949 63.0798C134.061 63.0425 134.196 62.9678 134.355 62.8558L134.859 63.8918C134.616 64.0505 134.383 64.1671 134.159 64.2418C133.944 64.3165 133.725 64.3538 133.501 64.3538ZM130.113 58.3338V57.1858H134.621V58.3338H130.113ZM139.211 64.3538C138.53 64.3538 137.928 64.1998 137.405 63.8918C136.883 63.5745 136.472 63.1405 136.173 62.5898C135.875 62.0391 135.725 61.4045 135.725 60.6858C135.725 59.9671 135.875 59.3325 136.173 58.7818C136.472 58.2311 136.883 57.8018 137.405 57.4938C137.937 57.1765 138.544 57.0178 139.225 57.0178C139.869 57.0178 140.434 57.1811 140.919 57.5078C141.405 57.8251 141.783 58.2825 142.053 58.8798C142.333 59.4678 142.473 60.1631 142.473 60.9658H136.817L137.069 60.7558C137.069 61.2505 137.167 61.6798 137.363 62.0438C137.559 62.4078 137.825 62.6878 138.161 62.8838C138.497 63.0705 138.88 63.1638 139.309 63.1638C139.776 63.1638 140.163 63.0565 140.471 62.8418C140.789 62.6178 141.036 62.3378 141.213 62.0018L142.361 62.5338C142.175 62.8978 141.932 63.2198 141.633 63.4998C141.335 63.7705 140.98 63.9805 140.569 64.1298C140.168 64.2791 139.715 64.3538 139.211 64.3538ZM137.153 60.1258L136.887 59.9158H141.311L141.059 60.1258C141.059 59.7151 140.975 59.3651 140.807 59.0758C140.639 58.7771 140.415 58.5531 140.135 58.4038C139.855 58.2451 139.543 58.1658 139.197 58.1658C138.861 58.1658 138.535 58.2451 138.217 58.4038C137.909 58.5531 137.653 58.7725 137.447 59.0618C137.251 59.3511 137.153 59.7058 137.153 60.1258ZM144.599 60.4198C144.599 59.6638 144.744 59.0478 145.033 58.5718C145.323 58.0958 145.696 57.7411 146.153 57.5078C146.611 57.2745 147.091 57.1578 147.595 57.1578V58.4178C147.175 58.4178 146.774 58.4831 146.391 58.6138C146.018 58.7351 145.71 58.9405 145.467 59.2298C145.234 59.5098 145.117 59.8925 145.117 60.3778L144.599 60.4198ZM143.787 64.1858V57.1858H145.117V64.1858H143.787ZM155.278 64.3538C154.578 64.3538 153.957 64.1998 153.416 63.8918C152.875 63.5745 152.45 63.1405 152.142 62.5898C151.843 62.0391 151.694 61.4045 151.694 60.6858C151.694 59.9671 151.843 59.3325 152.142 58.7818C152.45 58.2311 152.87 57.8018 153.402 57.4938C153.943 57.1765 154.559 57.0178 155.25 57.0178C155.931 57.0178 156.543 57.1765 157.084 57.4938C157.635 57.8111 158.045 58.2638 158.316 58.8518L157.112 59.3558C156.935 59.0105 156.678 58.7398 156.342 58.5438C156.015 58.3478 155.637 58.2498 155.208 58.2498C154.788 58.2498 154.415 58.3525 154.088 58.5578C153.761 58.7631 153.505 59.0525 153.318 59.4258C153.131 59.7898 153.038 60.2098 153.038 60.6858C153.038 61.1618 153.131 61.5818 153.318 61.9458C153.505 62.3098 153.766 62.5991 154.102 62.8138C154.438 63.0191 154.816 63.1218 155.236 63.1218C155.665 63.1218 156.048 63.0145 156.384 62.7998C156.72 62.5758 156.972 62.2771 157.14 61.9038L158.358 62.3938C158.087 63.0098 157.677 63.4905 157.126 63.8358C156.585 64.1811 155.969 64.3538 155.278 64.3538ZM159.688 64.1858V54.3858H161.004V64.1858H159.688ZM164.532 64.1858V60.6018H165.848V64.1858H164.532ZM164.532 60.6018C164.532 59.9671 164.457 59.4865 164.308 59.1598C164.159 58.8238 163.953 58.5905 163.692 58.4598C163.44 58.3291 163.151 58.2591 162.824 58.2498C162.245 58.2498 161.797 58.4505 161.48 58.8518C161.163 59.2531 161.004 59.8178 161.004 60.5458H160.444C160.444 59.8085 160.551 59.1785 160.766 58.6558C160.99 58.1238 161.303 57.7178 161.704 57.4378C162.115 57.1578 162.6 57.0178 163.16 57.0178C163.711 57.0178 164.187 57.1298 164.588 57.3538C164.989 57.5778 165.302 57.9278 165.526 58.4038C165.75 58.8705 165.857 59.4865 165.848 60.2518V60.6018H164.532ZM170.616 64.3538C169.934 64.3538 169.332 64.1998 168.81 63.8918C168.287 63.5745 167.876 63.1405 167.578 62.5898C167.279 62.0391 167.13 61.4045 167.13 60.6858C167.13 59.9671 167.279 59.3325 167.578 58.7818C167.876 58.2311 168.287 57.8018 168.81 57.4938C169.342 57.1765 169.948 57.0178 170.63 57.0178C171.274 57.0178 171.838 57.1811 172.324 57.5078C172.809 57.8251 173.187 58.2825 173.458 58.8798C173.738 59.4678 173.878 60.1631 173.878 60.9658H168.222L168.474 60.7558C168.474 61.2505 168.572 61.6798 168.768 62.0438C168.964 62.4078 169.23 62.6878 169.566 62.8838C169.902 63.0705 170.284 63.1638 170.714 63.1638C171.18 63.1638 171.568 63.0565 171.876 62.8418C172.193 62.6178 172.44 62.3378 172.618 62.0018L173.766 62.5338C173.579 62.8978 173.336 63.2198 173.038 63.4998C172.739 63.7705 172.384 63.9805 171.974 64.1298C171.572 64.2791 171.12 64.3538 170.616 64.3538ZM168.558 60.1258L168.292 59.9158H172.716L172.464 60.1258C172.464 59.7151 172.38 59.3651 172.212 59.0758C172.044 58.7771 171.82 58.5531 171.54 58.4038C171.26 58.2451 170.947 58.1658 170.602 58.1658C170.266 58.1658 169.939 58.2451 169.622 58.4038C169.314 58.5531 169.057 58.7725 168.852 59.0618C168.656 59.3511 168.558 59.7058 168.558 60.1258ZM178.384 64.3538C177.684 64.3538 177.063 64.1998 176.522 63.8918C175.98 63.5745 175.556 63.1405 175.248 62.5898C174.949 62.0391 174.8 61.4045 174.8 60.6858C174.8 59.9671 174.949 59.3325 175.248 58.7818C175.556 58.2311 175.976 57.8018 176.508 57.4938C177.049 57.1765 177.665 57.0178 178.356 57.0178C179.037 57.0178 179.648 57.1765 180.19 57.4938C180.74 57.8111 181.151 58.2638 181.422 58.8518L180.218 59.3558C180.04 59.0105 179.784 58.7398 179.448 58.5438C179.121 58.3478 178.743 58.2498 178.314 58.2498C177.894 58.2498 177.52 58.3525 177.194 58.5578C176.867 58.7631 176.61 59.0525 176.424 59.4258C176.237 59.7898 176.144 60.2098 176.144 60.6858C176.144 61.1618 176.237 61.5818 176.424 61.9458C176.61 62.3098 176.872 62.5991 177.208 62.8138C177.544 63.0191 177.922 63.1218 178.342 63.1218C178.771 63.1218 179.154 63.0145 179.49 62.7998C179.826 62.5758 180.078 62.2771 180.246 61.9038L181.464 62.3938C181.193 63.0098 180.782 63.4905 180.232 63.8358C179.69 64.1811 179.074 64.3538 178.384 64.3538ZM184.067 62.0718L183.241 61.1618L186.923 57.1858H188.547L184.067 62.0718ZM182.779 64.1858V54.3858H184.109V64.1858H182.779ZM187.217 64.1858L184.641 60.3498L185.509 59.4258L188.813 64.1858H187.217ZM189.863 64.1858V57.1858H191.193V64.1858H189.863ZM190.535 55.7018C190.321 55.7018 190.134 55.6225 189.975 55.4638C189.817 55.2958 189.737 55.1045 189.737 54.8898C189.737 54.6658 189.817 54.4791 189.975 54.3298C190.134 54.1711 190.321 54.0918 190.535 54.0918C190.759 54.0918 190.946 54.1711 191.095 54.3298C191.254 54.4791 191.333 54.6658 191.333 54.8898C191.333 55.1045 191.254 55.2958 191.095 55.4638C190.946 55.6225 190.759 55.7018 190.535 55.7018ZM193.143 64.1858V57.1858H194.389L194.473 58.4738V64.1858H193.143ZM197.987 64.1858V60.6018H199.317V64.1858H197.987ZM197.987 60.6018C197.987 59.9671 197.912 59.4865 197.763 59.1598C197.623 58.8238 197.422 58.5905 197.161 58.4598C196.909 58.3291 196.615 58.2591 196.279 58.2498C195.709 58.2498 195.266 58.4505 194.949 58.8518C194.631 59.2531 194.473 59.8178 194.473 60.5458H193.899C193.899 59.8085 194.006 59.1785 194.221 58.6558C194.445 58.1238 194.757 57.7178 195.159 57.4378C195.569 57.1578 196.055 57.0178 196.615 57.0178C197.165 57.0178 197.641 57.1298 198.043 57.3538C198.453 57.5778 198.766 57.9278 198.981 58.4038C199.205 58.8705 199.317 59.4865 199.317 60.2518V60.6018H197.987ZM203.888 67.1678C203.422 67.1678 202.997 67.1211 202.614 67.0278C202.232 66.9438 201.91 66.8458 201.648 66.7338C201.387 66.6218 201.191 66.5238 201.06 66.4398L201.564 65.3618C201.686 65.4365 201.858 65.5205 202.082 65.6138C202.306 65.7165 202.568 65.8005 202.866 65.8658C203.165 65.9405 203.496 65.9778 203.86 65.9778C204.29 65.9778 204.672 65.8891 205.008 65.7118C205.344 65.5438 205.606 65.2778 205.792 64.9138C205.988 64.5498 206.086 64.0831 206.086 63.5138V57.1858H207.416V63.4858C207.416 64.2885 207.262 64.9605 206.954 65.5018C206.656 66.0525 206.24 66.4678 205.708 66.7478C205.186 67.0278 204.579 67.1678 203.888 67.1678ZM203.762 64.0878C203.128 64.0878 202.572 63.9431 202.096 63.6538C201.63 63.3551 201.261 62.9445 200.99 62.4218C200.729 61.8898 200.598 61.2785 200.598 60.5878C200.598 59.8691 200.729 59.2438 200.99 58.7118C201.261 58.1798 201.63 57.7645 202.096 57.4658C202.572 57.1671 203.128 57.0178 203.762 57.0178C204.341 57.0178 204.845 57.1671 205.274 57.4658C205.713 57.7645 206.049 58.1845 206.282 58.7258C206.525 59.2578 206.646 59.8831 206.646 60.6018C206.646 61.2925 206.525 61.9038 206.282 62.4358C206.049 62.9585 205.713 63.3645 205.274 63.6538C204.845 63.9431 204.341 64.0878 203.762 64.0878ZM204.098 62.9678C204.49 62.9678 204.831 62.8651 205.12 62.6598C205.41 62.4451 205.638 62.1605 205.806 61.8058C205.974 61.4418 206.058 61.0265 206.058 60.5598C206.058 60.0931 205.974 59.6825 205.806 59.3278C205.638 58.9731 205.405 58.6978 205.106 58.5018C204.817 58.2965 204.476 58.1938 204.084 58.1938C203.674 58.1938 203.31 58.2965 202.992 58.5018C202.684 58.6978 202.442 58.9731 202.264 59.3278C202.087 59.6825 201.998 60.0931 201.998 60.5598C201.998 61.0265 202.087 61.4418 202.264 61.8058C202.451 62.1605 202.698 62.4451 203.006 62.6598C203.324 62.8651 203.688 62.9678 204.098 62.9678ZM215.844 64.3538C215.144 64.3538 214.528 64.1998 213.996 63.8918C213.464 63.5745 213.044 63.1405 212.736 62.5898C212.437 62.0391 212.288 61.4045 212.288 60.6858C212.288 59.9671 212.437 59.3325 212.736 58.7818C213.035 58.2311 213.45 57.8018 213.982 57.4938C214.514 57.1765 215.125 57.0178 215.816 57.0178C216.507 57.0178 217.118 57.1765 217.65 57.4938C218.182 57.8018 218.597 58.2311 218.896 58.7818C219.195 59.3325 219.344 59.9671 219.344 60.6858C219.344 61.4045 219.195 62.0391 218.896 62.5898C218.597 63.1405 218.182 63.5745 217.65 63.8918C217.127 64.1998 216.525 64.3538 215.844 64.3538ZM215.844 63.1358C216.264 63.1358 216.637 63.0331 216.964 62.8278C217.291 62.6131 217.543 62.3238 217.72 61.9598C217.907 61.5958 218 61.1711 218 60.6858C218 60.2005 217.907 59.7758 217.72 59.4118C217.543 59.0478 217.286 58.7631 216.95 58.5578C216.614 58.3431 216.236 58.2358 215.816 58.2358C215.387 58.2358 215.009 58.3431 214.682 58.5578C214.355 58.7631 214.099 59.0478 213.912 59.4118C213.725 59.7758 213.632 60.2005 213.632 60.6858C213.632 61.1711 213.725 61.5958 213.912 61.9598C214.099 62.3238 214.36 62.6131 214.696 62.8278C215.032 63.0331 215.415 63.1358 215.844 63.1358ZM225.561 64.1858L225.477 62.8978V57.1858H226.793V64.1858H225.561ZM220.633 60.7698V57.1858H221.963V60.7698H220.633ZM221.963 60.7698C221.963 61.3951 222.033 61.8758 222.173 62.2118C222.322 62.5478 222.528 62.7811 222.789 62.9118C223.05 63.0425 223.344 63.1125 223.671 63.1218C224.24 63.1218 224.684 62.9211 225.001 62.5198C225.318 62.1185 225.477 61.5538 225.477 60.8258H226.051C226.051 61.5631 225.939 62.1978 225.715 62.7298C225.5 63.2525 225.192 63.6538 224.791 63.9338C224.39 64.2138 223.9 64.3538 223.321 64.3538C222.78 64.3538 222.304 64.2418 221.893 64.0178C221.492 63.7938 221.179 63.4438 220.955 62.9678C220.74 62.4918 220.633 61.8758 220.633 61.1198V60.7698H221.963ZM231.351 64.3538C230.651 64.3538 230.109 64.1765 229.727 63.8218C229.344 63.4578 229.153 62.9398 229.153 62.2678V55.0018H230.483V62.0718C230.483 62.4171 230.567 62.6831 230.735 62.8698C230.912 63.0471 231.164 63.1358 231.491 63.1358C231.584 63.1358 231.687 63.1171 231.799 63.0798C231.911 63.0425 232.046 62.9678 232.205 62.8558L232.709 63.8918C232.466 64.0505 232.233 64.1671 232.009 64.2418C231.794 64.3165 231.575 64.3538 231.351 64.3538ZM227.963 58.3338V57.1858H232.471V58.3338H227.963ZM233.616 65.7958L234.428 62.7438H235.87L234.694 65.7958H233.616ZM244.221 64.3538C243.698 64.3538 243.222 64.2931 242.793 64.1718C242.373 64.0505 242.004 63.8871 241.687 63.6818C241.379 63.4671 241.122 63.2291 240.917 62.9678C240.711 62.7065 240.567 62.4311 240.483 62.1418L241.813 61.7078C241.953 62.0905 242.219 62.4218 242.611 62.7018C243.003 62.9818 243.483 63.1265 244.053 63.1358C244.743 63.1358 245.285 63.0005 245.677 62.7298C246.078 62.4498 246.279 62.0811 246.279 61.6238C246.279 61.2038 246.106 60.8631 245.761 60.6018C245.415 60.3311 244.958 60.1258 244.389 59.9858L243.255 59.6918C242.807 59.5705 242.396 59.3978 242.023 59.1738C241.659 58.9498 241.369 58.6651 241.155 58.3198C240.94 57.9745 240.833 57.5591 240.833 57.0738C240.833 56.1778 241.122 55.4778 241.701 54.9738C242.289 54.4698 243.133 54.2178 244.235 54.2178C244.869 54.2178 245.42 54.3205 245.887 54.5258C246.353 54.7218 246.736 54.9831 247.035 55.3098C247.343 55.6365 247.562 55.9958 247.693 56.3878L246.363 56.8358C246.204 56.4158 245.933 56.0798 245.551 55.8278C245.168 55.5665 244.697 55.4358 244.137 55.4358C243.549 55.4358 243.082 55.5758 242.737 55.8558C242.401 56.1358 242.233 56.5185 242.233 57.0038C242.233 57.4145 242.363 57.7318 242.625 57.9558C242.895 58.1705 243.255 58.3338 243.703 58.4458L244.837 58.7258C245.751 58.9498 246.456 59.3231 246.951 59.8458C247.455 60.3591 247.707 60.9238 247.707 61.5398C247.707 62.0718 247.571 62.5525 247.301 62.9818C247.039 63.4018 246.647 63.7378 246.125 63.9898C245.611 64.2325 244.977 64.3538 244.221 64.3538ZM253.605 64.1858L253.549 62.9678V60.5318C253.549 60.0185 253.488 59.5891 253.367 59.2438C253.255 58.8985 253.077 58.6371 252.835 58.4598C252.601 58.2825 252.289 58.1938 251.897 58.1938C251.533 58.1938 251.215 58.2685 250.945 58.4178C250.683 58.5671 250.464 58.8005 250.287 59.1178L249.111 58.6698C249.279 58.3525 249.489 58.0725 249.741 57.8298C249.993 57.5778 250.296 57.3818 250.651 57.2418C251.005 57.0925 251.421 57.0178 251.897 57.0178C252.559 57.0178 253.11 57.1485 253.549 57.4098C253.987 57.6711 254.314 58.0491 254.529 58.5438C254.753 59.0385 254.86 59.6498 254.851 60.3778L254.837 64.1858H253.605ZM251.547 64.3538C250.716 64.3538 250.067 64.1671 249.601 63.7938C249.143 63.4111 248.915 62.8838 248.915 62.2118C248.915 61.4931 249.153 60.9471 249.629 60.5738C250.114 60.1911 250.786 59.9998 251.645 59.9998H253.591V61.0498H252.009C251.365 61.0498 250.912 61.1525 250.651 61.3578C250.389 61.5538 250.259 61.8291 250.259 62.1838C250.259 62.5105 250.38 62.7671 250.623 62.9538C250.875 63.1311 251.22 63.2198 251.659 63.2198C252.041 63.2198 252.373 63.1405 252.653 62.9818C252.933 62.8138 253.152 62.5805 253.311 62.2818C253.469 61.9831 253.549 61.6425 253.549 61.2598H254.011C254.011 62.2118 253.805 62.9678 253.395 63.5278C252.993 64.0785 252.377 64.3538 251.547 64.3538ZM256.526 64.1858V57.1858H257.772L257.856 58.4738V64.1858H256.526ZM261.37 64.1858V60.6018H262.7V64.1858H261.37ZM261.37 60.6018C261.37 59.9671 261.295 59.4865 261.146 59.1598C261.006 58.8238 260.805 58.5905 260.544 58.4598C260.292 58.3291 259.998 58.2591 259.662 58.2498C259.092 58.2498 258.649 58.4505 258.332 58.8518C258.014 59.2531 257.856 59.8178 257.856 60.5458H257.282C257.282 59.8085 257.389 59.1785 257.604 58.6558C257.828 58.1238 258.14 57.7178 258.542 57.4378C258.952 57.1578 259.438 57.0178 259.998 57.0178C260.548 57.0178 261.024 57.1298 261.426 57.3538C261.836 57.5778 262.149 57.9278 262.364 58.4038C262.588 58.8705 262.7 59.4865 262.7 60.2518V60.6018H261.37ZM269.497 64.1858L269.441 62.8838V54.3858H270.757V64.1858H269.497ZM267.145 64.3538C266.511 64.3538 265.955 64.1998 265.479 63.8918C265.013 63.5838 264.644 63.1545 264.373 62.6038C264.112 62.0531 263.981 61.4138 263.981 60.6858C263.981 59.9485 264.112 59.3091 264.373 58.7678C264.644 58.2171 265.013 57.7878 265.479 57.4798C265.955 57.1718 266.511 57.0178 267.145 57.0178C267.733 57.0178 268.242 57.1718 268.671 57.4798C269.11 57.7878 269.446 58.2171 269.679 58.7678C269.913 59.3091 270.029 59.9485 270.029 60.6858C270.029 61.4138 269.913 62.0531 269.679 62.6038C269.446 63.1545 269.11 63.5838 268.671 63.8918C268.242 64.1998 267.733 64.3538 267.145 64.3538ZM267.453 63.1498C267.845 63.1498 268.191 63.0471 268.489 62.8418C268.788 62.6271 269.021 62.3378 269.189 61.9738C269.357 61.6005 269.441 61.1711 269.441 60.6858C269.441 60.2005 269.357 59.7758 269.189 59.4118C269.021 59.0385 268.788 58.7491 268.489 58.5438C268.191 58.3291 267.841 58.2218 267.439 58.2218C267.029 58.2218 266.665 58.3291 266.347 58.5438C266.03 58.7491 265.783 59.0385 265.605 59.4118C265.428 59.7758 265.339 60.2005 265.339 60.6858C265.339 61.1711 265.428 61.6005 265.605 61.9738C265.792 62.3378 266.044 62.6271 266.361 62.8418C266.679 63.0471 267.043 63.1498 267.453 63.1498ZM273.416 60.4198C273.416 59.6638 273.56 59.0478 273.85 58.5718C274.139 58.0958 274.512 57.7411 274.97 57.5078C275.427 57.2745 275.908 57.1578 276.412 57.1578V58.4178C275.992 58.4178 275.59 58.4831 275.208 58.6138C274.834 58.7351 274.526 58.9405 274.284 59.2298C274.05 59.5098 273.934 59.8925 273.934 60.3778L273.416 60.4198ZM272.604 64.1858V57.1858H273.934V64.1858H272.604ZM281.783 64.1858L281.727 62.9678V60.5318C281.727 60.0185 281.666 59.5891 281.545 59.2438C281.433 58.8985 281.255 58.6371 281.013 58.4598C280.779 58.2825 280.467 58.1938 280.075 58.1938C279.711 58.1938 279.393 58.2685 279.123 58.4178C278.861 58.5671 278.642 58.8005 278.465 59.1178L277.289 58.6698C277.457 58.3525 277.667 58.0725 277.919 57.8298C278.171 57.5778 278.474 57.3818 278.829 57.2418C279.183 57.0925 279.599 57.0178 280.075 57.0178C280.737 57.0178 281.288 57.1485 281.727 57.4098C282.165 57.6711 282.492 58.0491 282.707 58.5438C282.931 59.0385 283.038 59.6498 283.029 60.3778L283.015 64.1858H281.783ZM279.725 64.3538C278.894 64.3538 278.245 64.1671 277.779 63.7938C277.321 63.4111 277.093 62.8838 277.093 62.2118C277.093 61.4931 277.331 60.9471 277.807 60.5738C278.292 60.1911 278.964 59.9998 279.823 59.9998H281.769V61.0498H280.187C279.543 61.0498 279.09 61.1525 278.829 61.3578C278.567 61.5538 278.437 61.8291 278.437 62.1838C278.437 62.5105 278.558 62.7671 278.801 62.9538C279.053 63.1311 279.398 63.2198 279.837 63.2198C280.219 63.2198 280.551 63.1405 280.831 62.9818C281.111 62.8138 281.33 62.5805 281.489 62.2818C281.647 61.9831 281.727 61.6425 281.727 61.2598H282.189C282.189 62.2118 281.983 62.9678 281.573 63.5278C281.171 64.0785 280.555 64.3538 279.725 64.3538ZM288.205 64.1858V57.1858H289.535V64.1858H288.205ZM288.877 55.7018C288.663 55.7018 288.476 55.6225 288.317 55.4638C288.159 55.2958 288.079 55.1045 288.079 54.8898C288.079 54.6658 288.159 54.4791 288.317 54.3298C288.476 54.1711 288.663 54.0918 288.877 54.0918C289.101 54.0918 289.288 54.1711 289.437 54.3298C289.596 54.4791 289.675 54.6658 289.675 54.8898C289.675 55.1045 289.596 55.2958 289.437 55.4638C289.288 55.6225 289.101 55.7018 288.877 55.7018ZM293.991 64.3538C293.496 64.3538 293.053 64.2791 292.661 64.1298C292.278 63.9805 291.951 63.7798 291.681 63.5278C291.419 63.2758 291.223 62.9911 291.093 62.6738L292.241 62.1698C292.39 62.4591 292.614 62.6971 292.913 62.8838C293.211 63.0705 293.543 63.1638 293.907 63.1638C294.308 63.1638 294.639 63.0891 294.901 62.9398C295.162 62.7905 295.293 62.5805 295.293 62.3098C295.293 62.0485 295.195 61.8431 294.999 61.6938C294.803 61.5445 294.518 61.4231 294.145 61.3298L293.487 61.1618C292.833 60.9845 292.325 60.7185 291.961 60.3638C291.606 60.0091 291.429 59.6078 291.429 59.1598C291.429 58.4785 291.648 57.9511 292.087 57.5778C292.525 57.2045 293.174 57.0178 294.033 57.0178C294.453 57.0178 294.835 57.0785 295.181 57.1998C295.535 57.3211 295.834 57.4938 296.077 57.7178C296.329 57.9418 296.506 58.2078 296.609 58.5158L295.489 59.0198C295.377 58.7398 295.185 58.5345 294.915 58.4038C294.644 58.2638 294.327 58.1938 293.963 58.1938C293.589 58.1938 293.295 58.2778 293.081 58.4458C292.866 58.6045 292.759 58.8285 292.759 59.1178C292.759 59.2765 292.847 59.4305 293.025 59.5798C293.211 59.7198 293.482 59.8365 293.837 59.9298L294.593 60.1118C295.05 60.2238 295.428 60.3965 295.727 60.6298C296.025 60.8538 296.249 61.1105 296.399 61.3998C296.548 61.6798 296.623 61.9738 296.623 62.2818C296.623 62.7018 296.506 63.0705 296.273 63.3878C296.049 63.6958 295.736 63.9338 295.335 64.1018C294.943 64.2698 294.495 64.3538 293.991 64.3538ZM306.184 64.1858L306.1 62.8978V57.1858H307.416V64.1858H306.184ZM301.256 60.7698V57.1858H302.586V60.7698H301.256ZM302.586 60.7698C302.586 61.3951 302.656 61.8758 302.796 62.2118C302.945 62.5478 303.151 62.7811 303.412 62.9118C303.673 63.0425 303.967 63.1125 304.294 63.1218C304.863 63.1218 305.307 62.9211 305.624 62.5198C305.941 62.1185 306.1 61.5538 306.1 60.8258H306.674C306.674 61.5631 306.562 62.1978 306.338 62.7298C306.123 63.2525 305.815 63.6538 305.414 63.9338C305.013 64.2138 304.523 64.3538 303.944 64.3538C303.403 64.3538 302.927 64.2418 302.516 64.0178C302.115 63.7938 301.802 63.4438 301.578 62.9678C301.363 62.4918 301.256 61.8758 301.256 61.1198V60.7698H302.586ZM309.272 64.1858V57.1858H310.518L310.602 58.4738V64.1858H309.272ZM314.116 64.1858V60.6018H315.446V64.1858H314.116ZM314.116 60.6018C314.116 59.9671 314.041 59.4865 313.892 59.1598C313.752 58.8238 313.551 58.5905 313.29 58.4598C313.038 58.3291 312.744 58.2591 312.408 58.2498C311.838 58.2498 311.395 58.4505 311.078 58.8518C310.76 59.2531 310.602 59.8178 310.602 60.5458H310.028C310.028 59.8085 310.135 59.1785 310.35 58.6558C310.574 58.1238 310.886 57.7178 311.288 57.4378C311.698 57.1578 312.184 57.0178 312.744 57.0178C313.294 57.0178 313.77 57.1298 314.172 57.3538C314.582 57.5778 314.895 57.9278 315.11 58.4038C315.334 58.8705 315.446 59.4865 315.446 60.2518V60.6018H314.116ZM319.625 64.3538C319.131 64.3538 318.687 64.2791 318.295 64.1298C317.913 63.9805 317.586 63.7798 317.315 63.5278C317.054 63.2758 316.858 62.9911 316.727 62.6738L317.875 62.1698C318.025 62.4591 318.249 62.6971 318.547 62.8838C318.846 63.0705 319.177 63.1638 319.541 63.1638C319.943 63.1638 320.274 63.0891 320.535 62.9398C320.797 62.7905 320.927 62.5805 320.927 62.3098C320.927 62.0485 320.829 61.8431 320.633 61.6938C320.437 61.5445 320.153 61.4231 319.779 61.3298L319.121 61.1618C318.468 60.9845 317.959 60.7185 317.595 60.3638C317.241 60.0091 317.063 59.6078 317.063 59.1598C317.063 58.4785 317.283 57.9511 317.721 57.5778C318.16 57.2045 318.809 57.0178 319.667 57.0178C320.087 57.0178 320.47 57.0785 320.815 57.1998C321.17 57.3211 321.469 57.4938 321.711 57.7178C321.963 57.9418 322.141 58.2078 322.243 58.5158L321.123 59.0198C321.011 58.7398 320.82 58.5345 320.549 58.4038C320.279 58.2638 319.961 58.1938 319.597 58.1938C319.224 58.1938 318.93 58.2778 318.715 58.4458C318.501 58.6045 318.393 58.8285 318.393 59.1178C318.393 59.2765 318.482 59.4305 318.659 59.5798C318.846 59.7198 319.117 59.8365 319.471 59.9298L320.227 60.1118C320.685 60.2238 321.063 60.3965 321.361 60.6298C321.66 60.8538 321.884 61.1105 322.033 61.3998C322.183 61.6798 322.257 61.9738 322.257 62.2818C322.257 62.7018 322.141 63.0705 321.907 63.3878C321.683 63.6958 321.371 63.9338 320.969 64.1018C320.577 64.2698 320.129 64.3538 319.625 64.3538ZM328.401 64.1858L328.317 62.8978V57.1858H329.633V64.1858H328.401ZM323.473 60.7698V57.1858H324.803V60.7698H323.473ZM324.803 60.7698C324.803 61.3951 324.873 61.8758 325.013 62.2118C325.162 62.5478 325.367 62.7811 325.629 62.9118C325.89 63.0425 326.184 63.1125 326.511 63.1218C327.08 63.1218 327.523 62.9211 327.841 62.5198C328.158 62.1185 328.317 61.5538 328.317 60.8258H328.891C328.891 61.5631 328.779 62.1978 328.555 62.7298C328.34 63.2525 328.032 63.6538 327.631 63.9338C327.229 64.2138 326.739 64.3538 326.161 64.3538C325.619 64.3538 325.143 64.2418 324.733 64.0178C324.331 63.7938 324.019 63.4438 323.795 62.9678C323.58 62.4918 323.473 61.8758 323.473 61.1198V60.7698H324.803ZM332.3 60.4198C332.3 59.6638 332.445 59.0478 332.734 58.5718C333.024 58.0958 333.397 57.7411 333.854 57.5078C334.312 57.2745 334.792 57.1578 335.296 57.1578V58.4178C334.876 58.4178 334.475 58.4831 334.092 58.6138C333.719 58.7351 333.411 58.9405 333.168 59.2298C332.935 59.5098 332.818 59.8925 332.818 60.3778L332.3 60.4198ZM331.488 64.1858V57.1858H332.818V64.1858H331.488ZM339.463 64.3538C338.782 64.3538 338.18 64.1998 337.657 63.8918C337.135 63.5745 336.724 63.1405 336.425 62.5898C336.127 62.0391 335.977 61.4045 335.977 60.6858C335.977 59.9671 336.127 59.3325 336.425 58.7818C336.724 58.2311 337.135 57.8018 337.657 57.4938C338.189 57.1765 338.796 57.0178 339.477 57.0178C340.121 57.0178 340.686 57.1811 341.171 57.5078C341.657 57.8251 342.035 58.2825 342.305 58.8798C342.585 59.4678 342.725 60.1631 342.725 60.9658H337.069L337.321 60.7558C337.321 61.2505 337.419 61.6798 337.615 62.0438C337.811 62.4078 338.077 62.6878 338.413 62.8838C338.749 63.0705 339.132 63.1638 339.561 63.1638C340.028 63.1638 340.415 63.0565 340.723 62.8418C341.041 62.6178 341.288 62.3378 341.465 62.0018L342.613 62.5338C342.427 62.8978 342.184 63.2198 341.885 63.4998C341.587 63.7705 341.232 63.9805 340.821 64.1298C340.42 64.2791 339.967 64.3538 339.463 64.3538ZM337.405 60.1258L337.139 59.9158H341.563L341.311 60.1258C341.311 59.7151 341.227 59.3651 341.059 59.0758C340.891 58.7771 340.667 58.5531 340.387 58.4038C340.107 58.2451 339.795 58.1658 339.449 58.1658C339.113 58.1658 338.787 58.2451 338.469 58.4038C338.161 58.5531 337.905 58.7725 337.699 59.0618C337.503 59.3511 337.405 59.7058 337.405 60.1258ZM350.621 64.3538C349.921 64.3538 349.305 64.1998 348.773 63.8918C348.241 63.5745 347.821 63.1405 347.513 62.5898C347.215 62.0391 347.065 61.4045 347.065 60.6858C347.065 59.9671 347.215 59.3325 347.513 58.7818C347.812 58.2311 348.227 57.8018 348.759 57.4938C349.291 57.1765 349.903 57.0178 350.593 57.0178C351.284 57.0178 351.895 57.1765 352.427 57.4938C352.959 57.8018 353.375 58.2311 353.673 58.7818C353.972 59.3325 354.121 59.9671 354.121 60.6858C354.121 61.4045 353.972 62.0391 353.673 62.5898C353.375 63.1405 352.959 63.5745 352.427 63.8918C351.905 64.1998 351.303 64.3538 350.621 64.3538ZM350.621 63.1358C351.041 63.1358 351.415 63.0331 351.741 62.8278C352.068 62.6131 352.32 62.3238 352.497 61.9598C352.684 61.5958 352.777 61.1711 352.777 60.6858C352.777 60.2005 352.684 59.7758 352.497 59.4118C352.32 59.0478 352.063 58.7631 351.727 58.5578C351.391 58.3431 351.013 58.2358 350.593 58.2358C350.164 58.2358 349.786 58.3431 349.459 58.5578C349.133 58.7631 348.876 59.0478 348.689 59.4118C348.503 59.7758 348.409 60.2005 348.409 60.6858C348.409 61.1711 348.503 61.5958 348.689 61.9598C348.876 62.3238 349.137 62.6131 349.473 62.8278C349.809 63.0331 350.192 63.1358 350.621 63.1358ZM355.578 64.1858V57.1858H356.824L356.908 58.4738V64.1858H355.578ZM360.422 64.1858V60.6018H361.752V64.1858H360.422ZM360.422 60.6018C360.422 59.9671 360.348 59.4865 360.198 59.1598C360.058 58.8238 359.858 58.5905 359.596 58.4598C359.344 58.3291 359.05 58.2591 358.714 58.2498C358.145 58.2498 357.702 58.4505 357.384 58.8518C357.067 59.2531 356.908 59.8178 356.908 60.5458H356.334C356.334 59.8085 356.442 59.1785 356.656 58.6558C356.88 58.1238 357.193 57.7178 357.594 57.4378C358.005 57.1578 358.49 57.0178 359.05 57.0178C359.601 57.0178 360.077 57.1298 360.478 57.3538C360.889 57.5778 361.202 57.9278 361.416 58.4038C361.64 58.8705 361.752 59.4865 361.752 60.2518V60.6018H360.422ZM373.256 64.1858L375.622 57.1858H376.952L374.572 64.1858H373.256ZM368.538 64.1858L370.862 57.1858H372.066L369.77 64.1858H368.538ZM368.44 64.1858L366.06 57.1858H367.404L369.714 64.1858H368.44ZM373.256 64.1858L370.96 57.1858H372.178L374.488 64.1858H373.256ZM378.028 64.1858V54.3858H379.344V64.1858H378.028ZM382.872 64.1858V60.6018H384.188V64.1858H382.872ZM382.872 60.6018C382.872 59.9671 382.797 59.4865 382.648 59.1598C382.499 58.8238 382.293 58.5905 382.032 58.4598C381.78 58.3291 381.491 58.2591 381.164 58.2498C380.585 58.2498 380.137 58.4505 379.82 58.8518C379.503 59.2531 379.344 59.8178 379.344 60.5458H378.784C378.784 59.8085 378.891 59.1785 379.106 58.6558C379.33 58.1238 379.643 57.7178 380.044 57.4378C380.455 57.1578 380.94 57.0178 381.5 57.0178C382.051 57.0178 382.527 57.1298 382.928 57.3538C383.329 57.5778 383.642 57.9278 383.866 58.4038C384.09 58.8705 384.197 59.4865 384.188 60.2518V60.6018H382.872ZM388.956 64.3538C388.274 64.3538 387.672 64.1998 387.15 63.8918C386.627 63.5745 386.216 63.1405 385.918 62.5898C385.619 62.0391 385.47 61.4045 385.47 60.6858C385.47 59.9671 385.619 59.3325 385.918 58.7818C386.216 58.2311 386.627 57.8018 387.15 57.4938C387.682 57.1765 388.288 57.0178 388.97 57.0178C389.614 57.0178 390.178 57.1811 390.664 57.5078C391.149 57.8251 391.527 58.2825 391.798 58.8798C392.078 59.4678 392.218 60.1631 392.218 60.9658H386.562L386.814 60.7558C386.814 61.2505 386.912 61.6798 387.108 62.0438C387.304 62.4078 387.57 62.6878 387.906 62.8838C388.242 63.0705 388.624 63.1638 389.053 63.1638C389.52 63.1638 389.908 63.0565 390.216 62.8418C390.533 62.6178 390.78 62.3378 390.958 62.0018L392.106 62.5338C391.919 62.8978 391.676 63.2198 391.378 63.4998C391.079 63.7705 390.724 63.9805 390.314 64.1298C389.912 64.2791 389.46 64.3538 388.956 64.3538ZM386.898 60.1258L386.632 59.9158H391.056L390.804 60.1258C390.804 59.7151 390.72 59.3651 390.552 59.0758C390.384 58.7771 390.16 58.5531 389.88 58.4038C389.6 58.2451 389.287 58.1658 388.942 58.1658C388.606 58.1658 388.279 58.2451 387.962 58.4038C387.654 58.5531 387.397 58.7725 387.192 59.0618C386.996 59.3511 386.898 59.7058 386.898 60.1258ZM394.343 60.4198C394.343 59.6638 394.488 59.0478 394.777 58.5718C395.067 58.0958 395.44 57.7411 395.897 57.5078C396.355 57.2745 396.835 57.1578 397.339 57.1578V58.4178C396.919 58.4178 396.518 58.4831 396.135 58.6138C395.762 58.7351 395.454 58.9405 395.211 59.2298C394.978 59.5098 394.861 59.8925 394.861 60.3778L394.343 60.4198ZM393.531 64.1858V57.1858H394.861V64.1858H393.531ZM401.506 64.3538C400.825 64.3538 400.223 64.1998 399.7 63.8918C399.178 63.5745 398.767 63.1405 398.468 62.5898C398.17 62.0391 398.02 61.4045 398.02 60.6858C398.02 59.9671 398.17 59.3325 398.468 58.7818C398.767 58.2311 399.178 57.8018 399.7 57.4938C400.232 57.1765 400.839 57.0178 401.52 57.0178C402.164 57.0178 402.729 57.1811 403.214 57.5078C403.7 57.8251 404.078 58.2825 404.348 58.8798C404.628 59.4678 404.768 60.1631 404.768 60.9658H399.112L399.364 60.7558C399.364 61.2505 399.462 61.6798 399.658 62.0438C399.854 62.4078 400.12 62.6878 400.456 62.8838C400.792 63.0705 401.175 63.1638 401.604 63.1638C402.071 63.1638 402.458 63.0565 402.766 62.8418C403.084 62.6178 403.331 62.3378 403.508 62.0018L404.656 62.5338C404.47 62.8978 404.227 63.2198 403.928 63.4998C403.63 63.7705 403.275 63.9805 402.864 64.1298C402.463 64.2791 402.01 64.3538 401.506 64.3538ZM399.448 60.1258L399.182 59.9158H403.606L403.354 60.1258C403.354 59.7151 403.27 59.3651 403.102 59.0758C402.934 58.7771 402.71 58.5531 402.43 58.4038C402.15 58.2451 401.838 58.1658 401.492 58.1658C401.156 58.1658 400.83 58.2451 400.512 58.4038C400.204 58.5531 399.948 58.7725 399.742 59.0618C399.546 59.3511 399.448 59.7058 399.448 60.1258ZM413.798 64.1858L413.742 62.9678V60.5318C413.742 60.0185 413.682 59.5891 413.56 59.2438C413.448 58.8985 413.271 58.6371 413.028 58.4598C412.795 58.2825 412.482 58.1938 412.09 58.1938C411.726 58.1938 411.409 58.2685 411.138 58.4178C410.877 58.5671 410.658 58.8005 410.48 59.1178L409.304 58.6698C409.472 58.3525 409.682 58.0725 409.934 57.8298C410.186 57.5778 410.49 57.3818 410.844 57.2418C411.199 57.0925 411.614 57.0178 412.09 57.0178C412.753 57.0178 413.304 57.1485 413.742 57.4098C414.181 57.6711 414.508 58.0491 414.722 58.5438C414.946 59.0385 415.054 59.6498 415.044 60.3778L415.03 64.1858H413.798ZM411.74 64.3538C410.91 64.3538 410.261 64.1671 409.794 63.7938C409.337 63.4111 409.108 62.8838 409.108 62.2118C409.108 61.4931 409.346 60.9471 409.822 60.5738C410.308 60.1911 410.98 59.9998 411.838 59.9998H413.784V61.0498H412.202C411.558 61.0498 411.106 61.1525 410.844 61.3578C410.583 61.5538 410.452 61.8291 410.452 62.1838C410.452 62.5105 410.574 62.7671 410.816 62.9538C411.068 63.1311 411.414 63.2198 411.852 63.2198C412.235 63.2198 412.566 63.1405 412.846 62.9818C413.126 62.8138 413.346 62.5805 413.504 62.2818C413.663 61.9831 413.742 61.6425 413.742 61.2598H414.204C414.204 62.2118 413.999 62.9678 413.588 63.5278C413.187 64.0785 412.571 64.3538 411.74 64.3538ZM416.719 64.1858V57.1858H417.965L418.049 58.4738V64.1858H416.719ZM421.563 64.1858V60.6018H422.893V64.1858H421.563ZM421.563 60.6018C421.563 59.9671 421.488 59.4865 421.339 59.1598C421.199 58.8238 420.998 58.5905 420.737 58.4598C420.485 58.3291 420.191 58.2591 419.855 58.2498C419.286 58.2498 418.842 58.4505 418.525 58.8518C418.208 59.2531 418.049 59.8178 418.049 60.5458H417.475C417.475 59.8085 417.582 59.1785 417.797 58.6558C418.021 58.1238 418.334 57.7178 418.735 57.4378C419.146 57.1578 419.631 57.0178 420.191 57.0178C420.742 57.0178 421.218 57.1298 421.619 57.3538C422.03 57.5778 422.342 57.9278 422.557 58.4038C422.781 58.8705 422.893 59.4865 422.893 60.2518V60.6018H421.563ZM429.691 64.1858L429.635 62.8838V54.3858H430.951V64.1858H429.691ZM427.339 64.3538C426.704 64.3538 426.149 64.1998 425.673 63.8918C425.206 63.5838 424.837 63.1545 424.567 62.6038C424.305 62.0531 424.175 61.4138 424.175 60.6858C424.175 59.9485 424.305 59.3091 424.567 58.7678C424.837 58.2171 425.206 57.7878 425.673 57.4798C426.149 57.1718 426.704 57.0178 427.339 57.0178C427.927 57.0178 428.435 57.1718 428.865 57.4798C429.303 57.7878 429.639 58.2171 429.873 58.7678C430.106 59.3091 430.223 59.9485 430.223 60.6858C430.223 61.4138 430.106 62.0531 429.873 62.6038C429.639 63.1545 429.303 63.5838 428.865 63.8918C428.435 64.1998 427.927 64.3538 427.339 64.3538ZM427.647 63.1498C428.039 63.1498 428.384 63.0471 428.683 62.8418C428.981 62.6271 429.215 62.3378 429.383 61.9738C429.551 61.6005 429.635 61.1711 429.635 60.6858C429.635 60.2005 429.551 59.7758 429.383 59.4118C429.215 59.0385 428.981 58.7491 428.683 58.5438C428.384 58.3291 428.034 58.2218 427.633 58.2218C427.222 58.2218 426.858 58.3291 426.541 58.5438C426.223 58.7491 425.976 59.0385 425.799 59.4118C425.621 59.7758 425.533 60.2005 425.533 60.6858C425.533 61.1711 425.621 61.6005 425.799 61.9738C425.985 62.3378 426.237 62.6271 426.555 62.8418C426.872 63.0471 427.236 63.1498 427.647 63.1498ZM436.229 64.1858V54.3858H437.545V64.1858H436.229ZM441.073 64.1858V60.6018H442.389V64.1858H441.073ZM441.073 60.6018C441.073 59.9671 440.998 59.4865 440.849 59.1598C440.7 58.8238 440.494 58.5905 440.233 58.4598C439.981 58.3291 439.692 58.2591 439.365 58.2498C438.786 58.2498 438.338 58.4505 438.021 58.8518C437.704 59.2531 437.545 59.8178 437.545 60.5458H436.985C436.985 59.8085 437.092 59.1785 437.307 58.6558C437.531 58.1238 437.844 57.7178 438.245 57.4378C438.656 57.1578 439.141 57.0178 439.701 57.0178C440.252 57.0178 440.728 57.1298 441.129 57.3538C441.53 57.5778 441.843 57.9278 442.067 58.4038C442.291 58.8705 442.398 59.4865 442.389 60.2518V60.6018H441.073ZM447.227 64.3538C446.527 64.3538 445.911 64.1998 445.379 63.8918C444.847 63.5745 444.427 63.1405 444.119 62.5898C443.82 62.0391 443.671 61.4045 443.671 60.6858C443.671 59.9671 443.82 59.3325 444.119 58.7818C444.417 58.2311 444.833 57.8018 445.365 57.4938C445.897 57.1765 446.508 57.0178 447.199 57.0178C447.889 57.0178 448.501 57.1765 449.033 57.4938C449.565 57.8018 449.98 58.2311 450.279 58.7818C450.577 59.3325 450.727 59.9671 450.727 60.6858C450.727 61.4045 450.577 62.0391 450.279 62.5898C449.98 63.1405 449.565 63.5745 449.033 63.8918C448.51 64.1998 447.908 64.3538 447.227 64.3538ZM447.227 63.1358C447.647 63.1358 448.02 63.0331 448.347 62.8278C448.673 62.6131 448.925 62.3238 449.103 61.9598C449.289 61.5958 449.383 61.1711 449.383 60.6858C449.383 60.2005 449.289 59.7758 449.103 59.4118C448.925 59.0478 448.669 58.7631 448.333 58.5578C447.997 58.3431 447.619 58.2358 447.199 58.2358C446.769 58.2358 446.391 58.3431 446.065 58.5578C445.738 58.7631 445.481 59.0478 445.295 59.4118C445.108 59.7758 445.015 60.2005 445.015 60.6858C445.015 61.1711 445.108 61.5958 445.295 61.9598C445.481 62.3238 445.743 62.6131 446.079 62.8278C446.415 63.0331 446.797 63.1358 447.227 63.1358ZM458.377 64.1858L460.743 57.1858H462.073L459.693 64.1858H458.377ZM453.659 64.1858L455.983 57.1858H457.187L454.891 64.1858H453.659ZM453.561 64.1858L451.181 57.1858H452.525L454.835 64.1858H453.561ZM458.377 64.1858L456.081 57.1858H457.299L459.609 64.1858H458.377ZM469.255 64.3538C468.555 64.3538 468.014 64.1765 467.631 63.8218C467.248 63.4578 467.057 62.9398 467.057 62.2678V55.0018H468.387V62.0718C468.387 62.4171 468.471 62.6831 468.639 62.8698C468.816 63.0471 469.068 63.1358 469.395 63.1358C469.488 63.1358 469.591 63.1171 469.703 63.0798C469.815 63.0425 469.95 62.9678 470.109 62.8558L470.613 63.8918C470.37 64.0505 470.137 64.1671 469.913 64.2418C469.698 64.3165 469.479 64.3538 469.255 64.3538ZM465.867 58.3338V57.1858H470.375V58.3338H465.867ZM475.035 64.3538C474.335 64.3538 473.719 64.1998 473.187 63.8918C472.655 63.5745 472.235 63.1405 471.927 62.5898C471.629 62.0391 471.479 61.4045 471.479 60.6858C471.479 59.9671 471.629 59.3325 471.927 58.7818C472.226 58.2311 472.641 57.8018 473.173 57.4938C473.705 57.1765 474.317 57.0178 475.007 57.0178C475.698 57.0178 476.309 57.1765 476.841 57.4938C477.373 57.8018 477.789 58.2311 478.087 58.7818C478.386 59.3325 478.535 59.9671 478.535 60.6858C478.535 61.4045 478.386 62.0391 478.087 62.5898C477.789 63.1405 477.373 63.5745 476.841 63.8918C476.319 64.1998 475.717 64.3538 475.035 64.3538ZM475.035 63.1358C475.455 63.1358 475.829 63.0331 476.155 62.8278C476.482 62.6131 476.734 62.3238 476.911 61.9598C477.098 61.5958 477.191 61.1711 477.191 60.6858C477.191 60.2005 477.098 59.7758 476.911 59.4118C476.734 59.0478 476.477 58.7631 476.141 58.5578C475.805 58.3431 475.427 58.2358 475.007 58.2358C474.578 58.2358 474.2 58.3431 473.873 58.5578C473.547 58.7631 473.29 59.0478 473.103 59.4118C472.917 59.7758 472.823 60.2005 472.823 60.6858C472.823 61.1711 472.917 61.5958 473.103 61.9598C473.29 62.3238 473.551 62.6131 473.887 62.8278C474.223 63.0331 474.606 63.1358 475.035 63.1358ZM116.736 77.4198C116.736 76.6638 116.881 76.0478 117.17 75.5718C117.459 75.0958 117.833 74.7411 118.29 74.5078C118.747 74.2745 119.228 74.1578 119.732 74.1578V75.4178C119.312 75.4178 118.911 75.4831 118.528 75.6138C118.155 75.7351 117.847 75.9405 117.604 76.2298C117.371 76.5098 117.254 76.8925 117.254 77.3778L116.736 77.4198ZM115.924 81.1858V74.1858H117.254V81.1858H115.924ZM123.899 81.3538C123.218 81.3538 122.616 81.1998 122.093 80.8918C121.57 80.5745 121.16 80.1405 120.861 79.5898C120.562 79.0391 120.413 78.4045 120.413 77.6858C120.413 76.9671 120.562 76.3325 120.861 75.7818C121.16 75.2311 121.57 74.8018 122.093 74.4938C122.625 74.1765 123.232 74.0178 123.913 74.0178C124.557 74.0178 125.122 74.1811 125.607 74.5078C126.092 74.8251 126.47 75.2825 126.741 75.8798C127.021 76.4678 127.161 77.1631 127.161 77.9658H121.505L121.757 77.7558C121.757 78.2505 121.855 78.6798 122.051 79.0438C122.247 79.4078 122.513 79.6878 122.849 79.8838C123.185 80.0705 123.568 80.1638 123.997 80.1638C124.464 80.1638 124.851 80.0565 125.159 79.8418C125.476 79.6178 125.724 79.3378 125.901 79.0018L127.049 79.5338C126.862 79.8978 126.62 80.2198 126.321 80.4998C126.022 80.7705 125.668 80.9805 125.257 81.1298C124.856 81.2791 124.403 81.3538 123.899 81.3538ZM121.841 77.1258L121.575 76.9158H125.999L125.747 77.1258C125.747 76.7151 125.663 76.3651 125.495 76.0758C125.327 75.7771 125.103 75.5531 124.823 75.4038C124.543 75.2451 124.23 75.1658 123.885 75.1658C123.549 75.1658 123.222 75.2451 122.905 75.4038C122.597 75.5531 122.34 75.7725 122.135 76.0618C121.939 76.3511 121.841 76.7058 121.841 77.1258ZM131.177 81.3538C130.477 81.3538 129.935 81.1765 129.553 80.8218C129.17 80.4578 128.979 79.9398 128.979 79.2678V72.0018H130.309V79.0718C130.309 79.4171 130.393 79.6831 130.561 79.8698C130.738 80.0471 130.99 80.1358 131.317 80.1358C131.41 80.1358 131.513 80.1171 131.625 80.0798C131.737 80.0425 131.872 79.9678 132.031 79.8558L132.535 80.8918C132.292 81.0505 132.059 81.1671 131.835 81.2418C131.62 81.3165 131.401 81.3538 131.177 81.3538ZM127.789 75.3338V74.1858H132.297V75.3338H127.789ZM138.608 81.1858L138.524 79.8978V74.1858H139.84V81.1858H138.608ZM133.68 77.7698V74.1858H135.01V77.7698H133.68ZM135.01 77.7698C135.01 78.3951 135.08 78.8758 135.22 79.2118C135.369 79.5478 135.574 79.7811 135.836 79.9118C136.097 80.0425 136.391 80.1125 136.718 80.1218C137.287 80.1218 137.73 79.9211 138.048 79.5198C138.365 79.1185 138.524 78.5538 138.524 77.8258H139.098C139.098 78.5631 138.986 79.1978 138.762 79.7298C138.547 80.2525 138.239 80.6538 137.838 80.9338C137.436 81.2138 136.946 81.3538 136.368 81.3538C135.826 81.3538 135.35 81.2418 134.94 81.0178C134.538 80.7938 134.226 80.4438 134.002 79.9678C133.787 79.4918 133.68 78.8758 133.68 78.1198V77.7698H135.01ZM142.507 77.4198C142.507 76.6638 142.652 76.0478 142.941 75.5718C143.231 75.0958 143.604 74.7411 144.061 74.5078C144.519 74.2745 144.999 74.1578 145.503 74.1578V75.4178C145.083 75.4178 144.682 75.4831 144.299 75.6138C143.926 75.7351 143.618 75.9405 143.375 76.2298C143.142 76.5098 143.025 76.8925 143.025 77.3778L142.507 77.4198ZM141.695 81.1858V74.1858H143.025V81.1858H141.695ZM146.576 81.1858V74.1858H147.822L147.906 75.4738V81.1858H146.576ZM151.42 81.1858V77.6018H152.75V81.1858H151.42ZM151.42 77.6018C151.42 76.9671 151.346 76.4865 151.196 76.1598C151.056 75.8238 150.856 75.5905 150.594 75.4598C150.342 75.3291 150.048 75.2591 149.712 75.2498C149.143 75.2498 148.7 75.4505 148.382 75.8518C148.065 76.2531 147.906 76.8178 147.906 77.5458H147.332C147.332 76.8085 147.44 76.1785 147.654 75.6558C147.878 75.1238 148.191 74.7178 148.592 74.4378C149.003 74.1578 149.488 74.0178 150.048 74.0178C150.599 74.0178 151.075 74.1298 151.476 74.3538C151.887 74.5778 152.2 74.9278 152.414 75.4038C152.638 75.8705 152.75 76.4865 152.75 77.2518V77.6018H151.42ZM157.856 81.1858V71.3858H159.172V81.1858H157.856ZM162.7 81.1858V77.6018H164.016V81.1858H162.7ZM162.7 77.6018C162.7 76.9671 162.625 76.4865 162.476 76.1598C162.327 75.8238 162.121 75.5905 161.86 75.4598C161.608 75.3291 161.319 75.2591 160.992 75.2498C160.413 75.2498 159.965 75.4505 159.648 75.8518C159.331 76.2531 159.172 76.8178 159.172 77.5458H158.612C158.612 76.8085 158.719 76.1785 158.934 75.6558C159.158 75.1238 159.471 74.7178 159.872 74.4378C160.283 74.1578 160.768 74.0178 161.328 74.0178C161.879 74.0178 162.355 74.1298 162.756 74.3538C163.157 74.5778 163.47 74.9278 163.694 75.4038C163.918 75.8705 164.025 76.4865 164.016 77.2518V77.6018H162.7ZM168.784 81.3538C168.102 81.3538 167.5 81.1998 166.978 80.8918C166.455 80.5745 166.044 80.1405 165.746 79.5898C165.447 79.0391 165.298 78.4045 165.298 77.6858C165.298 76.9671 165.447 76.3325 165.746 75.7818C166.044 75.2311 166.455 74.8018 166.978 74.4938C167.51 74.1765 168.116 74.0178 168.798 74.0178C169.442 74.0178 170.006 74.1811 170.492 74.5078C170.977 74.8251 171.355 75.2825 171.626 75.8798C171.906 76.4678 172.046 77.1631 172.046 77.9658H166.39L166.642 77.7558C166.642 78.2505 166.74 78.6798 166.936 79.0438C167.132 79.4078 167.398 79.6878 167.734 79.8838C168.07 80.0705 168.452 80.1638 168.882 80.1638C169.348 80.1638 169.736 80.0565 170.044 79.8418C170.361 79.6178 170.608 79.3378 170.786 79.0018L171.934 79.5338C171.747 79.8978 171.504 80.2198 171.206 80.4998C170.907 80.7705 170.552 80.9805 170.142 81.1298C169.74 81.2791 169.288 81.3538 168.784 81.3538ZM166.726 77.1258L166.46 76.9158H170.884L170.632 77.1258C170.632 76.7151 170.548 76.3651 170.38 76.0758C170.212 75.7771 169.988 75.5531 169.708 75.4038C169.428 75.2451 169.115 75.1658 168.77 75.1658C168.434 75.1658 168.107 75.2451 167.79 75.4038C167.482 75.5531 167.225 75.7725 167.02 76.0618C166.824 76.3511 166.726 76.7058 166.726 77.1258ZM174.172 77.4198C174.172 76.6638 174.316 76.0478 174.606 75.5718C174.895 75.0958 175.268 74.7411 175.726 74.5078C176.183 74.2745 176.664 74.1578 177.168 74.1578V75.4178C176.748 75.4178 176.346 75.4831 175.964 75.6138C175.59 75.7351 175.282 75.9405 175.04 76.2298C174.806 76.5098 174.69 76.8925 174.69 77.3778L174.172 77.4198ZM173.36 81.1858V74.1858H174.69V81.1858H173.36ZM184.85 81.3538C184.15 81.3538 183.53 81.1998 182.988 80.8918C182.447 80.5745 182.022 80.1405 181.714 79.5898C181.416 79.0391 181.266 78.4045 181.266 77.6858C181.266 76.9671 181.416 76.3325 181.714 75.7818C182.022 75.2311 182.442 74.8018 182.974 74.4938C183.516 74.1765 184.132 74.0178 184.822 74.0178C185.504 74.0178 186.115 74.1765 186.656 74.4938C187.207 74.8111 187.618 75.2638 187.888 75.8518L186.684 76.3558C186.507 76.0105 186.25 75.7398 185.914 75.5438C185.588 75.3478 185.21 75.2498 184.78 75.2498C184.36 75.2498 183.987 75.3525 183.66 75.5578C183.334 75.7631 183.077 76.0525 182.89 76.4258C182.704 76.7898 182.61 77.2098 182.61 77.6858C182.61 78.1618 182.704 78.5818 182.89 78.9458C183.077 79.3098 183.338 79.5991 183.674 79.8138C184.01 80.0191 184.388 80.1218 184.808 80.1218C185.238 80.1218 185.62 80.0145 185.956 79.7998C186.292 79.5758 186.544 79.2771 186.712 78.9038L187.93 79.3938C187.66 80.0098 187.249 80.4905 186.698 80.8358C186.157 81.1811 185.541 81.3538 184.85 81.3538ZM192.41 81.3538C191.71 81.3538 191.094 81.1998 190.562 80.8918C190.03 80.5745 189.61 80.1405 189.302 79.5898C189.004 79.0391 188.854 78.4045 188.854 77.6858C188.854 76.9671 189.004 76.3325 189.302 75.7818C189.601 75.2311 190.016 74.8018 190.548 74.4938C191.08 74.1765 191.692 74.0178 192.382 74.0178C193.073 74.0178 193.684 74.1765 194.216 74.4938C194.748 74.8018 195.164 75.2311 195.462 75.7818C195.761 76.3325 195.91 76.9671 195.91 77.6858C195.91 78.4045 195.761 79.0391 195.462 79.5898C195.164 80.1405 194.748 80.5745 194.216 80.8918C193.694 81.1998 193.092 81.3538 192.41 81.3538ZM192.41 80.1358C192.83 80.1358 193.204 80.0331 193.53 79.8278C193.857 79.6131 194.109 79.3238 194.286 78.9598C194.473 78.5958 194.566 78.1711 194.566 77.6858C194.566 77.2005 194.473 76.7758 194.286 76.4118C194.109 76.0478 193.852 75.7631 193.516 75.5578C193.18 75.3431 192.802 75.2358 192.382 75.2358C191.953 75.2358 191.575 75.3431 191.248 75.5578C190.922 75.7631 190.665 76.0478 190.478 76.4118C190.292 76.7758 190.198 77.2005 190.198 77.6858C190.198 78.1711 190.292 78.5958 190.478 78.9598C190.665 79.3238 190.926 79.6131 191.262 79.8278C191.598 80.0331 191.981 80.1358 192.41 80.1358ZM197.367 81.1858V74.1858H198.613L198.697 75.4738V81.1858H197.367ZM202.211 81.1858V77.6018H203.541V81.1858H202.211ZM202.211 77.6018C202.211 76.9671 202.137 76.4865 201.987 76.1598C201.847 75.8238 201.647 75.5905 201.385 75.4598C201.133 75.3291 200.839 75.2591 200.503 75.2498C199.934 75.2498 199.491 75.4505 199.173 75.8518C198.856 76.2531 198.697 76.8178 198.697 77.5458H198.123C198.123 76.8085 198.231 76.1785 198.445 75.6558C198.669 75.1238 198.982 74.7178 199.383 74.4378C199.794 74.1578 200.279 74.0178 200.839 74.0178C201.39 74.0178 201.866 74.1298 202.267 74.3538C202.678 74.5778 202.991 74.9278 203.205 75.4038C203.429 75.8705 203.541 76.4865 203.541 77.2518V77.6018H202.211ZM207.917 81.3538C207.217 81.3538 206.676 81.1765 206.293 80.8218C205.91 80.4578 205.719 79.9398 205.719 79.2678V72.0018H207.049V79.0718C207.049 79.4171 207.133 79.6831 207.301 79.8698C207.478 80.0471 207.73 80.1358 208.057 80.1358C208.15 80.1358 208.253 80.1171 208.365 80.0798C208.477 80.0425 208.612 79.9678 208.771 79.8558L209.275 80.8918C209.032 81.0505 208.799 81.1671 208.575 81.2418C208.36 81.3165 208.141 81.3538 207.917 81.3538ZM204.529 75.3338V74.1858H209.037V75.3338H204.529ZM214.831 81.1858L214.775 79.9678V77.5318C214.775 77.0185 214.715 76.5891 214.593 76.2438C214.481 75.8985 214.304 75.6371 214.061 75.4598C213.828 75.2825 213.515 75.1938 213.123 75.1938C212.759 75.1938 212.442 75.2685 212.171 75.4178C211.91 75.5671 211.691 75.8005 211.513 76.1178L210.337 75.6698C210.505 75.3525 210.715 75.0725 210.967 74.8298C211.219 74.5778 211.523 74.3818 211.877 74.2418C212.232 74.0925 212.647 74.0178 213.123 74.0178C213.786 74.0178 214.337 74.1485 214.775 74.4098C215.214 74.6711 215.541 75.0491 215.755 75.5438C215.979 76.0385 216.087 76.6498 216.077 77.3778L216.063 81.1858H214.831ZM212.773 81.3538C211.943 81.3538 211.294 81.1671 210.827 80.7938C210.37 80.4111 210.141 79.8838 210.141 79.2118C210.141 78.4931 210.379 77.9471 210.855 77.5738C211.341 77.1911 212.013 76.9998 212.871 76.9998H214.817V78.0498H213.235C212.591 78.0498 212.139 78.1525 211.877 78.3578C211.616 78.5538 211.485 78.8291 211.485 79.1838C211.485 79.5105 211.607 79.7671 211.849 79.9538C212.101 80.1311 212.447 80.2198 212.885 80.2198C213.268 80.2198 213.599 80.1405 213.879 79.9818C214.159 79.8138 214.379 79.5805 214.537 79.2818C214.696 78.9831 214.775 78.6425 214.775 78.2598H215.237C215.237 79.2118 215.032 79.9678 214.621 80.5278C214.22 81.0785 213.604 81.3538 212.773 81.3538ZM217.836 81.1858V74.1858H219.166V81.1858H217.836ZM218.508 72.7018C218.293 72.7018 218.107 72.6225 217.948 72.4638C217.789 72.2958 217.71 72.1045 217.71 71.8898C217.71 71.6658 217.789 71.4791 217.948 71.3298C218.107 71.1711 218.293 71.0918 218.508 71.0918C218.732 71.0918 218.919 71.1711 219.068 71.3298C219.227 71.4791 219.306 71.6658 219.306 71.8898C219.306 72.1045 219.227 72.2958 219.068 72.4638C218.919 72.6225 218.732 72.7018 218.508 72.7018ZM221.115 81.1858V74.1858H222.361L222.445 75.4738V81.1858H221.115ZM225.959 81.1858V77.6018H227.289V81.1858H225.959ZM225.959 77.6018C225.959 76.9671 225.885 76.4865 225.735 76.1598C225.595 75.8238 225.395 75.5905 225.133 75.4598C224.881 75.3291 224.587 75.2591 224.251 75.2498C223.682 75.2498 223.239 75.4505 222.921 75.8518C222.604 76.2531 222.445 76.8178 222.445 77.5458H221.871C221.871 76.8085 221.979 76.1785 222.193 75.6558C222.417 75.1238 222.73 74.7178 223.131 74.4378C223.542 74.1578 224.027 74.0178 224.587 74.0178C225.138 74.0178 225.614 74.1298 226.015 74.3538C226.426 74.5778 226.739 74.9278 226.953 75.4038C227.177 75.8705 227.289 76.4865 227.289 77.2518V77.6018H225.959ZM232.057 81.3538C231.376 81.3538 230.774 81.1998 230.251 80.8918C229.728 80.5745 229.318 80.1405 229.019 79.5898C228.72 79.0391 228.571 78.4045 228.571 77.6858C228.571 76.9671 228.72 76.3325 229.019 75.7818C229.318 75.2311 229.728 74.8018 230.251 74.4938C230.783 74.1765 231.39 74.0178 232.071 74.0178C232.715 74.0178 233.28 74.1811 233.765 74.5078C234.25 74.8251 234.628 75.2825 234.899 75.8798C235.179 76.4678 235.319 77.1631 235.319 77.9658H229.663L229.915 77.7558C229.915 78.2505 230.013 78.6798 230.209 79.0438C230.405 79.4078 230.671 79.6878 231.007 79.8838C231.343 80.0705 231.726 80.1638 232.155 80.1638C232.622 80.1638 233.009 80.0565 233.317 79.8418C233.634 79.6178 233.882 79.3378 234.059 79.0018L235.207 79.5338C235.02 79.8978 234.778 80.2198 234.479 80.4998C234.18 80.7705 233.826 80.9805 233.415 81.1298C233.014 81.2791 232.561 81.3538 232.057 81.3538ZM229.999 77.1258L229.733 76.9158H234.157L233.905 77.1258C233.905 76.7151 233.821 76.3651 233.653 76.0758C233.485 75.7771 233.261 75.5531 232.981 75.4038C232.701 75.2451 232.388 75.1658 232.043 75.1658C231.707 75.1658 231.38 75.2451 231.063 75.4038C230.755 75.5531 230.498 75.7725 230.293 76.0618C230.097 76.3511 229.999 76.7058 229.999 77.1258ZM237.445 77.4198C237.445 76.6638 237.59 76.0478 237.879 75.5718C238.168 75.0958 238.542 74.7411 238.999 74.5078C239.456 74.2745 239.937 74.1578 240.441 74.1578V75.4178C240.021 75.4178 239.62 75.4831 239.237 75.6138C238.864 75.7351 238.556 75.9405 238.313 76.2298C238.08 76.5098 237.963 76.8925 237.963 77.3778L237.445 77.4198ZM236.633 81.1858V74.1858H237.963V81.1858H236.633Z" fill="#1A6B83"/>
<defs>
<clipPath id="clip0_484_3370">
<rect x="30" y="30.1858" width="55" height="55" rx="27.5" fill="white"/>
</clipPath>
</defs>
</svg>
