<svg width="520" height="116" viewBox="0 0 520 116" fill="none" xmlns="http://www.w3.org/2000/svg">
<rect width="520" height="115" transform="translate(0 0.444336)" fill="#E0F6F9"/>
<g clip-path="url(#clip0_484_2944)">
<rect x="30" y="30.4443" width="55" height="55" rx="27.5" fill="#A8DBE7"/>
<path d="M54.6587 54.0489L30.3348 60.6163C28.013 61.2432 26.6291 63.6584 27.2512 65.998L30.572 78.4861C31.1942 80.8256 33.5911 82.2201 35.9128 81.5932L60.2368 75.0258C62.5586 74.3989 63.9424 71.9837 63.3203 69.6441L59.9995 57.156C59.3774 54.8165 56.9805 53.422 54.6587 54.0489Z" fill="#1A6B83"/>
<path d="M53.3428 49.1021L29.0188 55.6695C26.697 56.2964 25.3132 58.7116 25.9353 61.0512L29.2561 73.5393C29.8782 75.8788 32.2751 77.2733 34.5969 76.6464L58.9208 70.079C61.2426 69.4521 62.6265 67.0369 62.0044 64.6973L58.6836 52.2092C58.0615 49.8697 55.6646 48.4752 53.3428 49.1021Z" fill="#1A6B83"/>
<path d="M28.8219 60.8387L31.9083 72.4456C32.2482 73.7238 33.5609 74.4875 34.8294 74.145L57.4369 68.041C58.7054 67.6985 59.4652 66.3832 59.1234 65.0976L56.0369 53.4907C55.697 52.2125 54.3844 51.4488 53.1159 51.7913L30.5084 57.8953C29.2398 58.2378 28.48 59.5531 28.8219 60.8387Z" fill="#DFF6F9"/>
<path d="M30.5104 57.9035L53.1179 51.7995C54.3864 51.457 55.699 52.2206 56.0389 53.4989L56.6425 55.7688C56.3026 54.4906 54.9973 53.725 53.7215 54.0695L31.1067 60.1754C29.8382 60.5179 29.0803 61.8406 29.4202 63.1188L28.8166 60.8488C28.4767 59.5706 29.2273 58.2499 30.5031 57.9055L30.5104 57.9035Z" fill="#A8DBE7"/>
<path d="M47.376 75.1146C47.5661 75.8295 48.2961 76.2538 49.0061 76.0622C49.7161 75.8705 50.1377 75.1352 49.9476 74.4202C49.7575 73.7053 49.0275 73.281 48.3175 73.4726C48.0435 73.5466 47.8129 73.701 47.6433 73.9044" stroke="#F8FEFE" stroke-width="0.5" stroke-miterlimit="10" stroke-linecap="round"/>
<path d="M47.376 75.1148C47.1859 74.3999 46.4559 73.9755 45.746 74.1672C45.036 74.3589 44.6144 75.0942 44.8045 75.8091C44.9946 76.5241 45.7246 76.9484 46.4346 76.7567C46.7101 76.6823 46.9419 76.526 47.1117 76.3214" stroke="#F8FEFE" stroke-width="0.5" stroke-miterlimit="10" stroke-linecap="round"/>
<path fill-rule="evenodd" clip-rule="evenodd" d="M64.352 62.5481C71.5841 62.5481 77.447 56.6853 77.447 49.4531C77.447 42.221 71.5841 36.3582 64.352 36.3582C57.1199 36.3582 51.257 42.221 51.257 49.4531C51.257 53.3035 52.9188 56.7657 55.5643 59.1617C54.5448 60.9622 52.7873 62.4729 50.292 62.9507C52.6138 63.4731 55.5969 62.761 58.1359 60.9815C59.9853 61.9808 62.1024 62.5481 64.352 62.5481Z" fill="#F8FEFE"/>
<path d="M55.5643 59.1617L56.4345 59.6544C56.665 59.2472 56.5824 58.7346 56.2356 58.4205L55.5643 59.1617ZM50.292 62.9507L50.1039 61.9686C49.6386 62.0577 49.2997 62.461 49.2921 62.9347C49.2845 63.4084 49.6103 63.8224 50.0725 63.9264L50.292 62.9507ZM58.1359 60.9815L58.6113 60.1017C58.2782 59.9218 57.872 59.9453 57.562 60.1626L58.1359 60.9815ZM76.447 49.4531C76.447 56.133 71.0319 61.5481 64.352 61.5481V63.5481C72.1364 63.5481 78.447 57.2375 78.447 49.4531H76.447ZM64.352 37.3582C71.0319 37.3582 76.447 42.7733 76.447 49.4531H78.447C78.447 41.6687 72.1364 35.3582 64.352 35.3582V37.3582ZM52.257 49.4531C52.257 42.7733 57.6721 37.3582 64.352 37.3582V35.3582C56.5676 35.3582 50.257 41.6687 50.257 49.4531H52.257ZM56.2356 58.4205C53.7906 56.2061 52.257 53.0094 52.257 49.4531H50.257C50.257 53.5976 52.047 57.3253 54.893 59.9029L56.2356 58.4205ZM50.4801 63.9329C53.2967 63.3936 55.2879 61.6793 56.4345 59.6544L54.6941 58.669C53.8017 60.2451 52.2779 61.5523 50.1039 61.9686L50.4801 63.9329ZM57.562 60.1626C55.1935 61.8226 52.4943 62.4212 50.5115 61.9751L50.0725 63.9264C52.7333 64.525 56.0003 63.6994 58.7098 61.8004L57.562 60.1626ZM64.352 61.5481C62.2725 61.5481 60.3183 61.0241 58.6113 60.1017L57.6605 61.8613C59.6523 62.9375 61.9323 63.5481 64.352 63.5481V61.5481Z" fill="#1A6B83"/>
<path d="M64.5059 51.3991C64.0979 51.3991 63.8939 51.1351 63.8939 50.6071C63.8939 50.0671 64.0379 49.5751 64.3139 49.1191C64.4099 48.9631 64.8299 48.3751 64.9619 48.1591C65.1179 47.9071 65.2979 47.4511 65.2979 47.0311C65.2979 46.4551 65.0699 46.1671 64.6019 46.1671C64.0619 46.1671 63.8219 46.4431 63.7139 47.1031C63.5939 47.7751 63.2699 48.1111 62.7539 48.1111C62.2859 48.1111 62.0219 47.7991 62.0219 47.2831C62.0219 46.7191 62.2619 46.2391 62.7539 45.8551C63.2459 45.4711 63.8819 45.2791 64.6859 45.2791C65.4779 45.2791 66.1259 45.4711 66.6179 45.8551C67.1099 46.2511 67.3619 46.7311 67.3619 47.3071C67.3619 47.7991 67.1579 48.2431 66.7619 48.6631C66.6539 48.7711 66.4259 48.9631 66.0539 49.2511C65.6819 49.5391 65.4299 49.7911 65.2979 50.0071C65.1179 50.2951 65.1179 50.7511 65.0819 50.9311C65.0219 51.2431 64.8299 51.3991 64.5059 51.3991ZM63.4019 53.2471C63.4019 52.5871 63.8819 52.1071 64.5419 52.1071C65.5379 52.0351 66.0779 53.4031 65.3579 54.0631C64.6979 54.7951 63.3299 54.2431 63.4019 53.2471Z" fill="#1A6B83"/>
</g>
<rect x="30" y="30.4443" width="55" height="55" rx="27.5" stroke="#1A6B83" stroke-width="2"/>
<path d="M123.976 41.4443L119.688 30.2443H121.88L126.296 41.4443H123.976ZM115.128 41.4443L119.544 30.2443H121.736L117.448 41.4443H115.128ZM117.208 38.9803V37.0443H124.232V38.9803H117.208ZM127.334 41.4443V30.2443H129.446V39.9563L129.334 41.4443H127.334ZM131.862 41.6363C131.19 41.6363 130.619 41.4657 130.15 41.1243C129.691 40.783 129.339 40.2977 129.094 39.6683C128.849 39.039 128.726 38.2977 128.726 37.4443C128.726 36.5803 128.849 35.839 129.094 35.2203C129.339 34.591 129.691 34.1057 130.15 33.7643C130.619 33.423 131.19 33.2523 131.862 33.2523C132.598 33.2523 133.233 33.423 133.766 33.7643C134.31 34.1057 134.731 34.591 135.03 35.2203C135.329 35.839 135.478 36.5803 135.478 37.4443C135.478 38.2977 135.329 39.039 135.03 39.6683C134.731 40.2977 134.31 40.783 133.766 41.1243C133.233 41.4657 132.598 41.6363 131.862 41.6363ZM131.318 39.7003C131.702 39.7003 132.038 39.6043 132.326 39.4123C132.625 39.2203 132.859 38.9537 133.03 38.6123C133.201 38.271 133.286 37.8817 133.286 37.4443C133.286 37.007 133.201 36.6177 133.03 36.2763C132.87 35.935 132.641 35.6737 132.342 35.4923C132.054 35.3003 131.718 35.2043 131.334 35.2043C130.971 35.2043 130.646 35.3003 130.358 35.4923C130.07 35.6843 129.846 35.951 129.686 36.2923C129.526 36.623 129.446 37.007 129.446 37.4443C129.446 37.8817 129.526 38.271 129.686 38.6123C129.846 38.9537 130.065 39.2203 130.342 39.4123C130.63 39.6043 130.955 39.7003 131.318 39.7003ZM139.857 41.6363C139.345 41.6363 138.865 41.5617 138.417 41.4123C137.969 41.2523 137.574 41.0283 137.233 40.7403C136.892 40.4417 136.625 40.079 136.433 39.6523L138.241 38.8203C138.401 39.0763 138.62 39.3003 138.897 39.4923C139.174 39.6737 139.494 39.7643 139.857 39.7643C140.209 39.7643 140.481 39.7163 140.673 39.6203C140.865 39.5137 140.961 39.3643 140.961 39.1723C140.961 38.9803 140.881 38.8417 140.721 38.7563C140.572 38.6603 140.364 38.5803 140.097 38.5163L139.361 38.3243C138.593 38.1217 137.985 37.8017 137.537 37.3643C137.1 36.9163 136.881 36.4043 136.881 35.8283C136.881 35.007 137.142 34.3723 137.665 33.9243C138.198 33.4763 138.95 33.2523 139.921 33.2523C140.422 33.2523 140.886 33.327 141.313 33.4763C141.75 33.6257 142.124 33.8337 142.433 34.1003C142.742 34.367 142.956 34.6763 143.073 35.0283L141.329 35.8283C141.254 35.615 141.073 35.4443 140.785 35.3163C140.497 35.1777 140.209 35.1083 139.921 35.1083C139.633 35.1083 139.409 35.1723 139.249 35.3003C139.1 35.4177 139.025 35.583 139.025 35.7963C139.025 35.935 139.1 36.0523 139.249 36.1483C139.398 36.2337 139.612 36.3083 139.889 36.3723L140.929 36.6283C141.452 36.7563 141.868 36.9643 142.177 37.2523C142.497 37.5297 142.726 37.8443 142.865 38.1963C143.014 38.5377 143.089 38.8737 143.089 39.2043C143.089 39.6843 142.945 40.111 142.657 40.4843C142.38 40.847 141.996 41.1297 141.505 41.3323C141.025 41.535 140.476 41.6363 139.857 41.6363ZM147.934 41.6363C147.145 41.6363 146.446 41.4603 145.838 41.1083C145.23 40.7457 144.75 40.2497 144.398 39.6203C144.057 38.991 143.886 38.2657 143.886 37.4443C143.886 36.623 144.062 35.8977 144.414 35.2683C144.777 34.639 145.268 34.1483 145.886 33.7963C146.516 33.4337 147.236 33.2523 148.046 33.2523C148.75 33.2523 149.396 33.439 149.982 33.8123C150.58 34.175 151.054 34.7137 151.406 35.4283C151.769 36.1323 151.95 36.991 151.95 38.0043H145.886L146.078 37.8123C146.078 38.207 146.174 38.5537 146.366 38.8523C146.569 39.1403 146.825 39.3643 147.134 39.5243C147.454 39.6737 147.796 39.7483 148.158 39.7483C148.596 39.7483 148.953 39.6577 149.23 39.4763C149.508 39.2843 149.721 39.039 149.87 38.7403L151.758 39.4763C151.534 39.9243 151.241 40.3137 150.878 40.6443C150.526 40.9643 150.105 41.2097 149.614 41.3803C149.124 41.551 148.564 41.6363 147.934 41.6363ZM146.19 36.6283L145.998 36.4363H149.854L149.678 36.6283C149.678 36.2443 149.588 35.9403 149.406 35.7163C149.225 35.4817 149.001 35.311 148.734 35.2043C148.478 35.0977 148.228 35.0443 147.982 35.0443C147.737 35.0443 147.476 35.0977 147.198 35.2043C146.921 35.311 146.681 35.4817 146.478 35.7163C146.286 35.9403 146.19 36.2443 146.19 36.6283ZM153.178 41.4443V33.4443H155.162L155.29 34.9163V41.4443H153.178ZM158.474 41.4443V37.3483H160.586V41.4443H158.474ZM158.474 37.3483C158.474 36.8043 158.41 36.383 158.282 36.0843C158.164 35.7857 157.994 35.5723 157.77 35.4443C157.546 35.3057 157.284 35.2363 156.986 35.2363C156.442 35.2257 156.02 35.391 155.722 35.7323C155.434 36.0737 155.29 36.5803 155.29 37.2523H154.586C154.586 36.399 154.708 35.679 154.954 35.0923C155.21 34.495 155.562 34.0417 156.01 33.7323C156.468 33.4123 157.002 33.2523 157.61 33.2523C158.239 33.2523 158.778 33.3803 159.226 33.6363C159.674 33.8923 160.015 34.2923 160.25 34.8363C160.484 35.3697 160.596 36.063 160.586 36.9163V37.3483H158.474ZM166.127 41.6363C165.295 41.6363 164.554 41.4603 163.903 41.1083C163.253 40.7457 162.746 40.2497 162.383 39.6203C162.021 38.9803 161.839 38.255 161.839 37.4443C161.839 36.623 162.021 35.8977 162.383 35.2683C162.746 34.639 163.247 34.1483 163.887 33.7963C164.527 33.4337 165.263 33.2523 166.095 33.2523C166.895 33.2523 167.626 33.4497 168.287 33.8443C168.949 34.239 169.429 34.8097 169.727 35.5563L167.743 36.2603C167.594 35.951 167.359 35.7057 167.039 35.5243C166.73 35.3323 166.383 35.2363 165.999 35.2363C165.605 35.2363 165.258 35.3323 164.959 35.5243C164.661 35.7057 164.426 35.9617 164.255 36.2923C164.085 36.623 163.999 37.007 163.999 37.4443C163.999 37.8817 164.085 38.2657 164.255 38.5963C164.426 38.9163 164.666 39.1723 164.975 39.3643C165.285 39.5563 165.637 39.6523 166.031 39.6523C166.415 39.6523 166.762 39.551 167.071 39.3483C167.391 39.1457 167.626 38.879 167.775 38.5483L169.775 39.2523C169.466 40.0097 168.981 40.5963 168.319 41.0123C167.669 41.4283 166.938 41.6363 166.127 41.6363ZM174.622 41.6363C173.832 41.6363 173.134 41.4603 172.526 41.1083C171.918 40.7457 171.438 40.2497 171.086 39.6203C170.744 38.991 170.574 38.2657 170.574 37.4443C170.574 36.623 170.75 35.8977 171.102 35.2683C171.464 34.639 171.955 34.1483 172.574 33.7963C173.203 33.4337 173.923 33.2523 174.734 33.2523C175.438 33.2523 176.083 33.439 176.67 33.8123C177.267 34.175 177.742 34.7137 178.094 35.4283C178.456 36.1323 178.638 36.991 178.638 38.0043H172.574L172.766 37.8123C172.766 38.207 172.862 38.5537 173.054 38.8523C173.256 39.1403 173.512 39.3643 173.822 39.5243C174.142 39.6737 174.483 39.7483 174.846 39.7483C175.283 39.7483 175.64 39.6577 175.918 39.4763C176.195 39.2843 176.408 39.039 176.558 38.7403L178.446 39.4763C178.222 39.9243 177.928 40.3137 177.566 40.6443C177.214 40.9643 176.792 41.2097 176.302 41.3803C175.811 41.551 175.251 41.6363 174.622 41.6363ZM172.878 36.6283L172.686 36.4363H176.542L176.366 36.6283C176.366 36.2443 176.275 35.9403 176.094 35.7163C175.912 35.4817 175.688 35.311 175.422 35.2043C175.166 35.0977 174.915 35.0443 174.67 35.0443C174.424 35.0443 174.163 35.0977 173.886 35.2043C173.608 35.311 173.368 35.4817 173.166 35.7163C172.974 35.9403 172.878 36.2443 172.878 36.6283ZM189.102 41.6363C187.971 41.6363 186.968 41.391 186.094 40.9003C185.23 40.399 184.552 39.7163 184.062 38.8523C183.571 37.9777 183.326 36.9803 183.326 35.8603C183.326 34.719 183.571 33.7163 184.062 32.8523C184.552 31.9777 185.224 31.295 186.078 30.8043C186.942 30.3137 187.934 30.0683 189.054 30.0683C190.184 30.0683 191.176 30.319 192.03 30.8203C192.894 31.311 193.571 31.9937 194.062 32.8683C194.552 33.7323 194.798 34.7297 194.798 35.8603C194.798 36.9803 194.552 37.9777 194.062 38.8523C193.582 39.7163 192.91 40.399 192.046 40.9003C191.192 41.391 190.211 41.6363 189.102 41.6363ZM189.102 39.6363C189.784 39.6363 190.382 39.4763 190.894 39.1563C191.416 38.8257 191.822 38.3777 192.11 37.8123C192.408 37.247 192.558 36.5963 192.558 35.8603C192.558 35.1137 192.408 34.4577 192.11 33.8923C191.811 33.327 191.4 32.8843 190.878 32.5643C190.355 32.2337 189.747 32.0683 189.054 32.0683C188.382 32.0683 187.779 32.2337 187.246 32.5643C186.723 32.8843 186.312 33.327 186.014 33.8923C185.715 34.4577 185.566 35.1137 185.566 35.8603C185.566 36.5963 185.715 37.247 186.014 37.8123C186.312 38.3777 186.728 38.8257 187.262 39.1563C187.795 39.4763 188.408 39.6363 189.102 39.6363ZM197.071 41.4443V32.6443C197.071 31.791 197.29 31.1297 197.727 30.6603C198.165 30.1803 198.831 29.9403 199.727 29.9403C200.037 29.9403 200.362 29.9937 200.703 30.1003C201.055 30.207 201.375 30.335 201.663 30.4843L200.879 32.0043C200.709 31.919 200.554 31.855 200.415 31.8123C200.277 31.7697 200.149 31.7483 200.031 31.7483C199.743 31.7483 199.53 31.8497 199.391 32.0523C199.253 32.2443 199.183 32.559 199.183 32.9963V41.4443H197.071ZM195.743 35.1403V33.4443H201.151V35.1403H195.743ZM206.669 41.4443V30.2443H210.829C211.618 30.2443 212.317 30.4043 212.925 30.7243C213.533 31.0337 214.008 31.471 214.349 32.0363C214.69 32.591 214.861 33.2363 214.861 33.9723C214.861 34.6977 214.696 35.343 214.365 35.9083C214.034 36.4737 213.581 36.9217 213.005 37.2523C212.429 37.5723 211.762 37.7323 211.005 37.7323H208.861V41.4443H206.669ZM208.861 35.7163H210.957C211.448 35.7163 211.848 35.5563 212.157 35.2363C212.477 34.9057 212.637 34.4843 212.637 33.9723C212.637 33.4603 212.461 33.0443 212.109 32.7243C211.768 32.4043 211.325 32.2443 210.781 32.2443H208.861V35.7163ZM217.463 37.2363C217.463 36.3723 217.628 35.6577 217.959 35.0923C218.3 34.527 218.732 34.1057 219.255 33.8283C219.788 33.551 220.343 33.4123 220.919 33.4123V35.4603C220.428 35.4603 219.964 35.519 219.527 35.6363C219.1 35.7537 218.753 35.9457 218.487 36.2123C218.22 36.479 218.087 36.8203 218.087 37.2363H217.463ZM215.975 41.4443V33.4443H218.087V41.4443H215.975ZM225.797 41.6363C224.986 41.6363 224.261 41.4603 223.621 41.1083C222.992 40.7457 222.496 40.2497 222.133 39.6203C221.781 38.991 221.605 38.2657 221.605 37.4443C221.605 36.623 221.781 35.8977 222.133 35.2683C222.485 34.639 222.976 34.1483 223.605 33.7963C224.234 33.4337 224.954 33.2523 225.765 33.2523C226.586 33.2523 227.312 33.4337 227.941 33.7963C228.57 34.1483 229.061 34.639 229.413 35.2683C229.765 35.8977 229.941 36.623 229.941 37.4443C229.941 38.2657 229.765 38.991 229.413 39.6203C229.061 40.2497 228.57 40.7457 227.941 41.1083C227.322 41.4603 226.608 41.6363 225.797 41.6363ZM225.797 39.6843C226.192 39.6843 226.538 39.5883 226.837 39.3963C227.136 39.2043 227.365 38.943 227.525 38.6123C227.696 38.271 227.781 37.8817 227.781 37.4443C227.781 37.007 227.696 36.623 227.525 36.2923C227.354 35.951 227.114 35.6843 226.805 35.4923C226.506 35.3003 226.16 35.2043 225.765 35.2043C225.381 35.2043 225.034 35.3003 224.725 35.4923C224.426 35.6843 224.192 35.951 224.021 36.2923C223.85 36.623 223.765 37.007 223.765 37.4443C223.765 37.8817 223.85 38.271 224.021 38.6123C224.192 38.943 224.432 39.2043 224.741 39.3963C225.05 39.5883 225.402 39.6843 225.797 39.6843ZM234.934 44.8523C234.326 44.8523 233.787 44.8097 233.318 44.7243C232.849 44.639 232.454 44.527 232.134 44.3883C231.814 44.2497 231.553 44.111 231.35 43.9723L232.182 42.2763C232.331 42.3617 232.529 42.4577 232.774 42.5643C233.019 42.6817 233.313 42.7777 233.654 42.8523C233.995 42.9377 234.39 42.9803 234.838 42.9803C235.265 42.9803 235.638 42.895 235.958 42.7243C236.289 42.5643 236.545 42.3083 236.726 41.9563C236.918 41.615 237.014 41.1777 237.014 40.6443V33.4443H239.126V40.5803C239.126 41.4763 238.955 42.2443 238.614 42.8843C238.273 43.535 237.787 44.0257 237.158 44.3563C236.539 44.687 235.798 44.8523 234.934 44.8523ZM234.518 41.2203C233.782 41.2203 233.142 41.0603 232.598 40.7403C232.065 40.4203 231.649 39.9723 231.35 39.3963C231.051 38.8203 230.902 38.1377 230.902 37.3483C230.902 36.5163 231.051 35.7963 231.35 35.1883C231.649 34.5697 232.065 34.095 232.598 33.7643C233.142 33.423 233.782 33.2523 234.518 33.2523C235.158 33.2523 235.713 33.423 236.182 33.7643C236.651 34.095 237.014 34.5697 237.27 35.1883C237.526 35.807 237.654 36.543 237.654 37.3963C237.654 38.1643 237.526 38.8363 237.27 39.4123C237.014 39.9883 236.651 40.4363 236.182 40.7563C235.713 41.0657 235.158 41.2203 234.518 41.2203ZM235.126 39.4443C235.489 39.4443 235.803 39.3537 236.07 39.1723C236.347 38.9803 236.561 38.7243 236.71 38.4043C236.859 38.0737 236.934 37.7003 236.934 37.2843C236.934 36.8577 236.854 36.4843 236.694 36.1643C236.545 35.8443 236.331 35.5937 236.054 35.4123C235.787 35.231 235.473 35.1403 235.11 35.1403C234.737 35.1403 234.406 35.231 234.118 35.4123C233.83 35.5937 233.606 35.8443 233.446 36.1643C233.286 36.4843 233.201 36.8577 233.19 37.2843C233.201 37.7003 233.286 38.0737 233.446 38.4043C233.606 38.7243 233.83 38.9803 234.118 39.1723C234.417 39.3537 234.753 39.4443 235.126 39.4443ZM242.431 37.2363C242.431 36.3723 242.597 35.6577 242.927 35.0923C243.269 34.527 243.701 34.1057 244.223 33.8283C244.757 33.551 245.311 33.4123 245.887 33.4123V35.4603C245.397 35.4603 244.933 35.519 244.495 35.6363C244.069 35.7537 243.722 35.9457 243.455 36.2123C243.189 36.479 243.055 36.8203 243.055 37.2363H242.431ZM240.943 41.4443V33.4443H243.055V41.4443H240.943ZM251.838 41.4443L251.774 39.8283V37.3963C251.774 36.9163 251.72 36.5057 251.614 36.1643C251.518 35.823 251.358 35.5617 251.134 35.3803C250.92 35.1883 250.627 35.0923 250.254 35.0923C249.912 35.0923 249.603 35.167 249.326 35.3163C249.048 35.4657 248.814 35.695 248.622 36.0043L246.766 35.3643C246.915 35.023 247.134 34.6923 247.422 34.3723C247.71 34.0417 248.083 33.775 248.542 33.5723C249.011 33.359 249.582 33.2523 250.254 33.2523C251.064 33.2523 251.736 33.407 252.27 33.7163C252.814 34.0257 253.214 34.463 253.47 35.0283C253.736 35.583 253.864 36.2443 253.854 37.0123L253.806 41.4443H251.838ZM249.598 41.6363C248.638 41.6363 247.891 41.423 247.358 40.9963C246.835 40.5697 246.574 39.967 246.574 39.1883C246.574 38.335 246.856 37.695 247.422 37.2683C247.998 36.831 248.803 36.6123 249.838 36.6123H251.87V38.1803H250.574C249.88 38.1803 249.4 38.2657 249.134 38.4363C248.867 38.5963 248.734 38.8257 248.734 39.1243C248.734 39.359 248.84 39.5457 249.054 39.6843C249.267 39.8123 249.566 39.8763 249.95 39.8763C250.302 39.8763 250.611 39.7963 250.878 39.6363C251.155 39.4657 251.374 39.2523 251.534 38.9963C251.694 38.7297 251.774 38.4577 251.774 38.1803H252.286C252.286 39.2683 252.078 40.1163 251.662 40.7243C251.256 41.3323 250.568 41.6363 249.598 41.6363ZM255.537 41.4443V33.4443H257.521L257.617 34.4843C257.862 34.079 258.177 33.775 258.561 33.5723C258.945 33.359 259.372 33.2523 259.841 33.2523C260.492 33.2523 261.036 33.391 261.473 33.6683C261.921 33.9457 262.246 34.3723 262.449 34.9483C262.684 34.4043 263.014 33.9883 263.441 33.7003C263.868 33.4017 264.364 33.2523 264.929 33.2523C265.868 33.2523 266.582 33.551 267.073 34.1483C267.564 34.735 267.809 35.6417 267.809 36.8683V41.4443H265.697V37.3483C265.697 36.8043 265.638 36.383 265.521 36.0843C265.404 35.7857 265.244 35.5723 265.041 35.4443C264.838 35.3057 264.598 35.2363 264.321 35.2363C263.809 35.2257 263.414 35.391 263.137 35.7323C262.86 36.0737 262.721 36.5803 262.721 37.2523V41.4443H260.609V37.3483C260.609 36.8043 260.55 36.383 260.433 36.0843C260.326 35.7857 260.166 35.5723 259.953 35.4443C259.75 35.3057 259.51 35.2363 259.233 35.2363C258.721 35.2257 258.326 35.391 258.049 35.7323C257.782 36.0737 257.649 36.5803 257.649 37.2523V41.4443H255.537ZM273.607 41.4443V30.2443H275.799V41.4443H273.607ZM277.928 41.4443V33.4443H279.912L280.04 34.9163V41.4443H277.928ZM283.224 41.4443V37.3483H285.336V41.4443H283.224ZM283.224 37.3483C283.224 36.8043 283.16 36.383 283.032 36.0843C282.914 35.7857 282.744 35.5723 282.52 35.4443C282.296 35.3057 282.034 35.2363 281.736 35.2363C281.192 35.2257 280.77 35.391 280.472 35.7323C280.184 36.0737 280.04 36.5803 280.04 37.2523H279.336C279.336 36.399 279.458 35.679 279.704 35.0923C279.96 34.495 280.312 34.0417 280.76 33.7323C281.218 33.4123 281.752 33.2523 282.36 33.2523C282.989 33.2523 283.528 33.3803 283.976 33.6363C284.424 33.8923 284.765 34.2923 285 34.8363C285.234 35.3697 285.346 36.063 285.336 36.9163V37.3483H283.224ZM287.821 41.4443V32.6443C287.821 31.791 288.04 31.1297 288.477 30.6603C288.915 30.1803 289.581 29.9403 290.477 29.9403C290.787 29.9403 291.112 29.9937 291.453 30.1003C291.805 30.207 292.125 30.335 292.413 30.4843L291.629 32.0043C291.459 31.919 291.304 31.855 291.165 31.8123C291.027 31.7697 290.899 31.7483 290.781 31.7483C290.493 31.7483 290.28 31.8497 290.141 32.0523C290.003 32.2443 289.933 32.559 289.933 32.9963V41.4443H287.821ZM286.493 35.1403V33.4443H291.901V35.1403H286.493ZM296.875 41.6363C296.064 41.6363 295.339 41.4603 294.699 41.1083C294.07 40.7457 293.574 40.2497 293.211 39.6203C292.859 38.991 292.683 38.2657 292.683 37.4443C292.683 36.623 292.859 35.8977 293.211 35.2683C293.563 34.639 294.054 34.1483 294.683 33.7963C295.312 33.4337 296.032 33.2523 296.843 33.2523C297.664 33.2523 298.39 33.4337 299.019 33.7963C299.648 34.1483 300.139 34.639 300.491 35.2683C300.843 35.8977 301.019 36.623 301.019 37.4443C301.019 38.2657 300.843 38.991 300.491 39.6203C300.139 40.2497 299.648 40.7457 299.019 41.1083C298.4 41.4603 297.686 41.6363 296.875 41.6363ZM296.875 39.6843C297.27 39.6843 297.616 39.5883 297.915 39.3963C298.214 39.2043 298.443 38.943 298.603 38.6123C298.774 38.271 298.859 37.8817 298.859 37.4443C298.859 37.007 298.774 36.623 298.603 36.2923C298.432 35.951 298.192 35.6843 297.883 35.4923C297.584 35.3003 297.238 35.2043 296.843 35.2043C296.459 35.2043 296.112 35.3003 295.803 35.4923C295.504 35.6843 295.27 35.951 295.099 36.2923C294.928 36.623 294.843 37.007 294.843 37.4443C294.843 37.8817 294.928 38.271 295.099 38.6123C295.27 38.943 295.51 39.2043 295.819 39.3963C296.128 39.5883 296.48 39.6843 296.875 39.6843ZM303.9 37.2363C303.9 36.3723 304.065 35.6577 304.396 35.0923C304.737 34.527 305.169 34.1057 305.692 33.8283C306.225 33.551 306.78 33.4123 307.356 33.4123V35.4603C306.865 35.4603 306.401 35.519 305.964 35.6363C305.537 35.7537 305.191 35.9457 304.924 36.2123C304.657 36.479 304.524 36.8203 304.524 37.2363H303.9ZM302.412 41.4443V33.4443H304.524V41.4443H302.412ZM308.475 41.4443V33.4443H310.459L310.555 34.4843C310.8 34.079 311.115 33.775 311.499 33.5723C311.883 33.359 312.309 33.2523 312.779 33.2523C313.429 33.2523 313.973 33.391 314.411 33.6683C314.859 33.9457 315.184 34.3723 315.387 34.9483C315.621 34.4043 315.952 33.9883 316.378 33.7003C316.805 33.4017 317.301 33.2523 317.867 33.2523C318.805 33.2523 319.52 33.551 320.011 34.1483C320.501 34.735 320.747 35.6417 320.747 36.8683V41.4443H318.635V37.3483C318.635 36.8043 318.576 36.383 318.459 36.0843C318.341 35.7857 318.181 35.5723 317.979 35.4443C317.776 35.3057 317.536 35.2363 317.259 35.2363C316.747 35.2257 316.352 35.391 316.075 35.7323C315.797 36.0737 315.659 36.5803 315.659 37.2523V41.4443H313.547V37.3483C313.547 36.8043 313.488 36.383 313.371 36.0843C313.264 35.7857 313.104 35.5723 312.891 35.4443C312.688 35.3057 312.448 35.2363 312.171 35.2363C311.659 35.2257 311.264 35.391 310.987 35.7323C310.72 36.0737 310.587 36.5803 310.587 37.2523V41.4443H308.475ZM327.26 41.4443L327.196 39.8283V37.3963C327.196 36.9163 327.142 36.5057 327.036 36.1643C326.94 35.823 326.78 35.5617 326.556 35.3803C326.342 35.1883 326.049 35.0923 325.676 35.0923C325.334 35.0923 325.025 35.167 324.748 35.3163C324.47 35.4657 324.236 35.695 324.044 36.0043L322.188 35.3643C322.337 35.023 322.556 34.6923 322.844 34.3723C323.132 34.0417 323.505 33.775 323.964 33.5723C324.433 33.359 325.004 33.2523 325.676 33.2523C326.486 33.2523 327.158 33.407 327.692 33.7163C328.236 34.0257 328.636 34.463 328.892 35.0283C329.158 35.583 329.286 36.2443 329.276 37.0123L329.228 41.4443H327.26ZM325.02 41.6363C324.06 41.6363 323.313 41.423 322.78 40.9963C322.257 40.5697 321.996 39.967 321.996 39.1883C321.996 38.335 322.278 37.695 322.844 37.2683C323.42 36.831 324.225 36.6123 325.26 36.6123H327.292V38.1803H325.996C325.302 38.1803 324.822 38.2657 324.556 38.4363C324.289 38.5963 324.156 38.8257 324.156 39.1243C324.156 39.359 324.262 39.5457 324.476 39.6843C324.689 39.8123 324.988 39.8763 325.372 39.8763C325.724 39.8763 326.033 39.7963 326.3 39.6363C326.577 39.4657 326.796 39.2523 326.956 38.9963C327.116 38.7297 327.196 38.4577 327.196 38.1803H327.708C327.708 39.2683 327.5 40.1163 327.084 40.7243C326.678 41.3323 325.99 41.6363 325.02 41.6363ZM334.255 41.6363C333.37 41.6363 332.698 41.4177 332.239 40.9803C331.791 40.543 331.567 39.919 331.567 39.1083V30.9483H333.679V38.6443C333.679 38.9857 333.754 39.247 333.903 39.4283C334.052 39.599 334.271 39.6843 334.559 39.6843C334.666 39.6843 334.783 39.663 334.911 39.6203C335.039 39.567 335.172 39.4923 335.311 39.3963L336.047 40.9803C335.791 41.1723 335.503 41.327 335.183 41.4443C334.874 41.5723 334.564 41.6363 334.255 41.6363ZM330.271 35.2363V33.4443H335.679V35.2363H330.271ZM337.524 41.4443V33.4443H339.636V41.4443H337.524ZM338.58 32.1483C338.26 32.1483 337.978 32.031 337.732 31.7963C337.487 31.551 337.364 31.263 337.364 30.9323C337.364 30.6017 337.487 30.319 337.732 30.0843C337.978 29.839 338.26 29.7163 338.58 29.7163C338.911 29.7163 339.194 29.839 339.428 30.0843C339.674 30.319 339.796 30.6017 339.796 30.9323C339.796 31.263 339.674 31.551 339.428 31.7963C339.194 32.031 338.911 32.1483 338.58 32.1483ZM345.344 41.6363C344.533 41.6363 343.808 41.4603 343.168 41.1083C342.539 40.7457 342.043 40.2497 341.68 39.6203C341.328 38.991 341.152 38.2657 341.152 37.4443C341.152 36.623 341.328 35.8977 341.68 35.2683C342.032 34.639 342.523 34.1483 343.152 33.7963C343.781 33.4337 344.501 33.2523 345.312 33.2523C346.133 33.2523 346.859 33.4337 347.488 33.7963C348.117 34.1483 348.608 34.639 348.96 35.2683C349.312 35.8977 349.488 36.623 349.488 37.4443C349.488 38.2657 349.312 38.991 348.96 39.6203C348.608 40.2497 348.117 40.7457 347.488 41.1083C346.869 41.4603 346.155 41.6363 345.344 41.6363ZM345.344 39.6843C345.739 39.6843 346.085 39.5883 346.384 39.3963C346.683 39.2043 346.912 38.943 347.072 38.6123C347.243 38.271 347.328 37.8817 347.328 37.4443C347.328 37.007 347.243 36.623 347.072 36.2923C346.901 35.951 346.661 35.6843 346.352 35.4923C346.053 35.3003 345.707 35.2043 345.312 35.2043C344.928 35.2043 344.581 35.3003 344.272 35.4923C343.973 35.6843 343.739 35.951 343.568 36.2923C343.397 36.623 343.312 37.007 343.312 37.4443C343.312 37.8817 343.397 38.271 343.568 38.6123C343.739 38.943 343.979 39.2043 344.288 39.3963C344.597 39.5883 344.949 39.6843 345.344 39.6843ZM350.881 41.4443V33.4443H352.865L352.993 34.9163V41.4443H350.881ZM356.177 41.4443V37.3483H358.289V41.4443H356.177ZM356.177 37.3483C356.177 36.8043 356.113 36.383 355.985 36.0843C355.867 35.7857 355.697 35.5723 355.473 35.4443C355.249 35.3057 354.987 35.2363 354.689 35.2363C354.145 35.2257 353.723 35.391 353.425 35.7323C353.137 36.0737 352.993 36.5803 352.993 37.2523H352.289C352.289 36.399 352.411 35.679 352.657 35.0923C352.913 34.495 353.265 34.0417 353.713 33.7323C354.171 33.4123 354.705 33.2523 355.313 33.2523C355.942 33.2523 356.481 33.3803 356.929 33.6363C357.377 33.8923 357.718 34.2923 357.953 34.8363C358.187 35.3697 358.299 36.063 358.289 36.9163V37.3483H356.177Z" fill="#1A6B83"/>
<path d="M119.41 64.6123C118.887 64.6123 118.411 64.5517 117.982 64.4303C117.562 64.309 117.193 64.1457 116.876 63.9403C116.568 63.7257 116.311 63.4877 116.106 63.2263C115.901 62.965 115.756 62.6897 115.672 62.4003L117.002 61.9663C117.142 62.349 117.408 62.6803 117.8 62.9603C118.192 63.2403 118.673 63.385 119.242 63.3943C119.933 63.3943 120.474 63.259 120.866 62.9883C121.267 62.7083 121.468 62.3397 121.468 61.8823C121.468 61.4623 121.295 61.1217 120.95 60.8603C120.605 60.5897 120.147 60.3843 119.578 60.2443L118.444 59.9503C117.996 59.829 117.585 59.6563 117.212 59.4323C116.848 59.2083 116.559 58.9237 116.344 58.5783C116.129 58.233 116.022 57.8177 116.022 57.3323C116.022 56.4363 116.311 55.7363 116.89 55.2323C117.478 54.7283 118.323 54.4763 119.424 54.4763C120.059 54.4763 120.609 54.579 121.076 54.7843C121.543 54.9803 121.925 55.2417 122.224 55.5683C122.532 55.895 122.751 56.2543 122.882 56.6463L121.552 57.0943C121.393 56.6743 121.123 56.3383 120.74 56.0863C120.357 55.825 119.886 55.6943 119.326 55.6943C118.738 55.6943 118.271 55.8343 117.926 56.1143C117.59 56.3943 117.422 56.777 117.422 57.2623C117.422 57.673 117.553 57.9903 117.814 58.2143C118.085 58.429 118.444 58.5923 118.892 58.7043L120.026 58.9843C120.941 59.2083 121.645 59.5817 122.14 60.1043C122.644 60.6177 122.896 61.1823 122.896 61.7983C122.896 62.3303 122.761 62.811 122.49 63.2403C122.229 63.6603 121.837 63.9963 121.314 64.2483C120.801 64.491 120.166 64.6123 119.41 64.6123ZM128.794 64.4443L128.738 63.2263V60.7903C128.738 60.277 128.678 59.8477 128.556 59.5023C128.444 59.157 128.267 58.8957 128.024 58.7183C127.791 58.541 127.478 58.4523 127.086 58.4523C126.722 58.4523 126.405 58.527 126.134 58.6763C125.873 58.8257 125.654 59.059 125.476 59.3763L124.3 58.9283C124.468 58.611 124.678 58.331 124.93 58.0883C125.182 57.8363 125.486 57.6403 125.84 57.5003C126.195 57.351 126.61 57.2763 127.086 57.2763C127.749 57.2763 128.3 57.407 128.738 57.6683C129.177 57.9297 129.504 58.3077 129.718 58.8023C129.942 59.297 130.05 59.9083 130.04 60.6363L130.026 64.4443H128.794ZM126.736 64.6123C125.906 64.6123 125.257 64.4257 124.79 64.0523C124.333 63.6697 124.104 63.1423 124.104 62.4703C124.104 61.7517 124.342 61.2057 124.818 60.8323C125.304 60.4497 125.976 60.2583 126.834 60.2583H128.78V61.3083H127.198C126.554 61.3083 126.102 61.411 125.84 61.6163C125.579 61.8123 125.448 62.0877 125.448 62.4423C125.448 62.769 125.57 63.0257 125.812 63.2123C126.064 63.3897 126.41 63.4783 126.848 63.4783C127.231 63.4783 127.562 63.399 127.842 63.2403C128.122 63.0723 128.342 62.839 128.5 62.5403C128.659 62.2417 128.738 61.901 128.738 61.5183H129.2C129.2 62.4703 128.995 63.2263 128.584 63.7863C128.183 64.337 127.567 64.6123 126.736 64.6123ZM131.715 64.4443V57.4443H132.961L133.045 58.7323V64.4443H131.715ZM136.559 64.4443V60.8603H137.889V64.4443H136.559ZM136.559 60.8603C136.559 60.2257 136.484 59.745 136.335 59.4183C136.195 59.0823 135.994 58.849 135.733 58.7183C135.481 58.5877 135.187 58.5177 134.851 58.5083C134.282 58.5083 133.838 58.709 133.521 59.1103C133.204 59.5117 133.045 60.0763 133.045 60.8043H132.471C132.471 60.067 132.578 59.437 132.793 58.9143C133.017 58.3823 133.33 57.9763 133.731 57.6963C134.142 57.4163 134.627 57.2763 135.187 57.2763C135.738 57.2763 136.214 57.3883 136.615 57.6123C137.026 57.8363 137.338 58.1863 137.553 58.6623C137.777 59.129 137.889 59.745 137.889 60.5103V60.8603H136.559ZM144.687 64.4443L144.631 63.1423V54.6443H145.947V64.4443H144.687ZM142.335 64.6123C141.7 64.6123 141.145 64.4583 140.669 64.1503C140.202 63.8423 139.833 63.413 139.563 62.8623C139.301 62.3117 139.171 61.6723 139.171 60.9443C139.171 60.207 139.301 59.5677 139.563 59.0263C139.833 58.4757 140.202 58.0463 140.669 57.7383C141.145 57.4303 141.7 57.2763 142.335 57.2763C142.923 57.2763 143.431 57.4303 143.861 57.7383C144.299 58.0463 144.635 58.4757 144.869 59.0263C145.102 59.5677 145.219 60.207 145.219 60.9443C145.219 61.6723 145.102 62.3117 144.869 62.8623C144.635 63.413 144.299 63.8423 143.861 64.1503C143.431 64.4583 142.923 64.6123 142.335 64.6123ZM142.643 63.4083C143.035 63.4083 143.38 63.3057 143.679 63.1003C143.977 62.8857 144.211 62.5963 144.379 62.2323C144.547 61.859 144.631 61.4297 144.631 60.9443C144.631 60.459 144.547 60.0343 144.379 59.6703C144.211 59.297 143.977 59.0077 143.679 58.8023C143.38 58.5877 143.03 58.4803 142.629 58.4803C142.218 58.4803 141.854 58.5877 141.537 58.8023C141.219 59.0077 140.972 59.297 140.795 59.6703C140.617 60.0343 140.529 60.459 140.529 60.9443C140.529 61.4297 140.617 61.859 140.795 62.2323C140.981 62.5963 141.233 62.8857 141.551 63.1003C141.868 63.3057 142.232 63.4083 142.643 63.4083ZM148.605 60.6783C148.605 59.9223 148.75 59.3063 149.039 58.8303C149.328 58.3543 149.702 57.9997 150.159 57.7663C150.616 57.533 151.097 57.4163 151.601 57.4163V58.6763C151.181 58.6763 150.78 58.7417 150.397 58.8723C150.024 58.9937 149.716 59.199 149.473 59.4883C149.24 59.7683 149.123 60.151 149.123 60.6363L148.605 60.6783ZM147.793 64.4443V57.4443H149.123V64.4443H147.793ZM156.972 64.4443L156.916 63.2263V60.7903C156.916 60.277 156.855 59.8477 156.734 59.5023C156.622 59.157 156.445 58.8957 156.202 58.7183C155.969 58.541 155.656 58.4523 155.264 58.4523C154.9 58.4523 154.583 58.527 154.312 58.6763C154.051 58.8257 153.831 59.059 153.654 59.3763L152.478 58.9283C152.646 58.611 152.856 58.331 153.108 58.0883C153.36 57.8363 153.663 57.6403 154.018 57.5003C154.373 57.351 154.788 57.2763 155.264 57.2763C155.927 57.2763 156.477 57.407 156.916 57.6683C157.355 57.9297 157.681 58.3077 157.896 58.8023C158.12 59.297 158.227 59.9083 158.218 60.6363L158.204 64.4443H156.972ZM154.914 64.6123C154.083 64.6123 153.435 64.4257 152.968 64.0523C152.511 63.6697 152.282 63.1423 152.282 62.4703C152.282 61.7517 152.52 61.2057 152.996 60.8323C153.481 60.4497 154.153 60.2583 155.012 60.2583H156.958V61.3083H155.376C154.732 61.3083 154.279 61.411 154.018 61.6163C153.757 61.8123 153.626 62.0877 153.626 62.4423C153.626 62.769 153.747 63.0257 153.99 63.2123C154.242 63.3897 154.587 63.4783 155.026 63.4783C155.409 63.4783 155.74 63.399 156.02 63.2403C156.3 63.0723 156.519 62.839 156.678 62.5403C156.837 62.2417 156.916 61.901 156.916 61.5183H157.378C157.378 62.4703 157.173 63.2263 156.762 63.7863C156.361 64.337 155.745 64.6123 154.914 64.6123ZM163.311 64.4443V54.6443H164.641V63.1423L164.571 64.4443H163.311ZM166.937 64.6123C166.349 64.6123 165.835 64.4583 165.397 64.1503C164.967 63.8423 164.636 63.413 164.403 62.8623C164.169 62.3117 164.053 61.6723 164.053 60.9443C164.053 60.207 164.169 59.5677 164.403 59.0263C164.636 58.4757 164.967 58.0463 165.397 57.7383C165.835 57.4303 166.349 57.2763 166.937 57.2763C167.562 57.2763 168.113 57.4303 168.589 57.7383C169.065 58.0463 169.433 58.4757 169.695 59.0263C169.965 59.5677 170.101 60.207 170.101 60.9443C170.101 61.6723 169.965 62.3117 169.695 62.8623C169.433 63.413 169.065 63.8423 168.589 64.1503C168.113 64.4583 167.562 64.6123 166.937 64.6123ZM166.615 63.4083C167.035 63.4083 167.403 63.3057 167.721 63.1003C168.038 62.8857 168.285 62.5963 168.463 62.2323C168.649 61.859 168.743 61.4297 168.743 60.9443C168.743 60.459 168.654 60.0343 168.477 59.6703C168.299 59.297 168.052 59.0077 167.735 58.8023C167.417 58.5877 167.049 58.4803 166.629 58.4803C166.246 58.4803 165.901 58.5877 165.593 58.8023C165.294 59.0077 165.061 59.297 164.893 59.6703C164.725 60.0437 164.641 60.4683 164.641 60.9443C164.641 61.4297 164.725 61.859 164.893 62.2323C165.061 62.5963 165.294 62.8857 165.593 63.1003C165.891 63.3057 166.232 63.4083 166.615 63.4083ZM176.315 64.4443L176.231 63.1563V57.4443H177.547V64.4443H176.315ZM171.387 61.0283V57.4443H172.717V61.0283H171.387ZM172.717 61.0283C172.717 61.6537 172.787 62.1343 172.927 62.4703C173.076 62.8063 173.282 63.0397 173.543 63.1703C173.804 63.301 174.098 63.371 174.425 63.3803C174.994 63.3803 175.438 63.1797 175.755 62.7783C176.072 62.377 176.231 61.8123 176.231 61.0843H176.805C176.805 61.8217 176.693 62.4563 176.469 62.9883C176.254 63.511 175.946 63.9123 175.545 64.1923C175.144 64.4723 174.654 64.6123 174.075 64.6123C173.534 64.6123 173.058 64.5003 172.647 64.2763C172.246 64.0523 171.933 63.7023 171.709 63.2263C171.494 62.7503 171.387 62.1343 171.387 61.3783V61.0283H172.717ZM180.257 67.4123C180.051 67.4123 179.823 67.375 179.571 67.3003C179.328 67.2257 179.076 67.1277 178.815 67.0063L179.305 65.9143C179.51 66.0077 179.687 66.0777 179.837 66.1243C179.995 66.171 180.121 66.1943 180.215 66.1943C180.448 66.1943 180.644 66.129 180.803 65.9983C180.971 65.8677 181.106 65.6857 181.209 65.4523L182.021 63.5343L184.513 57.4443H185.941L182.623 65.3123C182.445 65.7417 182.259 66.115 182.063 66.4323C181.867 66.7497 181.624 66.9923 181.335 67.1603C181.055 67.3283 180.695 67.4123 180.257 67.4123ZM181.657 64.4443L178.591 57.4443H180.005L182.539 63.5203L182.945 64.4443H181.657ZM189.469 64.6123C188.974 64.6123 188.531 64.5377 188.139 64.3883C187.756 64.239 187.43 64.0383 187.159 63.7863C186.898 63.5343 186.702 63.2497 186.571 62.9323L187.719 62.4283C187.868 62.7177 188.092 62.9557 188.391 63.1423C188.69 63.329 189.021 63.4223 189.385 63.4223C189.786 63.4223 190.118 63.3477 190.379 63.1983C190.64 63.049 190.771 62.839 190.771 62.5683C190.771 62.307 190.673 62.1017 190.477 61.9523C190.281 61.803 189.996 61.6817 189.623 61.5883L188.965 61.4203C188.312 61.243 187.803 60.977 187.439 60.6223C187.084 60.2677 186.907 59.8663 186.907 59.4183C186.907 58.737 187.126 58.2097 187.565 57.8363C188.004 57.463 188.652 57.2763 189.511 57.2763C189.931 57.2763 190.314 57.337 190.659 57.4583C191.014 57.5797 191.312 57.7523 191.555 57.9763C191.807 58.2003 191.984 58.4663 192.087 58.7743L190.967 59.2783C190.855 58.9983 190.664 58.793 190.393 58.6623C190.122 58.5223 189.805 58.4523 189.441 58.4523C189.068 58.4523 188.774 58.5363 188.559 58.7043C188.344 58.863 188.237 59.087 188.237 59.3763C188.237 59.535 188.326 59.689 188.503 59.8383C188.69 59.9783 188.96 60.095 189.315 60.1883L190.071 60.3703C190.528 60.4823 190.906 60.655 191.205 60.8883C191.504 61.1123 191.728 61.369 191.877 61.6583C192.026 61.9383 192.101 62.2323 192.101 62.5403C192.101 62.9603 191.984 63.329 191.751 63.6463C191.527 63.9543 191.214 64.1923 190.813 64.3603C190.421 64.5283 189.973 64.6123 189.469 64.6123ZM196.973 67.2443V57.4443H198.219L198.303 58.7323V67.2443H196.973ZM200.599 64.6123C200.011 64.6123 199.497 64.4583 199.059 64.1503C198.629 63.8423 198.298 63.413 198.065 62.8623C197.831 62.3117 197.715 61.6723 197.715 60.9443C197.715 60.207 197.831 59.5677 198.065 59.0263C198.298 58.4757 198.629 58.0463 199.059 57.7383C199.497 57.4303 200.011 57.2763 200.599 57.2763C201.224 57.2763 201.775 57.4303 202.251 57.7383C202.727 58.0463 203.095 58.4757 203.357 59.0263C203.627 59.5677 203.763 60.207 203.763 60.9443C203.763 61.6723 203.627 62.3117 203.357 62.8623C203.095 63.413 202.727 63.8423 202.251 64.1503C201.775 64.4583 201.224 64.6123 200.599 64.6123ZM200.277 63.4083C200.697 63.4083 201.065 63.3057 201.383 63.1003C201.7 62.8857 201.947 62.5963 202.125 62.2323C202.311 61.859 202.405 61.4297 202.405 60.9443C202.405 60.459 202.316 60.0343 202.139 59.6703C201.961 59.297 201.714 59.0077 201.397 58.8023C201.079 58.5877 200.711 58.4803 200.291 58.4803C199.908 58.4803 199.563 58.5877 199.255 58.8023C198.956 59.0077 198.723 59.297 198.555 59.6703C198.387 60.0437 198.303 60.4683 198.303 60.9443C198.303 61.4297 198.387 61.859 198.555 62.2323C198.723 62.5963 198.956 62.8857 199.255 63.1003C199.553 63.3057 199.894 63.4083 200.277 63.4083ZM206.027 60.6783C206.027 59.9223 206.172 59.3063 206.461 58.8303C206.75 58.3543 207.124 57.9997 207.581 57.7663C208.038 57.533 208.519 57.4163 209.023 57.4163V58.6763C208.603 58.6763 208.202 58.7417 207.819 58.8723C207.446 58.9937 207.138 59.199 206.895 59.4883C206.662 59.7683 206.545 60.151 206.545 60.6363L206.027 60.6783ZM205.215 64.4443V57.4443H206.545V64.4443H205.215ZM213.19 64.6123C212.509 64.6123 211.907 64.4583 211.384 64.1503C210.861 63.833 210.451 63.399 210.152 62.8483C209.853 62.2977 209.704 61.663 209.704 60.9443C209.704 60.2257 209.853 59.591 210.152 59.0403C210.451 58.4897 210.861 58.0603 211.384 57.7523C211.916 57.435 212.523 57.2763 213.204 57.2763C213.848 57.2763 214.413 57.4397 214.898 57.7663C215.383 58.0837 215.761 58.541 216.032 59.1383C216.312 59.7263 216.452 60.4217 216.452 61.2243H210.796L211.048 61.0143C211.048 61.509 211.146 61.9383 211.342 62.3023C211.538 62.6663 211.804 62.9463 212.14 63.1423C212.476 63.329 212.859 63.4223 213.288 63.4223C213.755 63.4223 214.142 63.315 214.45 63.1003C214.767 62.8763 215.015 62.5963 215.192 62.2603L216.34 62.7923C216.153 63.1563 215.911 63.4783 215.612 63.7583C215.313 64.029 214.959 64.239 214.548 64.3883C214.147 64.5377 213.694 64.6123 213.19 64.6123ZM211.132 60.3843L210.866 60.1743H215.29L215.038 60.3843C215.038 59.9737 214.954 59.6237 214.786 59.3343C214.618 59.0357 214.394 58.8117 214.114 58.6623C213.834 58.5037 213.521 58.4243 213.176 58.4243C212.84 58.4243 212.513 58.5037 212.196 58.6623C211.888 58.8117 211.631 59.031 211.426 59.3203C211.23 59.6097 211.132 59.9643 211.132 60.3843ZM217.64 60.8603V59.6983H221.84V60.8603H217.64ZM223.633 67.2443V57.4443H224.879L224.963 58.7323V67.2443H223.633ZM227.259 64.6123C226.671 64.6123 226.157 64.4583 225.719 64.1503C225.289 63.8423 224.958 63.413 224.725 62.8623C224.491 62.3117 224.375 61.6723 224.375 60.9443C224.375 60.207 224.491 59.5677 224.725 59.0263C224.958 58.4757 225.289 58.0463 225.719 57.7383C226.157 57.4303 226.671 57.2763 227.259 57.2763C227.884 57.2763 228.435 57.4303 228.911 57.7383C229.387 58.0463 229.755 58.4757 230.017 59.0263C230.287 59.5677 230.423 60.207 230.423 60.9443C230.423 61.6723 230.287 62.3117 230.017 62.8623C229.755 63.413 229.387 63.8423 228.911 64.1503C228.435 64.4583 227.884 64.6123 227.259 64.6123ZM226.937 63.4083C227.357 63.4083 227.725 63.3057 228.043 63.1003C228.36 62.8857 228.607 62.5963 228.785 62.2323C228.971 61.859 229.065 61.4297 229.065 60.9443C229.065 60.459 228.976 60.0343 228.799 59.6703C228.621 59.297 228.374 59.0077 228.057 58.8023C227.739 58.5877 227.371 58.4803 226.951 58.4803C226.568 58.4803 226.223 58.5877 225.915 58.8023C225.616 59.0077 225.383 59.297 225.215 59.6703C225.047 60.0437 224.963 60.4683 224.963 60.9443C224.963 61.4297 225.047 61.859 225.215 62.2323C225.383 62.5963 225.616 62.8857 225.915 63.1003C226.213 63.3057 226.554 63.4083 226.937 63.4083ZM236.173 64.4443L236.117 63.2263V60.7903C236.117 60.277 236.057 59.8477 235.935 59.5023C235.823 59.157 235.646 58.8957 235.403 58.7183C235.17 58.541 234.857 58.4523 234.465 58.4523C234.101 58.4523 233.784 58.527 233.513 58.6763C233.252 58.8257 233.033 59.059 232.855 59.3763L231.679 58.9283C231.847 58.611 232.057 58.331 232.309 58.0883C232.561 57.8363 232.865 57.6403 233.219 57.5003C233.574 57.351 233.989 57.2763 234.465 57.2763C235.128 57.2763 235.679 57.407 236.117 57.6683C236.556 57.9297 236.883 58.3077 237.097 58.8023C237.321 59.297 237.429 59.9083 237.419 60.6363L237.405 64.4443H236.173ZM234.115 64.6123C233.285 64.6123 232.636 64.4257 232.169 64.0523C231.712 63.6697 231.483 63.1423 231.483 62.4703C231.483 61.7517 231.721 61.2057 232.197 60.8323C232.683 60.4497 233.355 60.2583 234.213 60.2583H236.159V61.3083H234.577C233.933 61.3083 233.481 61.411 233.219 61.6163C232.958 61.8123 232.827 62.0877 232.827 62.4423C232.827 62.769 232.949 63.0257 233.191 63.2123C233.443 63.3897 233.789 63.4783 234.227 63.4783C234.61 63.4783 234.941 63.399 235.221 63.2403C235.501 63.0723 235.721 62.839 235.879 62.5403C236.038 62.2417 236.117 61.901 236.117 61.5183H236.579C236.579 62.4703 236.374 63.2263 235.963 63.7863C235.562 64.337 234.946 64.6123 234.115 64.6123ZM242.286 64.6123C241.586 64.6123 240.965 64.4583 240.424 64.1503C239.883 63.833 239.458 63.399 239.15 62.8483C238.851 62.2977 238.702 61.663 238.702 60.9443C238.702 60.2257 238.851 59.591 239.15 59.0403C239.458 58.4897 239.878 58.0603 240.41 57.7523C240.951 57.435 241.567 57.2763 242.258 57.2763C242.939 57.2763 243.551 57.435 244.092 57.7523C244.643 58.0697 245.053 58.5223 245.324 59.1103L244.12 59.6143C243.943 59.269 243.686 58.9983 243.35 58.8023C243.023 58.6063 242.645 58.5083 242.216 58.5083C241.796 58.5083 241.423 58.611 241.096 58.8163C240.769 59.0217 240.513 59.311 240.326 59.6843C240.139 60.0483 240.046 60.4683 240.046 60.9443C240.046 61.4203 240.139 61.8403 240.326 62.2043C240.513 62.5683 240.774 62.8577 241.11 63.0723C241.446 63.2777 241.824 63.3803 242.244 63.3803C242.673 63.3803 243.056 63.273 243.392 63.0583C243.728 62.8343 243.98 62.5357 244.148 62.1623L245.366 62.6523C245.095 63.2683 244.685 63.749 244.134 64.0943C243.593 64.4397 242.977 64.6123 242.286 64.6123ZM247.97 62.3303L247.144 61.4203L250.826 57.4443H252.45L247.97 62.3303ZM246.682 64.4443V54.6443H248.012V64.4443H246.682ZM251.12 64.4443L248.544 60.6083L249.412 59.6843L252.716 64.4443H251.12ZM256.571 64.6123C255.889 64.6123 255.287 64.4583 254.765 64.1503C254.242 63.833 253.831 63.399 253.533 62.8483C253.234 62.2977 253.085 61.663 253.085 60.9443C253.085 60.2257 253.234 59.591 253.533 59.0403C253.831 58.4897 254.242 58.0603 254.765 57.7523C255.297 57.435 255.903 57.2763 256.585 57.2763C257.229 57.2763 257.793 57.4397 258.279 57.7663C258.764 58.0837 259.142 58.541 259.413 59.1383C259.693 59.7263 259.833 60.4217 259.833 61.2243H254.177L254.429 61.0143C254.429 61.509 254.527 61.9383 254.723 62.3023C254.919 62.6663 255.185 62.9463 255.521 63.1423C255.857 63.329 256.239 63.4223 256.669 63.4223C257.135 63.4223 257.523 63.315 257.831 63.1003C258.148 62.8763 258.395 62.5963 258.573 62.2603L259.721 62.7923C259.534 63.1563 259.291 63.4783 258.993 63.7583C258.694 64.029 258.339 64.239 257.929 64.3883C257.527 64.5377 257.075 64.6123 256.571 64.6123ZM254.513 60.3843L254.247 60.1743H258.671L258.419 60.3843C258.419 59.9737 258.335 59.6237 258.167 59.3343C257.999 59.0357 257.775 58.8117 257.495 58.6623C257.215 58.5037 256.902 58.4243 256.557 58.4243C256.221 58.4243 255.894 58.5037 255.577 58.6623C255.269 58.8117 255.012 59.031 254.807 59.3203C254.611 59.6097 254.513 59.9643 254.513 60.3843ZM266.271 64.4443L266.215 63.1423V54.6443H267.531V64.4443H266.271ZM263.919 64.6123C263.284 64.6123 262.729 64.4583 262.253 64.1503C261.786 63.8423 261.417 63.413 261.147 62.8623C260.885 62.3117 260.755 61.6723 260.755 60.9443C260.755 60.207 260.885 59.5677 261.147 59.0263C261.417 58.4757 261.786 58.0463 262.253 57.7383C262.729 57.4303 263.284 57.2763 263.919 57.2763C264.507 57.2763 265.015 57.4303 265.445 57.7383C265.883 58.0463 266.219 58.4757 266.453 59.0263C266.686 59.5677 266.803 60.207 266.803 60.9443C266.803 61.6723 266.686 62.3117 266.453 62.8623C266.219 63.413 265.883 63.8423 265.445 64.1503C265.015 64.4583 264.507 64.6123 263.919 64.6123ZM264.227 63.4083C264.619 63.4083 264.964 63.3057 265.263 63.1003C265.561 62.8857 265.795 62.5963 265.963 62.2323C266.131 61.859 266.215 61.4297 266.215 60.9443C266.215 60.459 266.131 60.0343 265.963 59.6703C265.795 59.297 265.561 59.0077 265.263 58.8023C264.964 58.5877 264.614 58.4803 264.213 58.4803C263.802 58.4803 263.438 58.5877 263.121 58.8023C262.803 59.0077 262.556 59.297 262.379 59.6703C262.201 60.0343 262.113 60.459 262.113 60.9443C262.113 61.4297 262.201 61.859 262.379 62.2323C262.565 62.5963 262.817 62.8857 263.135 63.1003C263.452 63.3057 263.816 63.4083 264.227 63.4083ZM277.555 64.4443L277.471 63.1563V57.4443H278.787V64.4443H277.555ZM272.627 61.0283V57.4443H273.957V61.0283H272.627ZM273.957 61.0283C273.957 61.6537 274.027 62.1343 274.167 62.4703C274.316 62.8063 274.522 63.0397 274.783 63.1703C275.044 63.301 275.338 63.371 275.665 63.3803C276.234 63.3803 276.678 63.1797 276.995 62.7783C277.312 62.377 277.471 61.8123 277.471 61.0843H278.045C278.045 61.8217 277.933 62.4563 277.709 62.9883C277.494 63.511 277.186 63.9123 276.785 64.1923C276.384 64.4723 275.894 64.6123 275.315 64.6123C274.774 64.6123 274.298 64.5003 273.887 64.2763C273.486 64.0523 273.173 63.7023 272.949 63.2263C272.734 62.7503 272.627 62.1343 272.627 61.3783V61.0283H273.957ZM280.643 64.4443V57.4443H281.889L281.973 58.7323V64.4443H280.643ZM285.487 64.4443V60.8603H286.817V64.4443H285.487ZM285.487 60.8603C285.487 60.2257 285.412 59.745 285.263 59.4183C285.123 59.0823 284.922 58.849 284.661 58.7183C284.409 58.5877 284.115 58.5177 283.779 58.5083C283.209 58.5083 282.766 58.709 282.449 59.1103C282.131 59.5117 281.973 60.0763 281.973 60.8043H281.399C281.399 60.067 281.506 59.437 281.721 58.9143C281.945 58.3823 282.257 57.9763 282.659 57.6963C283.069 57.4163 283.555 57.2763 284.115 57.2763C284.665 57.2763 285.141 57.3883 285.543 57.6123C285.953 57.8363 286.266 58.1863 286.481 58.6623C286.705 59.129 286.817 59.745 286.817 60.5103V60.8603H285.487ZM288.49 64.4443V54.6443H289.82V63.1423L289.75 64.4443H288.49ZM292.116 64.6123C291.528 64.6123 291.015 64.4583 290.576 64.1503C290.147 63.8423 289.816 63.413 289.582 62.8623C289.349 62.3117 289.232 61.6723 289.232 60.9443C289.232 60.207 289.349 59.5677 289.582 59.0263C289.816 58.4757 290.147 58.0463 290.576 57.7383C291.015 57.4303 291.528 57.2763 292.116 57.2763C292.742 57.2763 293.292 57.4303 293.768 57.7383C294.244 58.0463 294.613 58.4757 294.874 59.0263C295.145 59.5677 295.28 60.207 295.28 60.9443C295.28 61.6723 295.145 62.3117 294.874 62.8623C294.613 63.413 294.244 63.8423 293.768 64.1503C293.292 64.4583 292.742 64.6123 292.116 64.6123ZM291.794 63.4083C292.214 63.4083 292.583 63.3057 292.9 63.1003C293.218 62.8857 293.465 62.5963 293.642 62.2323C293.829 61.859 293.922 61.4297 293.922 60.9443C293.922 60.459 293.834 60.0343 293.656 59.6703C293.479 59.297 293.232 59.0077 292.914 58.8023C292.597 58.5877 292.228 58.4803 291.808 58.4803C291.426 58.4803 291.08 58.5877 290.772 58.8023C290.474 59.0077 290.24 59.297 290.072 59.6703C289.904 60.0437 289.82 60.4683 289.82 60.9443C289.82 61.4297 289.904 61.859 290.072 62.2323C290.24 62.5963 290.474 62.8857 290.772 63.1003C291.071 63.3057 291.412 63.4083 291.794 63.4083ZM297.547 60.6783C297.547 59.9223 297.691 59.3063 297.981 58.8303C298.27 58.3543 298.643 57.9997 299.101 57.7663C299.558 57.533 300.039 57.4163 300.543 57.4163V58.6763C300.123 58.6763 299.721 58.7417 299.339 58.8723C298.965 58.9937 298.657 59.199 298.415 59.4883C298.181 59.7683 298.065 60.151 298.065 60.6363L297.547 60.6783ZM296.735 64.4443V57.4443H298.065V64.4443H296.735ZM305.913 64.4443L305.857 63.2263V60.7903C305.857 60.277 305.797 59.8477 305.675 59.5023C305.563 59.157 305.386 58.8957 305.143 58.7183C304.91 58.541 304.597 58.4523 304.205 58.4523C303.841 58.4523 303.524 58.527 303.253 58.6763C302.992 58.8257 302.773 59.059 302.595 59.3763L301.419 58.9283C301.587 58.611 301.797 58.331 302.049 58.0883C302.301 57.8363 302.605 57.6403 302.959 57.5003C303.314 57.351 303.729 57.2763 304.205 57.2763C304.868 57.2763 305.419 57.407 305.857 57.6683C306.296 57.9297 306.623 58.3077 306.837 58.8023C307.061 59.297 307.169 59.9083 307.159 60.6363L307.145 64.4443H305.913ZM303.855 64.6123C303.025 64.6123 302.376 64.4257 301.909 64.0523C301.452 63.6697 301.223 63.1423 301.223 62.4703C301.223 61.7517 301.461 61.2057 301.937 60.8323C302.423 60.4497 303.095 60.2583 303.953 60.2583H305.899V61.3083H304.317C303.673 61.3083 303.221 61.411 302.959 61.6163C302.698 61.8123 302.567 62.0877 302.567 62.4423C302.567 62.769 302.689 63.0257 302.931 63.2123C303.183 63.3897 303.529 63.4783 303.967 63.4783C304.35 63.4783 304.681 63.399 304.961 63.2403C305.241 63.0723 305.461 62.839 305.619 62.5403C305.778 62.2417 305.857 61.901 305.857 61.5183H306.319C306.319 62.4703 306.114 63.2263 305.703 63.7863C305.302 64.337 304.686 64.6123 303.855 64.6123ZM308.834 64.4443V57.4443H310.08L310.164 58.7323V64.4443H308.834ZM313.678 64.4443V60.8603H315.008V64.4443H313.678ZM313.678 60.8603C313.678 60.2257 313.603 59.745 313.454 59.4183C313.314 59.0823 313.113 58.849 312.852 58.7183C312.6 58.5877 312.306 58.5177 311.97 58.5083C311.401 58.5083 310.957 58.709 310.64 59.1103C310.323 59.5117 310.164 60.0763 310.164 60.8043H309.59C309.59 60.067 309.697 59.437 309.912 58.9143C310.136 58.3823 310.449 57.9763 310.85 57.6963C311.261 57.4163 311.746 57.2763 312.306 57.2763C312.857 57.2763 313.333 57.3883 313.734 57.6123C314.145 57.8363 314.457 58.1863 314.672 58.6623C314.896 59.129 315.008 59.745 315.008 60.5103V60.8603H313.678ZM321.806 64.4443L321.75 63.1423V54.6443H323.066V64.4443H321.806ZM319.454 64.6123C318.819 64.6123 318.264 64.4583 317.788 64.1503C317.321 63.8423 316.952 63.413 316.682 62.8623C316.42 62.3117 316.29 61.6723 316.29 60.9443C316.29 60.207 316.42 59.5677 316.682 59.0263C316.952 58.4757 317.321 58.0463 317.788 57.7383C318.264 57.4303 318.819 57.2763 319.454 57.2763C320.042 57.2763 320.55 57.4303 320.98 57.7383C321.418 58.0463 321.754 58.4757 321.988 59.0263C322.221 59.5677 322.338 60.207 322.338 60.9443C322.338 61.6723 322.221 62.3117 321.988 62.8623C321.754 63.413 321.418 63.8423 320.98 64.1503C320.55 64.4583 320.042 64.6123 319.454 64.6123ZM319.762 63.4083C320.154 63.4083 320.499 63.3057 320.798 63.1003C321.096 62.8857 321.33 62.5963 321.498 62.2323C321.666 61.859 321.75 61.4297 321.75 60.9443C321.75 60.459 321.666 60.0343 321.498 59.6703C321.33 59.297 321.096 59.0077 320.798 58.8023C320.499 58.5877 320.149 58.4803 319.748 58.4803C319.337 58.4803 318.973 58.5877 318.656 58.8023C318.338 59.0077 318.091 59.297 317.914 59.6703C317.736 60.0343 317.648 60.459 317.648 60.9443C317.648 61.4297 317.736 61.859 317.914 62.2323C318.1 62.5963 318.352 62.8857 318.67 63.1003C318.987 63.3057 319.351 63.4083 319.762 63.4083ZM328.006 64.6123C327.325 64.6123 326.723 64.4583 326.2 64.1503C325.678 63.833 325.267 63.399 324.968 62.8483C324.67 62.2977 324.52 61.663 324.52 60.9443C324.52 60.2257 324.67 59.591 324.968 59.0403C325.267 58.4897 325.678 58.0603 326.2 57.7523C326.732 57.435 327.339 57.2763 328.02 57.2763C328.664 57.2763 329.229 57.4397 329.714 57.7663C330.2 58.0837 330.578 58.541 330.848 59.1383C331.128 59.7263 331.268 60.4217 331.268 61.2243H325.612L325.864 61.0143C325.864 61.509 325.962 61.9383 326.158 62.3023C326.354 62.6663 326.62 62.9463 326.956 63.1423C327.292 63.329 327.675 63.4223 328.104 63.4223C328.571 63.4223 328.958 63.315 329.266 63.1003C329.584 62.8763 329.831 62.5963 330.008 62.2603L331.156 62.7923C330.97 63.1563 330.727 63.4783 330.428 63.7583C330.13 64.029 329.775 64.239 329.364 64.3883C328.963 64.5377 328.51 64.6123 328.006 64.6123ZM325.948 60.3843L325.682 60.1743H330.106L329.854 60.3843C329.854 59.9737 329.77 59.6237 329.602 59.3343C329.434 59.0357 329.21 58.8117 328.93 58.6623C328.65 58.5037 328.338 58.4243 327.992 58.4243C327.656 58.4243 327.33 58.5037 327.012 58.6623C326.704 58.8117 326.448 59.031 326.242 59.3203C326.046 59.6097 325.948 59.9643 325.948 60.3843ZM337.706 64.4443L337.65 63.1423V54.6443H338.966V64.4443H337.706ZM335.354 64.6123C334.72 64.6123 334.164 64.4583 333.688 64.1503C333.222 63.8423 332.853 63.413 332.582 62.8623C332.321 62.3117 332.19 61.6723 332.19 60.9443C332.19 60.207 332.321 59.5677 332.582 59.0263C332.853 58.4757 333.222 58.0463 333.688 57.7383C334.164 57.4303 334.72 57.2763 335.354 57.2763C335.942 57.2763 336.451 57.4303 336.88 57.7383C337.319 58.0463 337.655 58.4757 337.888 59.0263C338.122 59.5677 338.238 60.207 338.238 60.9443C338.238 61.6723 338.122 62.3117 337.888 62.8623C337.655 63.413 337.319 63.8423 336.88 64.1503C336.451 64.4583 335.942 64.6123 335.354 64.6123ZM335.662 63.4083C336.054 63.4083 336.4 63.3057 336.698 63.1003C336.997 62.8857 337.23 62.5963 337.398 62.2323C337.566 61.859 337.65 61.4297 337.65 60.9443C337.65 60.459 337.566 60.0343 337.398 59.6703C337.23 59.297 336.997 59.0077 336.698 58.8023C336.4 58.5877 336.05 58.4803 335.648 58.4803C335.238 58.4803 334.874 58.5877 334.556 58.8023C334.239 59.0077 333.992 59.297 333.814 59.6703C333.637 60.0343 333.548 60.459 333.548 60.9443C333.548 61.4297 333.637 61.859 333.814 62.2323C334.001 62.5963 334.253 62.8857 334.57 63.1003C334.888 63.3057 335.252 63.4083 335.662 63.4083ZM344.553 64.4443V54.6443H347.857C348.51 54.6443 349.084 54.775 349.579 55.0363C350.083 55.2883 350.475 55.643 350.755 56.1003C351.044 56.5483 351.189 57.071 351.189 57.6683C351.189 58.2563 351.035 58.779 350.727 59.2363C350.428 59.6937 350.017 60.053 349.495 60.3143C348.972 60.5663 348.384 60.6923 347.731 60.6923H345.925V64.4443H344.553ZM350.027 64.4443L347.703 60.4403L348.795 59.7123L351.581 64.4443H350.027ZM345.925 59.4323H347.983C348.319 59.4323 348.617 59.3577 348.879 59.2083C349.149 59.0497 349.364 58.8397 349.523 58.5783C349.691 58.3077 349.775 58.0043 349.775 57.6683C349.775 57.1457 349.593 56.721 349.229 56.3943C348.865 56.0677 348.393 55.9043 347.815 55.9043H345.925V59.4323ZM356.157 64.6123C355.475 64.6123 354.873 64.4583 354.351 64.1503C353.828 63.833 353.417 63.399 353.119 62.8483C352.82 62.2977 352.671 61.663 352.671 60.9443C352.671 60.2257 352.82 59.591 353.119 59.0403C353.417 58.4897 353.828 58.0603 354.351 57.7523C354.883 57.435 355.489 57.2763 356.171 57.2763C356.815 57.2763 357.379 57.4397 357.865 57.7663C358.35 58.0837 358.728 58.541 358.999 59.1383C359.279 59.7263 359.419 60.4217 359.419 61.2243H353.763L354.015 61.0143C354.015 61.509 354.113 61.9383 354.309 62.3023C354.505 62.6663 354.771 62.9463 355.107 63.1423C355.443 63.329 355.825 63.4223 356.255 63.4223C356.721 63.4223 357.109 63.315 357.417 63.1003C357.734 62.8763 357.981 62.5963 358.159 62.2603L359.307 62.7923C359.12 63.1563 358.877 63.4783 358.579 63.7583C358.28 64.029 357.925 64.239 357.515 64.3883C357.113 64.5377 356.661 64.6123 356.157 64.6123ZM354.099 60.3843L353.833 60.1743H358.257L358.005 60.3843C358.005 59.9737 357.921 59.6237 357.753 59.3343C357.585 59.0357 357.361 58.8117 357.081 58.6623C356.801 58.5037 356.488 58.4243 356.143 58.4243C355.807 58.4243 355.48 58.5037 355.163 58.6623C354.855 58.8117 354.598 59.031 354.393 59.3203C354.197 59.6097 354.099 59.9643 354.099 60.3843ZM365.493 64.4443L365.409 63.1563V57.4443H366.725V64.4443H365.493ZM360.565 61.0283V57.4443H361.895V61.0283H360.565ZM361.895 61.0283C361.895 61.6537 361.965 62.1343 362.105 62.4703C362.254 62.8063 362.459 63.0397 362.721 63.1703C362.982 63.301 363.276 63.371 363.603 63.3803C364.172 63.3803 364.615 63.1797 364.933 62.7783C365.25 62.377 365.409 61.8123 365.409 61.0843H365.983C365.983 61.8217 365.871 62.4563 365.647 62.9883C365.432 63.511 365.124 63.9123 364.723 64.1923C364.321 64.4723 363.831 64.6123 363.253 64.6123C362.711 64.6123 362.235 64.5003 361.825 64.2763C361.423 64.0523 361.111 63.7023 360.887 63.2263C360.672 62.7503 360.565 62.1343 360.565 61.3783V61.0283H361.895ZM371.086 64.6123C370.592 64.6123 370.148 64.5377 369.756 64.3883C369.374 64.239 369.047 64.0383 368.776 63.7863C368.515 63.5343 368.319 63.2497 368.188 62.9323L369.336 62.4283C369.486 62.7177 369.71 62.9557 370.008 63.1423C370.307 63.329 370.638 63.4223 371.002 63.4223C371.404 63.4223 371.735 63.3477 371.996 63.1983C372.258 63.049 372.388 62.839 372.388 62.5683C372.388 62.307 372.29 62.1017 372.094 61.9523C371.898 61.803 371.614 61.6817 371.24 61.5883L370.582 61.4203C369.929 61.243 369.42 60.977 369.056 60.6223C368.702 60.2677 368.524 59.8663 368.524 59.4183C368.524 58.737 368.744 58.2097 369.182 57.8363C369.621 57.463 370.27 57.2763 371.128 57.2763C371.548 57.2763 371.931 57.337 372.276 57.4583C372.631 57.5797 372.93 57.7523 373.172 57.9763C373.424 58.2003 373.602 58.4663 373.704 58.7743L372.584 59.2783C372.472 58.9983 372.281 58.793 372.01 58.6623C371.74 58.5223 371.422 58.4523 371.058 58.4523C370.685 58.4523 370.391 58.5363 370.176 58.7043C369.962 58.863 369.854 59.087 369.854 59.3763C369.854 59.535 369.943 59.689 370.12 59.8383C370.307 59.9783 370.578 60.095 370.932 60.1883L371.688 60.3703C372.146 60.4823 372.524 60.655 372.822 60.8883C373.121 61.1123 373.345 61.369 373.494 61.6583C373.644 61.9383 373.718 62.2323 373.718 62.5403C373.718 62.9603 373.602 63.329 373.368 63.6463C373.144 63.9543 372.832 64.1923 372.43 64.3603C372.038 64.5283 371.59 64.6123 371.086 64.6123ZM379.4 64.4443L379.344 63.2263V60.7903C379.344 60.277 379.283 59.8477 379.162 59.5023C379.05 59.157 378.872 58.8957 378.63 58.7183C378.396 58.541 378.084 58.4523 377.692 58.4523C377.328 58.4523 377.01 58.527 376.74 58.6763C376.478 58.8257 376.259 59.059 376.082 59.3763L374.906 58.9283C375.074 58.611 375.284 58.331 375.536 58.0883C375.788 57.8363 376.091 57.6403 376.446 57.5003C376.8 57.351 377.216 57.2763 377.692 57.2763C378.354 57.2763 378.905 57.407 379.344 57.6683C379.782 57.9297 380.109 58.3077 380.324 58.8023C380.548 59.297 380.655 59.9083 380.646 60.6363L380.632 64.4443H379.4ZM377.342 64.6123C376.511 64.6123 375.862 64.4257 375.396 64.0523C374.938 63.6697 374.71 63.1423 374.71 62.4703C374.71 61.7517 374.948 61.2057 375.424 60.8323C375.909 60.4497 376.581 60.2583 377.44 60.2583H379.386V61.3083H377.804C377.16 61.3083 376.707 61.411 376.446 61.6163C376.184 61.8123 376.054 62.0877 376.054 62.4423C376.054 62.769 376.175 63.0257 376.418 63.2123C376.67 63.3897 377.015 63.4783 377.454 63.4783C377.836 63.4783 378.168 63.399 378.448 63.2403C378.728 63.0723 378.947 62.839 379.106 62.5403C379.264 62.2417 379.344 61.901 379.344 61.5183H379.806C379.806 62.4703 379.6 63.2263 379.19 63.7863C378.788 64.337 378.172 64.6123 377.342 64.6123ZM382.32 64.4443V54.6443H383.65V63.1423L383.58 64.4443H382.32ZM385.946 64.6123C385.358 64.6123 384.845 64.4583 384.406 64.1503C383.977 63.8423 383.646 63.413 383.412 62.8623C383.179 62.3117 383.062 61.6723 383.062 60.9443C383.062 60.207 383.179 59.5677 383.412 59.0263C383.646 58.4757 383.977 58.0463 384.406 57.7383C384.845 57.4303 385.358 57.2763 385.946 57.2763C386.572 57.2763 387.122 57.4303 387.598 57.7383C388.074 58.0463 388.443 58.4757 388.704 59.0263C388.975 59.5677 389.11 60.207 389.11 60.9443C389.11 61.6723 388.975 62.3117 388.704 62.8623C388.443 63.413 388.074 63.8423 387.598 64.1503C387.122 64.4583 386.572 64.6123 385.946 64.6123ZM385.624 63.4083C386.044 63.4083 386.413 63.3057 386.73 63.1003C387.048 62.8857 387.295 62.5963 387.472 62.2323C387.659 61.859 387.752 61.4297 387.752 60.9443C387.752 60.459 387.664 60.0343 387.486 59.6703C387.309 59.297 387.062 59.0077 386.744 58.8023C386.427 58.5877 386.058 58.4803 385.638 58.4803C385.256 58.4803 384.91 58.5877 384.602 58.8023C384.304 59.0077 384.07 59.297 383.902 59.6703C383.734 60.0437 383.65 60.4683 383.65 60.9443C383.65 61.4297 383.734 61.859 383.902 62.2323C384.07 62.5963 384.304 62.8857 384.602 63.1003C384.901 63.3057 385.242 63.4083 385.624 63.4083ZM390.565 64.4443V54.6443H391.895V64.4443H390.565ZM396.831 64.6123C396.149 64.6123 395.547 64.4583 395.025 64.1503C394.502 63.833 394.091 63.399 393.793 62.8483C393.494 62.2977 393.345 61.663 393.345 60.9443C393.345 60.2257 393.494 59.591 393.793 59.0403C394.091 58.4897 394.502 58.0603 395.025 57.7523C395.557 57.435 396.163 57.2763 396.845 57.2763C397.489 57.2763 398.053 57.4397 398.539 57.7663C399.024 58.0837 399.402 58.541 399.673 59.1383C399.953 59.7263 400.093 60.4217 400.093 61.2243H394.437L394.689 61.0143C394.689 61.509 394.787 61.9383 394.983 62.3023C395.179 62.6663 395.445 62.9463 395.781 63.1423C396.117 63.329 396.499 63.4223 396.928 63.4223C397.395 63.4223 397.783 63.315 398.091 63.1003C398.408 62.8763 398.655 62.5963 398.833 62.2603L399.981 62.7923C399.794 63.1563 399.551 63.4783 399.253 63.7583C398.954 64.029 398.599 64.239 398.189 64.3883C397.787 64.5377 397.335 64.6123 396.831 64.6123ZM394.773 60.3843L394.507 60.1743H398.931L398.679 60.3843C398.679 59.9737 398.595 59.6237 398.427 59.3343C398.259 59.0357 398.035 58.8117 397.755 58.6623C397.475 58.5037 397.162 58.4243 396.817 58.4243C396.481 58.4243 396.154 58.5037 395.837 58.6623C395.529 58.8117 395.272 59.031 395.067 59.3203C394.871 59.6097 394.773 59.9643 394.773 60.3843ZM403.912 64.6123C403.418 64.6123 402.974 64.5377 402.582 64.3883C402.2 64.239 401.873 64.0383 401.602 63.7863C401.341 63.5343 401.145 63.2497 401.014 62.9323L402.162 62.4283C402.312 62.7177 402.536 62.9557 402.834 63.1423C403.133 63.329 403.464 63.4223 403.828 63.4223C404.23 63.4223 404.561 63.3477 404.822 63.1983C405.084 63.049 405.214 62.839 405.214 62.5683C405.214 62.307 405.116 62.1017 404.92 61.9523C404.724 61.803 404.44 61.6817 404.066 61.5883L403.408 61.4203C402.755 61.243 402.246 60.977 401.882 60.6223C401.528 60.2677 401.35 59.8663 401.35 59.4183C401.35 58.737 401.57 58.2097 402.008 57.8363C402.447 57.463 403.096 57.2763 403.954 57.2763C404.374 57.2763 404.757 57.337 405.102 57.4583C405.457 57.5797 405.756 57.7523 405.998 57.9763C406.25 58.2003 406.428 58.4663 406.53 58.7743L405.41 59.2783C405.298 58.9983 405.107 58.793 404.836 58.6623C404.566 58.5223 404.248 58.4523 403.884 58.4523C403.511 58.4523 403.217 58.5363 403.002 58.7043C402.788 58.863 402.68 59.087 402.68 59.3763C402.68 59.535 402.769 59.689 402.946 59.8383C403.133 59.9783 403.404 60.095 403.758 60.1883L404.514 60.3703C404.972 60.4823 405.35 60.655 405.648 60.8883C405.947 61.1123 406.171 61.369 406.32 61.6583C406.47 61.9383 406.544 62.2323 406.544 62.5403C406.544 62.9603 406.428 63.329 406.194 63.6463C405.97 63.9543 405.658 64.1923 405.256 64.3603C404.864 64.5283 404.416 64.6123 403.912 64.6123ZM411.346 64.4443V57.4443H412.592L412.648 58.4103C412.872 58.037 413.152 57.757 413.488 57.5703C413.824 57.3743 414.211 57.2763 414.65 57.2763C415.21 57.2763 415.686 57.407 416.078 57.6683C416.47 57.9203 416.755 58.3077 416.932 58.8303C417.137 58.3263 417.427 57.9437 417.8 57.6823C418.173 57.4117 418.617 57.2763 419.13 57.2763C419.923 57.2763 420.544 57.5377 420.992 58.0603C421.44 58.5737 421.659 59.367 421.65 60.4403V64.4443H420.334V60.8603C420.334 60.2257 420.264 59.745 420.124 59.4183C419.993 59.0823 419.816 58.849 419.592 58.7183C419.368 58.5877 419.107 58.5177 418.808 58.5083C418.285 58.5083 417.879 58.709 417.59 59.1103C417.31 59.5117 417.17 60.0763 417.17 60.8043V64.4443H415.84V60.8603C415.84 60.2257 415.775 59.745 415.644 59.4183C415.513 59.0823 415.331 58.849 415.098 58.7183C414.874 58.5877 414.613 58.5177 414.314 58.5083C413.791 58.5083 413.385 58.709 413.096 59.1103C412.816 59.5117 412.676 60.0763 412.676 60.8043V64.4443H411.346ZM426.444 64.6123C425.762 64.6123 425.16 64.4583 424.638 64.1503C424.115 63.833 423.704 63.399 423.406 62.8483C423.107 62.2977 422.958 61.663 422.958 60.9443C422.958 60.2257 423.107 59.591 423.406 59.0403C423.704 58.4897 424.115 58.0603 424.638 57.7523C425.17 57.435 425.776 57.2763 426.458 57.2763C427.102 57.2763 427.666 57.4397 428.152 57.7663C428.637 58.0837 429.015 58.541 429.286 59.1383C429.566 59.7263 429.706 60.4217 429.706 61.2243H424.05L424.302 61.0143C424.302 61.509 424.4 61.9383 424.596 62.3023C424.792 62.6663 425.058 62.9463 425.394 63.1423C425.73 63.329 426.112 63.4223 426.542 63.4223C427.008 63.4223 427.396 63.315 427.704 63.1003C428.021 62.8763 428.268 62.5963 428.446 62.2603L429.594 62.7923C429.407 63.1563 429.164 63.4783 428.866 63.7583C428.567 64.029 428.212 64.239 427.802 64.3883C427.4 64.5377 426.948 64.6123 426.444 64.6123ZM424.386 60.3843L424.12 60.1743H428.544L428.292 60.3843C428.292 59.9737 428.208 59.6237 428.04 59.3343C427.872 59.0357 427.648 58.8117 427.368 58.6623C427.088 58.5037 426.775 58.4243 426.43 58.4243C426.094 58.4243 425.767 58.5037 425.45 58.6623C425.142 58.8117 424.885 59.031 424.68 59.3203C424.484 59.6097 424.386 59.9643 424.386 60.3843ZM435.318 64.4443L435.262 63.2263V60.7903C435.262 60.277 435.201 59.8477 435.08 59.5023C434.968 59.157 434.79 58.8957 434.548 58.7183C434.314 58.541 434.002 58.4523 433.61 58.4523C433.246 58.4523 432.928 58.527 432.658 58.6763C432.396 58.8257 432.177 59.059 432 59.3763L430.824 58.9283C430.992 58.611 431.202 58.331 431.454 58.0883C431.706 57.8363 432.009 57.6403 432.364 57.5003C432.718 57.351 433.134 57.2763 433.61 57.2763C434.272 57.2763 434.823 57.407 435.262 57.6683C435.7 57.9297 436.027 58.3077 436.242 58.8023C436.466 59.297 436.573 59.9083 436.564 60.6363L436.55 64.4443H435.318ZM433.26 64.6123C432.429 64.6123 431.78 64.4257 431.314 64.0523C430.856 63.6697 430.628 63.1423 430.628 62.4703C430.628 61.7517 430.866 61.2057 431.342 60.8323C431.827 60.4497 432.499 60.2583 433.358 60.2583H435.304V61.3083H433.722C433.078 61.3083 432.625 61.411 432.364 61.6163C432.102 61.8123 431.972 62.0877 431.972 62.4423C431.972 62.769 432.093 63.0257 432.336 63.2123C432.588 63.3897 432.933 63.4783 433.372 63.4783C433.754 63.4783 434.086 63.399 434.366 63.2403C434.646 63.0723 434.865 62.839 435.024 62.5403C435.182 62.2417 435.262 61.901 435.262 61.5183H435.724C435.724 62.4703 435.518 63.2263 435.108 63.7863C434.706 64.337 434.09 64.6123 433.26 64.6123ZM438.238 64.4443V54.6443H439.568V64.4443H438.238ZM443.916 64.6123C443.422 64.6123 442.978 64.5377 442.586 64.3883C442.204 64.239 441.877 64.0383 441.606 63.7863C441.345 63.5343 441.149 63.2497 441.018 62.9323L442.166 62.4283C442.316 62.7177 442.54 62.9557 442.838 63.1423C443.137 63.329 443.468 63.4223 443.832 63.4223C444.234 63.4223 444.565 63.3477 444.826 63.1983C445.088 63.049 445.218 62.839 445.218 62.5683C445.218 62.307 445.12 62.1017 444.924 61.9523C444.728 61.803 444.444 61.6817 444.07 61.5883L443.412 61.4203C442.759 61.243 442.25 60.977 441.886 60.6223C441.532 60.2677 441.354 59.8663 441.354 59.4183C441.354 58.737 441.574 58.2097 442.012 57.8363C442.451 57.463 443.1 57.2763 443.958 57.2763C444.378 57.2763 444.761 57.337 445.106 57.4583C445.461 57.5797 445.76 57.7523 446.002 57.9763C446.254 58.2003 446.432 58.4663 446.534 58.7743L445.414 59.2783C445.302 58.9983 445.111 58.793 444.84 58.6623C444.57 58.5223 444.252 58.4523 443.888 58.4523C443.515 58.4523 443.221 58.5363 443.006 58.7043C442.792 58.863 442.684 59.087 442.684 59.3763C442.684 59.535 442.773 59.689 442.95 59.8383C443.137 59.9783 443.408 60.095 443.762 60.1883L444.518 60.3703C444.976 60.4823 445.354 60.655 445.652 60.8883C445.951 61.1123 446.175 61.369 446.324 61.6583C446.474 61.9383 446.548 62.2323 446.548 62.5403C446.548 62.9603 446.432 63.329 446.198 63.6463C445.974 63.9543 445.662 64.1923 445.26 64.3603C444.868 64.5283 444.42 64.6123 443.916 64.6123ZM455.648 64.4443L455.592 63.2263V60.7903C455.592 60.277 455.531 59.8477 455.41 59.5023C455.298 59.157 455.12 58.8957 454.878 58.7183C454.644 58.541 454.332 58.4523 453.94 58.4523C453.576 58.4523 453.258 58.527 452.988 58.6763C452.726 58.8257 452.507 59.059 452.33 59.3763L451.154 58.9283C451.322 58.611 451.532 58.331 451.784 58.0883C452.036 57.8363 452.339 57.6403 452.694 57.5003C453.048 57.351 453.464 57.2763 453.94 57.2763C454.602 57.2763 455.153 57.407 455.592 57.6683C456.03 57.9297 456.357 58.3077 456.572 58.8023C456.796 59.297 456.903 59.9083 456.894 60.6363L456.88 64.4443H455.648ZM453.59 64.6123C452.759 64.6123 452.11 64.4257 451.644 64.0523C451.186 63.6697 450.958 63.1423 450.958 62.4703C450.958 61.7517 451.196 61.2057 451.672 60.8323C452.157 60.4497 452.829 60.2583 453.688 60.2583H455.634V61.3083H454.052C453.408 61.3083 452.955 61.411 452.694 61.6163C452.432 61.8123 452.302 62.0877 452.302 62.4423C452.302 62.769 452.423 63.0257 452.666 63.2123C452.918 63.3897 453.263 63.4783 453.702 63.4783C454.084 63.4783 454.416 63.399 454.696 63.2403C454.976 63.0723 455.195 62.839 455.354 62.5403C455.512 62.2417 455.592 61.901 455.592 61.5183H456.054C456.054 62.4703 455.848 63.2263 455.438 63.7863C455.036 64.337 454.42 64.6123 453.59 64.6123ZM458.569 64.4443V57.4443H459.815L459.899 58.7323V64.4443H458.569ZM463.413 64.4443V60.8603H464.743V64.4443H463.413ZM463.413 60.8603C463.413 60.2257 463.338 59.745 463.189 59.4183C463.049 59.0823 462.848 58.849 462.587 58.7183C462.335 58.5877 462.041 58.5177 461.705 58.5083C461.135 58.5083 460.692 58.709 460.375 59.1103C460.057 59.5117 459.899 60.0763 459.899 60.8043H459.325C459.325 60.067 459.432 59.437 459.647 58.9143C459.871 58.3823 460.183 57.9763 460.585 57.6963C460.995 57.4163 461.481 57.2763 462.041 57.2763C462.591 57.2763 463.067 57.3883 463.469 57.6123C463.879 57.8363 464.192 58.1863 464.407 58.6623C464.631 59.129 464.743 59.745 464.743 60.5103V60.8603H463.413ZM471.54 64.4443L471.484 63.1423V54.6443H472.8V64.4443H471.54ZM469.188 64.6123C468.554 64.6123 467.998 64.4583 467.522 64.1503C467.056 63.8423 466.687 63.413 466.416 62.8623C466.155 62.3117 466.024 61.6723 466.024 60.9443C466.024 60.207 466.155 59.5677 466.416 59.0263C466.687 58.4757 467.056 58.0463 467.522 57.7383C467.998 57.4303 468.554 57.2763 469.188 57.2763C469.776 57.2763 470.285 57.4303 470.714 57.7383C471.153 58.0463 471.489 58.4757 471.722 59.0263C471.956 59.5677 472.072 60.207 472.072 60.9443C472.072 61.6723 471.956 62.3117 471.722 62.8623C471.489 63.413 471.153 63.8423 470.714 64.1503C470.285 64.4583 469.776 64.6123 469.188 64.6123ZM469.496 63.4083C469.888 63.4083 470.234 63.3057 470.532 63.1003C470.831 62.8857 471.064 62.5963 471.232 62.2323C471.4 61.859 471.484 61.4297 471.484 60.9443C471.484 60.459 471.4 60.0343 471.232 59.6703C471.064 59.297 470.831 59.0077 470.532 58.8023C470.234 58.5877 469.884 58.4803 469.482 58.4803C469.072 58.4803 468.708 58.5877 468.39 58.8023C468.073 59.0077 467.826 59.297 467.648 59.6703C467.471 60.0343 467.382 60.459 467.382 60.9443C467.382 61.4297 467.471 61.859 467.648 62.2323C467.835 62.5963 468.087 62.8857 468.404 63.1003C468.722 63.3057 469.086 63.4083 469.496 63.4083ZM119.088 81.6123C118.388 81.6123 117.772 81.4583 117.24 81.1503C116.708 80.833 116.288 80.399 115.98 79.8483C115.681 79.2977 115.532 78.663 115.532 77.9443C115.532 77.2257 115.681 76.591 115.98 76.0403C116.279 75.4897 116.694 75.0603 117.226 74.7523C117.758 74.435 118.369 74.2763 119.06 74.2763C119.751 74.2763 120.362 74.435 120.894 74.7523C121.426 75.0603 121.841 75.4897 122.14 76.0403C122.439 76.591 122.588 77.2257 122.588 77.9443C122.588 78.663 122.439 79.2977 122.14 79.8483C121.841 80.399 121.426 80.833 120.894 81.1503C120.371 81.4583 119.769 81.6123 119.088 81.6123ZM119.088 80.3943C119.508 80.3943 119.881 80.2917 120.208 80.0863C120.535 79.8717 120.787 79.5823 120.964 79.2183C121.151 78.8543 121.244 78.4297 121.244 77.9443C121.244 77.459 121.151 77.0343 120.964 76.6703C120.787 76.3063 120.53 76.0217 120.194 75.8163C119.858 75.6017 119.48 75.4943 119.06 75.4943C118.631 75.4943 118.253 75.6017 117.926 75.8163C117.599 76.0217 117.343 76.3063 117.156 76.6703C116.969 77.0343 116.876 77.459 116.876 77.9443C116.876 78.4297 116.969 78.8543 117.156 79.2183C117.343 79.5823 117.604 79.8717 117.94 80.0863C118.276 80.2917 118.659 80.3943 119.088 80.3943ZM124.115 84.2443V74.4443H125.361L125.445 75.7323V84.2443H124.115ZM127.741 81.6123C127.153 81.6123 126.64 81.4583 126.201 81.1503C125.772 80.8423 125.44 80.413 125.207 79.8623C124.974 79.3117 124.857 78.6723 124.857 77.9443C124.857 77.207 124.974 76.5677 125.207 76.0263C125.44 75.4757 125.772 75.0463 126.201 74.7383C126.64 74.4303 127.153 74.2763 127.741 74.2763C128.366 74.2763 128.917 74.4303 129.393 74.7383C129.869 75.0463 130.238 75.4757 130.499 76.0263C130.77 76.5677 130.905 77.207 130.905 77.9443C130.905 78.6723 130.77 79.3117 130.499 79.8623C130.238 80.413 129.869 80.8423 129.393 81.1503C128.917 81.4583 128.366 81.6123 127.741 81.6123ZM127.419 80.4083C127.839 80.4083 128.208 80.3057 128.525 80.1003C128.842 79.8857 129.09 79.5963 129.267 79.2323C129.454 78.859 129.547 78.4297 129.547 77.9443C129.547 77.459 129.458 77.0343 129.281 76.6703C129.104 76.297 128.856 76.0077 128.539 75.8023C128.222 75.5877 127.853 75.4803 127.433 75.4803C127.05 75.4803 126.705 75.5877 126.397 75.8023C126.098 76.0077 125.865 76.297 125.697 76.6703C125.529 77.0437 125.445 77.4683 125.445 77.9443C125.445 78.4297 125.529 78.859 125.697 79.2323C125.865 79.5963 126.098 79.8857 126.397 80.1003C126.696 80.3057 127.036 80.4083 127.419 80.4083ZM135.06 81.6123C134.36 81.6123 133.818 81.435 133.436 81.0803C133.053 80.7163 132.862 80.1983 132.862 79.5263V72.2603H134.192V79.3303C134.192 79.6757 134.276 79.9417 134.444 80.1283C134.621 80.3057 134.873 80.3943 135.2 80.3943C135.293 80.3943 135.396 80.3757 135.508 80.3383C135.62 80.301 135.755 80.2263 135.914 80.1143L136.418 81.1503C136.175 81.309 135.942 81.4257 135.718 81.5003C135.503 81.575 135.284 81.6123 135.06 81.6123ZM131.672 75.5923V74.4443H136.18V75.5923H131.672ZM140.237 81.6123C139.742 81.6123 139.299 81.5377 138.907 81.3883C138.524 81.239 138.197 81.0383 137.927 80.7863C137.665 80.5343 137.469 80.2497 137.339 79.9323L138.487 79.4283C138.636 79.7177 138.86 79.9557 139.159 80.1423C139.457 80.329 139.789 80.4223 140.153 80.4223C140.554 80.4223 140.885 80.3477 141.147 80.1983C141.408 80.049 141.539 79.839 141.539 79.5683C141.539 79.307 141.441 79.1017 141.245 78.9523C141.049 78.803 140.764 78.6817 140.391 78.5883L139.733 78.4203C139.079 78.243 138.571 77.977 138.207 77.6223C137.852 77.2677 137.675 76.8663 137.675 76.4183C137.675 75.737 137.894 75.2097 138.333 74.8363C138.771 74.463 139.42 74.2763 140.279 74.2763C140.699 74.2763 141.081 74.337 141.427 74.4583C141.781 74.5797 142.08 74.7523 142.323 74.9763C142.575 75.2003 142.752 75.4663 142.855 75.7743L141.735 76.2783C141.623 75.9983 141.431 75.793 141.161 75.6623C140.89 75.5223 140.573 75.4523 140.209 75.4523C139.835 75.4523 139.541 75.5363 139.327 75.7043C139.112 75.863 139.005 76.087 139.005 76.3763C139.005 76.535 139.093 76.689 139.271 76.8383C139.457 76.9783 139.728 77.095 140.083 77.1883L140.839 77.3703C141.296 77.4823 141.674 77.655 141.973 77.8883C142.271 78.1123 142.495 78.369 142.645 78.6583C142.794 78.9383 142.869 79.2323 142.869 79.5403C142.869 79.9603 142.752 80.329 142.519 80.6463C142.295 80.9543 141.982 81.1923 141.581 81.3603C141.189 81.5283 140.741 81.6123 140.237 81.6123ZM147.754 81.4443V74.4443H149.084V81.4443H147.754ZM148.426 72.9603C148.211 72.9603 148.025 72.881 147.866 72.7223C147.707 72.5543 147.628 72.363 147.628 72.1483C147.628 71.9243 147.707 71.7377 147.866 71.5883C148.025 71.4297 148.211 71.3503 148.426 71.3503C148.65 71.3503 148.837 71.4297 148.986 71.5883C149.145 71.7377 149.224 71.9243 149.224 72.1483C149.224 72.363 149.145 72.5543 148.986 72.7223C148.837 72.881 148.65 72.9603 148.426 72.9603ZM151.033 81.4443V74.4443H152.279L152.363 75.7323V81.4443H151.033ZM155.877 81.4443V77.8603H157.207V81.4443H155.877ZM155.877 77.8603C155.877 77.2257 155.803 76.745 155.653 76.4183C155.513 76.0823 155.313 75.849 155.051 75.7183C154.799 75.5877 154.505 75.5177 154.169 75.5083C153.6 75.5083 153.157 75.709 152.839 76.1103C152.522 76.5117 152.363 77.0763 152.363 77.8043H151.789C151.789 77.067 151.897 76.437 152.111 75.9143C152.335 75.3823 152.648 74.9763 153.049 74.6963C153.46 74.4163 153.945 74.2763 154.505 74.2763C155.056 74.2763 155.532 74.3883 155.933 74.6123C156.344 74.8363 156.657 75.1863 156.871 75.6623C157.095 76.129 157.207 76.745 157.207 77.5103V77.8603H155.877ZM161.583 81.6123C160.883 81.6123 160.342 81.435 159.959 81.0803C159.576 80.7163 159.385 80.1983 159.385 79.5263V72.2603H160.715V79.3303C160.715 79.6757 160.799 79.9417 160.967 80.1283C161.144 80.3057 161.396 80.3943 161.723 80.3943C161.816 80.3943 161.919 80.3757 162.031 80.3383C162.143 80.301 162.278 80.2263 162.437 80.1143L162.941 81.1503C162.698 81.309 162.465 81.4257 162.241 81.5003C162.026 81.575 161.807 81.6123 161.583 81.6123ZM158.195 75.5923V74.4443H162.703V75.5923H158.195ZM167.363 81.6123C166.663 81.6123 166.047 81.4583 165.515 81.1503C164.983 80.833 164.563 80.399 164.255 79.8483C163.957 79.2977 163.807 78.663 163.807 77.9443C163.807 77.2257 163.957 76.591 164.255 76.0403C164.554 75.4897 164.969 75.0603 165.501 74.7523C166.033 74.435 166.645 74.2763 167.335 74.2763C168.026 74.2763 168.637 74.435 169.169 74.7523C169.701 75.0603 170.117 75.4897 170.415 76.0403C170.714 76.591 170.863 77.2257 170.863 77.9443C170.863 78.663 170.714 79.2977 170.415 79.8483C170.117 80.399 169.701 80.833 169.169 81.1503C168.647 81.4583 168.045 81.6123 167.363 81.6123ZM167.363 80.3943C167.783 80.3943 168.157 80.2917 168.483 80.0863C168.81 79.8717 169.062 79.5823 169.239 79.2183C169.426 78.8543 169.519 78.4297 169.519 77.9443C169.519 77.459 169.426 77.0343 169.239 76.6703C169.062 76.3063 168.805 76.0217 168.469 75.8163C168.133 75.6017 167.755 75.4943 167.335 75.4943C166.906 75.4943 166.528 75.6017 166.201 75.8163C165.875 76.0217 165.618 76.3063 165.431 76.6703C165.245 77.0343 165.151 77.459 165.151 77.9443C165.151 78.4297 165.245 78.8543 165.431 79.2183C165.618 79.5823 165.879 79.8717 166.215 80.0863C166.551 80.2917 166.934 80.3943 167.363 80.3943ZM178.44 81.6123C177.74 81.6123 177.199 81.435 176.816 81.0803C176.434 80.7163 176.242 80.1983 176.242 79.5263V72.2603H177.572V79.3303C177.572 79.6757 177.656 79.9417 177.824 80.1283C178.002 80.3057 178.254 80.3943 178.58 80.3943C178.674 80.3943 178.776 80.3757 178.888 80.3383C179 80.301 179.136 80.2263 179.294 80.1143L179.798 81.1503C179.556 81.309 179.322 81.4257 179.098 81.5003C178.884 81.575 178.664 81.6123 178.44 81.6123ZM175.052 75.5923V74.4443H179.56V75.5923H175.052ZM181.126 81.4443V71.6443H182.442V81.4443H181.126ZM185.97 81.4443V77.8603H187.286V81.4443H185.97ZM185.97 77.8603C185.97 77.2257 185.895 76.745 185.746 76.4183C185.596 76.0823 185.391 75.849 185.13 75.7183C184.878 75.5877 184.588 75.5177 184.262 75.5083C183.683 75.5083 183.235 75.709 182.918 76.1103C182.6 76.5117 182.442 77.0763 182.442 77.8043H181.882C181.882 77.067 181.989 76.437 182.204 75.9143C182.428 75.3823 182.74 74.9763 183.142 74.6963C183.552 74.4163 184.038 74.2763 184.598 74.2763C185.148 74.2763 185.624 74.3883 186.026 74.6123C186.427 74.8363 186.74 75.1863 186.964 75.6623C187.188 76.129 187.295 76.745 187.286 77.5103V77.8603H185.97ZM192.053 81.6123C191.372 81.6123 190.77 81.4583 190.247 81.1503C189.724 80.833 189.314 80.399 189.015 79.8483C188.716 79.2977 188.567 78.663 188.567 77.9443C188.567 77.2257 188.716 76.591 189.015 76.0403C189.314 75.4897 189.724 75.0603 190.247 74.7523C190.779 74.435 191.386 74.2763 192.067 74.2763C192.711 74.2763 193.276 74.4397 193.761 74.7663C194.246 75.0837 194.624 75.541 194.895 76.1383C195.175 76.7263 195.315 77.4217 195.315 78.2243H189.659L189.911 78.0143C189.911 78.509 190.009 78.9383 190.205 79.3023C190.401 79.6663 190.667 79.9463 191.003 80.1423C191.339 80.329 191.722 80.4223 192.151 80.4223C192.618 80.4223 193.005 80.315 193.313 80.1003C193.63 79.8763 193.878 79.5963 194.055 79.2603L195.203 79.7923C195.016 80.1563 194.774 80.4783 194.475 80.7583C194.176 81.029 193.822 81.239 193.411 81.3883C193.01 81.5377 192.557 81.6123 192.053 81.6123ZM189.995 77.3843L189.729 77.1743H194.153L193.901 77.3843C193.901 76.9737 193.817 76.6237 193.649 76.3343C193.481 76.0357 193.257 75.8117 192.977 75.6623C192.697 75.5037 192.384 75.4243 192.039 75.4243C191.703 75.4243 191.376 75.5037 191.059 75.6623C190.751 75.8117 190.494 76.031 190.289 76.3203C190.093 76.6097 189.995 76.9643 189.995 77.3843ZM200.117 84.2443V74.4443H201.363L201.447 75.7323V84.2443H200.117ZM203.743 81.6123C203.155 81.6123 202.642 81.4583 202.203 81.1503C201.774 80.8423 201.442 80.413 201.209 79.8623C200.976 79.3117 200.859 78.6723 200.859 77.9443C200.859 77.207 200.976 76.5677 201.209 76.0263C201.442 75.4757 201.774 75.0463 202.203 74.7383C202.642 74.4303 203.155 74.2763 203.743 74.2763C204.368 74.2763 204.919 74.4303 205.395 74.7383C205.871 75.0463 206.24 75.4757 206.501 76.0263C206.772 76.5677 206.907 77.207 206.907 77.9443C206.907 78.6723 206.772 79.3117 206.501 79.8623C206.24 80.413 205.871 80.8423 205.395 81.1503C204.919 81.4583 204.368 81.6123 203.743 81.6123ZM203.421 80.4083C203.841 80.4083 204.21 80.3057 204.527 80.1003C204.844 79.8857 205.092 79.5963 205.269 79.2323C205.456 78.859 205.549 78.4297 205.549 77.9443C205.549 77.459 205.46 77.0343 205.283 76.6703C205.106 76.297 204.858 76.0077 204.541 75.8023C204.224 75.5877 203.855 75.4803 203.435 75.4803C203.052 75.4803 202.707 75.5877 202.399 75.8023C202.1 76.0077 201.867 76.297 201.699 76.6703C201.531 77.0437 201.447 77.4683 201.447 77.9443C201.447 78.4297 201.531 78.859 201.699 79.2323C201.867 79.5963 202.1 79.8857 202.399 80.1003C202.698 80.3057 203.038 80.4083 203.421 80.4083ZM209.172 77.6783C209.172 76.9223 209.316 76.3063 209.606 75.8303C209.895 75.3543 210.268 74.9997 210.726 74.7663C211.183 74.533 211.664 74.4163 212.168 74.4163V75.6763C211.748 75.6763 211.346 75.7417 210.964 75.8723C210.59 75.9937 210.282 76.199 210.04 76.4883C209.806 76.7683 209.69 77.151 209.69 77.6363L209.172 77.6783ZM208.36 81.4443V74.4443H209.69V81.4443H208.36ZM216.404 81.6123C215.704 81.6123 215.088 81.4583 214.556 81.1503C214.024 80.833 213.604 80.399 213.296 79.8483C212.998 79.2977 212.848 78.663 212.848 77.9443C212.848 77.2257 212.998 76.591 213.296 76.0403C213.595 75.4897 214.01 75.0603 214.542 74.7523C215.074 74.435 215.686 74.2763 216.376 74.2763C217.067 74.2763 217.678 74.435 218.21 74.7523C218.742 75.0603 219.158 75.4897 219.456 76.0403C219.755 76.591 219.904 77.2257 219.904 77.9443C219.904 78.663 219.755 79.2977 219.456 79.8483C219.158 80.399 218.742 80.833 218.21 81.1503C217.688 81.4583 217.086 81.6123 216.404 81.6123ZM216.404 80.3943C216.824 80.3943 217.198 80.2917 217.524 80.0863C217.851 79.8717 218.103 79.5823 218.28 79.2183C218.467 78.8543 218.56 78.4297 218.56 77.9443C218.56 77.459 218.467 77.0343 218.28 76.6703C218.103 76.3063 217.846 76.0217 217.51 75.8163C217.174 75.6017 216.796 75.4943 216.376 75.4943C215.947 75.4943 215.569 75.6017 215.242 75.8163C214.916 76.0217 214.659 76.3063 214.472 76.6703C214.286 77.0343 214.192 77.459 214.192 77.9443C214.192 78.4297 214.286 78.8543 214.472 79.2183C214.659 79.5823 214.92 79.8717 215.256 80.0863C215.592 80.2917 215.975 80.3943 216.404 80.3943ZM224.26 84.4263C223.793 84.4263 223.368 84.3797 222.986 84.2863C222.603 84.2023 222.281 84.1043 222.02 83.9923C221.758 83.8803 221.562 83.7823 221.432 83.6983L221.936 82.6203C222.057 82.695 222.23 82.779 222.454 82.8723C222.678 82.975 222.939 83.059 223.238 83.1243C223.536 83.199 223.868 83.2363 224.232 83.2363C224.661 83.2363 225.044 83.1477 225.38 82.9703C225.716 82.8023 225.977 82.5363 226.164 82.1723C226.36 81.8083 226.458 81.3417 226.458 80.7723V74.4443H227.788V80.7443C227.788 81.547 227.634 82.219 227.326 82.7603C227.027 83.311 226.612 83.7263 226.08 84.0063C225.557 84.2863 224.95 84.4263 224.26 84.4263ZM224.133 81.3463C223.499 81.3463 222.944 81.2017 222.468 80.9123C222.001 80.6137 221.632 80.203 221.361 79.6803C221.1 79.1483 220.97 78.537 220.97 77.8463C220.97 77.1277 221.1 76.5023 221.361 75.9703C221.632 75.4383 222.001 75.023 222.468 74.7243C222.944 74.4257 223.499 74.2763 224.133 74.2763C224.712 74.2763 225.216 74.4257 225.646 74.7243C226.084 75.023 226.42 75.443 226.654 75.9843C226.896 76.5163 227.018 77.1417 227.018 77.8603C227.018 78.551 226.896 79.1623 226.654 79.6943C226.42 80.217 226.084 80.623 225.646 80.9123C225.216 81.2017 224.712 81.3463 224.133 81.3463ZM224.47 80.2263C224.862 80.2263 225.202 80.1237 225.492 79.9183C225.781 79.7037 226.01 79.419 226.178 79.0643C226.346 78.7003 226.43 78.285 226.43 77.8183C226.43 77.3517 226.346 76.941 226.178 76.5863C226.01 76.2317 225.776 75.9563 225.478 75.7603C225.188 75.555 224.848 75.4523 224.456 75.4523C224.045 75.4523 223.681 75.555 223.364 75.7603C223.056 75.9563 222.813 76.2317 222.636 76.5863C222.458 76.941 222.37 77.3517 222.37 77.8183C222.37 78.285 222.458 78.7003 222.636 79.0643C222.822 79.419 223.07 79.7037 223.378 79.9183C223.695 80.1237 224.059 80.2263 224.47 80.2263ZM230.445 77.6783C230.445 76.9223 230.59 76.3063 230.879 75.8303C231.168 75.3543 231.542 74.9997 231.999 74.7663C232.456 74.533 232.937 74.4163 233.441 74.4163V75.6763C233.021 75.6763 232.62 75.7417 232.237 75.8723C231.864 75.9937 231.556 76.199 231.313 76.4883C231.08 76.7683 230.963 77.151 230.963 77.6363L230.445 77.6783ZM229.633 81.4443V74.4443H230.963V81.4443H229.633ZM238.812 81.4443L238.756 80.2263V77.7903C238.756 77.277 238.695 76.8477 238.574 76.5023C238.462 76.157 238.285 75.8957 238.042 75.7183C237.809 75.541 237.496 75.4523 237.104 75.4523C236.74 75.4523 236.423 75.527 236.152 75.6763C235.891 75.8257 235.671 76.059 235.494 76.3763L234.318 75.9283C234.486 75.611 234.696 75.331 234.948 75.0883C235.2 74.8363 235.503 74.6403 235.858 74.5003C236.213 74.351 236.628 74.2763 237.104 74.2763C237.767 74.2763 238.317 74.407 238.756 74.6683C239.195 74.9297 239.521 75.3077 239.736 75.8023C239.96 76.297 240.067 76.9083 240.058 77.6363L240.044 81.4443H238.812ZM236.754 81.6123C235.923 81.6123 235.275 81.4257 234.808 81.0523C234.351 80.6697 234.122 80.1423 234.122 79.4703C234.122 78.7517 234.36 78.2057 234.836 77.8323C235.321 77.4497 235.993 77.2583 236.852 77.2583H238.798V78.3083H237.216C236.572 78.3083 236.119 78.411 235.858 78.6163C235.597 78.8123 235.466 79.0877 235.466 79.4423C235.466 79.769 235.587 80.0257 235.83 80.2123C236.082 80.3897 236.427 80.4783 236.866 80.4783C237.249 80.4783 237.58 80.399 237.86 80.2403C238.14 80.0723 238.359 79.839 238.518 79.5403C238.677 79.2417 238.756 78.901 238.756 78.5183H239.218C239.218 79.4703 239.013 80.2263 238.602 80.7863C238.201 81.337 237.585 81.6123 236.754 81.6123ZM241.733 81.4443V74.4443H242.979L243.035 75.4103C243.259 75.037 243.539 74.757 243.875 74.5703C244.211 74.3743 244.598 74.2763 245.037 74.2763C245.597 74.2763 246.073 74.407 246.465 74.6683C246.857 74.9203 247.141 75.3077 247.319 75.8303C247.524 75.3263 247.813 74.9437 248.187 74.6823C248.56 74.4117 249.003 74.2763 249.517 74.2763C250.31 74.2763 250.931 74.5377 251.379 75.0603C251.827 75.5737 252.046 76.367 252.037 77.4403V81.4443H250.721V77.8603C250.721 77.2257 250.651 76.745 250.511 76.4183C250.38 76.0823 250.203 75.849 249.979 75.7183C249.755 75.5877 249.493 75.5177 249.195 75.5083C248.672 75.5083 248.266 75.709 247.977 76.1103C247.697 76.5117 247.557 77.0763 247.557 77.8043V81.4443H246.227V77.8603C246.227 77.2257 246.161 76.745 246.031 76.4183C245.9 76.0823 245.718 75.849 245.485 75.7183C245.261 75.5877 244.999 75.5177 244.701 75.5083C244.178 75.5083 243.772 75.709 243.483 76.1103C243.203 76.5117 243.063 77.0763 243.063 77.8043V81.4443H241.733ZM261.914 81.4443L261.83 80.1563V74.4443H263.146V81.4443H261.914ZM256.986 78.0283V74.4443H258.316V78.0283H256.986ZM258.316 78.0283C258.316 78.6537 258.386 79.1343 258.526 79.4703C258.676 79.8063 258.881 80.0397 259.142 80.1703C259.404 80.301 259.698 80.371 260.024 80.3803C260.594 80.3803 261.037 80.1797 261.354 79.7783C261.672 79.377 261.83 78.8123 261.83 78.0843H262.404C262.404 78.8217 262.292 79.4563 262.068 79.9883C261.854 80.511 261.546 80.9123 261.144 81.1923C260.743 81.4723 260.253 81.6123 259.674 81.6123C259.133 81.6123 258.657 81.5003 258.246 81.2763C257.845 81.0523 257.532 80.7023 257.308 80.2263C257.094 79.7503 256.986 79.1343 256.986 78.3783V78.0283H258.316ZM265.002 81.4443V74.4443H266.248L266.332 75.7323V81.4443H265.002ZM269.846 81.4443V77.8603H271.176V81.4443H269.846ZM269.846 77.8603C269.846 77.2257 269.771 76.745 269.622 76.4183C269.482 76.0823 269.281 75.849 269.02 75.7183C268.768 75.5877 268.474 75.5177 268.138 75.5083C267.569 75.5083 267.125 75.709 266.808 76.1103C266.491 76.5117 266.332 77.0763 266.332 77.8043H265.758C265.758 77.067 265.865 76.437 266.08 75.9143C266.304 75.3823 266.617 74.9763 267.018 74.6963C267.429 74.4163 267.914 74.2763 268.474 74.2763C269.025 74.2763 269.501 74.3883 269.902 74.6123C270.313 74.8363 270.625 75.1863 270.84 75.6623C271.064 76.129 271.176 76.745 271.176 77.5103V77.8603H269.846ZM274.138 79.3303L273.312 78.4203L276.994 74.4443H278.618L274.138 79.3303ZM272.85 81.4443V71.6443H274.18V81.4443H272.85ZM277.288 81.4443L274.712 77.6083L275.58 76.6843L278.884 81.4443H277.288ZM279.85 81.4443V74.4443H281.096L281.18 75.7323V81.4443H279.85ZM284.694 81.4443V77.8603H286.024V81.4443H284.694ZM284.694 77.8603C284.694 77.2257 284.619 76.745 284.47 76.4183C284.33 76.0823 284.129 75.849 283.868 75.7183C283.616 75.5877 283.322 75.5177 282.986 75.5083C282.416 75.5083 281.973 75.709 281.656 76.1103C281.338 76.5117 281.18 77.0763 281.18 77.8043H280.606C280.606 77.067 280.713 76.437 280.928 75.9143C281.152 75.3823 281.464 74.9763 281.866 74.6963C282.276 74.4163 282.762 74.2763 283.322 74.2763C283.872 74.2763 284.348 74.3883 284.75 74.6123C285.16 74.8363 285.473 75.1863 285.688 75.6623C285.912 76.129 286.024 76.745 286.024 77.5103V77.8603H284.694ZM290.861 81.6123C290.161 81.6123 289.545 81.4583 289.013 81.1503C288.481 80.833 288.061 80.399 287.753 79.8483C287.455 79.2977 287.305 78.663 287.305 77.9443C287.305 77.2257 287.455 76.591 287.753 76.0403C288.052 75.4897 288.467 75.0603 288.999 74.7523C289.531 74.435 290.143 74.2763 290.833 74.2763C291.524 74.2763 292.135 74.435 292.667 74.7523C293.199 75.0603 293.615 75.4897 293.913 76.0403C294.212 76.591 294.361 77.2257 294.361 77.9443C294.361 78.663 294.212 79.2977 293.913 79.8483C293.615 80.399 293.199 80.833 292.667 81.1503C292.145 81.4583 291.543 81.6123 290.861 81.6123ZM290.861 80.3943C291.281 80.3943 291.655 80.2917 291.981 80.0863C292.308 79.8717 292.56 79.5823 292.737 79.2183C292.924 78.8543 293.017 78.4297 293.017 77.9443C293.017 77.459 292.924 77.0343 292.737 76.6703C292.56 76.3063 292.303 76.0217 291.967 75.8163C291.631 75.6017 291.253 75.4943 290.833 75.4943C290.404 75.4943 290.026 75.6017 289.699 75.8163C289.373 76.0217 289.116 76.3063 288.929 76.6703C288.743 77.0343 288.649 77.459 288.649 77.9443C288.649 78.4297 288.743 78.8543 288.929 79.2183C289.116 79.5823 289.377 79.8717 289.713 80.0863C290.049 80.2917 290.432 80.3943 290.861 80.3943ZM302.012 81.4443L304.378 74.4443H305.708L303.328 81.4443H302.012ZM297.294 81.4443L299.618 74.4443H300.822L298.526 81.4443H297.294ZM297.196 81.4443L294.816 74.4443H296.16L298.47 81.4443H297.196ZM302.012 81.4443L299.716 74.4443H300.934L303.244 81.4443H302.012ZM306.854 81.4443V74.4443H308.184V81.4443H306.854ZM307.526 72.9603C307.311 72.9603 307.124 72.881 306.966 72.7223C306.807 72.5543 306.728 72.363 306.728 72.1483C306.728 71.9243 306.807 71.7377 306.966 71.5883C307.124 71.4297 307.311 71.3503 307.526 71.3503C307.75 71.3503 307.936 71.4297 308.086 71.5883C308.244 71.7377 308.324 71.9243 308.324 72.1483C308.324 72.363 308.244 72.5543 308.086 72.7223C307.936 72.881 307.75 72.9603 307.526 72.9603ZM310.133 81.4443V74.4443H311.379L311.463 75.7323V81.4443H310.133ZM314.977 81.4443V77.8603H316.307V81.4443H314.977ZM314.977 77.8603C314.977 77.2257 314.902 76.745 314.753 76.4183C314.613 76.0823 314.412 75.849 314.151 75.7183C313.899 75.5877 313.605 75.5177 313.269 75.5083C312.7 75.5083 312.256 75.709 311.939 76.1103C311.622 76.5117 311.463 77.0763 311.463 77.8043H310.889C310.889 77.067 310.996 76.437 311.211 75.9143C311.435 75.3823 311.748 74.9763 312.149 74.6963C312.56 74.4163 313.045 74.2763 313.605 74.2763C314.156 74.2763 314.632 74.3883 315.033 74.6123C315.444 74.8363 315.756 75.1863 315.971 75.6623C316.195 76.129 316.307 76.745 316.307 77.5103V77.8603H314.977ZM320.879 84.4263C320.412 84.4263 319.987 84.3797 319.605 84.2863C319.222 84.2023 318.9 84.1043 318.639 83.9923C318.377 83.8803 318.181 83.7823 318.051 83.6983L318.555 82.6203C318.676 82.695 318.849 82.779 319.073 82.8723C319.297 82.975 319.558 83.059 319.857 83.1243C320.155 83.199 320.487 83.2363 320.851 83.2363C321.28 83.2363 321.663 83.1477 321.999 82.9703C322.335 82.8023 322.596 82.5363 322.783 82.1723C322.979 81.8083 323.077 81.3417 323.077 80.7723V74.4443H324.407V80.7443C324.407 81.547 324.253 82.219 323.945 82.7603C323.646 83.311 323.231 83.7263 322.699 84.0063C322.176 84.2863 321.569 84.4263 320.879 84.4263ZM320.753 81.3463C320.118 81.3463 319.563 81.2017 319.087 80.9123C318.62 80.6137 318.251 80.203 317.981 79.6803C317.719 79.1483 317.589 78.537 317.589 77.8463C317.589 77.1277 317.719 76.5023 317.981 75.9703C318.251 75.4383 318.62 75.023 319.087 74.7243C319.563 74.4257 320.118 74.2763 320.753 74.2763C321.331 74.2763 321.835 74.4257 322.265 74.7243C322.703 75.023 323.039 75.443 323.273 75.9843C323.515 76.5163 323.637 77.1417 323.637 77.8603C323.637 78.551 323.515 79.1623 323.273 79.6943C323.039 80.217 322.703 80.623 322.265 80.9123C321.835 81.2017 321.331 81.3463 320.753 81.3463ZM321.089 80.2263C321.481 80.2263 321.821 80.1237 322.111 79.9183C322.4 79.7037 322.629 79.419 322.797 79.0643C322.965 78.7003 323.049 78.285 323.049 77.8183C323.049 77.3517 322.965 76.941 322.797 76.5863C322.629 76.2317 322.395 75.9563 322.097 75.7603C321.807 75.555 321.467 75.4523 321.075 75.4523C320.664 75.4523 320.3 75.555 319.983 75.7603C319.675 75.9563 319.432 76.2317 319.255 76.5863C319.077 76.941 318.989 77.3517 318.989 77.8183C318.989 78.285 319.077 78.7003 319.255 79.0643C319.441 79.419 319.689 79.7037 319.997 79.9183C320.314 80.1237 320.678 80.2263 321.089 80.2263ZM326.252 81.4443V71.6443H327.582V81.4443H326.252ZM330.278 84.4123C330.073 84.4123 329.844 84.375 329.592 84.3003C329.349 84.2257 329.097 84.1277 328.836 84.0063L329.326 82.9143C329.531 83.0077 329.709 83.0777 329.858 83.1243C330.017 83.171 330.143 83.1943 330.236 83.1943C330.469 83.1943 330.665 83.129 330.824 82.9983C330.992 82.8677 331.127 82.6857 331.23 82.4523L332.042 80.5343L334.534 74.4443H335.962L332.644 82.3123C332.467 82.7417 332.28 83.115 332.084 83.4323C331.888 83.7497 331.645 83.9923 331.356 84.1603C331.076 84.3283 330.717 84.4123 330.278 84.4123ZM331.678 81.4443L328.612 74.4443H330.026L332.56 80.5203L332.966 81.4443H331.678ZM337.587 81.6403C337.353 81.6403 337.148 81.5563 336.971 81.3883C336.803 81.2203 336.719 81.015 336.719 80.7723C336.719 80.5297 336.803 80.3243 336.971 80.1563C337.148 79.9883 337.353 79.9043 337.587 79.9043C337.829 79.9043 338.035 79.9883 338.203 80.1563C338.38 80.3243 338.469 80.5297 338.469 80.7723C338.469 81.015 338.38 81.2203 338.203 81.3883C338.035 81.5563 337.829 81.6403 337.587 81.6403Z" fill="#1A6B83"/>
<defs>
<clipPath id="clip0_484_2944">
<rect x="30" y="30.4443" width="55" height="55" rx="27.5" fill="white"/>
</clipPath>
</defs>
</svg>
