<svg width="23" height="21" viewBox="0 0 23 21" fill="none" xmlns="http://www.w3.org/2000/svg">
<path d="M15.1428 6.99365C16.7341 6.99365 18.2602 7.62579 19.3855 8.75101C20.5107 9.87623 21.1428 11.4024 21.1428 12.9937V19.9937H17.1428V12.9937C17.1428 12.4632 16.9321 11.9545 16.557 11.5794C16.182 11.2044 15.6733 10.9937 15.1428 10.9937C14.6124 10.9937 14.1037 11.2044 13.7286 11.5794C13.3535 11.9545 13.1428 12.4632 13.1428 12.9937V19.9937H9.14282V12.9937C9.14282 11.4024 9.77496 9.87623 10.9002 8.75101C12.0254 7.62579 13.5515 6.99365 15.1428 6.99365ZM1.14282 7.99365H5.14282V19.9937H1.14282V7.99365Z" stroke="#4D4D4D" stroke-width="2" stroke-linecap="round" stroke-linejoin="round"/>
<path d="M3.14282 4.99365C4.24739 4.99365 5.14282 4.09822 5.14282 2.99365C5.14282 1.88908 4.24739 0.993652 3.14282 0.993652C2.03825 0.993652 1.14282 1.88908 1.14282 2.99365C1.14282 4.09822 2.03825 4.99365 3.14282 4.99365Z" stroke="#4D4D4D" stroke-width="2" stroke-linecap="round" stroke-linejoin="round"/>
</svg>
