<svg width="110" height="48" viewBox="0 0 110 48" fill="none" xmlns="http://www.w3.org/2000/svg">
<path d="M9.16368 7.67954C13.0239 2.5953 16.5518 1.86055 18.151 2.40811C18.5719 2.55226 19.0852 2.59019 19.4713 2.36895C23.8619 -0.14713 33.0494 2.94984 35.1338 9.7321C36.3808 13.7896 40.4658 17.3579 40.1523 23.0587C39.851 28.5375 36.1957 28.5126 36.1957 34.0238C36.1957 39.535 31.1074 43.9863 24.8251 42.7704C18.5428 41.5545 16.1357 48.7533 7.70681 45.7692C2.56209 43.9478 5.69905 38.0769 3.0836 35.6482C0.468149 33.2195 -1.85981 30.5616 2.18723 24.9734C6.58227 18.9047 4.60525 13.6833 9.16368 7.67954Z" fill="#181817"/>
<path d="M16.4721 29.8622C10.556 27.9172 10.4664 20.5096 11.8309 17.7807C14.3324 17.4395 17.4593 15.6771 18.4325 10.864C19.1081 15.2791 23.0879 18.5198 29.0573 18.5198C30.4786 14.8812 34.8744 15.4202 34.2511 19.3042C33.6821 22.8491 31.7164 23.1883 30.8047 22.9147C30.5312 25.5406 24.4589 32.4881 16.4721 29.8622Z" fill="#F6F5F4"/>
<path d="M32.1125 18.5172L31.0185 20.4866M30.7449 18.8454L32.4408 20.2678" stroke="#181817" stroke-width="1.35666" stroke-linecap="round" stroke-linejoin="round"/>
<path d="M17.8358 17.2457C17.9099 18.3204 17.8358 20.0252 17.0575 21.137C16.3679 22.1222 13.4996 23.583 17.0575 24.4725M17.0575 26.4737C17.5021 27.252 19.7258 27.6967 20.3929 25.6954M21.0601 18.691C21.0601 18.9808 21.0925 19.3375 21.1746 19.6917M26.1745 18.691C26.0106 19.1008 25.4843 19.8971 24.5066 20.5368M15.8346 18.4687C15.4692 19.1751 14.6715 20.2594 13.6625 20.6923M10.2755 17.8016C10.0902 18.4316 10.1644 19.8918 11.9433 20.6923C12.0553 20.7427 12.1665 20.7822 12.2766 20.8117M24.5066 20.5368C24.1578 20.765 23.7515 20.9733 23.2838 21.137C22.8016 21.3058 22.4174 21.2823 22.1136 21.137M24.5066 20.5368C24.5066 20.8117 24.7289 21.137 24.5066 21.8041M22.1136 21.137C22.0589 21.3594 22.1136 21.4706 21.5047 22.1376M22.1136 21.137C21.5987 20.8908 21.3145 20.2949 21.1746 19.6917M21.1746 19.6917C20.914 19.8028 20.9488 20.1364 20.0593 20.3587M13.6625 20.6923C13.8332 20.8117 13.9443 20.8117 13.9443 21.8041M13.6625 20.6923C13.2331 20.8765 12.7655 20.9428 12.2766 20.8117M12.2766 20.8117C12.1284 21.0313 12.1654 21.0258 11.7207 21.5817" stroke="#181817" stroke-width="1.35666" stroke-linecap="round"/>
<path d="M52.6924 31.2154C51.2155 31.2154 50.2309 30.559 49.7386 29.2462C49.2258 27.9333 49.2258 26.4256 49.7386 24.7231C50.1899 23.041 50.9181 21.5333 51.9232 20.2C53.0104 18.7436 54.1386 18.0154 55.3078 18.0154C56.0668 18.0154 56.7232 18.3026 57.2771 18.8769C57.8514 19.4308 58.0463 20.0564 57.8617 20.7538C57.6976 21.2667 57.3899 21.5231 56.9386 21.5231C56.713 21.5231 56.4873 21.441 56.2617 21.2769C56.036 21.0923 55.9027 20.8872 55.8617 20.6615C55.8617 20.641 55.8514 20.6 55.8309 20.5385C55.8309 20.4769 55.8207 20.4359 55.8001 20.4154C55.8001 20.3744 55.7899 20.3333 55.7694 20.2923C55.7489 20.2513 55.7283 20.2205 55.7078 20.2C55.6873 20.1795 55.6566 20.159 55.6155 20.1385C55.5745 20.0974 55.5335 20.0769 55.4924 20.0769C54.9591 20.0769 54.4053 20.4154 53.8309 21.0923C52.436 22.7333 51.6258 24.7128 51.4001 27.0308C51.3591 27.441 51.4001 27.841 51.5232 28.2308C51.6463 28.6 51.8309 28.8564 52.0771 29C52.795 29.4103 53.8412 29.0718 55.2155 27.9846C56.3027 27.1436 57.554 26.0154 58.9694 24.6C59.0104 24.559 59.0719 24.4872 59.154 24.3846C59.2566 24.2821 59.3489 24.2 59.4309 24.1385C59.513 24.0564 59.5848 23.9846 59.6463 23.9231C59.954 23.6564 60.2617 23.5436 60.5694 23.5846C60.8771 23.6051 61.1232 23.7487 61.3078 24.0154C61.554 24.3641 61.5745 24.6923 61.3694 25C60.9796 25.5128 60.2514 26.2718 59.1848 27.2769C58.1181 28.2615 57.2053 29.0513 56.4463 29.6462C55.0924 30.6923 53.8412 31.2154 52.6924 31.2154ZM62.6119 30.8154C61.6888 30.8154 60.9196 30.4667 60.3042 29.7692C59.6888 29.0718 59.3606 28.2615 59.3196 27.3385C59.2786 25.2462 59.8427 23.1333 61.0119 21C62.2017 18.8462 63.535 17.7282 65.0119 17.6462C65.8529 17.6051 66.5196 17.8821 67.0119 18.4769C67.5042 19.0718 67.6478 19.7795 67.4427 20.6C67.2991 21.2564 66.9812 21.8923 66.4888 22.5077C65.1965 24.1282 63.6376 25.2462 61.8119 25.8615C61.5453 25.9436 61.4017 26.1179 61.3812 26.3846C61.3196 27.0615 61.4017 27.6359 61.6273 28.1077C61.8735 28.559 62.2324 28.7846 62.7042 28.7846C63.1965 28.8051 63.8837 28.3949 64.7658 27.5538C65.6478 26.7128 66.2735 26.2923 66.6427 26.2923C67.2376 26.2923 67.535 26.6103 67.535 27.2462C67.4529 27.9846 66.8376 28.7641 65.6888 29.5846C64.5401 30.4051 63.5145 30.8154 62.6119 30.8154ZM62.3042 23.4615C63.0427 23.0923 63.7401 22.5487 64.3965 21.8308C65.0735 21.1128 65.4119 20.5179 65.4119 20.0462C65.4119 19.6974 65.176 19.6359 64.7042 19.8615C64.4991 19.9641 64.3042 20.1077 64.1196 20.2923C63.5863 20.8256 62.9401 21.8513 62.1812 23.3692C62.1606 23.4308 62.1606 23.4718 62.1812 23.4923C62.2222 23.4923 62.2632 23.4821 62.3042 23.4615ZM70.7824 31.5538C70.1054 31.6974 69.6541 31.4718 69.4285 30.8769C69.1824 30.2615 69.0798 29.4308 69.1208 28.3846C69.1824 26.2103 69.7259 23.5846 70.7516 20.5077C72.0029 16.7333 73.7567 13.7179 76.0131 11.4615C76.7311 10.7436 77.4798 10.2103 78.2593 9.86154C79.0388 9.49231 79.6952 9.49231 80.2285 9.86154C80.5772 10.0872 80.7926 10.4564 80.8747 10.9692C80.9567 11.4821 80.9465 12.0154 80.8439 12.5692C80.7413 13.1026 80.5772 13.6359 80.3516 14.1692C79.5311 16.0769 78.6798 17.7179 77.7977 19.0923C76.9362 20.4667 75.9208 21.6667 74.7516 22.6923C74.6285 22.7949 74.4849 22.9179 74.3208 23.0615C74.1567 23.2051 74.0234 23.3179 73.9208 23.4C73.8388 23.4821 73.7362 23.5744 73.6131 23.6769C73.49 23.7795 73.3875 23.8615 73.3054 23.9231C73.2439 23.9641 73.1618 24.0256 73.0593 24.1077C72.9772 24.1897 72.9054 24.2513 72.8439 24.2923C72.7824 24.3128 72.7106 24.3436 72.6285 24.3846C72.567 24.4256 72.5054 24.4564 72.4439 24.4769C72.4029 24.4974 72.3516 24.5179 72.29 24.5385C72.2285 24.5385 72.167 24.5385 72.1054 24.5385C71.8798 24.5385 71.7362 24.6513 71.6747 24.8769C71.3259 26.3333 71.1516 27.759 71.1516 29.1538C71.1516 29.3179 71.1926 29.5846 71.2747 29.9538C71.3567 30.3231 71.3875 30.5795 71.367 30.7231C71.2849 31.1949 71.09 31.4718 70.7824 31.5538ZM72.5054 21.8923C72.5465 21.8923 72.6183 21.841 72.7208 21.7385C74.3208 20.1385 75.5413 18.7538 76.3824 17.5846C77.2234 16.3949 77.9106 14.9897 78.4439 13.3692C78.5875 12.959 78.6798 12.641 78.7208 12.4154C78.7824 12.1897 78.8029 12.0564 78.7824 12.0154C78.7824 11.9744 78.7721 11.9538 78.7516 11.9538C78.6285 11.9538 78.3618 12.1385 77.9516 12.5077C77.5413 12.8564 77.2029 13.1744 76.9362 13.4615C75.008 15.6564 73.5311 18.4667 72.5054 21.8923ZM81.3403 14.6615C81.1557 14.8667 80.93 14.9692 80.6634 14.9692C80.3967 14.9692 80.1711 14.8769 79.9864 14.6923C79.8018 14.5077 79.7095 14.2821 79.7095 14.0154C79.7095 13.7487 79.8018 13.5231 79.9864 13.3385C80.1711 13.1333 80.3967 13.0308 80.6634 13.0308C80.93 13.0308 81.1557 13.1231 81.3403 13.3077C81.5454 13.4923 81.648 13.7077 81.648 13.9538C81.648 14.2205 81.5454 14.4564 81.3403 14.6615ZM76.848 30.9692C75.9659 30.9692 75.648 30.2308 75.8941 28.7538C75.9967 28.1385 76.13 27.5026 76.2941 26.8462C76.4582 26.1897 76.6736 25.4103 76.9403 24.5077C77.207 23.5846 77.3916 22.9487 77.4941 22.6L78.048 20.5692C78.0685 20.4667 78.1095 20.3026 78.1711 20.0769C78.2326 19.8513 78.2736 19.6974 78.2941 19.6154C78.3352 19.5128 78.3762 19.3897 78.4172 19.2462C78.4787 19.0821 78.5403 18.9692 78.6018 18.9077C78.6634 18.8462 78.7352 18.7744 78.8172 18.6923C78.8993 18.6103 78.9916 18.559 79.0941 18.5385C79.2172 18.5179 79.3505 18.5179 79.4941 18.5385C79.7608 18.5795 79.9762 18.7026 80.1403 18.9077C80.3249 19.1128 80.4172 19.359 80.4172 19.6462C80.4172 20.1385 80.1198 21.3077 79.5249 23.1538C79.0736 24.5282 78.5198 26.6923 77.8634 29.6462C77.8018 29.9333 77.7403 30.159 77.6787 30.3231C77.6377 30.4667 77.5454 30.6103 77.4018 30.7538C77.2582 30.8974 77.0736 30.9692 76.848 30.9692ZM80.8265 30.5077C79.9649 30.5077 79.6675 29.8718 79.9342 28.6C80.1598 27.4923 80.8367 25.3179 81.9649 22.0769C82.5393 20.3538 82.9598 19.3282 83.2265 19C83.5547 18.5897 83.9136 18.4564 84.3034 18.6C84.7547 18.7641 84.9803 19.0821 84.9803 19.5538C84.9803 19.7795 84.8162 20.3333 84.488 21.2154C84.2829 21.7487 84.1393 22.1487 84.0572 22.4154L84.5188 21.8923C86.0983 20.0256 87.647 18.8872 89.1649 18.4769C89.8624 18.2923 90.4162 18.3641 90.8265 18.6923C91.606 19.3077 91.6265 20.5282 90.888 22.3538C89.4931 25.7795 88.6521 28.0769 88.3649 29.2462C88.2418 29.7179 88.0777 30.0564 87.8726 30.2615C87.688 30.4462 87.4008 30.5077 87.0111 30.4462C86.6008 30.3641 86.3547 30.1795 86.2726 29.8923C86.1906 29.5846 86.2316 29.1744 86.3957 28.6615C86.9906 26.6308 87.729 24.5795 88.6111 22.5077C88.7957 22.0769 88.9701 21.6154 89.1342 21.1231C89.2367 20.7949 89.206 20.641 89.0418 20.6615C88.8983 20.6821 88.529 20.9282 87.9342 21.4C87.4213 21.7897 86.9495 22.2308 86.5188 22.7231C84.7547 24.7128 83.2777 26.9077 82.088 29.3077C81.7598 29.9436 81.4726 30.3128 81.2265 30.4154C81.1034 30.4769 80.9701 30.5077 80.8265 30.5077ZM94.9947 30.8154C94.0717 30.8154 93.3024 30.4667 92.687 29.7692C92.0717 29.0718 91.7435 28.2615 91.7024 27.3385C91.6614 25.2462 92.2255 23.1333 93.3947 21C94.5845 18.8462 95.9178 17.7282 97.3947 17.6462C98.2358 17.6051 98.9024 17.8821 99.3947 18.4769C99.887 19.0718 100.031 19.7795 99.8255 20.6C99.6819 21.2564 99.364 21.8923 98.8717 22.5077C97.5793 24.1282 96.0204 25.2462 94.1947 25.8615C93.9281 25.9436 93.7845 26.1179 93.764 26.3846C93.7024 27.0615 93.7845 27.6359 94.0101 28.1077C94.2563 28.559 94.6152 28.7846 95.087 28.7846C95.5793 28.8051 96.2665 28.3949 97.1486 27.5538C98.0306 26.7128 98.6563 26.2923 99.0255 26.2923C99.6204 26.2923 99.9178 26.6103 99.9178 27.2462C99.8358 27.9846 99.2204 28.7641 98.0717 29.5846C96.9229 30.4051 95.8973 30.8154 94.9947 30.8154ZM94.687 23.4615C95.4255 23.0923 96.1229 22.5487 96.7793 21.8308C97.4563 21.1128 97.7947 20.5179 97.7947 20.0462C97.7947 19.6974 97.5588 19.6359 97.087 19.8615C96.8819 19.9641 96.687 20.1077 96.5024 20.2923C95.9691 20.8256 95.3229 21.8513 94.564 23.3692C94.5435 23.4308 94.5435 23.4718 94.564 23.4923C94.605 23.4923 94.646 23.4821 94.687 23.4615ZM104.457 31.0923C104.232 31.3385 103.955 31.4615 103.627 31.4615C103.298 31.4615 103.011 31.3385 102.765 31.0923C102.519 30.8667 102.396 30.5795 102.396 30.2308C102.396 29.8821 102.519 29.5846 102.765 29.3385C103.011 29.0923 103.298 28.9692 103.627 28.9692C103.955 28.9692 104.232 29.0923 104.457 29.3385C104.704 29.5846 104.827 29.8821 104.827 30.2308C104.827 30.559 104.704 30.8462 104.457 31.0923Z" fill="#181817"/>
</svg>
