<svg width="250" height="248" viewBox="0 0 250 248" fill="none" xmlns="http://www.w3.org/2000/svg">
<g clip-path="url(#clip0_484_3601)">
<path d="M250 30.9268C250 14.3582 236.569 0.926758 220 0.926758H30C13.4315 0.926758 0 14.3582 0 30.9268V198.927H250V30.9268Z" fill="#A8DBE7"/>
<path d="M-3.82128 146.948C-3.31981 144.214 -2.91664 141.956 -0.634078 140.94C9.96034 133.088 33.935 125.765 38.8352 125.765C44.8874 125.765 47.9136 134.64 54.6142 134.147C57.461 133.937 59.2161 133.104 60.2925 132.216C62.065 130.752 64.3389 130.328 66.4615 130.947C73.8517 133.096 91.2886 139.86 95.5554 145.089C101.035 151.801 107.197 165.981 115.376 202.472C116.122 206.769 111.043 215.151 107.327 216.258C92.0733 220.798 51.2553 229.098 -2.08013 209.629C-4.93549 208.586 -4.91846 205.884 -5.10219 202.472C-5.70093 191.362 -5.03355 165.92 -3.82128 146.948Z" fill="#E1715B"/>
<path d="M63.0386 44.0125C74.6999 44.6744 89.4091 53.0382 93.2998 66.7918C97.1905 80.5453 98.0551 78.8261 101.081 82.2645C104.107 85.7028 103.459 93.6541 101.73 102.465C100 111.276 103.243 111.706 105.837 116.218C108.43 120.731 101.514 129.112 86.1668 129.542C70.82 129.972 60.877 127.393 60.877 127.393C60.877 127.393 54.8248 125.674 40.5588 126.534C26.2928 127.393 20.4567 130.187 16.1337 125.029C11.8106 119.872 7.70376 108.267 13.5399 102.035C19.3759 95.8031 21.9698 91.72 20.6729 85.273C19.3759 78.8261 20.6729 66.5769 25.8605 63.1385C31.0481 59.7001 34.5066 53.0382 39.478 47.8807C44.4495 42.7231 55.4733 43.5827 63.0386 44.0125Z" fill="#1A6B83"/>
<path d="M43.4181 102.653C43.4181 102.653 43.5867 120.728 39.2637 123.736C39.2637 123.736 58.9335 140.713 61.9596 132.332C61.9596 132.332 60.4465 120.178 61.095 117.551C61.095 117.551 46.0595 108.646 43.4181 102.653Z" fill="white" stroke="#1A6B83" stroke-width="2" stroke-miterlimit="10"/>
<path d="M73.847 57.9805C73.847 57.9805 57.6356 89.1408 43.5858 86.7769C43.5858 86.7769 39.695 79.4703 35.1558 83.1236C30.6167 86.7769 30.6167 90.2152 32.3459 93.4387C34.0751 96.6622 37.7497 102.894 41.2081 102.679C44.6665 102.464 44.6665 101.605 44.6665 101.605C44.6665 101.605 49.2057 114.929 65.6332 118.582C82.0607 122.235 91.5714 95.3728 89.626 77.966C89.626 77.966 76.8731 66.5764 73.847 57.9805Z" fill="white" stroke="#1A6B83" stroke-width="2" stroke-linecap="round" stroke-linejoin="round"/>
<path d="M39.4818 86.7757C38.1849 86.131 33.2134 86.5608 35.5911 93.2227C37.9687 99.8845 39.4818 94.9419 39.6979 94.0823C39.9141 93.2227 43.3725 98.3802 44.6694 96.876C45.9663 95.3717 44.2371 93.4376 43.3725 92.3631C42.5079 91.2886 41.4272 89.3545 41.4272 89.3545" stroke="#1A6B83" stroke-width="2" stroke-linecap="round" stroke-linejoin="round"/>
<path d="M62.3499 80.0267C62.3499 80.0267 64.9631 81.2946 68.4107 79.2144" stroke="#1A6B83" stroke-width="2" stroke-linecap="round" stroke-linejoin="round"/>
<path d="M81.4106 79.681C81.4106 79.681 84.3762 80.5599 86.4016 79.6401Z" fill="white"/>
<path d="M81.4106 79.681C81.4106 79.681 84.3762 80.5599 86.4016 79.6401" stroke="#1A6B83" stroke-width="2" stroke-linecap="round" stroke-linejoin="round"/>
<path d="M73.8478 57.9805C73.8478 57.9805 66.4986 80.3299 56.3395 86.9918C46.1804 93.6536 44.4512 88.2812 44.4512 88.2812" stroke="#1A6B83" stroke-width="2" stroke-linecap="round" stroke-linejoin="round"/>
<path d="M75.1416 106.246C70.1161 105.859 68.4409 106.478 68.4409 106.478Z" fill="white"/>
<path d="M75.1416 106.246C70.1161 105.859 68.4409 106.478 68.4409 106.478" stroke="#1A6B83" stroke-width="2" stroke-linecap="round" stroke-linejoin="round"/>
<path d="M77.3063 83.7686C76.874 85.0579 77.5225 86.5622 78.6032 89.141C79.684 91.7198 82.0616 94.2986 81.8455 96.0178C81.6293 97.737 77.7386 99.8859 77.7386 99.8859" stroke="#1A6B83" stroke-width="2" stroke-linecap="round" stroke-linejoin="round"/>
<path d="M44.668 105.474C44.668 105.474 51.3687 122.021 58.2855 121.376C65.2024 120.731 60.1358 117.173 60.1358 117.173L55.8127 114.308L49.9529 109.533L45.2451 103.133L44.668 105.474Z" fill="#1A6B83"/>
<path d="M66.7313 86.6826C66.5865 88.1589 67.4748 89.4526 68.7134 89.573C69.9541 89.6933 71.0759 88.5952 71.2208 87.1188C71.3656 85.6425 70.4772 84.3466 69.2386 84.2263C67.9979 84.106 66.8761 85.2041 66.7313 86.6826Z" fill="#1A6B83"/>
<path d="M83.1212 86.0014C82.9764 87.4778 83.8647 88.7715 85.1033 88.8918C86.344 89.0122 87.4658 87.914 87.6106 86.4377C87.7555 84.9613 86.8671 83.6655 85.6285 83.5452C84.3878 83.4248 83.266 84.5229 83.1212 86.0014Z" fill="#1A6B83"/>
<path d="M62.2471 130.542C62.2471 130.542 88.1139 136.2 95.0308 143.722C101.948 151.243 118.159 199.81 114.701 204.753" stroke="#1A6B83" stroke-width="2" stroke-linecap="round" stroke-linejoin="round"/>
<path d="M39.2647 123.742C39.2647 123.742 1.22205 135.562 -2.23637 142.654C-5.6948 149.745 -5.26249 196.378 -5.26249 199.387" stroke="#1A6B83" stroke-width="2" stroke-linecap="round" stroke-linejoin="round"/>
<path d="M9.86548 147.16C9.86548 147.16 25.4284 164.567 29.7514 174.022C34.0745 183.478 32.3452 202.174 32.3452 202.174" stroke="#1A6B83" stroke-width="2" stroke-linecap="round" stroke-linejoin="round"/>
<path d="M43.3708 92.3641C43.3708 92.3641 51.8008 90.8598 53.7461 90.43C55.6915 90.0002 58.9338 89.3555 58.9338 89.3555C58.9338 89.3555 59.5822 94.9429 66.9314 94.2982C74.2805 93.6535 72.5513 87.4214 72.5513 87.4214H78.6035C78.6035 87.4214 79.4682 93.0195 84.2235 92.7939C88.7627 92.579 89.195 87.4214 89.195 87.4214L93.3019 87.2065" stroke="#1A6B83" stroke-width="2" stroke-linecap="round" stroke-linejoin="round"/>
<path d="M87.8965 161.345C92.4357 168.222 101.514 175.958 98.4879 190.786C95.4618 205.614 97.4072 206.689 97.4072 206.689" stroke="#1A6B83" stroke-width="2" stroke-linecap="round" stroke-linejoin="round"/>
<path d="M120.108 102.109C116.591 100.971 113.853 103.074 112.923 104.267C114.144 104.267 116.099 104.267 118.427 105.471C121.543 107.083 123.448 103.189 120.108 102.109Z" fill="white" stroke="#1A6B83" stroke-width="2" stroke-linejoin="round"/>
<path d="M116.601 111.479C120.286 113.643 120.475 118.076 123.293 117.718C124.756 117.533 125.077 115.526 123.845 114.051C122.331 112.24 118.703 110.966 116.601 111.479Z" fill="white" stroke="#1A6B83" stroke-width="2" stroke-linejoin="round"/>
<circle cx="125" cy="48.5476" r="21.9275" fill="white" stroke="#1A6B83" stroke-width="2"/>
<path d="M125 32.1167V48.0292L134.86 57.8898" stroke="#1A6B83" stroke-width="2" stroke-linecap="round" stroke-linejoin="round"/>
<path fill-rule="evenodd" clip-rule="evenodd" d="M145.55 88.9497C140.027 88.9497 135.55 93.4269 135.55 98.9497V151.531L126.295 160.786C125.665 161.416 126.111 162.493 127.002 162.493H135.564C135.846 167.763 140.209 171.95 145.55 171.95H223.05C228.573 171.95 233.05 167.473 233.05 161.95V98.9497C233.05 93.4269 228.573 88.9497 223.05 88.9497H145.55Z" fill="white"/>
<path d="M135.55 151.531H136.55C136.55 151.796 136.444 152.051 136.257 152.238L135.55 151.531ZM135.564 162.493V161.493C136.096 161.493 136.534 161.909 136.563 162.439L135.564 162.493ZM134.55 98.9497C134.55 92.8746 139.475 87.9497 145.55 87.9497V89.9497C140.579 89.9497 136.55 93.9791 136.55 98.9497H134.55ZM134.55 151.531V98.9497H136.55V151.531H134.55ZM125.588 160.079L134.843 150.824L136.257 152.238L127.002 161.493L125.588 160.079ZM127.002 163.493C125.22 163.493 124.328 161.339 125.588 160.079L127.002 161.493L127.002 161.493V163.493ZM135.564 163.493H127.002V161.493H135.564V163.493ZM145.55 172.95C139.675 172.95 134.876 168.345 134.566 162.546L136.563 162.439C136.817 167.182 140.744 170.95 145.55 170.95V172.95ZM223.05 172.95H145.55V170.95H223.05V172.95ZM234.05 161.95C234.05 168.025 229.125 172.95 223.05 172.95V170.95C228.02 170.95 232.05 166.92 232.05 161.95H234.05ZM234.05 98.9497V161.95H232.05V98.9497H234.05ZM223.05 87.9497C229.125 87.9497 234.05 92.8746 234.05 98.9497H232.05C232.05 93.9791 228.02 89.9497 223.05 89.9497V87.9497ZM145.55 87.9497H223.05V89.9497H145.55V87.9497Z" fill="#1A6B83"/>
<path d="M151.804 109.95H150.784L151.983 104.313H153.003L151.804 109.95ZM154.288 106.45H153.538L154.312 104.313H155.265L154.288 106.45ZM154.952 109.95L155.831 105.801H156.749L156.608 106.461H156.632C156.851 106.04 157.323 105.715 157.851 105.715C158.417 105.715 158.815 106.051 158.925 106.458H158.94C159.214 106.055 159.675 105.715 160.319 105.715C160.991 105.715 161.483 106.192 161.483 106.86C161.483 107.008 161.468 107.172 161.429 107.344L160.882 109.95H159.925L160.444 107.497C160.472 107.368 160.483 107.258 160.483 107.153C160.483 106.801 160.253 106.528 159.854 106.528C159.437 106.528 159.038 106.852 158.925 107.395L158.382 109.95H157.448L157.968 107.497C157.995 107.368 158.011 107.258 158.011 107.153C158.011 106.801 157.78 106.528 157.382 106.528C156.96 106.528 156.558 106.875 156.452 107.391L155.909 109.95H154.952ZM165.21 109.274C165.714 109.274 166.151 108.954 166.253 108.5L166.343 108.106L165.374 108.153C164.847 108.172 164.53 108.395 164.53 108.747C164.53 109.067 164.808 109.274 165.21 109.274ZM164.858 110.016C164.151 110.016 163.589 109.54 163.589 108.875C163.589 108.043 164.249 107.555 165.347 107.508L166.476 107.461L166.53 107.211C166.546 107.145 166.546 107.094 166.546 107.04C166.546 106.704 166.284 106.493 165.827 106.493C165.358 106.493 165.069 106.708 164.991 107.04H164.062C164.198 106.25 164.905 105.715 165.901 105.715C166.854 105.715 167.491 106.211 167.491 106.93C167.491 107.051 167.479 107.184 167.46 107.274L166.894 109.95H165.972L166.077 109.45H166.062C165.804 109.793 165.37 110.016 164.858 110.016ZM171.952 110.016C171.315 110.016 170.776 109.649 170.632 109.133H170.612L170.437 109.95H169.519L170.722 104.313H171.671L171.222 106.426H171.241C171.476 106.012 171.968 105.731 172.499 105.731C173.409 105.731 173.991 106.375 173.991 107.461C173.991 108.813 173.194 110.016 171.952 110.016ZM171.812 109.2C172.53 109.2 173.019 108.465 173.019 107.563C173.019 106.926 172.698 106.532 172.147 106.532C171.413 106.532 170.89 107.297 170.89 108.204C170.89 108.793 171.257 109.2 171.812 109.2ZM178.769 105.801L177.89 109.95H176.968L177.104 109.333H177.081C176.866 109.708 176.354 110.036 175.737 110.036C174.944 110.036 174.456 109.532 174.456 108.852C174.456 108.684 174.479 108.454 174.515 108.286L175.034 105.801H175.995L175.499 108.133C175.472 108.258 175.456 108.426 175.456 108.516C175.456 108.977 175.702 109.204 176.19 109.204C176.749 109.204 177.167 108.817 177.292 108.247L177.812 105.801H178.769ZM179.257 107.012C179.257 106.247 179.921 105.719 180.913 105.719C181.87 105.719 182.534 106.258 182.55 107.032H181.667C181.64 106.684 181.327 106.434 180.901 106.434C180.456 106.434 180.179 106.637 180.179 106.922C180.179 107.168 180.335 107.293 180.812 107.446L181.206 107.571C181.964 107.817 182.269 108.137 182.269 108.688C182.269 109.481 181.558 110.036 180.546 110.036C179.491 110.036 178.8 109.477 178.772 108.688H179.702C179.749 109.055 180.069 109.313 180.581 109.313C181.011 109.313 181.315 109.083 181.315 108.778C181.315 108.555 181.187 108.45 180.71 108.301L180.347 108.184C179.585 107.938 179.257 107.583 179.257 107.012ZM182.679 111.465C182.554 111.465 182.241 111.442 182.179 111.422L182.327 110.637C182.386 110.661 182.601 110.676 182.71 110.676C183.03 110.676 183.3 110.536 183.476 110.11C183.476 110.102 183.565 109.915 183.565 109.907L182.976 105.801H183.937L184.269 109.059H184.288L185.933 105.801H186.968L184.53 110.215C184.015 111.165 183.479 111.465 182.679 111.465ZM188.937 107.012C188.937 106.247 189.601 105.719 190.593 105.719C191.55 105.719 192.214 106.258 192.229 107.032H191.347C191.319 106.684 191.007 106.434 190.581 106.434C190.136 106.434 189.858 106.637 189.858 106.922C189.858 107.168 190.015 107.293 190.491 107.446L190.886 107.571C191.644 107.817 191.948 108.137 191.948 108.688C191.948 109.481 191.237 110.036 190.226 110.036C189.171 110.036 188.479 109.477 188.452 108.688H189.382C189.429 109.055 189.749 109.313 190.261 109.313C190.69 109.313 190.995 109.083 190.995 108.778C190.995 108.555 190.866 108.45 190.39 108.301L190.026 108.184C189.265 107.938 188.937 107.583 188.937 107.012ZM193.952 109.993C193.261 109.993 192.792 109.7 192.792 109.114C192.792 109.004 192.804 108.868 192.831 108.719L193.288 106.606H192.671L192.831 105.844H193.448L193.659 104.829H194.616L194.401 105.844H195.265L195.104 106.606H194.245L193.831 108.536C193.804 108.645 193.792 108.75 193.792 108.833C193.792 109.114 193.979 109.227 194.312 109.227C194.444 109.227 194.515 109.219 194.593 109.208L194.433 109.946C194.304 109.973 194.124 109.993 193.952 109.993ZM199.597 105.801L198.718 109.95H197.796L197.933 109.333H197.909C197.694 109.708 197.183 110.036 196.565 110.036C195.772 110.036 195.284 109.532 195.284 108.852C195.284 108.684 195.308 108.454 195.343 108.286L195.862 105.801H196.823L196.327 108.133C196.3 108.258 196.284 108.426 196.284 108.516C196.284 108.977 196.53 109.204 197.019 109.204C197.577 109.204 197.995 108.817 198.12 108.247L198.64 105.801H199.597ZM201.276 110.016C200.362 110.016 199.788 109.348 199.788 108.305C199.788 106.833 200.687 105.731 201.862 105.731C202.503 105.731 203.007 106.094 203.14 106.586H203.163L203.655 104.313H204.608L203.409 109.95H202.464L202.597 109.317H202.577C202.308 109.739 201.823 110.016 201.276 110.016ZM201.628 109.215C202.343 109.215 202.894 108.485 202.894 107.543C202.894 106.958 202.538 106.547 201.987 106.547C201.296 106.547 200.761 107.243 200.761 108.192C200.761 108.821 201.089 109.215 201.628 109.215ZM205.53 107.45H207.479C207.483 107.418 207.483 107.372 207.483 107.333C207.483 106.883 207.218 106.477 206.632 106.477C206.073 106.477 205.675 106.895 205.53 107.45ZM206.3 110.036C205.151 110.036 204.511 109.29 204.511 108.184C204.511 106.797 205.39 105.715 206.659 105.715C207.718 105.715 208.401 106.399 208.401 107.481C208.401 107.672 208.39 107.907 208.354 108.098H205.425C205.421 108.141 205.421 108.188 205.421 108.231C205.421 108.86 205.772 109.266 206.327 109.266C206.812 109.266 207.155 109.02 207.308 108.645H208.218C208.003 109.45 207.257 110.036 206.3 110.036ZM208.601 109.95L209.479 105.801H210.397L210.265 106.438H210.284C210.565 105.989 211.05 105.715 211.632 105.715C212.378 105.715 212.925 106.211 212.925 106.918C212.925 107.067 212.905 107.247 212.87 107.426L212.335 109.95H211.382L211.882 107.586C211.913 107.442 211.925 107.317 211.925 107.219C211.925 106.797 211.616 106.528 211.155 106.528C210.636 106.528 210.206 106.899 210.081 107.481L209.558 109.95H208.601ZM214.788 109.993C214.097 109.993 213.628 109.7 213.628 109.114C213.628 109.004 213.64 108.868 213.667 108.719L214.124 106.606H213.507L213.667 105.844H214.284L214.495 104.829H215.452L215.237 105.844H216.101L215.94 106.606H215.081L214.667 108.536C214.64 108.645 214.628 108.75 214.628 108.833C214.628 109.114 214.815 109.227 215.147 109.227C215.28 109.227 215.351 109.219 215.429 109.208L215.269 109.946C215.14 109.973 214.96 109.993 214.788 109.993ZM151.241 117.012C151.241 116.247 151.905 115.719 152.897 115.719C153.854 115.719 154.519 116.258 154.534 117.032H153.651C153.624 116.684 153.312 116.434 152.886 116.434C152.44 116.434 152.163 116.637 152.163 116.922C152.163 117.168 152.319 117.293 152.796 117.446L153.19 117.571C153.948 117.817 154.253 118.137 154.253 118.688C154.253 119.481 153.542 120.036 152.53 120.036C151.476 120.036 150.784 119.477 150.757 118.688H151.687C151.733 119.055 152.054 119.313 152.565 119.313C152.995 119.313 153.3 119.083 153.3 118.778C153.3 118.555 153.171 118.45 152.694 118.301L152.331 118.184C151.569 117.938 151.241 117.583 151.241 117.012ZM156.761 119.231C157.479 119.231 158.007 118.516 158.007 117.586C158.007 116.942 157.663 116.52 157.128 116.52C156.405 116.52 155.882 117.227 155.882 118.165C155.882 118.809 156.226 119.231 156.761 119.231ZM157.155 115.715C158.257 115.715 158.979 116.45 158.979 117.559C158.979 118.969 158.026 120.036 156.737 120.036C155.636 120.036 154.913 119.297 154.913 118.188C154.913 116.782 155.866 115.715 157.155 115.715ZM162.132 119.95H161.112L162.312 114.313H163.331L162.132 119.95ZM166.987 119.231C167.706 119.231 168.233 118.516 168.233 117.586C168.233 116.942 167.89 116.52 167.354 116.52C166.632 116.52 166.108 117.227 166.108 118.165C166.108 118.809 166.452 119.231 166.987 119.231ZM167.382 115.715C168.483 115.715 169.206 116.45 169.206 117.559C169.206 118.969 168.253 120.036 166.964 120.036C165.862 120.036 165.14 119.297 165.14 118.188C165.14 116.782 166.093 115.715 167.382 115.715ZM169.694 119.95L170.405 116.586H169.737L169.894 115.825H170.554L170.64 115.383C170.796 114.579 171.272 114.227 172.155 114.227C172.401 114.227 172.608 114.258 172.772 114.293L172.628 114.997C172.55 114.973 172.394 114.958 172.249 114.958C171.858 114.958 171.647 115.125 171.577 115.477L171.507 115.825H172.413L172.253 116.586H171.362L170.655 119.95H169.694ZM173.772 119.993C173.081 119.993 172.612 119.7 172.612 119.114C172.612 119.004 172.624 118.868 172.651 118.719L173.108 116.606H172.491L172.651 115.844H173.269L173.479 114.829H174.437L174.222 115.844H175.085L174.925 116.606H174.065L173.651 118.536C173.624 118.645 173.612 118.75 173.612 118.833C173.612 119.114 173.8 119.227 174.132 119.227C174.265 119.227 174.335 119.219 174.413 119.208L174.253 119.946C174.124 119.973 173.944 119.993 173.772 119.993ZM176.085 117.45H178.034C178.038 117.418 178.038 117.372 178.038 117.333C178.038 116.883 177.772 116.477 177.187 116.477C176.628 116.477 176.229 116.895 176.085 117.45ZM176.854 120.036C175.706 120.036 175.065 119.29 175.065 118.184C175.065 116.797 175.944 115.715 177.214 115.715C178.272 115.715 178.956 116.399 178.956 117.481C178.956 117.672 178.944 117.907 178.909 118.098H175.979C175.976 118.141 175.976 118.188 175.976 118.231C175.976 118.86 176.327 119.266 176.882 119.266C177.366 119.266 177.71 119.02 177.862 118.645H178.772C178.558 119.45 177.812 120.036 176.854 120.036ZM179.155 119.95L180.034 115.801H180.952L180.819 116.438H180.839C181.12 115.989 181.604 115.715 182.187 115.715C182.933 115.715 183.479 116.211 183.479 116.918C183.479 117.067 183.46 117.247 183.425 117.426L182.89 119.95H181.937L182.437 117.586C182.468 117.442 182.479 117.317 182.479 117.219C182.479 116.797 182.171 116.528 181.71 116.528C181.19 116.528 180.761 116.899 180.636 117.481L180.112 119.95H179.155ZM187.78 119.2C188.476 119.2 189.007 118.504 189.007 117.567C189.007 116.922 188.683 116.532 188.144 116.532C187.386 116.532 186.878 117.317 186.878 118.204C186.878 118.793 187.233 119.2 187.78 119.2ZM186.155 121.317H185.21L186.378 115.801H187.315L187.179 116.438H187.194C187.472 116.004 187.964 115.731 188.495 115.731C189.409 115.731 189.972 116.399 189.972 117.446C189.972 118.926 189.089 120.016 187.913 120.016C187.288 120.016 186.8 119.668 186.64 119.153H186.616L186.155 121.317ZM190.163 119.95L191.046 115.801H191.968L191.851 116.368H191.87C192.104 115.989 192.483 115.739 192.979 115.739C193.194 115.739 193.37 115.782 193.487 115.836L193.296 116.727C193.171 116.668 192.956 116.618 192.745 116.618C192.112 116.618 191.757 116.969 191.608 117.649L191.12 119.95H190.163ZM193.151 119.95L194.034 115.801H194.995L194.116 119.95H193.151ZM194.741 115.266C194.44 115.266 194.202 115.028 194.202 114.727C194.202 114.426 194.44 114.188 194.741 114.188C195.046 114.188 195.284 114.426 195.284 114.727C195.284 115.028 195.046 115.266 194.741 115.266ZM197.058 119.231C197.776 119.231 198.304 118.516 198.304 117.586C198.304 116.942 197.96 116.52 197.425 116.52C196.702 116.52 196.179 117.227 196.179 118.165C196.179 118.809 196.522 119.231 197.058 119.231ZM197.452 115.715C198.554 115.715 199.276 116.45 199.276 117.559C199.276 118.969 198.323 120.036 197.034 120.036C195.933 120.036 195.21 119.297 195.21 118.188C195.21 116.782 196.163 115.715 197.452 115.715ZM199.476 119.95L200.358 115.801H201.28L201.163 116.368H201.183C201.417 115.989 201.796 115.739 202.292 115.739C202.507 115.739 202.683 115.782 202.8 115.836L202.608 116.727C202.483 116.668 202.269 116.618 202.058 116.618C201.425 116.618 201.069 116.969 200.921 117.649L200.433 119.95H199.476ZM202.464 119.95L203.347 115.801H204.308L203.429 119.95H202.464ZM204.054 115.266C203.753 115.266 203.515 115.028 203.515 114.727C203.515 114.426 203.753 114.188 204.054 114.188C204.358 114.188 204.597 114.426 204.597 114.727C204.597 115.028 204.358 115.266 204.054 115.266ZM205.921 119.993C205.229 119.993 204.761 119.7 204.761 119.114C204.761 119.004 204.772 118.868 204.8 118.719L205.257 116.606H204.64L204.8 115.844H205.417L205.628 114.829H206.585L206.37 115.844H207.233L207.073 116.606H206.214L205.8 118.536C205.772 118.645 205.761 118.75 205.761 118.833C205.761 119.114 205.948 119.227 206.28 119.227C206.413 119.227 206.483 119.219 206.562 119.208L206.401 119.946C206.272 119.973 206.093 119.993 205.921 119.993ZM206.995 119.95L207.878 115.801H208.839L207.96 119.95H206.995ZM208.585 115.266C208.284 115.266 208.046 115.028 208.046 114.727C208.046 114.426 208.284 114.188 208.585 114.188C208.89 114.188 209.128 114.426 209.128 114.727C209.128 115.028 208.89 115.266 208.585 115.266ZM208.679 119.95L208.804 119.348L211.526 116.602L211.53 116.583H209.421L209.585 115.801H212.901L212.761 116.458L210.112 119.149L210.108 119.168H212.214L212.05 119.95H208.679ZM213.913 117.45H215.862C215.866 117.418 215.866 117.372 215.866 117.333C215.866 116.883 215.601 116.477 215.015 116.477C214.456 116.477 214.058 116.895 213.913 117.45ZM214.683 120.036C213.534 120.036 212.894 119.29 212.894 118.184C212.894 116.797 213.772 115.715 215.042 115.715C216.101 115.715 216.784 116.399 216.784 117.481C216.784 117.672 216.772 117.907 216.737 118.098H213.808C213.804 118.141 213.804 118.188 213.804 118.231C213.804 118.86 214.155 119.266 214.71 119.266C215.194 119.266 215.538 119.02 215.69 118.645H216.601C216.386 119.45 215.64 120.036 214.683 120.036ZM200.905 129.274C201.409 129.274 201.847 128.954 201.948 128.5L202.038 128.106L201.069 128.153C200.542 128.172 200.226 128.395 200.226 128.747C200.226 129.067 200.503 129.274 200.905 129.274ZM200.554 130.016C199.847 130.016 199.284 129.54 199.284 128.875C199.284 128.043 199.944 127.555 201.042 127.508L202.171 127.461L202.226 127.211C202.241 127.145 202.241 127.094 202.241 127.04C202.241 126.704 201.979 126.493 201.522 126.493C201.054 126.493 200.765 126.708 200.687 127.04H199.757C199.894 126.25 200.601 125.715 201.597 125.715C202.55 125.715 203.187 126.211 203.187 126.93C203.187 127.051 203.175 127.184 203.155 127.274L202.589 129.95H201.667L201.772 129.45H201.757C201.499 129.793 201.065 130.016 200.554 130.016ZM203.366 129.95L204.245 125.801H205.163L205.03 126.438H205.05C205.331 125.989 205.815 125.715 206.397 125.715C207.144 125.715 207.69 126.211 207.69 126.918C207.69 127.067 207.671 127.247 207.636 127.426L207.101 129.95H206.147L206.647 127.586C206.679 127.442 206.69 127.317 206.69 127.219C206.69 126.797 206.382 126.528 205.921 126.528C205.401 126.528 204.972 126.899 204.847 127.481L204.323 129.95H203.366ZM209.636 130.016C208.722 130.016 208.147 129.348 208.147 128.305C208.147 126.833 209.046 125.731 210.222 125.731C210.862 125.731 211.366 126.094 211.499 126.586H211.522L212.015 124.313H212.968L211.769 129.95H210.823L210.956 129.317H210.937C210.667 129.739 210.183 130.016 209.636 130.016ZM209.987 129.215C210.702 129.215 211.253 128.485 211.253 127.543C211.253 126.958 210.897 126.547 210.347 126.547C209.655 126.547 209.12 127.243 209.12 128.192C209.12 128.821 209.448 129.215 209.987 129.215ZM181.667 135.801L179.69 139.95H178.671L178.503 136.922H178.483L177.065 139.95H176.026L175.784 135.801H176.698L176.769 138.954H176.788L178.229 135.801H179.171L179.304 138.954H179.323L180.698 135.801H181.667ZM181.292 139.95L182.491 134.313H183.448L182.991 136.438H183.015C183.269 136.032 183.733 135.723 184.354 135.723C185.147 135.723 185.659 136.266 185.659 136.934C185.659 137.083 185.64 137.25 185.604 137.426L185.058 139.95H184.104L184.616 137.586C184.644 137.454 184.659 137.34 184.659 137.235C184.659 136.817 184.358 136.528 183.874 136.528C183.327 136.528 182.894 136.918 182.772 137.481L182.249 139.95H181.292ZM187.147 137.45H189.097C189.101 137.418 189.101 137.372 189.101 137.333C189.101 136.883 188.835 136.477 188.249 136.477C187.69 136.477 187.292 136.895 187.147 137.45ZM187.917 140.036C186.769 140.036 186.128 139.29 186.128 138.184C186.128 136.797 187.007 135.715 188.276 135.715C189.335 135.715 190.019 136.399 190.019 137.481C190.019 137.672 190.007 137.907 189.972 138.098H187.042C187.038 138.141 187.038 138.188 187.038 138.231C187.038 138.86 187.39 139.266 187.944 139.266C188.429 139.266 188.772 139.02 188.925 138.645H189.835C189.62 139.45 188.874 140.036 187.917 140.036ZM190.218 139.95L191.097 135.801H192.015L191.882 136.438H191.901C192.183 135.989 192.667 135.715 193.249 135.715C193.995 135.715 194.542 136.211 194.542 136.918C194.542 137.067 194.522 137.247 194.487 137.426L193.952 139.95H192.999L193.499 137.586C193.53 137.442 193.542 137.317 193.542 137.219C193.542 136.797 193.233 136.528 192.772 136.528C192.253 136.528 191.823 136.899 191.698 137.481L191.175 139.95H190.218ZM152.8 149.231C153.519 149.231 154.046 148.516 154.046 147.586C154.046 146.942 153.702 146.52 153.167 146.52C152.444 146.52 151.921 147.227 151.921 148.165C151.921 148.809 152.265 149.231 152.8 149.231ZM153.194 145.715C154.296 145.715 155.019 146.45 155.019 147.559C155.019 148.969 154.065 150.036 152.776 150.036C151.675 150.036 150.952 149.297 150.952 148.188C150.952 146.782 151.905 145.715 153.194 145.715ZM155.218 149.95L156.101 145.801H157.022L156.905 146.368H156.925C157.159 145.989 157.538 145.739 158.034 145.739C158.249 145.739 158.425 145.782 158.542 145.836L158.351 146.727C158.226 146.668 158.011 146.618 157.8 146.618C157.167 146.618 156.812 146.969 156.663 147.649L156.175 149.95H155.218ZM159.87 150.016C158.956 150.016 158.382 149.348 158.382 148.305C158.382 146.833 159.28 145.731 160.456 145.731C161.097 145.731 161.601 146.094 161.733 146.586H161.757L162.249 144.313H163.202L162.003 149.95H161.058L161.19 149.317H161.171C160.901 149.739 160.417 150.016 159.87 150.016ZM160.222 149.215C160.937 149.215 161.487 148.485 161.487 147.543C161.487 146.958 161.132 146.547 160.581 146.547C159.89 146.547 159.354 147.243 159.354 148.192C159.354 148.821 159.683 149.215 160.222 149.215ZM164.124 147.45H166.073C166.077 147.418 166.077 147.372 166.077 147.333C166.077 146.883 165.812 146.477 165.226 146.477C164.667 146.477 164.269 146.895 164.124 147.45ZM164.894 150.036C163.745 150.036 163.104 149.29 163.104 148.184C163.104 146.797 163.983 145.715 165.253 145.715C166.312 145.715 166.995 146.399 166.995 147.481C166.995 147.672 166.983 147.907 166.948 148.098H164.019C164.015 148.141 164.015 148.188 164.015 148.231C164.015 148.86 164.366 149.266 164.921 149.266C165.405 149.266 165.749 149.02 165.901 148.645H166.812C166.597 149.45 165.851 150.036 164.894 150.036ZM167.194 149.95L168.077 145.801H168.999L168.882 146.368H168.901C169.136 145.989 169.515 145.739 170.011 145.739C170.226 145.739 170.401 145.782 170.519 145.836L170.327 146.727C170.202 146.668 169.987 146.618 169.776 146.618C169.144 146.618 168.788 146.969 168.64 147.649L168.151 149.95H167.194ZM170.183 149.95L171.065 145.801H172.026L171.147 149.95H170.183ZM171.772 145.266C171.472 145.266 171.233 145.028 171.233 144.727C171.233 144.426 171.472 144.188 171.772 144.188C172.077 144.188 172.315 144.426 172.315 144.727C172.315 145.028 172.077 145.266 171.772 145.266ZM171.968 149.95L172.847 145.801H173.765L173.632 146.438H173.651C173.933 145.989 174.417 145.715 174.999 145.715C175.745 145.715 176.292 146.211 176.292 146.918C176.292 147.067 176.272 147.247 176.237 147.426L175.702 149.95H174.749L175.249 147.586C175.28 147.442 175.292 147.317 175.292 147.219C175.292 146.797 174.983 146.528 174.522 146.528C174.003 146.528 173.573 146.899 173.448 147.481L172.925 149.95H171.968ZM178.226 151.516C177.159 151.516 176.421 151.008 176.421 150.243H177.374C177.425 150.575 177.761 150.79 178.253 150.79C178.874 150.79 179.261 150.473 179.413 149.844L179.55 149.25H179.515C179.265 149.653 178.776 149.915 178.249 149.915C177.351 149.915 176.753 149.258 176.753 148.247C176.753 146.946 177.546 145.731 178.819 145.731C179.452 145.731 179.94 146.102 180.085 146.614H180.12L180.288 145.801H181.226L180.366 149.868C180.136 150.95 179.335 151.516 178.226 151.516ZM178.593 149.168C179.351 149.168 179.847 148.418 179.847 147.543C179.847 146.954 179.46 146.547 178.944 146.547C178.214 146.547 177.718 147.262 177.718 148.172C177.718 148.766 178.03 149.168 178.593 149.168ZM183.265 149.95L183.976 146.586H183.308L183.464 145.825H184.124L184.21 145.383C184.366 144.579 184.843 144.227 185.726 144.227C185.972 144.227 186.179 144.258 186.343 144.293L186.198 144.997C186.12 144.973 185.964 144.958 185.819 144.958C185.429 144.958 185.218 145.125 185.147 145.477L185.077 145.825H185.983L185.823 146.586H184.933L184.226 149.95H183.265ZM187.62 149.231C188.339 149.231 188.866 148.516 188.866 147.586C188.866 146.942 188.522 146.52 187.987 146.52C187.265 146.52 186.741 147.227 186.741 148.165C186.741 148.809 187.085 149.231 187.62 149.231ZM188.015 145.715C189.116 145.715 189.839 146.45 189.839 147.559C189.839 148.969 188.886 150.036 187.597 150.036C186.495 150.036 185.772 149.297 185.772 148.188C185.772 146.782 186.726 145.715 188.015 145.715ZM192.159 149.231C192.878 149.231 193.405 148.516 193.405 147.586C193.405 146.942 193.062 146.52 192.526 146.52C191.804 146.52 191.28 147.227 191.28 148.165C191.28 148.809 191.624 149.231 192.159 149.231ZM192.554 145.715C193.655 145.715 194.378 146.45 194.378 147.559C194.378 148.969 193.425 150.036 192.136 150.036C191.034 150.036 190.312 149.297 190.312 148.188C190.312 146.782 191.265 145.715 192.554 145.715ZM196.331 150.016C195.417 150.016 194.843 149.348 194.843 148.305C194.843 146.833 195.741 145.731 196.917 145.731C197.558 145.731 198.062 146.094 198.194 146.586H198.218L198.71 144.313H199.663L198.464 149.95H197.519L197.651 149.317H197.632C197.362 149.739 196.878 150.016 196.331 150.016ZM196.683 149.215C197.397 149.215 197.948 148.485 197.948 147.543C197.948 146.958 197.593 146.547 197.042 146.547C196.351 146.547 195.815 147.243 195.815 148.192C195.815 148.821 196.144 149.215 196.683 149.215ZM201.136 149.95L202.019 145.801H202.979L202.101 149.95H201.136ZM202.726 145.266C202.425 145.266 202.187 145.028 202.187 144.727C202.187 144.426 202.425 144.188 202.726 144.188C203.03 144.188 203.269 144.426 203.269 144.727C203.269 145.028 203.03 145.266 202.726 145.266ZM202.921 149.95L203.8 145.801H204.718L204.585 146.438H204.604C204.886 145.989 205.37 145.715 205.952 145.715C206.698 145.715 207.245 146.211 207.245 146.918C207.245 147.067 207.226 147.247 207.19 147.426L206.655 149.95H205.702L206.202 147.586C206.233 147.442 206.245 147.317 206.245 147.219C206.245 146.797 205.937 146.528 205.476 146.528C204.956 146.528 204.526 146.899 204.401 147.481L203.878 149.95H202.921ZM152.351 159.993C151.659 159.993 151.19 159.7 151.19 159.114C151.19 159.004 151.202 158.868 151.229 158.719L151.687 156.606H151.069L151.229 155.844H151.847L152.058 154.829H153.015L152.8 155.844H153.663L153.503 156.606H152.644L152.229 158.536C152.202 158.645 152.19 158.75 152.19 158.833C152.19 159.114 152.378 159.227 152.71 159.227C152.843 159.227 152.913 159.219 152.991 159.208L152.831 159.946C152.702 159.973 152.522 159.993 152.351 159.993ZM153.425 159.95L154.624 154.313H155.581L155.124 156.438H155.147C155.401 156.032 155.866 155.723 156.487 155.723C157.28 155.723 157.792 156.266 157.792 156.934C157.792 157.083 157.772 157.25 157.737 157.426L157.19 159.95H156.237L156.749 157.586C156.776 157.454 156.792 157.34 156.792 157.235C156.792 156.817 156.491 156.528 156.007 156.528C155.46 156.528 155.026 156.918 154.905 157.481L154.382 159.95H153.425ZM159.28 157.45H161.229C161.233 157.418 161.233 157.372 161.233 157.333C161.233 156.883 160.968 156.477 160.382 156.477C159.823 156.477 159.425 156.895 159.28 157.45ZM160.05 160.036C158.901 160.036 158.261 159.29 158.261 158.184C158.261 156.797 159.14 155.715 160.409 155.715C161.468 155.715 162.151 156.399 162.151 157.481C162.151 157.672 162.14 157.907 162.104 158.098H159.175C159.171 158.141 159.171 158.188 159.171 158.231C159.171 158.86 159.522 159.266 160.077 159.266C160.562 159.266 160.905 159.02 161.058 158.645H161.968C161.753 159.45 161.007 160.036 160.05 160.036ZM166.651 155.715C167.737 155.715 168.37 156.403 168.37 157.196C168.37 157.266 168.37 157.266 168.37 157.29H167.448C167.437 156.864 167.136 156.536 166.62 156.536C165.913 156.536 165.417 157.215 165.417 158.192C165.417 158.825 165.753 159.215 166.261 159.215C166.729 159.215 167.077 158.942 167.222 158.508H168.144C167.972 159.391 167.198 160.036 166.233 160.036C165.097 160.036 164.452 159.297 164.452 158.231C164.452 156.766 165.335 155.715 166.651 155.715ZM170.14 159.274C170.644 159.274 171.081 158.954 171.183 158.5L171.272 158.106L170.304 158.153C169.776 158.172 169.46 158.395 169.46 158.747C169.46 159.067 169.737 159.274 170.14 159.274ZM169.788 160.016C169.081 160.016 168.519 159.54 168.519 158.875C168.519 158.043 169.179 157.555 170.276 157.508L171.405 157.461L171.46 157.211C171.476 157.145 171.476 157.094 171.476 157.04C171.476 156.704 171.214 156.493 170.757 156.493C170.288 156.493 169.999 156.708 169.921 157.04H168.991C169.128 156.25 169.835 155.715 170.831 155.715C171.784 155.715 172.421 156.211 172.421 156.93C172.421 157.051 172.409 157.184 172.39 157.274L171.823 159.95H170.901L171.007 159.45H170.991C170.733 159.793 170.3 160.016 169.788 160.016ZM172.89 159.95L173.601 156.586H172.933L173.089 155.825H173.749L173.835 155.383C173.991 154.579 174.468 154.227 175.351 154.227C175.597 154.227 175.804 154.258 175.968 154.293L175.823 154.997C175.745 154.973 175.589 154.958 175.444 154.958C175.054 154.958 174.843 155.125 174.772 155.477L174.702 155.825H175.608L175.448 156.586H174.558L173.851 159.95H172.89ZM176.421 157.45H178.37C178.374 157.418 178.374 157.372 178.374 157.333C178.374 156.883 178.108 156.477 177.522 156.477C176.964 156.477 176.565 156.895 176.421 157.45ZM177.19 160.036C176.042 160.036 175.401 159.29 175.401 158.184C175.401 156.797 176.28 155.715 177.55 155.715C178.608 155.715 179.292 156.399 179.292 157.481C179.292 157.672 179.28 157.907 179.245 158.098H176.315C176.312 158.141 176.312 158.188 176.312 158.231C176.312 158.86 176.663 159.266 177.218 159.266C177.702 159.266 178.046 159.02 178.198 158.645H179.108C178.894 159.45 178.147 160.036 177.19 160.036ZM181.124 159.993C180.433 159.993 179.964 159.7 179.964 159.114C179.964 159.004 179.976 158.868 180.003 158.719L180.46 156.606H179.843L180.003 155.844H180.62L180.831 154.829H181.788L181.573 155.844H182.437L182.276 156.606H181.417L181.003 158.536C180.976 158.645 180.964 158.75 180.964 158.833C180.964 159.114 181.151 159.227 181.483 159.227C181.616 159.227 181.687 159.219 181.765 159.208L181.604 159.946C181.476 159.973 181.296 159.993 181.124 159.993ZM183.437 157.45H185.386C185.39 157.418 185.39 157.372 185.39 157.333C185.39 156.883 185.124 156.477 184.538 156.477C183.979 156.477 183.581 156.895 183.437 157.45ZM184.206 160.036C183.058 160.036 182.417 159.29 182.417 158.184C182.417 156.797 183.296 155.715 184.565 155.715C185.624 155.715 186.308 156.399 186.308 157.481C186.308 157.672 186.296 157.907 186.261 158.098H183.331C183.327 158.141 183.327 158.188 183.327 158.231C183.327 158.86 183.679 159.266 184.233 159.266C184.718 159.266 185.062 159.02 185.214 158.645H186.124C185.909 159.45 185.163 160.036 184.206 160.036ZM186.507 159.95L187.39 155.801H188.312L188.194 156.368H188.214C188.448 155.989 188.827 155.739 189.323 155.739C189.538 155.739 189.714 155.782 189.831 155.836L189.64 156.727C189.515 156.668 189.3 156.618 189.089 156.618C188.456 156.618 188.101 156.969 187.952 157.649L187.464 159.95H186.507ZM189.495 159.95L190.378 155.801H191.339L190.46 159.95H189.495ZM191.085 155.266C190.784 155.266 190.546 155.028 190.546 154.727C190.546 154.426 190.784 154.188 191.085 154.188C191.39 154.188 191.628 154.426 191.628 154.727C191.628 155.028 191.39 155.266 191.085 155.266ZM192.999 159.274C193.503 159.274 193.94 158.954 194.042 158.5L194.132 158.106L193.163 158.153C192.636 158.172 192.319 158.395 192.319 158.747C192.319 159.067 192.597 159.274 192.999 159.274ZM192.647 160.016C191.94 160.016 191.378 159.54 191.378 158.875C191.378 158.043 192.038 157.555 193.136 157.508L194.265 157.461L194.319 157.211C194.335 157.145 194.335 157.094 194.335 157.04C194.335 156.704 194.073 156.493 193.616 156.493C193.147 156.493 192.858 156.708 192.78 157.04H191.851C191.987 156.25 192.694 155.715 193.69 155.715C194.644 155.715 195.28 156.211 195.28 156.93C195.28 157.051 195.269 157.184 195.249 157.274L194.683 159.95H193.761L193.866 159.45H193.851C193.593 159.793 193.159 160.016 192.647 160.016ZM196.249 159.993C195.937 159.993 195.687 159.739 195.687 159.418C195.687 159.102 195.937 158.848 196.249 158.848C196.562 158.848 196.812 159.102 196.812 159.418C196.812 159.739 196.562 159.993 196.249 159.993Z" fill="#1A6B83"/>
<path d="M153.194 125.657C154.288 125.657 154.972 126.344 154.972 127.176C154.972 127.278 154.972 127.286 154.972 127.305H153.901C153.894 126.903 153.616 126.602 153.151 126.602C152.503 126.602 152.05 127.25 152.05 128.176C152.05 128.743 152.351 129.094 152.812 129.094C153.245 129.094 153.565 128.836 153.69 128.422H154.765C154.601 129.372 153.796 130.043 152.772 130.043C151.612 130.043 150.929 129.309 150.929 128.223C150.929 126.7 151.827 125.657 153.194 125.657ZM157.218 129.122C157.886 129.122 158.378 128.446 158.378 127.563C158.378 126.969 158.065 126.579 157.581 126.579C156.909 126.579 156.417 127.247 156.417 128.137C156.417 128.727 156.733 129.122 157.218 129.122ZM157.62 125.657C158.761 125.657 159.515 126.411 159.515 127.536C159.515 128.973 158.53 130.043 157.183 130.043C156.042 130.043 155.288 129.29 155.288 128.161C155.288 126.723 156.272 125.657 157.62 125.657ZM159.675 129.95L160.565 125.75H161.64L161.503 126.395H161.526C161.812 125.93 162.312 125.657 162.894 125.657C163.647 125.657 164.187 126.153 164.187 126.868C164.187 127.016 164.167 127.196 164.132 127.379L163.589 129.95H162.479L162.983 127.563C163.011 127.43 163.022 127.321 163.022 127.227C163.022 126.84 162.733 126.59 162.304 126.59C161.827 126.59 161.433 126.934 161.315 127.461L160.788 129.95H159.675ZM164.741 125.747H165.854L166.097 128.875H166.12L167.659 125.747H168.858L166.542 129.95H165.269L164.741 125.747ZM169.745 127.399H171.565C171.569 127.372 171.573 127.321 171.573 127.282C171.573 126.868 171.308 126.512 170.78 126.512C170.261 126.512 169.878 126.887 169.745 127.399ZM170.444 130.043C169.276 130.043 168.589 129.301 168.589 128.153C168.589 126.739 169.495 125.657 170.819 125.657C171.901 125.657 172.62 126.356 172.62 127.454C172.62 127.657 172.604 127.907 172.562 128.106H169.632C169.628 128.153 169.624 128.196 169.624 128.239C169.624 128.793 169.956 129.176 170.487 129.176C170.933 129.176 171.257 128.95 171.386 128.614H172.437C172.222 129.45 171.456 130.043 170.444 130.043ZM172.776 129.95L173.667 125.75H174.741L174.604 126.395H174.628C174.913 125.93 175.413 125.657 175.995 125.657C176.749 125.657 177.288 126.153 177.288 126.868C177.288 127.016 177.269 127.196 177.233 127.379L176.69 129.95H175.581L176.085 127.563C176.112 127.43 176.124 127.321 176.124 127.227C176.124 126.84 175.835 126.59 175.405 126.59C174.929 126.59 174.534 126.934 174.417 127.461L173.89 129.95H172.776ZM177.44 129.95L178.331 125.75H179.452L178.562 129.95H177.44ZM179.116 125.301C178.772 125.301 178.507 125.04 178.507 124.7C178.507 124.36 178.772 124.094 179.116 124.094C179.456 124.094 179.722 124.36 179.722 124.7C179.722 125.04 179.456 125.301 179.116 125.301ZM180.792 127.399H182.612C182.616 127.372 182.62 127.321 182.62 127.282C182.62 126.868 182.354 126.512 181.827 126.512C181.308 126.512 180.925 126.887 180.792 127.399ZM181.491 130.043C180.323 130.043 179.636 129.301 179.636 128.153C179.636 126.739 180.542 125.657 181.866 125.657C182.948 125.657 183.667 126.356 183.667 127.454C183.667 127.657 183.651 127.907 183.608 128.106H180.679C180.675 128.153 180.671 128.196 180.671 128.239C180.671 128.793 181.003 129.176 181.534 129.176C181.979 129.176 182.304 128.95 182.433 128.614H183.483C183.269 129.45 182.503 130.043 181.491 130.043ZM183.823 129.95L184.714 125.75H185.788L185.651 126.395H185.675C185.96 125.93 186.46 125.657 187.042 125.657C187.796 125.657 188.335 126.153 188.335 126.868C188.335 127.016 188.315 127.196 188.28 127.379L187.737 129.95H186.628L187.132 127.563C187.159 127.43 187.171 127.321 187.171 127.227C187.171 126.84 186.882 126.59 186.452 126.59C185.976 126.59 185.581 126.934 185.464 127.461L184.937 129.95H183.823ZM191.03 125.657C192.124 125.657 192.808 126.344 192.808 127.176C192.808 127.278 192.808 127.286 192.808 127.305H191.737C191.729 126.903 191.452 126.602 190.987 126.602C190.339 126.602 189.886 127.25 189.886 128.176C189.886 128.743 190.187 129.094 190.647 129.094C191.081 129.094 191.401 128.836 191.526 128.422H192.601C192.437 129.372 191.632 130.043 190.608 130.043C189.448 130.043 188.765 129.309 188.765 128.223C188.765 126.7 189.663 125.657 191.03 125.657ZM194.284 127.399H196.104C196.108 127.372 196.112 127.321 196.112 127.282C196.112 126.868 195.847 126.512 195.319 126.512C194.8 126.512 194.417 126.887 194.284 127.399ZM194.983 130.043C193.815 130.043 193.128 129.301 193.128 128.153C193.128 126.739 194.034 125.657 195.358 125.657C196.44 125.657 197.159 126.356 197.159 127.454C197.159 127.657 197.144 127.907 197.101 128.106H194.171C194.167 128.153 194.163 128.196 194.163 128.239C194.163 128.793 194.495 129.176 195.026 129.176C195.472 129.176 195.796 128.95 195.925 128.614H196.976C196.761 129.45 195.995 130.043 194.983 130.043ZM151.226 137C151.226 136.204 151.917 135.661 152.964 135.661C153.964 135.661 154.663 136.215 154.683 137.016H153.667C153.64 136.696 153.351 136.469 152.948 136.469C152.542 136.469 152.292 136.645 152.292 136.899C152.292 137.118 152.437 137.227 152.894 137.375L153.312 137.516C154.089 137.774 154.397 138.094 154.397 138.653C154.397 139.477 153.663 140.043 152.589 140.043C151.479 140.043 150.761 139.477 150.729 138.645H151.8C151.839 138.989 152.144 139.231 152.624 139.231C153.022 139.231 153.288 139.04 153.288 138.77C153.288 138.571 153.159 138.473 152.71 138.329L152.339 138.204C151.565 137.95 151.226 137.579 151.226 137ZM157.112 139.075C157.757 139.075 158.261 138.415 158.261 137.54C158.261 136.958 157.956 136.598 157.464 136.598C156.776 136.598 156.292 137.333 156.292 138.165C156.292 138.704 156.616 139.075 157.112 139.075ZM155.569 141.321H154.46L155.644 135.75H156.733L156.597 136.375H156.62C156.909 135.938 157.397 135.684 157.929 135.684C158.835 135.684 159.394 136.336 159.394 137.372C159.394 138.891 158.503 140.016 157.315 140.016C156.694 140.016 156.218 139.684 156.054 139.161H156.03L155.569 141.321ZM160.995 137.399H162.815C162.819 137.372 162.823 137.321 162.823 137.282C162.823 136.868 162.558 136.512 162.03 136.512C161.511 136.512 161.128 136.887 160.995 137.399ZM161.694 140.043C160.526 140.043 159.839 139.301 159.839 138.153C159.839 136.739 160.745 135.657 162.069 135.657C163.151 135.657 163.87 136.356 163.87 137.454C163.87 137.657 163.854 137.907 163.812 138.106H160.882C160.878 138.153 160.874 138.196 160.874 138.239C160.874 138.793 161.206 139.176 161.737 139.176C162.183 139.176 162.507 138.95 162.636 138.614H163.687C163.472 139.45 162.706 140.043 161.694 140.043ZM165.479 137.399H167.3C167.304 137.372 167.308 137.321 167.308 137.282C167.308 136.868 167.042 136.512 166.515 136.512C165.995 136.512 165.612 136.887 165.479 137.399ZM166.179 140.043C165.011 140.043 164.323 139.301 164.323 138.153C164.323 136.739 165.229 135.657 166.554 135.657C167.636 135.657 168.354 136.356 168.354 137.454C168.354 137.657 168.339 137.907 168.296 138.106H165.366C165.362 138.153 165.358 138.196 165.358 138.239C165.358 138.793 165.69 139.176 166.222 139.176C166.667 139.176 166.991 138.95 167.12 138.614H168.171C167.956 139.45 167.19 140.043 166.179 140.043ZM170.265 140.016C169.358 140.016 168.792 139.36 168.792 138.329C168.792 136.813 169.694 135.684 170.886 135.684C171.522 135.684 172.011 136.02 172.147 136.504H172.171L172.647 134.313H173.761L172.562 139.95H171.464L171.597 139.325H171.573C171.292 139.754 170.819 140.016 170.265 140.016ZM170.726 139.098C171.386 139.098 171.901 138.403 171.901 137.532C171.901 136.993 171.577 136.622 171.077 136.622C170.433 136.622 169.933 137.282 169.933 138.168C169.933 138.735 170.237 139.098 170.726 139.098Z" fill="#E1715B"/>
</g>
<rect width="250" height="49" transform="translate(0 198.927)" fill="#DFF6F9"/>
<path d="M21.8359 219.927H20.1367V212.427H20.0854L17.0312 219.839H15.7422L12.688 212.427H12.6367V219.927H10.9302V209.358H13.1201L16.3574 217.334H16.416L19.6533 209.358H21.8359V219.927ZM26.8677 213.416C25.8423 213.416 25.1025 214.199 25.0293 215.283H28.6548C28.6182 214.185 27.915 213.416 26.8677 213.416ZM28.6621 217.605H30.3687C30.1343 219.07 28.772 220.081 26.9336 220.081C24.6045 220.081 23.1982 218.55 23.1982 216.074C23.1982 213.621 24.6191 212.002 26.8604 212.002C29.0649 212.002 30.4419 213.533 30.4419 215.891V216.484H25.0146V216.594C25.0146 217.839 25.7764 218.674 26.9702 218.674C27.8198 218.674 28.4644 218.25 28.6621 217.605ZM34.9683 213.416C33.9429 213.416 33.2031 214.199 33.1299 215.283H36.7554C36.7188 214.185 36.0156 213.416 34.9683 213.416ZM36.7627 217.605H38.4692C38.2349 219.07 36.8726 220.081 35.0342 220.081C32.7051 220.081 31.2988 218.55 31.2988 216.074C31.2988 213.621 32.7197 212.002 34.9609 212.002C37.1655 212.002 38.5425 213.533 38.5425 215.891V216.484H33.1152V216.594C33.1152 217.839 33.877 218.674 35.0708 218.674C35.9204 218.674 36.5649 218.25 36.7627 217.605ZM40.2271 210.347H42.0508V212.163H43.5156V213.569H42.0508V217.605C42.0508 218.242 42.3438 218.535 42.9883 218.535C43.1567 218.535 43.3911 218.521 43.5083 218.499V219.89C43.3105 219.934 42.9517 219.963 42.5635 219.963C40.8862 219.963 40.2271 219.37 40.2271 217.861V213.569H39.1138V212.163H40.2271V210.347ZM48.269 210.347H50.0928V212.163H51.5576V213.569H50.0928V217.605C50.0928 218.242 50.3857 218.535 51.0303 218.535C51.1987 218.535 51.4331 218.521 51.5503 218.499V219.89C51.3525 219.934 50.9937 219.963 50.6055 219.963C48.9282 219.963 48.269 219.37 48.269 217.861V213.569H47.1558V212.163H48.269V210.347ZM52.854 219.927V209.358H54.6558V213.496H54.6924C55.1099 212.551 55.9668 212.017 57.146 212.017C58.8599 212.017 59.8633 213.145 59.8633 214.924V219.927H58.0396V215.298C58.0396 214.214 57.4976 213.562 56.4429 213.562C55.3442 213.562 54.6777 214.324 54.6777 215.466V219.927H52.854ZM64.6753 213.416C63.6499 213.416 62.9102 214.199 62.8369 215.283H66.4624C66.4258 214.185 65.7227 213.416 64.6753 213.416ZM66.4697 217.605H68.1763C67.9419 219.07 66.5796 220.081 64.7412 220.081C62.4121 220.081 61.0059 218.55 61.0059 216.074C61.0059 213.621 62.4268 212.002 64.668 212.002C66.8726 212.002 68.2495 213.533 68.2495 215.891V216.484H62.8223V216.594C62.8223 217.839 63.584 218.674 64.7778 218.674C65.6274 218.674 66.272 218.25 66.4697 217.605ZM72.6147 209.358H76.7236C78.8257 209.358 80.2832 210.786 80.2832 212.896C80.2832 215.005 78.7817 216.433 76.6431 216.433H74.5044V219.927H72.6147V209.358ZM74.5044 210.903V214.91H76.2183C77.5732 214.91 78.3643 214.177 78.3643 212.896C78.3643 211.628 77.5806 210.903 76.2256 210.903H74.5044ZM84.5386 213.416C83.5132 213.416 82.7734 214.199 82.7002 215.283H86.3257C86.2891 214.185 85.5859 213.416 84.5386 213.416ZM86.333 217.605H88.0396C87.8052 219.07 86.4429 220.081 84.6045 220.081C82.2754 220.081 80.8691 218.55 80.8691 216.074C80.8691 213.621 82.29 212.002 84.5312 212.002C86.7358 212.002 88.1128 213.533 88.1128 215.891V216.484H82.6855V216.594C82.6855 217.839 83.4473 218.674 84.6411 218.674C85.4907 218.674 86.1353 218.25 86.333 217.605ZM89.292 219.927V212.163H91.0425V213.518H91.0791C91.3428 212.573 92.0239 212.031 92.9395 212.031C93.1738 212.031 93.3789 212.075 93.5107 212.104V213.752C93.3569 213.694 93.0786 213.65 92.771 213.65C91.7383 213.65 91.1157 214.316 91.1157 215.408V219.927H89.292ZM94.3091 214.39C94.3091 212.969 95.5615 212.002 97.4512 212.002C99.2749 212.002 100.513 212.983 100.557 214.419H98.8574C98.7988 213.752 98.2642 213.342 97.4146 213.342C96.6089 213.342 96.0815 213.723 96.0815 214.287C96.0815 214.727 96.4331 215.02 97.1948 215.203L98.5791 215.51C100.132 215.876 100.74 216.477 100.74 217.627C100.74 219.092 99.3848 220.081 97.4219 220.081C95.4736 220.081 94.2358 219.114 94.1113 217.642H95.9058C96.0156 218.352 96.5649 218.748 97.4878 218.748C98.374 218.748 98.9233 218.389 98.9233 217.81C98.9233 217.356 98.6377 217.114 97.8833 216.924L96.4697 216.594C95.0342 216.257 94.3091 215.51 94.3091 214.39ZM105.339 220.081C103.062 220.081 101.582 218.564 101.582 216.045C101.582 213.54 103.076 212.002 105.339 212.002C107.603 212.002 109.097 213.533 109.097 216.045C109.097 218.564 107.617 220.081 105.339 220.081ZM105.339 218.638C106.497 218.638 107.244 217.7 107.244 216.045C107.244 214.397 106.497 213.452 105.339 213.452C104.189 213.452 103.435 214.397 103.435 216.045C103.435 217.7 104.182 218.638 105.339 218.638ZM110.269 219.927V212.163H112.019V213.496H112.056C112.473 212.573 113.301 212.017 114.495 212.017C116.208 212.017 117.183 213.115 117.183 214.91V219.927H115.359V215.276C115.359 214.177 114.846 213.562 113.806 213.562C112.759 213.562 112.092 214.316 112.092 215.43V219.927H110.269ZM121.482 218.674C122.515 218.674 123.342 217.986 123.342 217.048V216.455L121.548 216.565C120.669 216.624 120.164 217.019 120.164 217.634C120.164 218.271 120.691 218.674 121.482 218.674ZM120.933 220.051C119.431 220.051 118.34 219.106 118.34 217.708C118.34 216.331 119.402 215.503 121.292 215.386L123.342 215.269V214.712C123.342 213.899 122.793 213.43 121.892 213.43C121.028 213.43 120.479 213.848 120.361 214.492H118.669C118.75 213.042 119.988 212.002 121.965 212.002C123.892 212.002 125.144 213.02 125.144 214.58V219.927H123.386V218.689H123.35C122.903 219.531 121.929 220.051 120.933 220.051ZM127.927 222.161H126.528L127.136 218.184H128.916L127.927 222.161ZM182.903 222.161H181.504L182.112 218.184H183.892L182.903 222.161ZM190.637 218.674C191.67 218.674 192.498 217.986 192.498 217.048V216.455L190.703 216.565C189.824 216.624 189.319 217.019 189.319 217.634C189.319 218.271 189.846 218.674 190.637 218.674ZM190.088 220.051C188.586 220.051 187.495 219.106 187.495 217.708C187.495 216.331 188.557 215.503 190.447 215.386L192.498 215.269V214.712C192.498 213.899 191.948 213.43 191.047 213.43C190.183 213.43 189.634 213.848 189.517 214.492H187.825C187.905 213.042 189.143 212.002 191.121 212.002C193.047 212.002 194.299 213.02 194.299 214.58V219.927H192.542V218.689H192.505C192.058 219.531 191.084 220.051 190.088 220.051ZM200.847 219.927H198.958V209.358H205.696V210.955H200.847V214.075H205.278V215.613H200.847V219.927ZM206.934 219.927V212.163H208.757V219.927H206.934ZM207.842 211.145C207.278 211.145 206.831 210.706 206.831 210.156C206.831 209.6 207.278 209.16 207.842 209.16C208.413 209.16 208.86 209.6 208.86 210.156C208.86 210.706 208.413 211.145 207.842 211.145ZM210.288 219.927V212.163H212.039V213.518H212.075C212.339 212.573 213.02 212.031 213.936 212.031C214.17 212.031 214.375 212.075 214.507 212.104V213.752C214.353 213.694 214.075 213.65 213.767 213.65C212.734 213.65 212.112 214.316 212.112 215.408V219.927H210.288ZM215.305 214.39C215.305 212.969 216.558 212.002 218.447 212.002C220.271 212.002 221.509 212.983 221.553 214.419H219.854C219.795 213.752 219.26 213.342 218.411 213.342C217.605 213.342 217.078 213.723 217.078 214.287C217.078 214.727 217.429 215.02 218.191 215.203L219.575 215.51C221.128 215.876 221.736 216.477 221.736 217.627C221.736 219.092 220.381 220.081 218.418 220.081C216.47 220.081 215.232 219.114 215.107 217.642H216.902C217.012 218.352 217.561 218.748 218.484 218.748C219.37 218.748 219.919 218.389 219.919 217.81C219.919 217.356 219.634 217.114 218.879 216.924L217.466 216.594C216.03 216.257 215.305 215.51 215.305 214.39ZM223.406 210.347H225.229V212.163H226.694V213.569H225.229V217.605C225.229 218.242 225.522 218.535 226.167 218.535C226.335 218.535 226.57 218.521 226.687 218.499V219.89C226.489 219.934 226.13 219.963 225.742 219.963C224.065 219.963 223.406 219.37 223.406 217.861V213.569H222.292V212.163H223.406V210.347ZM232.803 216.448H227.991V214.822H232.803V216.448ZM15.3979 237.927H13.5156V228.955H10.3516V227.358H18.5547V228.955H15.3979V237.927ZM19.3604 237.927V230.163H21.1841V237.927H19.3604ZM20.2686 229.145C19.7046 229.145 19.2578 228.706 19.2578 228.156C19.2578 227.6 19.7046 227.16 20.2686 227.16C20.8398 227.16 21.2866 227.6 21.2866 228.156C21.2866 228.706 20.8398 229.145 20.2686 229.145ZM22.7148 237.927V230.163H24.4653V231.511H24.502C24.8389 230.61 25.6592 230.017 26.7139 230.017C27.8125 230.017 28.5962 230.581 28.8818 231.577H28.9258C29.2993 230.617 30.2222 230.017 31.3428 230.017C32.8735 230.017 33.877 231.049 33.877 232.602V237.927H32.0532V233.049C32.0532 232.097 31.5552 231.555 30.6616 231.555C29.7827 231.555 29.1821 232.199 29.1821 233.129V237.927H27.4097V232.954C27.4097 232.089 26.8823 231.555 26.0327 231.555C25.1538 231.555 24.5386 232.236 24.5386 233.173V237.927H22.7148ZM38.689 231.416C37.6636 231.416 36.9238 232.199 36.8506 233.283H40.4761C40.4395 232.185 39.7363 231.416 38.689 231.416ZM40.4834 235.605H42.1899C41.9556 237.07 40.5933 238.081 38.7549 238.081C36.4258 238.081 35.0195 236.55 35.0195 234.074C35.0195 231.621 36.4404 230.002 38.6816 230.002C40.8862 230.002 42.2632 231.533 42.2632 233.891V234.484H36.8359V234.594C36.8359 235.839 37.5977 236.674 38.7915 236.674C39.6411 236.674 40.2856 236.25 40.4834 235.605ZM48.5181 227.358V234.03C48.5181 235.473 49.4043 236.455 50.9717 236.455C52.5391 236.455 53.4326 235.473 53.4326 234.03V227.358H55.3149V234.199C55.3149 236.506 53.6523 238.103 50.9717 238.103C48.2983 238.103 46.6284 236.506 46.6284 234.199V227.358H48.5181ZM56.8677 232.39C56.8677 230.969 58.1201 230.002 60.0098 230.002C61.8335 230.002 63.0713 230.983 63.1152 232.419H61.416C61.3574 231.752 60.8228 231.342 59.9731 231.342C59.1675 231.342 58.6401 231.723 58.6401 232.287C58.6401 232.727 58.9917 233.02 59.7534 233.203L61.1377 233.51C62.6904 233.876 63.2983 234.477 63.2983 235.627C63.2983 237.092 61.9434 238.081 59.9805 238.081C58.0322 238.081 56.7944 237.114 56.6699 235.642H58.4644C58.5742 236.352 59.1235 236.748 60.0464 236.748C60.9326 236.748 61.4819 236.389 61.4819 235.81C61.4819 235.356 61.1963 235.114 60.4419 234.924L59.0283 234.594C57.5928 234.257 56.8677 233.51 56.8677 232.39ZM67.8101 231.416C66.7847 231.416 66.0449 232.199 65.9717 233.283H69.5972C69.5605 232.185 68.8574 231.416 67.8101 231.416ZM69.6045 235.605H71.311C71.0767 237.07 69.7144 238.081 67.876 238.081C65.5469 238.081 64.1406 236.55 64.1406 234.074C64.1406 231.621 65.5615 230.002 67.8027 230.002C70.0073 230.002 71.3843 231.533 71.3843 233.891V234.484H65.957V234.594C65.957 235.839 66.7188 236.674 67.9126 236.674C68.7622 236.674 69.4067 236.25 69.6045 235.605ZM72.5635 237.927V230.163H74.314V231.518H74.3506C74.6143 230.573 75.2954 230.031 76.2109 230.031C76.4453 230.031 76.6504 230.075 76.7822 230.104V231.752C76.6284 231.694 76.3501 231.65 76.0425 231.65C75.0098 231.65 74.3872 232.316 74.3872 233.408V237.927H72.5635ZM80.7666 237.927V230.163H82.5903V237.927H80.7666ZM81.6748 229.145C81.1108 229.145 80.6641 228.706 80.6641 228.156C80.6641 227.6 81.1108 227.16 81.6748 227.16C82.2461 227.16 82.6929 227.6 82.6929 228.156C82.6929 228.706 82.2461 229.145 81.6748 229.145ZM84.1211 237.927V230.163H85.8716V231.496H85.9082C86.3257 230.573 87.1533 230.017 88.3472 230.017C90.061 230.017 91.0352 231.115 91.0352 232.91V237.927H89.2114V233.276C89.2114 232.177 88.6987 231.562 87.6587 231.562C86.6113 231.562 85.9448 232.316 85.9448 233.43V237.927H84.1211ZM98.3374 236.674C99.3701 236.674 100.198 235.986 100.198 235.048V234.455L98.4033 234.565C97.5244 234.624 97.019 235.019 97.019 235.634C97.019 236.271 97.5464 236.674 98.3374 236.674ZM97.7881 238.051C96.2866 238.051 95.1953 237.106 95.1953 235.708C95.1953 234.331 96.2573 233.503 98.147 233.386L100.198 233.269V232.712C100.198 231.899 99.6484 231.43 98.7476 231.43C97.8833 231.43 97.334 231.848 97.2168 232.492H95.5249C95.6055 231.042 96.8433 230.002 98.8208 230.002C100.747 230.002 102 231.02 102 232.58V237.927H100.242V236.689H100.205C99.7583 237.531 98.7842 238.051 97.7881 238.051ZM108.547 228.889V232.5H110.679C111.88 232.5 112.576 231.833 112.576 230.69C112.576 229.577 111.836 228.889 110.642 228.889H108.547ZM108.547 233.95V237.927H106.658V227.358H110.854C113.14 227.358 114.509 228.625 114.509 230.646C114.509 232.045 113.777 233.21 112.517 233.664L114.824 237.927H112.671L110.591 233.95H108.547ZM122.734 230.163V237.927H120.977V236.579H120.94C120.53 237.524 119.746 238.066 118.567 238.066C116.882 238.066 115.813 236.975 115.813 235.18V230.163H117.637V234.814C117.637 235.927 118.179 236.528 119.204 236.528C120.259 236.528 120.911 235.781 120.911 234.653V230.163H122.734ZM124.089 232.39C124.089 230.969 125.342 230.002 127.231 230.002C129.055 230.002 130.293 230.983 130.337 232.419H128.638C128.579 231.752 128.044 231.342 127.195 231.342C126.389 231.342 125.862 231.723 125.862 232.287C125.862 232.727 126.213 233.02 126.975 233.203L128.359 233.51C129.912 233.876 130.52 234.477 130.52 235.627C130.52 237.092 129.165 238.081 127.202 238.081C125.254 238.081 124.016 237.114 123.892 235.642H125.686C125.796 236.352 126.345 236.748 127.268 236.748C128.154 236.748 128.704 236.389 128.704 235.81C128.704 235.356 128.418 235.114 127.664 234.924L126.25 234.594C124.814 234.257 124.089 233.51 124.089 232.39ZM131.736 237.927V227.358H133.538V231.496H133.574C133.992 230.551 134.849 230.017 136.028 230.017C137.742 230.017 138.745 231.145 138.745 232.924V237.927H136.921V233.298C136.921 232.214 136.379 231.562 135.325 231.562C134.226 231.562 133.56 232.324 133.56 233.466V237.927H131.736ZM141.484 238.007C140.891 238.007 140.43 237.546 140.43 236.953C140.43 236.367 140.891 235.898 141.484 235.898C142.07 235.898 142.532 236.367 142.532 236.953C142.532 237.546 142.07 238.007 141.484 238.007Z" fill="#1A6B83"/>
<path d="M132.563 216.917H134.695C134.797 217.788 135.706 218.359 136.877 218.359C138.057 218.359 138.862 217.795 138.862 217.019C138.862 216.331 138.357 215.95 137.083 215.664L135.706 215.364C133.757 214.946 132.798 213.958 132.798 212.412C132.798 210.464 134.482 209.175 136.841 209.175C139.302 209.175 140.847 210.442 140.884 212.354H138.811C138.738 211.46 137.954 210.918 136.848 210.918C135.757 210.918 135.024 211.438 135.024 212.222C135.024 212.874 135.537 213.24 136.753 213.518L138.035 213.789C140.151 214.243 141.074 215.151 141.074 216.763C141.074 218.813 139.412 220.11 136.79 220.11C134.248 220.11 132.629 218.901 132.563 216.917ZM145.286 218.506C146.216 218.506 146.985 217.898 146.985 217.048V216.477L145.33 216.58C144.531 216.638 144.077 216.997 144.077 217.554C144.077 218.14 144.561 218.506 145.286 218.506ZM144.583 220.051C143.088 220.051 141.953 219.084 141.953 217.671C141.953 216.243 143.052 215.415 145.007 215.298L146.985 215.181V214.661C146.985 213.928 146.472 213.503 145.667 213.503C144.868 213.503 144.363 213.899 144.26 214.478H142.305C142.385 212.954 143.682 211.907 145.762 211.907C147.776 211.907 149.087 212.947 149.087 214.529V219.927H147.021V218.726H146.978C146.538 219.561 145.564 220.051 144.583 220.051ZM150.471 219.927V212.075H152.537V213.474H152.581C152.998 212.5 153.826 211.929 155.034 211.929C156.777 211.929 157.759 213.027 157.759 214.866V219.927H155.62V215.312C155.62 214.287 155.137 213.701 154.177 213.701C153.218 213.701 152.61 214.404 152.61 215.422V219.927H150.471ZM162.029 220.051C160.066 220.051 158.828 218.499 158.828 215.986C158.828 213.496 160.073 211.951 162.043 211.951C163.179 211.951 164.058 212.551 164.438 213.423H164.482V209.358H166.621V219.927H164.512V218.579H164.475C164.094 219.443 163.186 220.051 162.029 220.051ZM162.754 213.665C161.677 213.665 161.018 214.565 161.018 216.001C161.018 217.444 161.677 218.33 162.754 218.33C163.816 218.33 164.497 217.437 164.497 216.001C164.497 214.573 163.816 213.665 162.754 213.665ZM168.049 219.927V212.075H170.115V213.489H170.159C170.437 212.493 171.104 211.951 172.026 211.951C172.275 211.951 172.488 211.987 172.634 212.031V213.914C172.458 213.84 172.166 213.789 171.858 213.789C170.803 213.789 170.188 214.434 170.188 215.54V219.927H168.049ZM176.355 218.506C177.285 218.506 178.054 217.898 178.054 217.048V216.477L176.399 216.58C175.601 216.638 175.146 216.997 175.146 217.554C175.146 218.14 175.63 218.506 176.355 218.506ZM175.652 220.051C174.158 220.051 173.022 219.084 173.022 217.671C173.022 216.243 174.121 215.415 176.077 215.298L178.054 215.181V214.661C178.054 213.928 177.542 213.503 176.736 213.503C175.938 213.503 175.432 213.899 175.33 214.478H173.374C173.455 212.954 174.751 211.907 176.831 211.907C178.845 211.907 180.156 212.947 180.156 214.529V219.927H178.091V218.726H178.047C177.607 219.561 176.633 220.051 175.652 220.051Z" fill="#E1715B"/>
<defs>
<clipPath id="clip0_484_3601">
<path d="M250 30.9268C250 14.3582 236.569 0.926758 220 0.926758H30C13.4315 0.926758 0 14.3582 0 30.9268V198.927H250V30.9268Z" fill="white"/>
</clipPath>
</defs>
</svg>
