<svg width="20" height="20" viewBox="0 0 20 20" fill="none" xmlns="http://www.w3.org/2000/svg">
<path d="M18.75 17.5C18.75 18.1904 18.1904 18.75 17.5 18.75H15C14.3096 18.75 13.75 18.1904 13.75 17.5V3.75C13.75 3.05964 14.3096 2.5 15 2.5H17.5C18.1904 2.5 18.75 3.05964 18.75 3.75V17.5ZM12.5 17.5C12.5 18.1904 11.9404 18.75 11.25 18.75H8.75C8.05964 18.75 7.5 18.1904 7.5 17.5V8.75C7.5 8.05964 8.05964 7.5 8.75 7.5H11.25C11.9404 7.5 12.5 8.05964 12.5 8.75V17.5ZM6.25 17.5C6.25 18.1904 5.69036 18.75 5 18.75H2.5C1.80964 18.75 1.25 18.1904 1.25 17.5V12.5C1.25 11.8096 1.80964 11.25 2.5 11.25H5C5.69036 11.25 6.25 11.8096 6.25 12.5V17.5Z" fill="#838383"/>
</svg>
