<svg width="22" height="16" viewBox="0 0 22 16" fill="none" xmlns="http://www.w3.org/2000/svg">
<path d="M4.8901 1.20065C7.6616 1.06265 9.8171 0.993652 11.3571 0.993652C12.8971 0.993652 15.0536 1.06265 17.8266 1.20115C18.5522 1.23737 19.2401 1.53569 19.7624 2.04071C20.2847 2.54574 20.606 3.22315 20.6666 3.94715C20.7936 5.46415 20.8571 6.80015 20.8571 7.95565C20.8571 9.12515 20.7921 10.4797 20.6621 12.0197C20.6017 12.7353 20.2866 13.4056 19.774 13.9087C19.2614 14.4118 18.5853 14.7143 17.8686 14.7612C15.4981 14.9162 13.3276 14.9937 11.3571 14.9937C9.3871 14.9937 7.2171 14.9162 4.8481 14.7612C4.13164 14.7143 3.45573 14.412 2.94315 13.9093C2.43057 13.4065 2.1153 12.7366 2.0546 12.0212C1.9231 10.4697 1.8571 9.11415 1.8571 7.95565C1.8571 6.81065 1.9216 5.47415 2.0496 3.94565C2.11044 3.22182 2.43183 2.54465 2.95412 2.03984C3.47641 1.53502 4.16412 1.23684 4.8896 1.20065H4.8901Z" stroke="#4D4D4D" stroke-width="2" stroke-linejoin="round"/>
<path d="M9.8581 5.79872V10.1967C9.85807 10.2742 9.87903 10.3502 9.91875 10.4167C9.95848 10.4832 10.0155 10.5376 10.0837 10.5743C10.1519 10.611 10.2288 10.6285 10.3062 10.6249C10.3835 10.6214 10.4585 10.597 10.5231 10.5542L13.8216 8.37422C13.8805 8.33535 13.929 8.28252 13.9626 8.22042C13.9962 8.15832 14.0139 8.08888 14.0142 8.01827C14.0145 7.94766 13.9974 7.87807 13.9643 7.81569C13.9312 7.75331 13.8832 7.70008 13.8246 7.66072L10.5256 5.44272C10.4611 5.39939 10.3861 5.37441 10.3085 5.37043C10.2309 5.36646 10.1537 5.38365 10.0852 5.42017C10.0166 5.45668 9.95926 5.51115 9.91927 5.57774C9.87927 5.64433 9.85813 5.72054 9.8581 5.79822V5.79872Z" stroke="#4D4D4D" stroke-width="2" stroke-linejoin="round"/>
</svg>
